<?xml version="1.0" encoding="UTF-8"?>
<svg id="Layer_2" data-name="Layer 2" xmlns="http://www.w3.org/2000/svg" viewBox="0 0 237.13 272.11">
  <defs>
    <style>
      .cls-1 {
        font-family: ComicSansMS, 'Comic Sans MS';
        font-size: 20.2px;
      }

      .cls-2 {
        fill: #91c19a;
      }

      .cls-2, .cls-3, .cls-4, .cls-5, .cls-6, .cls-7 {
        stroke-width: 0px;
      }

      .cls-3 {
        fill: #ddad9b;
      }

      .cls-4 {
        fill: #c392cc;
      }

      .cls-5 {
        fill: #c68b90;
      }

      .cls-6 {
        fill: #9cc;
      }

      .cls-7 {
        fill: #b0b0d9;
      }
    </style>
  </defs>
  <g id="Layer_1-2" data-name="Layer 1">
    <g>
      <path class="cls-7" d="M65.93,10.12c-.02-.61-.04-1.22-.05-1.83-.02-1.84.05-3.75.89-5.38,2.11-4.09,8.31-3.7,10.39.1,1.54,2.8,2.08,6.96,3.04,10.03,1.08,3.47,2.16,6.95,3.23,10.42,1.06,3.4,2.12,6.84,2.42,10.39.22,2.56.3,7.02-1.46,9.15-1.93,2.34-5.97,1.14-8.46-.02-1.71-.8-3.32-1.85-4.59-3.24-3.61-3.97-1.66-9.13-2.96-13.86-1.41-5.15-2.26-10.44-2.47-15.77Z"/>
      <path class="cls-4" d="M218.35,154.35c-.55-.43-1.08-.85-1.62-1.25-11.55-8.61-23.1-17.22-34.64-25.83-11.03-8.22-22.06-16.45-33.09-24.67-2.76-2.06-5.52-4.11-8.27-6.17-2.58-1.93-5.78-3.72-8-6.05-4.25-4.45-9.08-8.33-13.82-12.33-4.2-3.54-8.39-7.08-12.59-10.62-2.8-2.36-5.7-4.84-7.6-8.02s-1.59-6.65-.42-10.26c1.31-4.04,8.68-3.83,11.97-2.74,3.38,1.12,6.16,3.51,8.85,5.84,9.73,8.45,19.97,16.57,29.33,25.34,14.18,13.28,29.72,25.03,45.55,36.26,7.53,5.34,15.05,10.68,22.57,16.02,5.35,3.8,27.25,21.28,13.59,27.92-4.58,2.23-8.33-.72-11.79-3.45Z"/>
      <path class="cls-3" d="M41.54,117.21c16.93-1.09,33.86-2.18,50.8-3.26,5.99-.39,12.19-.76,17.91.51,5.72,1.27,10.87,4.62,10.97,8.68.09,3.9-4.53,7.29-9.88,8.79-5.35,1.5-11.33,1.51-17.12,1.5-15.39-.03-30.79-.05-46.18-.08-6.78-.01-15.19-.75-17.46-5.05-1.37-2.59.34-5.56,3.24-7.5,2.9-1.93,6.8-3.01,10.65-3.92"/>
      <path class="cls-2" d="M31.29,190.74c.19-1.32,1.06-2.45,1.69-3.58s1.74-2.09,2.91-2.65c1.83-.86,3.57-.45,5.49-.49,12.01-.23,24.03-.31,36.04-.46,12.01-.15,24.03-.31,36.04-.46s24.03-.31,36.04-.46c12.01-.15,24.03-.31,36.04-.46,12.01-.15,24.03-.31,36.04-.46,4.81-.06,9.25-.4,12.81,3.67,7.08,8.12-.96,15.03-8.93,17.21-5.17,1.41-10.61,1.31-15.97,1.2-47.12-.97-94.12-4.23-141.3-3.37-6.44.12-12.91.53-19.35.53-3.89.14-7.93.29-11.52-1.21-3.59-1.5-6.61-5.15-6.04-9Z"/>
      <path class="cls-6" d="M20.83,71.03c5.01,2.4,4.54,8.2,5.18,13.75,1.29,11.19.99,22.11-.4,33.33-1.44,11.56-2.51,23.18-3.21,34.83-1.39,23.3-1.3,46.72.29,70,.14,2.1.3,4.19.47,6.28.36,4.5.54,8.89.41,13.4-.1,3.41-2.74,5.44-5.55,6.12-2.43.58-4.98.1-7.31-.88-1.88-.79-3.64-1.91-5.36-3.06s-1.78-2.84-2.2-5.04C-1.3,216.63-.1,192.62,1.13,168.98c1.49-28.69,2.97-57.39,4.46-86.08.18-3.45.42-7.1,2.15-9.93,2.51-4.1,9.5-3.67,13.1-1.94Z"/>
      <path class="cls-5" d="M114.57,244.17c1.07.06,2.1.1,3.04.1,8.83-.09,17.66-.18,26.49-.27,19.75-.2,39.49-.41,59.24-.61,8.81-.09,31.42-1.05,30.83,13.58-.22,5.36-3.46,9.55-7.78,11.9-6.24,3.39-14.39,3.33-22.25,3.21-18.35-.29-36.7-.58-55.05-.86-9.48-.15-18.96-.3-28.44-.45-4.58-.07-9.15-.02-13.76-.22-4.53-.19-6.57-1.81-9.8-6.25-1.72-2.36-2.91-5.16-2.69-7.64.24-2.66,2.03-4.53,3.76-6.25,2.19-2.18,3.81-5.24,6.91-6.05,2.61-.69,6.24-.37,9.5-.18Z"/>
      <g>
        <text class="cls-1" transform="translate(7.78 18.5)"><tspan x="0" y="0">A</tspan></text>
        <text class="cls-1" transform="translate(37.66 18.5)"><tspan x="0" y="0">J</tspan></text>
        <text class="cls-1" transform="translate(67.54 18.5)"><tspan x="0" y="0">I</tspan></text>
        <text class="cls-1" transform="translate(97.42 18.5)"><tspan x="0" y="0">P</tspan></text>
        <text class="cls-1" transform="translate(127.3 18.5)"><tspan x="0" y="0">E</tspan></text>
        <text class="cls-1" transform="translate(157.18 18.5)"><tspan x="0" y="0">B</tspan></text>
        <text class="cls-1" transform="translate(187.06 18.5)"><tspan x="0" y="0">S</tspan></text>
        <text class="cls-1" transform="translate(216.95 18.5)"><tspan x="0" y="0">H</tspan></text>
      </g>
      <g>
        <text class="cls-1" transform="translate(8.15 41.23)"><tspan x="0" y="0">V</tspan></text>
        <text class="cls-1" transform="translate(38.03 41.23)"><tspan x="0" y="0">F</tspan></text>
        <text class="cls-1" transform="translate(67.91 41.23)"><tspan x="0" y="0">M</tspan></text>
        <text class="cls-1" transform="translate(97.79 41.23)"><tspan x="0" y="0">K</tspan></text>
        <text class="cls-1" transform="translate(127.67 41.23)"><tspan x="0" y="0">N</tspan></text>
        <text class="cls-1" transform="translate(157.55 41.23)"><tspan x="0" y="0">M</tspan></text>
        <text class="cls-1" transform="translate(187.43 41.23)"><tspan x="0" y="0">D</tspan></text>
        <text class="cls-1" transform="translate(217.31 41.23)"><tspan x="0" y="0">A</tspan></text>
      </g>
      <g>
        <text class="cls-1" transform="translate(8.97 63.53)"><tspan x="0" y="0">F</tspan></text>
        <text class="cls-1" transform="translate(38.85 63.53)"><tspan x="0" y="0">L</tspan></text>
        <text class="cls-1" transform="translate(68.73 63.53)"><tspan x="0" y="0">B</tspan></text>
        <text class="cls-1" transform="translate(98.61 63.53)"><tspan x="0" y="0">H</tspan></text>
        <text class="cls-1" transform="translate(128.49 63.53)"><tspan x="0" y="0">T</tspan></text>
        <text class="cls-1" transform="translate(158.38 63.53)"><tspan x="0" y="0">Q</tspan></text>
        <text class="cls-1" transform="translate(188.26 63.53)"><tspan x="0" y="0">G</tspan></text>
        <text class="cls-1" transform="translate(218.14 63.53)"><tspan x="0" y="0">V</tspan></text>
      </g>
      <g>
        <text class="cls-1" transform="translate(8.23 86.26)"><tspan x="0" y="0">M</tspan></text>
        <text class="cls-1" transform="translate(38.11 86.26)"><tspan x="0" y="0">R</tspan></text>
        <text class="cls-1" transform="translate(67.99 86.26)"><tspan x="0" y="0">Z</tspan></text>
        <text class="cls-1" transform="translate(97.87 86.26)"><tspan x="0" y="0">L</tspan></text>
        <text class="cls-1" transform="translate(127.75 86.26)"><tspan x="0" y="0">A</tspan></text>
        <text class="cls-1" transform="translate(157.63 86.26)"><tspan x="0" y="0">R</tspan></text>
        <text class="cls-1" transform="translate(187.51 86.26)"><tspan x="0" y="0">S</tspan></text>
        <text class="cls-1" transform="translate(217.39 86.26)"><tspan x="0" y="0">X</tspan></text>
      </g>
      <g>
        <text class="cls-1" transform="translate(8.53 108.14)"><tspan x="0" y="0">Y</tspan></text>
        <text class="cls-1" transform="translate(38.41 108.14)"><tspan x="0" y="0">V</tspan></text>
        <text class="cls-1" transform="translate(68.29 108.14)"><tspan x="0" y="0">I</tspan></text>
        <text class="cls-1" transform="translate(98.17 108.14)"><tspan x="0" y="0">T</tspan></text>
        <text class="cls-1" transform="translate(128.06 108.14)"><tspan x="0" y="0">E</tspan></text>
        <text class="cls-1" transform="translate(157.94 108.14)"><tspan x="0" y="0">P</tspan></text>
        <text class="cls-1" transform="translate(187.82 108.14)"><tspan x="0" y="0">V</tspan></text>
        <text class="cls-1" transform="translate(217.7 108.14)"><tspan x="0" y="0">Z</tspan></text>
      </g>
      <g>
        <text class="cls-1" transform="translate(7.78 131.29)"><tspan x="0" y="0">S</tspan></text>
        <text class="cls-1" transform="translate(37.66 131.29)"><tspan x="0" y="0">O</tspan></text>
        <text class="cls-1" transform="translate(67.54 131.29)"><tspan x="0" y="0">U</tspan></text>
        <text class="cls-1" transform="translate(97.42 131.29)"><tspan x="0" y="0">R</tspan></text>
        <text class="cls-1" transform="translate(127.3 131.29)"><tspan x="0" y="0">E</tspan></text>
        <text class="cls-1" transform="translate(157.18 131.29)"><tspan x="0" y="0">C</tspan></text>
        <text class="cls-1" transform="translate(187.06 131.29)"><tspan x="0" y="0">P</tspan></text>
        <text class="cls-1" transform="translate(216.95 131.29)"><tspan x="0" y="0">H</tspan></text>
      </g>
      <g>
        <text class="cls-1" transform="translate(6.12 153.18)"><tspan x="0" y="0">H</tspan></text>
        <text class="cls-1" transform="translate(39 153.18)"><tspan x="0" y="0">Q</tspan></text>
        <text class="cls-1" transform="translate(68.88 153.18)"><tspan x="0" y="0">O</tspan></text>
        <text class="cls-1" transform="translate(98.76 153.18)"><tspan x="0" y="0">K</tspan></text>
        <text class="cls-1" transform="translate(128.64 153.18)"><tspan x="0" y="0">J</tspan></text>
        <text class="cls-1" transform="translate(158.52 153.18)"><tspan x="0" y="0">B</tspan></text>
        <text class="cls-1" transform="translate(188.41 153.18)"><tspan x="0" y="0">C</tspan></text>
        <text class="cls-1" transform="translate(218.29 153.18)"><tspan x="0" y="0">Y</tspan></text>
      </g>
      <g>
        <text class="cls-1" transform="translate(5.78 175.9)"><tspan x="0" y="0">A</tspan></text>
        <text class="cls-1" transform="translate(37.66 175.9)"><tspan x="0" y="0">V</tspan></text>
        <text class="cls-1" transform="translate(67.54 175.9)"><tspan x="0" y="0">I</tspan></text>
        <text class="cls-1" transform="translate(97.42 175.9)"><tspan x="0" y="0">P</tspan></text>
        <text class="cls-1" transform="translate(127.3 175.9)"><tspan x="0" y="0">O</tspan></text>
        <text class="cls-1" transform="translate(157.18 175.9)"><tspan x="0" y="0">B</tspan></text>
        <text class="cls-1" transform="translate(187.06 175.9)"><tspan x="0" y="0">S</tspan></text>
        <text class="cls-1" transform="translate(216.95 175.9)"><tspan x="0" y="0">H</tspan></text>
      </g>
      <g>
        <text class="cls-1" transform="translate(8.25 198.63)"><tspan x="0" y="0">Y</tspan></text>
        <text class="cls-1" transform="translate(38.13 198.63)"><tspan x="0" y="0">C</tspan></text>
        <text class="cls-1" transform="translate(68.01 198.63)"><tspan x="0" y="0">R</tspan></text>
        <text class="cls-1" transform="translate(97.89 198.63)"><tspan x="0" y="0">O</tspan></text>
        <text class="cls-1" transform="translate(127.77 198.63)"><tspan x="0" y="0">S</tspan></text>
        <text class="cls-1" transform="translate(157.65 198.63)"><tspan x="0" y="0">S</tspan></text>
        <text class="cls-1" transform="translate(187.53 198.63)"><tspan x="0" y="0">E</tspan></text>
        <text class="cls-1" transform="translate(217.41 198.63)"><tspan x="0" y="0">D</tspan></text>
      </g>
      <g>
        <text class="cls-1" transform="translate(7.78 220.51)"><tspan x="0" y="0">L</tspan></text>
        <text class="cls-1" transform="translate(37.66 220.51)"><tspan x="0" y="0">V</tspan></text>
        <text class="cls-1" transform="translate(67.54 220.51)"><tspan x="0" y="0">S</tspan></text>
        <text class="cls-1" transform="translate(97.42 220.51)"><tspan x="0" y="0">P</tspan></text>
        <text class="cls-1" transform="translate(127.3 220.51)"><tspan x="0" y="0">E</tspan></text>
        <text class="cls-1" transform="translate(157.18 220.51)"><tspan x="0" y="0">C</tspan></text>
        <text class="cls-1" transform="translate(187.06 220.51)"><tspan x="0" y="0">S</tspan></text>
        <text class="cls-1" transform="translate(216.95 220.51)"><tspan x="0" y="0">F</tspan></text>
      </g>
      <g>
        <text class="cls-1" transform="translate(7.78 243.66)"><tspan x="0" y="0">A</tspan></text>
        <text class="cls-1" transform="translate(37.66 243.66)"><tspan x="0" y="0">U</tspan></text>
        <text class="cls-1" transform="translate(67.54 243.66)"><tspan x="0" y="0">I</tspan></text>
        <text class="cls-1" transform="translate(97.42 243.66)"><tspan x="0" y="0">K</tspan></text>
        <text class="cls-1" transform="translate(127.3 243.66)"><tspan x="0" y="0">F</tspan></text>
        <text class="cls-1" transform="translate(157.18 243.66)"><tspan x="0" y="0">R</tspan></text>
        <text class="cls-1" transform="translate(187.06 243.66)"><tspan x="0" y="0">O</tspan></text>
        <text class="cls-1" transform="translate(216.95 243.66)"><tspan x="0" y="0">A</tspan></text>
      </g>
      <g>
        <text class="cls-1" transform="translate(7.78 265.55)"><tspan x="0" y="0">V</tspan></text>
        <text class="cls-1" transform="translate(37.66 265.55)"><tspan x="0" y="0">Q</tspan></text>
        <text class="cls-1" transform="translate(67.54 265.55)"><tspan x="0" y="0">C</tspan></text>
        <text class="cls-1" transform="translate(97.42 265.55)"><tspan x="0" y="0">P</tspan></text>
        <text class="cls-1" transform="translate(127.3 265.55)"><tspan x="0" y="0">A</tspan></text>
        <text class="cls-1" transform="translate(157.18 265.55)"><tspan x="0" y="0">T</tspan></text>
        <text class="cls-1" transform="translate(187.06 265.55)"><tspan x="0" y="0">H</tspan></text>
        <text class="cls-1" transform="translate(216.95 265.55)"><tspan x="0" y="0">S</tspan></text>
      </g>
    </g>
  </g>
</svg>