<?xml version="1.0" encoding="UTF-8"?>
<svg id="Layer_2" data-name="Layer 2" xmlns="http://www.w3.org/2000/svg" viewBox="0 0 408.18 390.21">
  <defs>
    <style>
      .cls-1 {
        stroke-width: 0px;
      }

      .cls-1, .cls-2 {
        fill: #b42e2d;
      }

      .cls-2 {
        font-family: BerlinSansFBDemi-Bold, 'Berlin Sans FB Demi';
        font-size: 61.22px;
        font-weight: 700;
      }
    </style>
  </defs>
  <g id="Layer_1-2" data-name="Layer 1">
    <g>
      <text class="cls-2" transform="translate(21.37 377.73) rotate(-5.35) scale(.83 1)"><tspan x="0" y="0">zainab</tspan></text>
      <text class="cls-2" transform="translate(189.64 361.99) rotate(-5.35) scale(.83 1)"><tspan x="0" y="0">zainab</tspan></text>
      <path class="cls-1" d="M378.26,345.74c-.56.05-1.36.06-2.4.01-1.12-.04-1.92-.04-2.38-.02-1.08.06-2.79.2-5.14.42-2.71.25-4.63.47-5.75.66-.23.04-.8.15-1.72.34-.72.17-1.3.27-1.75.31-.3.03-.47-.21-.52-.7-.06-.5-.13-1.16-.19-1.99-.06-.98-.1-1.63-.14-1.97-.04-.38-.14-.93-.32-1.65-.18-.72-.28-1.25-.31-1.59-.02-.26.08-.53.3-.81,3.05-3.77,5.82-7.59,8.29-11.46-.38.04-.96.07-1.74.1-.78.03-1.37.07-1.77.1-.6.06-1.5.17-2.71.36-1.21.18-2.11.3-2.71.36-.28.03-.43-.08-.46-.32-.04-.46.09-1.81.39-4.08.31-2.26.41-3.93.31-5-.03-.34.24-.53.82-.59.05,0,1.05.03,2.99.11,1.61.05,3.77-.05,6.48-.31.89-.08,2.23-.23,4-.44,1.78-.21,3.11-.35,4-.43.54-.05.84.2.9.76l.6,6.43c.06.67-2.71,4.99-8.33,12.94,4.87-.46,8.16-.96,9.87-1.52.14-.05.25-.08.32-.09.23-.02.36.08.38.29-.03-.32-.23,1.28-.6,4.8-.03.96-.09,2.39-.2,4.28-.04.42-.22.65-.54.68Z"/>
      <path class="cls-1" d="M406.45,327.7c.14,1.53.43,3.79.86,6.79.43,3,.72,5.26.86,6.77.07.79-.18,1.25-.75,1.36-2.04.37-4.38.68-7.03.93-.32.03-.58-.52-.79-1.65-.21-1.13-.4-1.7-.55-1.71-.12.09-.28.28-.47.55-1.64,2.42-3.53,3.72-5.64,3.92-3.23.3-6.04-.98-8.45-3.83-2.27-2.67-3.59-5.99-3.96-9.96-.43-4.58.26-8.37,2.07-11.36,1.88-3.1,4.69-4.82,8.43-5.17,2.6-.24,4.75.66,6.46,2.7.08.09.14.14.19.13.15-.01.27-.51.38-1.49.1-.98.28-1.48.55-1.51.61-.06,1.8.04,3.56.3,1.68.24,2.88.47,3.62.68.26.1.4.24.42.44,0,.08,0,.29-.02.63-.19,3.64-.1,7.47.27,11.47ZM398.47,328.62c-.16-1.69-.73-3.04-1.72-4.06s-2.19-1.46-3.62-1.33c-1.42.13-2.52.79-3.3,1.96-.78,1.17-1.08,2.61-.92,4.32.15,1.61.74,2.94,1.78,4.01,1.03,1.06,2.21,1.53,3.54,1.41,1.41-.13,2.5-.79,3.29-1.97.79-1.18,1.11-2.63.95-4.34Z"/>
      <text class="cls-2" transform="translate(17.68 316.81) rotate(-5.35) scale(.83 1)"><tspan x="0" y="0">zainab</tspan></text>
      <text class="cls-2" transform="translate(185.95 301.07) rotate(-5.35) scale(.83 1)"><tspan x="0" y="0">zainab</tspan></text>
      <path class="cls-1" d="M374.57,284.82c-.56.05-1.36.06-2.4.01-1.12-.04-1.92-.04-2.38-.02-1.08.06-2.79.2-5.14.42-2.71.25-4.63.47-5.75.66-.23.04-.8.16-1.72.34-.72.17-1.3.27-1.75.31-.3.03-.47-.21-.52-.7-.06-.49-.13-1.16-.19-1.99-.06-.97-.1-1.63-.13-1.97-.04-.38-.14-.93-.32-1.65-.18-.72-.28-1.25-.31-1.59-.02-.26.08-.53.3-.81,3.05-3.77,5.82-7.59,8.29-11.46-.38.04-.96.07-1.74.1s-1.37.07-1.77.11c-.6.06-1.5.18-2.71.36-1.21.18-2.11.3-2.71.36-.28.03-.43-.08-.46-.32-.04-.46.09-1.81.39-4.08.31-2.26.41-3.93.31-5-.03-.34.24-.53.82-.59.05,0,1.05.03,2.99.11,1.61.05,3.77-.05,6.48-.31.89-.08,2.23-.23,4-.43,1.78-.21,3.11-.35,4-.43.54-.05.84.2.9.76l.6,6.43c.06.67-2.71,4.99-8.33,12.94,4.87-.46,8.16-.96,9.87-1.52.14-.05.25-.08.32-.09.23-.02.36.08.38.29-.03-.32-.23,1.28-.6,4.8-.03.96-.09,2.39-.2,4.28-.04.42-.22.65-.54.68Z"/>
      <path class="cls-1" d="M402.76,266.78c.14,1.53.43,3.79.86,6.79s.72,5.26.86,6.77c.07.79-.18,1.25-.75,1.36-2.04.37-4.38.68-7.03.93-.31.03-.58-.52-.79-1.65-.21-1.13-.4-1.7-.55-1.71-.12.09-.28.28-.47.55-1.64,2.42-3.53,3.72-5.64,3.92-3.23.3-6.04-.98-8.45-3.83-2.27-2.67-3.59-5.99-3.96-9.96-.43-4.58.26-8.37,2.07-11.36,1.88-3.1,4.69-4.82,8.43-5.17,2.6-.24,4.75.66,6.46,2.7.07.09.14.14.19.13.15-.01.28-.51.38-1.49.1-.98.28-1.48.55-1.51.61-.06,1.8.04,3.56.3,1.68.24,2.88.47,3.62.68.26.1.4.24.42.44,0,.08,0,.29-.02.63-.19,3.64-.1,7.46.27,11.47ZM394.78,267.7c-.16-1.69-.73-3.04-1.72-4.06-.99-1.02-2.2-1.46-3.62-1.33-1.42.13-2.52.79-3.3,1.96s-1.08,2.61-.92,4.32c.15,1.61.74,2.94,1.78,4.01,1.03,1.06,2.21,1.53,3.54,1.41,1.41-.13,2.51-.79,3.29-1.97.79-1.18,1.11-2.63.95-4.34Z"/>
      <text class="cls-2" transform="translate(13.9 254.9) rotate(-5.35) scale(.83 1)"><tspan x="0" y="0">zainab</tspan></text>
      <text class="cls-2" transform="translate(182.16 239.15) rotate(-5.35) scale(.83 1)"><tspan x="0" y="0">zainab</tspan></text>
      <path class="cls-1" d="M370.79,222.9c-.56.05-1.36.06-2.4.01-1.12-.04-1.92-.04-2.38-.02-1.08.06-2.79.2-5.14.42-2.71.25-4.63.47-5.75.66-.23.04-.8.15-1.72.34-.72.17-1.3.27-1.75.31-.3.03-.47-.21-.52-.7-.06-.5-.13-1.16-.19-1.99-.06-.98-.1-1.63-.14-1.97-.04-.38-.14-.93-.32-1.65-.18-.72-.28-1.25-.31-1.59-.02-.26.08-.53.3-.81,3.05-3.77,5.82-7.59,8.29-11.46-.38.04-.96.07-1.74.1-.78.03-1.37.07-1.77.11-.6.06-1.5.17-2.71.36-1.21.18-2.11.3-2.71.36-.28.03-.43-.08-.46-.32-.04-.46.09-1.81.39-4.08.31-2.26.41-3.93.31-5-.03-.34.24-.53.82-.59.05,0,1.05.03,2.99.11,1.61.05,3.77-.05,6.48-.31.89-.08,2.23-.23,4-.43,1.78-.21,3.11-.35,4-.43.54-.05.84.2.9.76l.6,6.43c.06.68-2.71,4.99-8.33,12.94,4.87-.46,8.16-.96,9.87-1.53.14-.05.25-.08.32-.09.23-.02.36.08.38.29-.03-.32-.23,1.28-.6,4.8-.03.96-.09,2.39-.2,4.28-.04.43-.22.65-.54.68Z"/>
      <path class="cls-1" d="M398.97,204.86c.14,1.53.43,3.79.86,6.79s.72,5.26.86,6.77c.07.79-.18,1.25-.75,1.36-2.04.37-4.38.68-7.03.93-.32.03-.58-.52-.79-1.65-.21-1.13-.4-1.7-.55-1.71-.12.09-.28.28-.47.55-1.64,2.42-3.53,3.72-5.64,3.92-3.23.3-6.04-.98-8.45-3.83-2.27-2.67-3.59-5.99-3.96-9.96-.43-4.58.26-8.37,2.07-11.36,1.88-3.1,4.69-4.82,8.43-5.17,2.6-.24,4.75.66,6.46,2.7.08.09.14.14.19.13.15-.01.27-.51.38-1.49.1-.98.28-1.48.55-1.51.61-.06,1.8.04,3.56.3,1.68.24,2.88.47,3.62.68.26.1.4.24.42.44,0,.08,0,.29-.02.63-.19,3.64-.1,7.47.27,11.47ZM391,205.79c-.16-1.69-.73-3.04-1.72-4.06-.99-1.02-2.19-1.46-3.62-1.33-1.42.13-2.52.79-3.3,1.96-.78,1.17-1.08,2.61-.92,4.32.15,1.61.74,2.94,1.78,4.01,1.03,1.06,2.21,1.53,3.54,1.41,1.41-.13,2.5-.79,3.29-1.97.79-1.19,1.11-2.63.95-4.34Z"/>
      <g>
        <path class="cls-1" d="M31.38,191.38c-.56.05-1.36.06-2.4.01-1.12-.04-1.92-.04-2.38-.02-1.08.06-2.79.2-5.14.42-2.71.25-4.63.47-5.75.66-.23.04-.8.16-1.72.34-.72.17-1.3.27-1.75.31-.3.03-.47-.21-.52-.7-.06-.49-.13-1.16-.19-1.99-.06-.97-.1-1.63-.14-1.97-.04-.38-.14-.93-.32-1.65-.18-.72-.28-1.25-.31-1.59-.02-.26.08-.53.3-.81,3.05-3.77,5.82-7.59,8.29-11.46-.38.04-.96.07-1.74.1-.78.03-1.37.07-1.77.11-.6.06-1.5.18-2.71.36-1.21.18-2.11.3-2.71.36-.28.03-.43-.08-.46-.32-.04-.46.09-1.81.39-4.08.31-2.26.41-3.93.31-5-.03-.34.24-.53.82-.59.05,0,1.05.03,2.99.11,1.61.05,3.77-.05,6.48-.31.89-.08,2.23-.23,4-.43,1.78-.21,3.11-.35,4-.43.54-.05.84.2.9.76l.6,6.43c.06.67-2.71,4.99-8.33,12.94,4.87-.46,8.16-.96,9.87-1.52.14-.05.25-.08.32-.09.23-.02.36.08.38.29-.03-.32-.23,1.28-.6,4.8-.03.96-.09,2.39-.2,4.28-.04.42-.22.65-.54.68Z"/>
        <path class="cls-1" d="M59.56,173.34c.14,1.53.43,3.79.86,6.79s.72,5.26.86,6.77c.07.79-.18,1.25-.75,1.36-2.04.37-4.38.68-7.03.93-.32.03-.58-.52-.79-1.65-.21-1.13-.4-1.7-.55-1.71-.12.09-.28.28-.47.55-1.64,2.42-3.53,3.72-5.64,3.92-3.23.3-6.04-.98-8.45-3.83-2.27-2.67-3.59-5.99-3.96-9.96-.43-4.58.26-8.37,2.07-11.36,1.88-3.1,4.69-4.82,8.43-5.17,2.6-.24,4.75.66,6.46,2.7.08.09.14.14.19.13.15-.01.27-.51.38-1.49.1-.98.28-1.48.55-1.51.61-.06,1.8.04,3.56.3,1.68.24,2.88.47,3.62.68.26.1.4.24.42.44,0,.08,0,.29-.02.63-.19,3.64-.1,7.46.27,11.47ZM51.58,174.27c-.16-1.69-.73-3.04-1.72-4.06-.99-1.02-2.19-1.46-3.62-1.33-1.42.13-2.52.79-3.3,1.96-.78,1.17-1.08,2.61-.92,4.32.15,1.61.74,2.94,1.78,4.01,1.03,1.06,2.21,1.53,3.54,1.41,1.41-.13,2.5-.79,3.29-1.97.79-1.18,1.11-2.63.95-4.34Z"/>
        <path class="cls-1" d="M72.38,151.07c.32,3.45-1.14,5.33-4.38,5.63-1.39.13-2.58-.2-3.57-.99-1.08-.86-1.7-2.1-1.85-3.73-.14-1.55.25-2.87,1.18-3.95.86-1,1.95-1.56,3.27-1.69,1.29-.12,2.45.24,3.48,1.08,1.1.9,1.73,2.11,1.87,3.64ZM73.8,173.24c.13,1.45.36,3.6.68,6.47.32,2.86.54,5.01.68,6.44.04.42-.14.68-.55.8-.55.17-1.81.35-3.78.54-1.99.19-3.27.24-3.84.18-.37-.04-.61-.15-.71-.32-.04-.08-.08-.37-.13-.89-.13-1.37-.29-3.43-.5-6.18s-.38-4.82-.51-6.21c-.53-5.63-1.13-10.1-1.8-13.4-.06-.31-.1-.52-.11-.62-.04-.4.17-.62.61-.66.46-.04,1.18-.05,2.14-.02.96.03,1.68.02,2.16-.02s1.19-.16,2.15-.35c.95-.19,1.67-.31,2.15-.35.4-.04.61.14.65.54,0,.08,0,.27,0,.57,0,3.9.24,8.4.71,13.5Z"/>
        <path class="cls-1" d="M104.46,183.28c.05.54-.15.87-.61.99-.46.12-1.66.28-3.61.46-2.08.2-3.38.26-3.89.18-.51-.07-.79-.46-.86-1.15-.09-.93-.2-2.34-.32-4.23-.13-1.89-.23-3.31-.32-4.26-.07-.73-.19-1.83-.36-3.28-.17-1.46-.29-2.55-.36-3.28-.25-2.72-1.37-3.99-3.33-3.8-.65.06-1.37.47-2.17,1.22-.86.84-1.25,1.63-1.18,2.36l1.5,16.07c.06.66-.16,1.05-.67,1.17-.57.13-1.75.28-3.54.45-1.94.18-3.2.24-3.79.17-.52-.05-.81-.35-.86-.91-.14-1.55-.35-3.88-.63-7-.28-3.12-.49-5.46-.63-7.03-.46-4.94-1.15-8.79-2.06-11.55-.05-.17-.08-.32-.09-.44-.03-.32.07-.55.31-.69,1.03-.24,2.4-.58,4.11-1.04,2.57-.86,4.03-1.31,4.36-1.34.18-.02.38.64.61,1.97.23,1.33.43,1.99.61,1.97-.18.02.64-.75,2.47-2.32,1.83-1.56,3.48-2.41,4.96-2.55,2.1-.2,3.91.23,5.43,1.29,1.7,1.22,2.67,3.05,2.89,5.49l.89,9.49c.12,1.29.31,3.22.57,5.79.26,2.57.45,4.5.57,5.79Z"/>
        <path class="cls-1" d="M132.25,166.54c.14,1.53.43,3.79.86,6.79s.72,5.26.86,6.77c.07.79-.18,1.25-.75,1.36-2.04.37-4.38.68-7.03.93-.32.03-.58-.52-.79-1.65-.21-1.13-.4-1.7-.55-1.71-.12.09-.28.28-.47.55-1.64,2.42-3.53,3.72-5.64,3.92-3.23.3-6.04-.98-8.45-3.83-2.27-2.67-3.59-5.99-3.96-9.96-.43-4.58.26-8.37,2.07-11.36,1.88-3.1,4.69-4.82,8.43-5.17,2.6-.24,4.75.66,6.46,2.7.08.09.14.14.19.13.15-.01.27-.51.38-1.49.1-.98.28-1.48.55-1.51.61-.06,1.8.04,3.56.3,1.68.24,2.88.47,3.62.68.26.1.4.24.42.44,0,.08,0,.29-.02.63-.19,3.64-.1,7.46.27,11.47ZM124.27,167.47c-.16-1.69-.73-3.04-1.72-4.06-.99-1.02-2.19-1.46-3.62-1.33-1.42.13-2.52.79-3.3,1.96-.78,1.17-1.08,2.61-.92,4.32.15,1.61.74,2.94,1.78,4.01,1.03,1.06,2.21,1.53,3.54,1.41,1.41-.13,2.5-.79,3.29-1.97.79-1.18,1.11-2.63.95-4.34Z"/>
        <path class="cls-1" d="M164.12,163.89c.39,4.17-.28,7.74-2,10.73-1.84,3.17-4.46,4.92-7.87,5.24-2.48.23-4.57-.43-6.25-2-.13-.11-.23-.16-.31-.15-.17.02-.28.4-.36,1.15s-.2,1.17-.39,1.27c-.27.12-2.63.39-7.06.81-1.04.1-1.59-.08-1.63-.54,0-.06,0-.21,0-.45.04-3.19-.36-9.21-1.19-18.08-.79-8.47-1.73-15.82-2.81-22.04l-.05-.33c-.03-.32.21-.52.72-.61.36-.05,1.79-.34,4.28-.85,1.75-.36,3.18-.6,4.29-.7.31-.03.5.28.56.94.07.77.13,1.8.16,3.08.05,1.58.09,2.61.12,3.11.1,1.97.31,4.65.63,8.05.06.62.22.91.48.89.13-.01.25-.1.35-.27,1.31-2.04,3.17-3.18,5.59-3.41,3.62-.34,6.59.87,8.91,3.64,2.14,2.56,3.42,6.08,3.84,10.54ZM155.11,164.4c-.15-1.65-.71-3-1.66-4.06-.95-1.06-2.1-1.53-3.46-1.4-1.39.13-2.43.8-3.13,2.02s-.96,2.67-.81,4.35c.16,1.75.68,3.12,1.56,4.12.93,1.05,2.11,1.51,3.54,1.38,1.41-.13,2.47-.82,3.19-2.07.67-1.16.93-2.61.77-4.33Z"/>
      </g>
      <g>
        <path class="cls-1" d="M199.64,175.64c-.56.05-1.36.06-2.4.01-1.12-.04-1.92-.04-2.38-.02-1.08.06-2.79.2-5.14.42-2.71.25-4.63.47-5.75.66-.23.04-.8.15-1.72.34-.72.17-1.3.27-1.75.31-.3.03-.47-.21-.52-.7-.06-.5-.13-1.16-.19-1.99-.06-.98-.1-1.63-.14-1.97-.04-.38-.14-.93-.32-1.65-.18-.72-.28-1.25-.31-1.59-.02-.26.08-.53.3-.81,3.05-3.77,5.82-7.59,8.29-11.46-.38.04-.96.07-1.74.1-.78.03-1.37.07-1.77.1-.6.06-1.5.17-2.71.36-1.21.18-2.11.3-2.71.36-.28.03-.43-.08-.46-.32-.04-.46.09-1.81.39-4.08.31-2.26.41-3.93.31-5-.03-.34.24-.53.82-.59.05,0,1.05.03,2.99.11,1.61.05,3.77-.05,6.48-.31.89-.08,2.23-.23,4-.44,1.78-.21,3.11-.35,4-.43.54-.05.84.2.9.76l.6,6.43c.06.67-2.71,4.99-8.33,12.94,4.87-.46,8.16-.96,9.87-1.52.14-.05.25-.08.32-.09.23-.02.36.08.38.29-.03-.32-.23,1.28-.6,4.8-.03.96-.09,2.39-.2,4.28-.04.42-.22.65-.54.68Z"/>
        <path class="cls-1" d="M227.83,157.6c.14,1.53.43,3.79.86,6.79.43,3,.72,5.26.86,6.77.07.79-.18,1.25-.75,1.36-2.04.37-4.38.68-7.03.93-.32.03-.58-.52-.79-1.65-.21-1.13-.4-1.7-.55-1.71-.12.09-.28.28-.47.55-1.64,2.42-3.53,3.72-5.64,3.92-3.23.3-6.04-.98-8.45-3.83-2.27-2.67-3.59-5.99-3.96-9.96-.43-4.58.26-8.37,2.07-11.36,1.88-3.1,4.69-4.82,8.43-5.17,2.6-.24,4.75.66,6.46,2.7.08.09.14.14.19.13.15-.01.27-.51.38-1.49.1-.98.28-1.48.55-1.51.61-.06,1.8.04,3.56.3,1.68.24,2.88.47,3.62.68.26.1.4.24.42.44,0,.08,0,.29-.02.63-.19,3.64-.1,7.47.27,11.47ZM219.85,158.53c-.16-1.69-.73-3.04-1.72-4.06s-2.19-1.46-3.62-1.33c-1.42.13-2.52.79-3.3,1.96-.78,1.17-1.08,2.61-.92,4.32.15,1.61.74,2.94,1.78,4.01,1.03,1.06,2.21,1.53,3.54,1.41,1.41-.13,2.5-.79,3.29-1.97.79-1.18,1.11-2.63.95-4.34Z"/>
        <path class="cls-1" d="M240.64,135.32c.32,3.45-1.14,5.33-4.38,5.63-1.39.13-2.58-.2-3.57-.99-1.08-.86-1.7-2.1-1.85-3.73-.14-1.55.25-2.87,1.18-3.95.86-1,1.95-1.56,3.27-1.69,1.29-.12,2.45.24,3.48,1.09,1.1.9,1.73,2.11,1.87,3.64ZM242.07,157.5c.13,1.45.36,3.6.68,6.47.32,2.86.54,5.01.68,6.44.04.42-.14.68-.55.8-.55.17-1.81.35-3.78.53-1.99.19-3.27.25-3.84.18-.37-.04-.61-.15-.71-.32-.04-.08-.08-.37-.13-.89-.13-1.37-.29-3.43-.5-6.18s-.38-4.82-.51-6.21c-.53-5.63-1.13-10.1-1.8-13.4-.06-.31-.1-.52-.11-.62-.04-.4.17-.62.61-.66.46-.04,1.18-.05,2.14-.02s1.68.02,2.16-.02,1.19-.16,2.15-.35c.95-.19,1.67-.31,2.15-.35.4-.04.61.14.65.54,0,.08,0,.27,0,.57,0,3.9.24,8.4.71,13.5Z"/>
        <path class="cls-1" d="M272.73,167.54c.05.54-.15.87-.61.99s-1.66.28-3.61.46c-2.08.2-3.38.26-3.89.18-.51-.07-.79-.46-.86-1.15-.09-.93-.2-2.34-.32-4.23-.13-1.89-.23-3.31-.32-4.26-.07-.73-.19-1.83-.36-3.28-.17-1.46-.29-2.55-.36-3.28-.25-2.72-1.37-3.99-3.33-3.8-.65.06-1.37.47-2.17,1.22-.86.84-1.25,1.63-1.18,2.36l1.5,16.07c.06.66-.16,1.05-.67,1.17-.57.13-1.75.28-3.54.45-1.94.18-3.2.24-3.79.17-.52-.05-.81-.35-.86-.91-.14-1.55-.35-3.88-.63-7-.28-3.12-.49-5.46-.63-7.03-.46-4.94-1.15-8.79-2.06-11.55-.05-.18-.08-.32-.09-.44-.03-.32.07-.55.31-.69,1.03-.24,2.4-.58,4.11-1.04,2.57-.86,4.03-1.31,4.36-1.34.18-.02.38.64.61,1.97.23,1.33.43,1.99.61,1.97-.18.02.64-.75,2.47-2.32,1.83-1.56,3.48-2.41,4.96-2.55,2.1-.2,3.91.24,5.43,1.29,1.7,1.22,2.67,3.05,2.89,5.49l.89,9.49c.12,1.29.31,3.22.57,5.79s.45,4.5.57,5.79Z"/>
        <path class="cls-1" d="M300.51,150.8c.14,1.53.43,3.79.86,6.79.43,3,.72,5.26.86,6.77.07.79-.18,1.25-.75,1.36-2.04.37-4.38.68-7.03.93-.32.03-.58-.52-.79-1.65-.21-1.13-.4-1.7-.55-1.71-.12.09-.28.28-.47.55-1.64,2.42-3.53,3.72-5.64,3.92-3.23.3-6.04-.98-8.45-3.83-2.27-2.67-3.59-5.99-3.96-9.96-.43-4.58.26-8.37,2.07-11.36,1.88-3.1,4.69-4.82,8.43-5.17,2.6-.24,4.75.66,6.46,2.7.08.09.14.14.19.13.15-.01.27-.51.38-1.49.1-.98.28-1.48.55-1.51.61-.06,1.8.04,3.56.3,1.68.24,2.88.47,3.62.68.26.1.4.24.42.44,0,.08,0,.29-.02.63-.19,3.64-.1,7.47.27,11.47ZM292.54,151.72c-.16-1.69-.73-3.04-1.72-4.06s-2.19-1.46-3.62-1.33c-1.42.13-2.52.79-3.3,1.96-.78,1.17-1.08,2.61-.92,4.32.15,1.61.74,2.94,1.78,4.01s2.21,1.53,3.54,1.41c1.41-.13,2.5-.79,3.29-1.97.79-1.18,1.11-2.63.95-4.34Z"/>
        <path class="cls-1" d="M332.39,148.15c.39,4.17-.28,7.74-2,10.72-1.84,3.17-4.46,4.92-7.87,5.24-2.48.23-4.57-.43-6.25-2-.13-.11-.23-.16-.31-.15-.17.02-.28.4-.36,1.14-.07.75-.2,1.17-.39,1.27-.27.12-2.63.4-7.06.81-1.04.1-1.59-.08-1.63-.54,0-.06,0-.21,0-.45.04-3.19-.36-9.21-1.19-18.08-.79-8.47-1.73-15.82-2.81-22.04l-.05-.33c-.03-.32.21-.52.72-.61.36-.05,1.79-.34,4.28-.85,1.75-.36,3.18-.6,4.29-.7.31-.03.5.28.56.94.07.77.13,1.8.16,3.08.05,1.58.09,2.61.12,3.11.1,1.97.31,4.66.63,8.05.06.62.22.91.48.88.13-.01.25-.1.35-.27,1.31-2.04,3.17-3.18,5.59-3.4,3.62-.34,6.59.87,8.91,3.64,2.14,2.56,3.42,6.07,3.84,10.54ZM323.37,148.66c-.15-1.65-.71-3-1.66-4.06-.95-1.06-2.1-1.53-3.46-1.4-1.39.13-2.43.8-3.13,2.02-.7,1.22-.96,2.67-.81,4.35.16,1.75.68,3.12,1.56,4.12.93,1.05,2.11,1.51,3.54,1.38,1.41-.13,2.47-.82,3.19-2.07.67-1.16.93-2.61.77-4.33Z"/>
      </g>
      <path class="cls-1" d="M367,160.98c-.56.05-1.36.06-2.4.01-1.12-.04-1.92-.04-2.38-.02-1.08.06-2.79.2-5.14.42-2.71.25-4.63.47-5.75.66-.23.04-.8.15-1.72.34-.72.17-1.3.27-1.75.31-.3.03-.47-.21-.52-.7-.06-.5-.13-1.16-.19-1.99-.06-.98-.1-1.63-.14-1.97-.04-.38-.14-.93-.32-1.65-.18-.72-.28-1.25-.31-1.59-.02-.26.08-.53.3-.81,3.05-3.77,5.82-7.59,8.29-11.46-.38.04-.96.07-1.74.1-.78.03-1.37.07-1.77.1-.6.06-1.5.17-2.71.36-1.21.18-2.11.3-2.71.36-.28.03-.43-.08-.46-.32-.04-.46.09-1.81.39-4.08.31-2.26.41-3.93.31-5-.03-.34.24-.53.82-.59.05,0,1.05.03,2.99.11,1.61.05,3.77-.05,6.48-.31.89-.08,2.23-.23,4-.44,1.78-.21,3.11-.35,4-.43.54-.05.84.2.9.76l.6,6.43c.06.67-2.71,4.99-8.33,12.94,4.87-.46,8.16-.96,9.87-1.52.14-.05.25-.08.32-.09.23-.02.36.08.38.29-.03-.32-.23,1.28-.6,4.8-.03.96-.09,2.39-.2,4.28-.04.42-.22.65-.54.68Z"/>
      <path class="cls-1" d="M395.19,142.94c.14,1.53.43,3.79.86,6.79.43,3,.72,5.26.86,6.77.07.79-.18,1.25-.75,1.36-2.04.37-4.38.68-7.03.93-.32.03-.58-.52-.79-1.65-.21-1.13-.4-1.7-.55-1.71-.12.09-.28.28-.47.55-1.64,2.42-3.53,3.72-5.64,3.92-3.23.3-6.04-.98-8.45-3.83-2.27-2.67-3.59-5.99-3.96-9.96-.43-4.58.26-8.37,2.07-11.36,1.88-3.1,4.69-4.82,8.43-5.17,2.6-.24,4.75.66,6.46,2.7.08.09.14.14.19.13.15-.01.27-.51.38-1.49.1-.98.28-1.48.55-1.51.61-.06,1.8.04,3.56.3,1.68.24,2.88.47,3.62.68.26.1.4.24.42.44,0,.08,0,.29-.02.63-.19,3.64-.1,7.47.27,11.47ZM387.21,143.87c-.16-1.69-.73-3.04-1.72-4.06s-2.19-1.46-3.62-1.33c-1.42.13-2.52.79-3.3,1.96-.78,1.17-1.08,2.61-.92,4.32.15,1.61.74,2.94,1.78,4.01,1.03,1.06,2.21,1.53,3.54,1.41,1.41-.13,2.5-.79,3.29-1.97.79-1.18,1.11-2.63.95-4.34Z"/>
      <text class="cls-2" transform="translate(4.8 136.23) rotate(-5.35) scale(.83 1)"><tspan x="0" y="0">zainab</tspan></text>
      <text class="cls-2" transform="translate(173.07 120.48) rotate(-5.35) scale(.83 1)"><tspan x="0" y="0">zainab</tspan></text>
      <path class="cls-1" d="M361.69,104.23c-.56.05-1.36.06-2.4.01-1.12-.04-1.92-.04-2.38-.02-1.08.06-2.79.2-5.14.42-2.71.25-4.63.47-5.75.66-.23.04-.8.16-1.72.34-.72.17-1.3.27-1.75.31-.3.03-.47-.21-.52-.7-.06-.49-.13-1.16-.19-1.99-.06-.97-.1-1.63-.14-1.97-.04-.38-.14-.93-.32-1.65-.18-.72-.28-1.25-.31-1.59-.02-.26.08-.53.3-.81,3.05-3.77,5.82-7.59,8.29-11.46-.38.04-.96.07-1.74.1-.78.03-1.37.07-1.77.1-.6.06-1.5.18-2.71.36-1.21.18-2.11.3-2.71.36-.28.03-.43-.08-.46-.32-.04-.46.09-1.81.39-4.08.31-2.26.41-3.93.31-5-.03-.34.24-.53.82-.59.05,0,1.05.03,2.99.11,1.61.05,3.77-.05,6.48-.31.89-.08,2.23-.23,4-.44,1.78-.21,3.11-.35,4-.43.54-.05.84.2.9.76l.6,6.43c.06.67-2.71,4.99-8.33,12.94,4.87-.46,8.16-.96,9.87-1.52.14-.05.25-.08.32-.09.23-.02.36.08.38.29-.03-.32-.23,1.28-.6,4.8-.03.96-.09,2.39-.2,4.28-.04.42-.22.65-.54.68Z"/>
      <path class="cls-1" d="M389.88,86.19c.14,1.53.43,3.79.86,6.79.43,3,.72,5.26.86,6.77.07.79-.18,1.25-.75,1.36-2.04.37-4.38.68-7.03.93-.32.03-.58-.52-.79-1.65-.21-1.13-.4-1.7-.55-1.71-.12.09-.28.28-.47.55-1.64,2.42-3.53,3.72-5.64,3.92-3.23.3-6.04-.97-8.45-3.83-2.27-2.67-3.59-5.99-3.96-9.96-.43-4.58.26-8.37,2.07-11.36,1.88-3.1,4.69-4.82,8.43-5.17,2.6-.24,4.75.66,6.46,2.7.08.09.14.14.19.13.15-.01.27-.51.38-1.49.1-.98.28-1.48.55-1.51.61-.06,1.8.04,3.56.3,1.68.24,2.88.47,3.62.68.26.1.4.24.42.44,0,.08,0,.29-.02.63-.19,3.64-.1,7.46.27,11.47ZM381.9,87.12c-.16-1.69-.73-3.04-1.72-4.06-.99-1.02-2.19-1.46-3.62-1.33-1.42.13-2.52.79-3.3,1.96-.78,1.17-1.08,2.61-.92,4.32.15,1.61.74,2.94,1.78,4.01s2.21,1.54,3.54,1.41c1.41-.13,2.5-.79,3.29-1.97.79-1.18,1.11-2.63.95-4.34Z"/>
      <text class="cls-2" transform="translate(7.74 81.72) rotate(-5.35) scale(.83 1)"><tspan x="0" y="0">zainab</tspan></text>
      <text class="cls-2" transform="translate(176 65.97) rotate(-5.35) scale(.83 1)"><tspan x="0" y="0">zainab</tspan></text>
      <path class="cls-1" d="M364.63,49.72c-.56.05-1.36.06-2.4.01-1.12-.04-1.92-.04-2.38-.02-1.08.06-2.79.2-5.14.42-2.71.25-4.63.47-5.75.66-.23.04-.8.16-1.72.34-.72.17-1.3.27-1.75.31-.3.03-.47-.21-.52-.7-.06-.49-.13-1.16-.19-1.99-.06-.97-.1-1.63-.14-1.97-.04-.38-.14-.93-.32-1.65-.18-.72-.28-1.25-.31-1.59-.02-.26.08-.53.3-.81,3.05-3.77,5.82-7.59,8.29-11.46-.38.04-.96.07-1.74.1-.78.03-1.37.07-1.77.11-.6.06-1.5.18-2.71.36-1.21.18-2.11.3-2.71.36-.28.03-.43-.08-.46-.32-.04-.46.09-1.81.39-4.08.31-2.26.41-3.93.31-5-.03-.34.24-.53.82-.59.05,0,1.05.03,2.99.11,1.61.05,3.77-.05,6.48-.31.89-.08,2.23-.23,4-.43,1.78-.21,3.11-.35,4-.43.54-.05.84.2.9.76l.6,6.43c.06.67-2.71,4.99-8.33,12.94,4.87-.46,8.16-.96,9.87-1.52.14-.05.25-.08.32-.09.23-.02.36.08.38.29-.03-.32-.23,1.28-.6,4.8-.03.96-.09,2.39-.2,4.28-.04.42-.22.65-.54.68Z"/>
      <path class="cls-1" d="M392.81,31.68c.14,1.53.43,3.79.86,6.79s.72,5.26.86,6.77c.07.79-.18,1.25-.75,1.36-2.04.37-4.38.68-7.03.93-.32.03-.58-.52-.79-1.65-.21-1.13-.4-1.7-.55-1.71-.12.09-.28.28-.47.55-1.64,2.42-3.53,3.72-5.64,3.92-3.23.3-6.04-.98-8.45-3.83-2.27-2.67-3.59-5.99-3.96-9.96-.43-4.58.26-8.37,2.07-11.36,1.88-3.1,4.69-4.82,8.43-5.17,2.6-.24,4.75.66,6.46,2.7.08.09.14.14.19.13.15-.01.27-.51.38-1.49.1-.98.28-1.48.55-1.51.61-.06,1.8.04,3.56.3,1.68.24,2.88.47,3.62.68.26.1.4.24.42.44,0,.08,0,.29-.02.63-.19,3.64-.1,7.46.27,11.47ZM384.84,32.61c-.16-1.69-.73-3.04-1.72-4.06-.99-1.02-2.19-1.46-3.62-1.33-1.42.13-2.52.79-3.3,1.96-.78,1.17-1.08,2.61-.92,4.32.15,1.61.74,2.94,1.78,4.01,1.03,1.06,2.21,1.53,3.54,1.41,1.41-.13,2.5-.79,3.29-1.97.79-1.18,1.11-2.63.95-4.34Z"/>
    </g>
  </g>
</svg>