<?xml version="1.0" encoding="UTF-8"?>
<svg id="Layer_2" data-name="Layer 2" xmlns="http://www.w3.org/2000/svg" viewBox="0 0 391 282.21">
  <defs>
    <style>
      .cls-1 {
        fill: none;
        stroke: #231f20;
        stroke-miterlimit: 10;
      }

      .cls-2 {
        letter-spacing: 0em;
      }

      .cls-3 {
        fill: #c44b52;
      }

      .cls-4 {
        letter-spacing: 0em;
      }

      .cls-5, .cls-6 {
        font-size: 30px;
      }

      .cls-5, .cls-7 {
        font-family: ComicSansMS, 'Comic Sans MS';
      }

      .cls-6 {
        font-family: MyriadPro-Regular, 'Myriad Pro';
      }

      .cls-8 {
        letter-spacing: 0em;
      }

      .cls-7 {
        font-size: 100px;
      }

      .cls-9 {
        letter-spacing: -.03em;
      }
    </style>
  </defs>
  <g id="Layer_1-2" data-name="Layer 1">
    <g>
      <rect class="cls-1" x=".5" y="78.55" width="130" height="35"/>
      <rect class="cls-1" x=".5" y="113.55" width="130" height="150"/>
      <text class="cls-6" transform="translate(28.35 104.65)"><tspan class="cls-9" x="0" y="0">F</tspan><tspan class="cls-2" x="13.83" y="0">r</tspan><tspan class="cls-8" x="23.76" y="0">id</tspan><tspan class="cls-4" x="47.7" y="0">a</tspan><tspan x="61.92" y="0">y</tspan></text>
      <text class="cls-7" transform="translate(12.47 216.92)"><tspan x="0" y="0">13</tspan></text>
      <rect class="cls-1" x="130.5" y="78.55" width="130" height="35"/>
      <rect class="cls-1" x="130.5" y="113.55" width="130" height="150"/>
      <text class="cls-7" transform="translate(134.46 216.92)"><tspan x="0" y="0">14</tspan></text>
      <text class="cls-5" transform="translate(141.54 104.65)"><tspan x="0" y="0">Saturday</tspan></text>
      <rect class="cls-1" x="260.5" y="78.55" width="130" height="35"/>
      <text class="cls-5" transform="translate(279.95 104.65)"><tspan x="0" y="0">Sunday</tspan></text>
      <rect class="cls-1" x="260.5" y="113.55" width="130" height="150"/>
      <text class="cls-7" transform="translate(272.47 216.92)"><tspan x="0" y="0">15</tspan></text>
      <g>
        <path class="cls-3" d="m265.2,134.04c.51,1.23.61,2.43.31,2,1.27,2.42.83,2.64,1.65,2.73.88,1.55.99,3.46.09,1.67.68,1.54,1.28,3.1,1.89,4.67l-.73-2.92c.81.61,1.16,4.66,2.11,5.39l-1.57-5.23.27.2c-.56-1.13-1.24-3.44-1.42-4.27.14.09.26-.04.58.87-.99-3.15-1.43-3.47-1.81-3.66-.38-.19-.75-.23-1.77-2.75.13.31.27.72.41,1.28Z"/>
        <path class="cls-3" d="m264.57,128.28l-1.56-1.84-1.38-3.61c-.26.07-1.59-2.41-1.03-.57.19.32.56.96.77,1.51-.35-.08-.92-1.22-1.44-2.17-.54-.94-.99-1.71-1-1.08,1.46,2.66,1.47,3.16,2.67,4.67,1.09,2.56,1.66,4.52,1.97,5.78.39.73.76.71,1.18,1.68-.09-.22-.17-.41-.26-.66l.76-.41c-.49-.76-.73-1.55-1.11-2.45.88,1.27,1.75,2.55,2.56,3.86.29-1.67-1.85-5.65-2.22-7.43.18,2.33-.98-1.49.09,2.73Z"/>
        <path class="cls-3" d="m264.75,132.65s.03.07.04.1c-.01-.03-.03-.08-.04-.1Z"/>
        <path class="cls-3" d="m151.89,236.14c.56.74.88.83,1.04.88-1.02-1.4-2.06-2.77-3.06-4.19-.96-1.44-1.97-2.85-2.89-4.31-.05.41,1.43,3.04.19,1.45.3.88,2,3.02,2.47,3.17l-.7-.43c1.71,1.73,2.03,3.52.88,2.42l.12.16,2.65,2.18,2.72,2.07c-1.41-1.97-1.65-1.07-3.41-3.42Z"/>
        <path class="cls-3" d="m268.98,163.85c.33,1.32.42,1.48.48,1.31-.14-.47-.3-.91-.48-1.31Z"/>
        <path class="cls-3" d="m156.57,240.51l1.74,1.22c-.64-.53-1.26-.95-1.74-1.22Z"/>
        <path class="cls-3" d="m141.4,233.4s-.06,0-.06.07l.78.67s-.01-.02-.01-.02c-.26-.26-.49-.5-.7-.72Z"/>
        <path class="cls-3" d="m193.82,266.08c.2.06.37.1.62.17-.22-.07-.42-.12-.62-.17Z"/>
        <path class="cls-3" d="m124.98,208.35l1.16,2.19,1.23,2.15c-.49-.5.54,1.64-.13.81.19.33.99,1.9.91,1.41l-.42-.91c1.69,2.08,1.28.55,3.62,4.16-.79-2.56-1.64-3.44-2.49-4.6-.24-.42-.42-.77-.61-1.13-.85-1.11-1.71-2.22-2.51-3.37l-.76-.71Z"/>
        <path class="cls-3" d="m269.03,229.19l.04.07c0-.05-.02-.07-.04-.07Z"/>
        <path class="cls-3" d="m269.22,229.53l-.15-.27c.03.28-.22,1.25.15.27Z"/>
        <path class="cls-3" d="m155.74,240.21c.14-.04.42.08.83.3-.44-.3-.84-.63-1.27-.95.13.18.29.42.44.65Z"/>
        <path class="cls-3" d="m152.35,238.39c-.84-1-1.61-2.06-2.42-3.09l-1.15-.96c1.01,1.13,2.1,2.52,3.57,4.05Z"/>
        <path class="cls-3" d="m188.68,263.46c1.71.82,2.47,1.12,2.66,1.28.19.16-.19.13-.69.05-1.01-.12-2.47-.57-.92.3,2.01.71,2.83.66,4.1.99-2.86-.93-2.54-1.19-2.23-1.42.16-.12.31-.24.08-.47-.23-.24-.87-.5-2.23-1.12.27-.07.66-.03,1.13.08.48.09,1.03.24,1.6.43.57.19,1.17.42,1.73.67.57.22,1.11.43,1.57.64.96.69.46.65-.39.49-.42-.08-.92-.18-1.37-.24-.44-.09-.82-.12-1-.01,2.28.78,1.94.44,3.01.44.43.17.88.32,1.33.47.45.12.91.22,1.36.31.91.17,1.8.39,2.65.49.85.12,1.65.25,2.35.44.71.2,1.34.35,1.84.68,2.64.24,2.51-.21,4.02-.44.17-.35-.78-.52-1.88-.66-1.1-.2-2.35-.45-2.77-.79.18.09.55.26.42.35l-1.09-.23-1.08-.3c2.03.68-.42.65-1.57.48-.83-.11-2.44-.6-2.17-.71l1.26.19c-.76-.33-1.66-.44-2.57-.57-.91-.13-1.82-.39-2.59-.85-.03-.18.62-.04.74-.11-1-.08-1.95-.25-2.99-.6-1.04-.33-2.2-.66-3.6-1.17.62.02,1.22.07,1.84.06-.62-.03-1.36-.27-2.2-.57-.84-.3-1.77-.69-2.68-1.22-.91-.52-1.88-1.03-2.75-1.67-.88-.62-1.71-1.24-2.45-1.81.29.32.88.78.42.66-1.96-1.04-3.02-2.44-1.98-2.16-.52-.19-1.21-.56-1.94-1.12-.73-.56-1.53-1.24-2.36-1.93-.83-.69-1.62-1.46-2.42-2.09-.4-.32-.79-.61-1.17-.87-.37-.27-.72-.5-1.06-.68-4.23-2.09-8.35-4.61-12.37-7.42.42.34.85.73,1.25,1.15.38,1.39.91,1.87-1.05.55,1.73,1.47,1.56.46,3.85,2.9-1.11-.75-1.92-.47.29,1.9,1.55,1.31,3.01,2.46,4.51,3.4.74.48,1.45.95,2.18,1.38.74.41,1.47.81,2.19,1.2,2.89,1.57,5.83,2.84,9.08,4.43-.02.27,1.19,1.12,2.7,2.1,1.55.88,3.36,1.94,4.59,2.53-1.19.07-3.05-.82-4.97-1.75.58.34,1.37.78,2.21,1.25.42.23.85.47,1.26.71.43.21.84.41,1.23.6l1.07-.63Z"/>
        <path class="cls-3" d="m172.53,255.24c.12.16.28.3.43.45-.06-.1-.19-.23-.43-.45Z"/>
        <path class="cls-3" d="m182.37,261.18s-.03.02-.05.03c.2.11.4.21.6.32-.19-.13-.41-.27-.55-.35Z"/>
        <path class="cls-3" d="m156.12,242.37c-.42-.28-.69-.52-1.11-.8.23.2.51.46.77.7.27.22.43.3.34.1Z"/>
        <path class="cls-3" d="m155.73,240.58l.32.07c-.12-.17-.2-.29-.3-.44-.12.02-.15.13-.02.37Z"/>
        <path class="cls-3" d="m216.51,273.21l.75-.16c-.46.04-.65.1-.75.16Z"/>
        <path class="cls-3" d="m196.2,267.34c-2.51-.83-.54.65-4.08-.68.34.15.67.32,1.02.46-2.65-.68-7.02-2.75-9.84-4.41.23-.04-.16-.35-.54-.68-.37-.35-.72-.72-.44-.81-.97-.54-1.94-1.07-2.82-1.5-.86-.47-1.63-.83-2.24-.96-1.08-.87-2.99-1.85-4.3-3.07.43.67-2.6-.81,1.08,1.55-.3-.18-.16,0-.46-.18,1.99,2.03,3.34,2.08,5.31,3.44,1.05,1.03-2.19-.96-1.12-.11.65.39,1.47.89,2.35,1.42.88.52,1.77,1.15,2.64,1.59,1.73.92,3.14,1.58,3.28,1.06,1.98.86,2.15,1.19,2.66,1.64,1.78.22,4.64,1.5,7.21,2.4,2.57.86,4.79,1.44,4.93.73-.61-.08-1.38-.27-2.23-.48-.85-.21-1.79-.35-2.69-.51l.3-.91Z"/>
        <path class="cls-3" d="m159.29,245.87c.11.13.27.3.36.41-.11-.12-.24-.27-.36-.41Z"/>
        <path class="cls-3" d="m142.81,214.84l1.34.6c3.21,5.63,4.25,7.74,7.34,12.47.14.43-.31-.1-.54-.36,2.24,3.29,5.67,8.15,7.82,10.11.78.98,2.73,3.65,1.71,2.88.46.41.96.9,1.42,1.44-.13.37-1.11-1.12-1.33-.98.35.44.44.65.6.68-.83-.53-.18,1.48-3.06-1.9-.53-1.79,2.07,2.27,2.04.96-.95-1.11-1.08-.77-1.24-.8-1.21-1.42-.99-1.54-.78-1.58-.65-.4-1.82-2.46-2.75-2.99-2.21-2.89.62-.22-.79-2.12l-1.49-.6c-.76-1.08-1.43-2.23-2.13-3.34-1.74-2.28-1.9-1.94-2.18-1.64-.27.3-.61.53-2.58-2.17.42.26.43-.28.16-1.21-.26-.94-.76-2.31-1.46-3.68.47.79,1.25,1.85,2.03,2.98.82,1.11,1.65,2.28,2.17,3.35-.6-1.59.02-.63.76.49.78,1.1,1.68,2.34,1.51,1.42-1.25-1.13-2.72-3.45-3.69-5.35l.44.55c-.58-.97-1.22-1.75-1.92-2.62-.69-.88-1.46-1.85-2.03-3.33-.76-1.37-.41-1.22-.1-1.07-.73-1.1-1.43-2.07-1.27-2.16Zm1.75,2.92c.3.63.59,1.26.93,1.87-.13-.49-.5-1.17-.93-1.87Z"/>
        <path class="cls-3" d="m249.92,100.8c.11.2.23.42.32.6-.05-.15-.18-.37-.32-.6Z"/>
        <path class="cls-3" d="m116.08,140.66l.07-1.29c-.04.5-.06.92-.07,1.29Z"/>
        <path class="cls-3" d="m117.61,111.1l.32-1.94c-.19.75-.27,1.36-.32,1.94Z"/>
        <path class="cls-3" d="m240.61,88.45l-.04-.05c-.08-.07-.14-.12-.23-.2l.27.25Z"/>
        <path class="cls-3" d="m153.1,63.04c.3-.09.63-.21,1.06-.4-.09-.04-.48.11-1.06.4Z"/>
        <path class="cls-3" d="m117.55,111.45s.03-.07.05-.11c0-.08,0-.16.01-.25l-.06.36Z"/>
        <path class="cls-3" d="m113.7,153.59c.04.28.08.54.12.84-.03-.4-.07-.64-.12-.84Z"/>
        <path class="cls-3" d="m116.03,151.64c.03.3.07.58.12.8l-.12-.8Z"/>
        <path class="cls-3" d="m122.31,196.01l.66,1.63c-.28-.82-.48-1.29-.66-1.63Z"/>
        <path class="cls-3" d="m115.71,156.29c.05.1.09.2.14.26-.04-.24-.1-.35-.14-.26Z"/>
        <path class="cls-3" d="m253.53,111.46s-.04-.07-.05-.09h-.11s.16.09.16.09Z"/>
        <path class="cls-3" d="m256.62,114.53c.25.43.51.87.77,1.31-.26-.5-.54-.97-.77-1.31Z"/>
        <path class="cls-3" d="m178.86,56.83c.49.12,1.61.26,1.09.4.91-.18.85-.61-1.09-.4Z"/>
        <path class="cls-3" d="m244.77,107.19c.24.16.48.39.73.62-.43-.45-.8-.85-.73-.62Z"/>
        <path class="cls-3" d="m245.5,107.82c.21.22.44.46.64.66-.21-.24-.43-.46-.64-.66Z"/>
        <path class="cls-3" d="m168.65,65.49c-.11-.02-.28-.02-.49.03.09.09.27.06.49-.03Z"/>
        <path class="cls-3" d="m257.84,116.98c.3.15,3.58,5.9,1.24.85.64-.08,1.86,3.07,2.58,4.37-.31-1.05.58.32.66-.07-.37-.65-.89-1.37-1.39-2.49,0-.63,1.03.95,1.5,2.33-.43-1.78,1.38,1.87.58-.55-1.24-2.42-2.37-4.45-3.5-6.25-1.18-1.77-2.28-3.35-3.64-4.76.86,1.28,1.65,2.71,2.43,4.06.78,1.36,1.41,2.71,1.85,3.9l-.95-.71c-.39-1.39-.93-2.41-1.48-3.42-.56-1-1.12-1.99-1.81-3.21.94,1.88,1.81,3.78,2.7,5.68.86,2.85-.04,1.1-1.2-.89.26.51.48.97.45,1.15Z"/>
        <path class="cls-3" d="m251.68,115.54l.03.1c.06.07.12.16.17.2l-.2-.3Z"/>
        <path class="cls-3" d="m132.7,192.35l.35.42c-.22-.38-.32-.48-.35-.42Z"/>
        <path class="cls-3" d="m252.2,111.08h0s-.03-.04,0,0Z"/>
        <path class="cls-3" d="m129.34,180.1s.04.03.06.06c-.03-.04-.04-.04-.06-.06Z"/>
        <path class="cls-3" d="m117.14,179.2s-.04.04-.05.11c.09.28.09.14.05-.11Z"/>
        <path class="cls-3" d="m129.28,180.1s.03-.02.05,0c-.02,0-.04-.02-.05,0Z"/>
        <path class="cls-3" d="m126.13,118.67s-.13.17-.29.45c.02.13.11.02.29-.45Z"/>
        <path class="cls-3" d="m123.32,130.68c-.03.08-.05.12-.08.22l.08-.22Z"/>
        <path class="cls-3" d="m175.44,54.63c-.7.03-1.22.12-1.65.22.5-.07,1.05-.14,1.65-.22Z"/>
        <path class="cls-3" d="m129.4,180.15c.09.11.19.27.33.55-.16-.3-.26-.46-.33-.55Z"/>
        <path class="cls-3" d="m129.21,99.87c-.03.13-.06.25-.09.38l.11-.2-.02-.18Z"/>
        <path class="cls-3" d="m132.35,94.13c-.05.22-.04.34-.05.48.46-1.07,1.21-2.54,1.89-3.78.7-1.23,1.25-2.3,1.13-2.67-.2.34-.9,1.35-1.55,2.18-.67.82-1.17,1.52-1.17,1.12-.65,1.51-2.16,3.46-2.42,4.33,1.44-2.3.56-.04-.03,1.67-.86,1.42-.29-.48-1,.77l-1.42,3.56,1.35-3.04.12,1.15c.03-.12.05-.2.08-.33.99-2.63,1.29-2.62,1.5-2.67.25-.03.42-.12,1.55-2.74Z"/>
        <path class="cls-3" d="m132.3,94.6c-.14.32-.23.61-.28.86.21-.48.27-.68.28-.86Z"/>
        <path class="cls-3" d="m146.13,76.96c.19-.21.37-.46.63-.74-.13.13-.4.45-.63.74Z"/>
        <path class="cls-3" d="m147.28,231.98c.07-.17-1.45-3.04-1.75-2.78.46.85.99,1.67,1.49,2.5l.26.28Z"/>
        <path class="cls-3" d="m202.95,64.21c-.34-.15-.68-.3-1.02-.43-.08-.01-.16-.02-.22-.02.19.14.89.35,1.24.45Z"/>
        <path class="cls-3" d="m132.92,90.45c-.25.55-.3.83-.31.99.16-.36.27-.71.31-.99Z"/>
        <path class="cls-3" d="m202.76,65.23c.38.29.94.72.96.9.87.34,1.56.42,2.46.77-1-.43-2.13-.95-3.42-1.67Z"/>
        <path class="cls-3" d="m206.26,66.93s-.05-.02-.07-.03l.07.03Z"/>
        <path class="cls-3" d="m148.22,233.69c.18.21.37.43.56.66-.12-.1-.24-.2-.35-.3.4.63.81,1.26,1.21,1.89.18.2.38.42.6.7-.1-.11-.2-.17-.28-.2.13.21.26.41.38.61.69.6,1.79,1.71,2.86,2.76,1.05,1.06,2.05,2.08,2.58,2.46,1.24,1.15,2.64,2.65,3.51,3.6-.82-.86-1.91-2.01-1.79-1.49.68,1.02,1.15,1.81,1.81,2.74.66.92,1.56,1.94,3.3,3.17l-1.75-1.73c1.55,1.07,3.04,2.17,4.61,3.17.58.79,0,.42-.84-.19-.81-.63-1.85-1.52-2.25-1.67.85.67,1.57,1.4,2.26,2.09.69.68,1.31,1.36,1.88,1.98,1.12,1.27,2.18,2.19,3.19,2.53-.08.54-.28,1.54,2.04,3.21-1.3-1.68,1.57.74.59-.75.47.18,1.07.69,1.6,1.13.53.44,1.01.77,1.18.67l-.33.02c.88.84,1.68,1.46,2.39,1.94.72.47,1.39.75,1.99.97,1.21.43,2.16.59,3.17.88,5.07,2.57,7.37,3.86,11.77,5.33.07.34.97,1.69,2.82,2.12.49-.12,1.75.13,2.98.19,1.23.07,2.4.12,2.66-.12-3.18-.91-2.76-.04-4.72-.45-1.44-1.01,0-.6-2.06-1.55.42.19,1.13.38,1.98.61.85.22,1.85.49,2.87.65,1.02.17,2.02.42,2.91.57.89.15,1.64.33,2.11.53l-.7-.02c1.54.42,2.45.89,3.66,1.26,1.2.41,2.73.55,5.4.08l2.52-.54c-.12.07-.12.13-.19.19,1.04-.04,1.75-.11,2.31-.14.55-.02.96-.01,1.37-.02.41-.02.84-.02,1.43-.16.59-.15,1.36-.38,2.46-.76-.34.12-.1.13-.45.25,1.34-.1,2.58-.62,3.73-1.11,1.16-.46,2.15-1.12,3.05-1.54,1.31,0-.09.54-.67,1.14,4.48-1.48,8.51-4.75,10.43-6.91.89-.45,1.69-1.02,2.54-1.55-1.23,1.28-2.77,2.88-2.16,2.81,1.33-1,.92-1.01,2.82-2.38-.13.48-.72,1.33-1.4,2.3,4.2-2.63.22-1.48,3.47-2.93,1.16-1.03,1.52-1.95,1.39-2.33.81-.48,1.53-1.07,2.3-1.61-.07-.28.53-1,1.25-1.93.7-.94,1.63-2,2.3-2.9.03-.32-1.53,1.05-1.95,1.8-.17-.37,1.27-2.23,2.15-3.45.28.04.79-.44,1.39-1.15.6-.71,1.22-1.71,1.84-2.61.63-.9,1.14-1.79,1.53-2.29.39-.51.65-.65.66-.11,1.69-3,3.45-6.75,4.87-10.32.69-1.79,1.35-3.51,1.81-5.1.24-.79.47-1.53.68-2.21.17-.69.32-1.32.44-1.87.35-.67.77-1.73,1.06-2.39.28-.67.47-.93.45.01.36-1.34.62-2.54.82-3.65.21-1.12.29-2.17.42-3.22.28-2.08.43-4.17,1.05-6.84.22-.42-.43,2.44-.07,2.31.16-1.8.47-3.39.86-5.24.2-.92.39-1.91.53-3.02.14-1.11.29-2.33.34-3.73-.05.94.1,1.23.2,1.37-.15.08-.14-2.31-.21-3.76.14-.8.05,1.09.2.64.34-2.68.37-5.23.4-7.68-.09-2.46-.15-4.83-.42-7.2-.41-4.73-1.18-9.4-1.84-14.7.4,3.02,1.12,4.11,1.4,4.11l-.32-2.99c-.48-1.11-.81-3.34-1.32-5.16.09-.25.05-1.17.37-.28-.22-2.97-.87-5.22-1.76-7.57-.44-1.17-.84-2.4-1.31-3.75-.46-1.35-.89-2.85-1.25-4.63,1.13,2.72,2.31,5.45,3.31,8.25l-.02-2.24,1.41,3.69c-.15-2.36-1.38-4.16-.96-4.55.24.45.45,1.62.71,1.6-.28-2.24-.7-2.33-1.2-3.94.52,1.02,1.04,2.31,1.48,3.77.44,1.46.95,3.05,1.3,4.68.36,1.63.74,3.27,1.03,4.8.28,1.53.54,2.94.76,4.11.19.73-.33-.6-.45-.71.33,1.9.1,3.09.56,5.47.58,1.45.18-1.17.09-2.37.38.12.43.72.63,2.04-.22.17-.05,1.99.02,4,.05,1,.1,2.05.1,2.96-.02.91-.08,1.67-.21,2.11.22,3.54.53,3.26.78,2.94.25-.31.51-.65.42,2.85l-.55,2.08c.37,4.04.56,9.33-.12,13.89l.08-.97c-.17-.67-.43.38-.6.83-.27,1.71-.41,3.35-.55,4.82-.07.73-.14,1.43-.25,2.06-.13.63-.3,1.2-.53,1.69-.03,4-1.16,10.58-2.31,15.04-.54.48-.23-.99.2-2.82.36-1.85.89-4.05.87-5.02-.32,1.34-.7,2.66-1.05,3.99.65-2.47.67-3.51.57-5.09-.43,1.74-.68,2.91-.8,4.09-.07.59-.14,1.18-.22,1.83-.1.65-.25,1.35-.46,2.18-.11-.31-.37.09-.85,1.59l.33.58s-.13.17-.33.62c-.61,1.95-1.17,3.92-1.9,5.83.68-1.13,1.15-1.01,1.7-2.52-.46.43-.05-.86.5-2.35-.18,1.42.79-1.37,1.01-1.26-.54,1.51-1.13,3.2-1.69,4.75-.6,1.54-1.14,2.96-1.49,3.96l-.7.44c-.72,1.35-1.32,2.81-1.97,4.11-.66,1.29-1.25,2.49-1.82,3.36.05-.23.08-.46.11-.69-1.94,3.11-3.66,6.34-6.03,8.67-1.5,2.98-4.06,6.33-5.65,8.66-.14.38-.74.93-1.55,1.62-.81.69-1.83,1.53-2.99,2.3-1.14.8-2.32,1.66-3.47,2.39-1.12.76-2.1,1.54-2.85,2.17-.13.03.4-.38,1.05-.94.63-.58,1.41-1.3,1.89-1.75-1.08.66-1.9,1.47-2.66,2-.75.54-1.35.92-1.85.85,5.02-2.68-.51-.27,1.6-1.69-1.14.66-2.28,1.38-3.3,2-1.04.57-1.92,1.09-2.46,1.47,3.87-1.88-1.02,1.44,2.81-.72-2.77,2.04-7.11,4.02-11.13,4.89-.03-.26-.55-.27-2.05-.03l-1.11.65c-1.87.36,3.49-1.27-.26-.54-1.86.69-4.83,1.05-7.51,1.16-1.34.12-2.61.04-3.65.16-1.05.11-1.87.22-2.32.48-1.49-.34-.05-.36,1.18-.43,1.24-.14,2.27-.29.04-.58,1.31-.23,2.84-.19,4.17-.25,1.32-.1,2.43-.22,2.82-.55-2.51.37-.96-.44-2.57-.32-.92.22-1.85.28-2.79.43l.62.02c-1.18.15-2.54.27-4,.19-.73-.03-1.49-.06-2.27-.09-.77-.08-1.56-.19-2.36-.29-3.2-.39-6.47-1.27-9.37-2.05-1.26-.24-2.42-.47-3.56-.69-1.15-.2-2.21-.52-3.34-.8-1.13-.28-2.25-.67-3.43-1.15-.6-.24-1.21-.5-1.85-.78-.63-.3-1.27-.65-1.94-1.02,1.75.55-4.29-2.74-.6-1.46-1.18-.78-2.33-1.55-3.28-2.01-.94-.48-1.63-.71-1.72-.62,2.05,1.39.69.53,2.41,1.74-.68-.24-1.73-.77-2.71-1.39-.96-.64-1.88-1.34-2.37-1.8.5.37.34.19.51.18-2.31-1.85-1.35-.54-3.15-1.71-.14-.39-1.06-1.12-2.12-1.93-1.02-.85-2.19-1.79-2.86-2.5-.87-.42-1.68-.92-2.53-1.39,1.44.73-1.92-1.92-1.95-2.53-1.62-1.21-3.26-1.99-5.25-4.35,1.03.77-1.69-2.26-1.38-2.6-1.55-2.12-3.19-3.56-4.7-5.09-1.56-1.49-2.99-3.06-4.2-5.24.17.07.99.71.22-.52-.77-.85-1.82-2.54-2.55-3.52l.03.02s-.03-.03-.05-.05c-.35-.48-.61-.76-.7-.72-.75-.76-1.33-1.32-2.06-2.1-.72-.79-1.61-1.76-2.78-3.48-.13.25.26,1.12.85,2.06.59.93,1.33,1.95,1.79,2.55l1.1.85c.06,1.45,2.19,3.02,2.51,3.95-2.15-1.54-5.88-7.67-8.39-11.19.71,2.61,3.5,7.66,6.47,11.72l-1-2,1.48,2.17-.99-2.39c.66,1.05,1.31,2,1.96,2.92.67.9,1.35,1.77,2,2.68-1.56-2.11-1.61-3.32-.82-2.07,1.35,2.62,2.01,2.29,3.37,4.05-.75-.99-1.67-2.31-.84-1.63,2.22,3.82,3.25,4.51,5.41,7.95.24-.88,3.44,3.66,4.34,3.63l-1.22-1.4c1.01.85,2.02,1.7,3.08,2.49,2.12,3.03-2.78-1.8.85,2.45,3.71,3.57,4.18,2.85,7.33,5.37-.66-.24-1.68-.79-2.85-1.55-1.14-.78-2.4-1.81-3.61-2.91l1.31,1.5c-1-.47-4.22-3.67-5.76-5.31,1.49,1.15,1.23.8.46-.01-.74-.83-1.94-2.15-2.36-2.91-.56.08,1.12,1.79-1.08-.03.9.97,1.42,1.52,2,2.14.57.63,1.17,1.35,2.32,2.59-4.91-5.38-5.75-3.66-9.57-8.83,1.99,2.17-.12-1.23-.15-1.64-.45-.52-1.13-1.31-1.79-2.08-.64-.79-1.27-1.55-1.65-1.98l.07,1.24c-2.46-2.83-1.99-4.7-4.92-7.86-.67-.23,1.97,3.2,1.48,2.6-3.61-4.63-3.73-7.05-5.84-11.74-.31-.16-.66.1-1.82-1.32.62.31.18-.96,1.39.68-.65-1.6-1.88-3.24-2.7-4.53.7,1.65.42,1.38-.13.66-.52-.74-1.28-1.96-1.53-2.2-.75-1.7.61.33,1.21,1.31-.56-1.39-.79-3.23-1.71-3.73.18-.12.89.7,1.71,1.84.82,1.14,1.75,2.61,2.46,3.78l-.8-1.66c.79,1.03.84,1.26,1.64,2.91-.55-1.74-.14-1.75.32-1.52.05.24-.15-.07-.1.16.59,1.35,1.22,2.29,1.26,1.88,1.12.89-.64-1.96-.85-2.97-.38-.64-.77-1.28-1.12-1.93-1.66-2-3.34-4.01-4.9-6.11-1.55-2.9-1.63-4.46-2.31-6.82l-.71-.45c-.95-2.68-1.7-5.26-.5-3.76-.12.15.05.49.23,1.08.09.05.18.17.28.32.05.04.08.07.13.1-1.2-2.79-1.92-4.54-1.97-4.71,2.36,4.62.91-.04,2.01.49l-1.87-4.81c.71,3.05-.41.19-.83-.85.39-.44-1.18-3.99-1.57-5.77l.13.1c-.23-1.67-1.06-4.49-1.6-6.51-.14.13-1.49-2.32-2.24-3.5.59,3.58-.06,1.52-.3,1.86-.05-.37-.19-1.04-.27-1.1-.25-.48-.03.73-.17.86.99,3.75,2.08,7.58,3.12,8.92,0-1.22-.78-1.88-.9-3.21.46.87.81,1.9,1.15,3.11.34,1.2.73,2.56,1.17,4.1l-.1,1.12c.35,1.01.78,2.01,1.18,3.01-.6-1.22-.84-.3-1.85-3.53-.12.26.12,1.07.48,2.05.38.98.85,2.14,1.11,3.15l.85.83c-.45-.28.99,3.92-.46,1.08l-2.02-4.76.09,1.48c-.5-1.37-.95-2.76-1.38-4.15l.56.91c-2.29-6.64.41-2.25-1.95-8.91-.6-.99-1.02-2.07-1.39-3.43-.36-1.37-.75-3-1.03-5.15.71,3.06.51.23,1.1,1.31-.29-3.18-1.04-4.14-1.55-5.73.24-.86.39-1.47.82,1.34.75.24-.71-3.67,0-4.04-.37-2.32-.69-3.93-1.05-5.22-.35-1.29-.76-2.25-1.08-3.27-.63-2.04-1.25-4.33-.97-9.9l.32.41c-.26-3.52-.29-6.3-.17-9.02.06-2.72.29-5.37.43-8.65.44-1.69.84-3.38,1.33-5.05-.06,1.16.23,4.29.74,2.9-1.07,2.39-.97,5.06-1.55,7.71.18.28.4-.8.56-1.27-.13,1.61-.5,2.41-.42,4.55.16-.1.43-2.42.47-.66l-.57,2.89c.24,3.88,1.12,1.91.99,6.45-.49-.83-1.08-2.55-1.21-4.32-.08,2.09-.27-2.79-.52-.88.32,1.51.36,2.62.38,3.86.02,1.24.07,2.6.35,4.59-.11-.46-.24-.58-.32-1.56v2.91s.07,2.9.07,2.9c.13-.73.32.46.55,1.75.21,1.3.55,2.68.78,2.39-.23-3.06-.26-4.15-.39-5.34-.12-1.19-.19-2.49-.17-6,.21,1.98.85,4.5,1.49,5.65-.02.06-.03.16-.02.38.62,1.02.69-.07,1.64-.12-.48-1.54-.55-2.85-.6-4.24-.05-1.38-.09-2.83-.28-4.69-.52-.7-.68,2.18-.43,4.02-.16-1.09-.34-2.18-.44-3.28l.24.64.06-4.18c.02-1.39.13-2.78.19-4.17-.02,1.58.27,2.13.47,2.95.05-1.07.22-2.13.41-3.25-.51.22-.85.06-.81-1,.22-2.68.48-4.76.85-6.39.37-1.64.75-2.84,1.13-3.79,0-.21.03-.44.04-.62-.62.83-.41-3.89-.61-5.63.51.17.8-2.69,1.37-4.16-.41-.93-1.49-.03-2.31,1.77-.11,3.73.15,2.13.67,3.97-.08,1.96-.26,3.91-.25,5.87l-.34-1.35c-.52,2.89-.17,5.73-.75,5.47-.31-1.58.24-4.09-.02-5.67l-.43,1.91c-.26-3.49.78-1.68.92-5.85-.73,1.44-.02-.38-.05-2.2-.64,1.35-.91,7.29-1.64,5.94-.05-1.11.48-2.89.95-4.76.52-1.86,1.03-3.8.85-5.31l.07.16c.52-2.07.74-3.5.83-4.62.11-1.12.13-1.92.17-2.74.72-1.7,1.08-4.23,1.66-6.15l.24.13c.23-.91.53-1.8.82-2.7-.03,1.41-1.09,3.11-1.74,5.44l.56-.14c-.72,1.23-.91,2.38-1,3.47-.07,1.09-.05,2.12-.07,3.21.15-1.56.77-3.66,1.23-5.5.53-1.82.92-3.38.57-3.88.34-.57.72-1.12,1.1-1.67l.15-.93c.86-1.22.86.35.08,3-.26.42-.39.63-.45.46-.09.65-.13,1.28-.28,2.11-.16.83-.39,1.87-.84,3.35l.18-1.66c-.5,1.86-.99,3.64-1.21,5.15-.23,1.51-.33,2.71-.24,3.4,1.3-5.37,2.87-10.58,4.62-15.48-.26-.91-.38-1.86-.5-2.72-.1-.85-.23-1.63-.55-2.2,1.11-3.43,3.27-7.91,5.12-10.49l.04.35c.85-1.29,1.56-2.52,2.07-3.6,1.07-1.25-.12,1.24.6.35.81-1.53,1.73-3.01,2.62-4.52.21.55-2.33,4.12-3.3,5.94.17-.35.51-1.07.33-.89-1.49,1.94-2.86,6.26-3.93,6.88-.4,1.11.57-2.37-1.16,1.19-1.39,2.29-1.15,3.34-1.06,3.67.18.12,2.04-3.61,1.72-2.16.84-1.85.86-2.76,2.34-4.94-.98,1.79-1.64,4.51-2.47,5.31-1.18,3.84.26,3.79,1.01,2.12-.58.24,2.63-6.7-.05-2.24.28-1.16.83-2.72,1.6-4.3.37-.8.75-1.61,1.12-2.41.4-.78.79-1.54,1.13-2.24v.17s.96-1.68.96-1.68c.33-.55.68-1.09,1.02-1.64-.19.53-.75,1.56-.55,1.73.81-1.58,1.56-3.23,2.47-4.79-1.46,2.69,1.4-1.3,2.41-2.25.05-.69,1.22-2.49-.29-1.1-1.68,1.59-.66,1.18-1.91,2.83.43-.9.85-1.82,1.3-2.72l.21-.15.77-1.69c1.35-1.53,1.28-.99,1.26-.6-.01.19-.01.34.18.18.19-.16.56-.64,1.39-1.65h-.99c2.14-2.16,4.8-4.42,7.49-6.27.67-.47,1.32-.93,1.95-1.38.66-.42,1.3-.82,1.9-1.21.6-.4,1.17-.77,1.7-1.13.55-.33,1.05-.65,1.5-.96-.83.95-.92,1.75.66,1.28-.41.2-.92.47-1.48.78-.55.33-1.13.73-1.74,1.14-.61.41-1.24.84-1.83,1.27-.57.46-1.13.92-1.63,1.33-.24.11.27-.56,1.14-1.46.89-.88,2.21-1.91,3.44-2.65-.88-.1-2.32,1.06-3.58,2.17-1.22,1.17-2.31,2.25-2.82,1.9-2.91,2.23-3.71,3.38-4.37,4.43-.66,1.06-1.31,1.9-3.53,4,.35.41-.95,1.46-.76,2.02.9-.42,2.18-1.95,3.66-3.68.77-.84,1.59-1.74,2.38-2.6.85-.81,1.7-1.56,2.48-2.16-.26.29-.79.86-.83,1.04,2.15-1.79,3.07-2.5,4.48-3.89l-.23.1c2.51-2.42,1.98-.9,3.76-1.84.6-.51,3.13-1.75,2.54-1.87,1.12-.5,2.31-.86,3.48-1.24l-.41-.45c1.85-.96,2.43-.74,4.05-1.76l-.11-.52-2.46.88-2.39,1.05c1.15-.66,1.27-.85,1.42-1.05.16-.19.31-.46,1.66-1.04-2.82,1.75,2.27-.59,2.73-.24.62-.37,1.29-.63,1.94-.96l-.48.3c.84-.12,1.3-.32,1.8-.55.49-.22,1-.52,1.98-.69-1.17.09-2.12.29-3.15.5-.51.12-1.04.26-1.6.45-.56.2-1.15.51-1.81.86.48-.26,1.07-.6,1.73-.91.67-.28,1.39-.58,2.08-.86.69-.27,1.35-.55,1.91-.73.56-.17,1.02-.3,1.28-.37,1.1-.35,2.05-.57,3.01-.64.96-.07,1.9-.1,2.96-.23-2.02.41-1.59.75-1.7,1.1-.1.37-.72.59-4.67,1.36.12-.13.76-.26,1.02-.25-1.23-.48-4.68,1.31-6.2,2.15.27.1,0,.34.02.44.03.11.33,0,1.82-.33-.52.03.03-.36,1.07-.84.52-.23,1.16-.52,1.87-.71.71-.18,1.47-.34,2.2-.42l-.31.92,2.05-.42,2.08-.27-.38.1c1.61.25,4.41-.7,7.3-.44,2.07-.52,9.98.5,6.65-.69,1.27.39,2.46.55,3.72.6,1.25.06,2.53.18,3.93.4-1.13-.34-2.26-.71-3.41-1.03,2.12.1,2.87.22,3.52.26.66.02,1.21.02,2.97.02.27.31.95.69.22.74,2.74.74,5.93,1.99,8.81,3.18,2.86,1.22,5.42,2.39,7.01,2.9,1.74.94,2.57,1.77,3.6,2.64.51.44,1.08.87,1.8,1.38.71.53,1.59,1.12,2.77,1.81.51.28.44,0,.59-.08.16-.08.55.05,1.92,1.25.15.19-3.14-1.6.1.77.67.3,1.32.73,1.98,1.22.64.52,1.27,1.11,1.93,1.72,1.33,1.19,2.64,2.55,4.19,3.59,1.31,1.47,3.71,3.83,2.87,3.68-2.05-2.29-5.41-5.1-6.05-5.37.53.04-1.5-1.63.41-.35-3.38-3.27-2.48-1.76-5.67-4.5-.36,0,1.4,1.73,2.19,2.16-.38.49-6.78-4.68-4.29-1.82,3.49,2.68,5.43,2.43,7.87,5.51-1.41-.73-3.06-2.51-5.02-3.18.77.72,1.5,1.47,2.25,2.21.68.36,1.4.7,2.06,1.1l-.17-.02c3.68,4.18,4.27,2.93,8.02,6.26-1.64-2.45,1.34-.34.03-2.13,2.39,2.39,4.01,4.28,3.48,4.77-4.66-4.23-.76.19-5.22-3.52.47.85-1.64-.28.63,2.23,2.97,2.47-.36-1.24,2.41,1.41.11.21.22.42.06.39,1.44,1.08,1.25,1.63,2.94,2.99l-.43-.29c1.4,2.25,2.18,1.93,3.25,3.97-.17-1.02,1.3.91,2.36,1.88-.59-.99-.95-1.83-1.53-2.87-.59-1.03-1.3-2.33-2.83-4.04-.67-.16-.62.24-1.99-1.05l1.97,2.21c-.47-.44-.86-.74-1.31-1.13-.57-.76-1.12-1.54-1.71-2.28,2.59,2.52,1.82,1,3.15,1.89,1.03,1.31,1.48,1.83,1.83,2.23.36.39.62.67,1.22,1.53-.57.2,3.14,5.64,4.85,9.04-.32-.49-.74-1.12-.96-1.46-1.84-2.05.65,1.84.57,2.01l1.36,1.49c-.24-.29-.65-.64-.24.11,1.52,2.22,1.94,1.77,3.46,4.02-.17.33-1.8-1.33-1.06.17.06.64.32,2.6,2.31,5.54.23.16.72.94,1.27,1.86-.08-.12-.18-.28-.24-.33l.79,2.25c-1.45-1.5-1.62-3.73-3.15-5.19l-.55.11c-.79-1.35-2.01-3.08-2.79-3.75,1.17,2.06,1.49,2.45,2.93,4.68-.11.48-1.25-1.01-1.42-1.22l.46.19c-1.18-2.97-2.83-3.8-4.85-7.15-.31-.5-.08-.22.08-.17-1.11-1.17-1.93-2.5-2.81-3.8-.9-1.27-1.81-2.53-2.99-3.56l.82.64c-1.43-1.55-4.39-4.44-7.44-7.15l-.18.11c.21.41-.8-.72-1.3-1.36h0c-.78-.66-1.54-1.3-2.27-1.91-.74-.58-1.44-1.13-2.07-1.63.27.45.66.98,1.16,1.52.64.25,2.99,3.12,3.05,2.37.95,1.44,3.05,3.28,3.73,4.35-1.21-1.98,1.44.88,1.9,1.04.21.82,2.15,2.66,1.59,2.71.19.43-.46-1.08-1.29-1.67-1.83-1.61,2.43,3.68.25,1.59,1.29,1.4,2.63,3.16,3.96,4.94,1.29,1.81,2.63,3.6,3.83,5.18l-1.01-1.97c.87,1.52,3.17,4.98,3.09,5.39-.68-1.11-1.51-2.39-2.46-3.75-.49.22,2.14,3.37,1.91,3.73,1.04,1.25,2.13,2.48,3.15,3.77-.31-.64-.67-1.25-1.01-1.87.24.25.53.69.86,1.26.31.58.66,1.28,1.03,2.04.36.76.75,1.58,1.14,2.4.37.82.73,1.64,1.06,2.4-1.45-1.39-2.24-4.43-4.16-7.32-1.49-2.03.16,1.68-1.17-.29.17.61.94,1.94,1.44,2.53l.32.88c-.39-.39-.81-.94-1.26-1.59-.46-.65-.96-1.37-1.46-2.14-.51-.76-1.02-1.56-1.55-2.3-.55-.73-1.1-1.43-1.63-2.01.2.19.39.36.5.39-1.03-2.19-2.42-4.2-3.88-6.04.52,1.14.91,1.47,1.37,2.01-.09.16-1.38-1.62-1.99-2.21,1.06,1.91-.09.56.59,1.75-.9-1.09-1.53-2.03-2.5-3.45-.33-.86.71.39.87.06-1.21-1.31-1.04-2.46-2.97-4.25,2.04,2.79-1.12-.28-2.02-1.06l.34.47c-.96-.62-1.59-1.28-1.81-2.08,1.04.95,1.82,2.07,1.86,1.52-.59-.72-1.23-1.39-1.99-2.12l.84.54c-1.03-1.15-2.03-2.32-3.11-3.41-.75-.3-1.93-.86-2.72-.97-.53-1.01-1.81-1.88-2.62-2.53l.44.24c-.31-.4-.74-.9-1.24-1.39-.51-.48-1.08-.98-1.63-1.44-.54-.45-1.06-.85-1.47-1.15-.42-.27-.74-.44-.86-.44-.23-.28.22-.11.89.21.66.34,1.55.85,2.22,1.18,1.34.69,1.89.64-2.05-2.64-3-2.47-2.45-.83-4.4-1.89,0,0,.16,0,.02-.18-1.3-1.06-1.64-.9-2.84-1.55.74.68,1.87,1.59,2.33,1.75-.32,0-1.01-.52-1.76-1.12-.76-.58-1.63-1.19-2.24-1.42,1.72.41-2.52-2-1.29-1.54-2.59-2.11-5.94-3.4-7.67-3.71-.83-.81-1.71-1.25-2.79-1.62-.54-.18-1.13-.36-1.78-.6-.65-.25-1.35-.56-2.17-.91.25.1.63.2,1.02.32.39.14.8.3,1.14.49,2.08.3-3.36-1.63-.27-.88-.65-.19-.14.23.53.42,1.14.41,2.29.64,2.1.32l-2.58-1.53,1.01.28c-1.31-.8-2.69-1.43-4.06-2.12-.15.05.22.31.41.44-2.45-.98-5.2-1.62-7.88-2.1-1.35-.21-2.68-.34-3.95-.49-1.28-.08-2.5-.16-3.64-.23-.45.72-3.21.78-6.27,1.18-3.05.43-6.41,1.17-7.98,2.14.79-.68,1.13-1.5.47-1.61.38-.14.96-.42,1.66-.72.71-.28,1.54-.66,2.49-.71.34.18,2.64.08,1.22.56,2.5-.49,2.34-.51,1.68-.69-.64-.11-1.75-.18-1.03-.55-1.42.26-2.7.49-3.82.9-1.13.38-2.15.69-3.06,1.15-.92.43-1.77.81-2.58,1.24-.8.45-1.57.88-2.36,1.28l-.15-.12c-.79.42-1.53.96-2.3,1.42,2.01-.87,2.23-.1-.39.86l.29-.18c-1.6.39-4.25,2.45-6.3,3.85-.38.44-.71.94-1.06,1.4-2,1.47-2.59.94-3.56,1.11-3.06,2.62-4.06,4.91-5.57,7.29-.56.37-1.74,1.76-2.61,2.68-.84.96-1.34,1.49-.62.02-1.78,3.25.19,3.57-3.8,8.4l.45-1.6c-1.41,2.63-2.9,5.94-3.97,8.99-.28.76-.55,1.49-.81,2.18-.24.7-.46,1.37-.67,1.97-.42,1.21-.82,2.19-1.1,2.83-.28-1.26-1.15.43-2.16,2.55-.93,2.15-1.98,4.72-2.68,5.13.35-.23-.07,2.05.01,2.41-.25.46-.6,1.26-.49,2.19.34-1.16.59-.68.79-.49.2.19.34.09.6-2.18.08.61.15,1.25.18,1.95.05.7.08,1.47.07,2.3,0,.84-.08,1.75-.17,2.76-.07,1.02-.2,2.13-.39,3.37l-.51-.14c.25-1.3.47-2.61.73-3.91-.46.33-.06-1.68-.08-2.54-.83,3.62-1.04,3.34-1.28,3.08-.23-.26-.41-.5-.92,3.3.24.78.13.28.07,2.27.08-.93-.26-1.14-.43.36l.27,1.48c-1.15,2.58-.11-4.47-.96-2.27-.08-1.51.11-3.54.12-5.11.03-1.56.04-2.64-.39-2.22-.57,2.4-.34,3.55-.22,4.71.13,1.16.31,2.34-.1,4.86l-.34.51c0,1.81.5,2.14.7,3.13-.17.08-.32.52-.44,1.67.23,1.53.41,2.79.59,4.02.16,1.23.35,2.42.75,3.8-.44-7.37.55-6.27.72-13.83.03,1.2-.14,6.52.56,6.88l-.52-.1c.19,2.47.33,4.91.22,7.99l-.31-1.88c.36,4.07-.69,6.83.37,10.02-.06-1.14-.07-2.06-.19-2.76.28,2.09.49,4.72.56,7.02l1.39,4.6c-.3,0,.14,2.96-.49,1.58.05,1.72.33,2.95.64,3.98.34,1.03.73,1.87.97,2.83.08,3.53-.8-2.92-1.55-3.15.54,4.81,1.82,9.79,2.95,12.31-.14-.98-.17-1.46-.03-1.44-.13.18.39,2.05.65,3.1l.51.63c.21,1.8-.04,1.61-.67.19.33,1.7,1.58,3.48,1.58,5.33-.6-1.36-1.11-2.96-1.47-4.41-.36-1.46-.66-2.74-.97-3.46.91,2.95,1.03,4.52,1.31,6.27.12.88.27,1.81.54,2.99.29,1.17.76,2.57,1.46,4.4-.12.15-.84-1.02-.37.42,1.26,3.27.96.63,1.69,1.54-1.11-2.46-1.24-3.73-1.33-5.33l.49.59c-.1.15.41,1.75.43,2.26l.67.23c-.68.02-.23,2.71.72,4.62-.3-2.17-.13-1.61.35-2.4,1.65,2.54.49,3.38,2.42,6.19-.28-.15-1.5-2.78-.71-.41.75,1.93,1.09,1.49,1.77,2.71-1.08-1.24-1.28-.72-2.49-2.07-1.44-3.41-.58-1.37-2.04-4.7.22,1.01.41,2.04.66,3.04-1.19-2.92-1.36-1.94-1.64-2.12.65,2.65,1.28,3.5,1.79,4.13.52.63.99,1.01,1.59,2.64.97,1.4-1.17-3.03.17-.76,1.22,2.99.61.55,2.28,3.76l-.46-.45c.16,1.14.96,1.98,1.58,3.1.76,1.18.93-2.19,3.5,2.91-.26-.18-.39-.23-.45-.2-2.13-1-4.27-2.06-6.43-3.17,2.53,5.41,5.65,11.54,9.14,17.53.15,1.85-3.24-3.82-3.32-3.28l-1.44-2.85c.2-.01,1.06,1.42,1.75,2.49.7,1.08,1.28,1.77.79.4-1.5-2.36-2.54-4.11-3.46-5.88-.96-1.75-1.96-3.44-3.44-5.68-.07,1.88,3.25,6.21,4.44,9.52-.69-1.29-1.38-2.31-2.03-3.32,1.45,2.93,3.1,6.02,4.99,9.23l.62.6c-1.25-2.18-2.1-3.68-2.19-3.89.85,1.43,1.75,2.67,2.51,3.54.76.87,1.44,1.32,1.75,1.24l-.31-.5.83.88c.4.66.8,1.32,1.2,1.98Zm122.6-63.27c.08.19.17.34.27.44-.1-.11-.15.03-.27-.44Zm-149.08,4.44c.34,2.2.81,4.39,1.2,6.57.47,2.16.93,4.31,1.46,6.39-.39-3.9-.64-7.2-.38-7.98.23-.77.78,1,2.39,7.16l.32.78c-.34-1.63-.98-4.43-1.72-7.03-.44-1.02-1.45-3.16-2.33-5.07-.83-1.92-1.58-3.58-1.65-3.53-.2.83.38,1.89.52,3.31l.18-.61Zm1.49-3.46c-.29-2.48-.43-1.88-.75-2.22.15.87.33,1.73.52,2.57,0-.34.06-.51.23-.35Zm-.97-2.04c.03.28.06.52.04.65l-.04-.65Zm14.28,46.37c-.05-.1-.07-.13-.13-.23.24.54.48,1.08.74,1.65-.07-.23-.24-.66-.61-1.42Zm-1.62-4.85l-.66-.35c.21.51.42,1.03.64,1.57.11-.26.19-.52.02-1.21Zm-4.52-15.63c-.83-.8-1.93-4.04-2.56-4.07-.21-.17-.09.55.12,1.34.27.87.55,1.79.85,2.77.1,0,.24.17.43.47-.24-.99-.3-1.68.19-1.41,0,2.73,1.26,2.02,2.02,4.71.72.68-.66-3.06-1.05-3.82Zm95.16-115.86c.02.09.15.37.32.76l-1.72-1.03c-.65-.59-1.24-1.19-1.81-1.77-.59-.56-1.16-1.1-1.72-1.64-1.13-1.07-2.36-1.95-3.89-2.51-1.1-1.01-1.57-1.77-2.04-2.45.61.41,1.19.77,1.62,1.15,4.05,2.03,4.77,3.06,5.32,3.9.27.43.5.82,1.04,1.35.52.55,1.35,1.24,2.86,2.24Zm-35.71-18.96c.37.01.52-.07.52-.07-4.07-.06-7.7.1-10.83.41-1.56.16-3,.39-4.32.54-1.3.24-2.48.43-3.53.58.45.16,1.62.19,2.88.17.63-.03,1.3-.01,1.91.02.61.02,1.18.03,1.62.05l-1.51.64-1.01-.33-2.6.87c.8.23,2.91-.2,4.37.02.03-.03.33-.11.8-.22.46-.12,1.08-.27,1.75-.35,1.33-.19,2.83-.49,3.49-.56-1.24-.21-2.49-.26-3.75-.39.51.09,2.01.03,3.64.08,1.62.08,3.37.11,4.37.22.04-.11-.78-.44-1.69-.56-.9-.12-1.88-.15-2.11.12-.4-.42,3.6-.15,1.1-.74,1.52-.16,3.47.16,5.3.46,1.81.46,3.52.86,4.55,1.29l.2.73c2.25.9,1.81-.38,4.43.92-3.39-1.02.34.86-2.33.02.78.5-.18.66,2.45,1.5,1.24-.05,1.88.37,2.48.78.61.41,1.19.82,2.35.88,1.21.87-1.62-.2.91,1.14,3.16.98,3.13.67,3.6.2-1.33-.82-2.25-.96-3.05-1.14-.81-.16-1.55-.29-2.69-.82l1.27.23,1.25.3,2.53.61c-.78-.54-1.41-.86-1.95-1.07.95.39,1.82.61,2.59.75.43.1.83.19,1.19.29-1.27-.73-2.54-1.29-3.49-1.79-.95-.5-1.62-.89-1.79-1.08l.5-.13c-.86-.65-2.53-1.1-3.33-1.19-1.24-.45-2.54-.74-3.56-1.03-1.02-.29-1.81-.44-2.03-.73h1.05c-1.59-.39-2.46-.61-3.45-.83-1-.17-2.08-.43-4.1-.77Zm-69.63,65.42c.68-.89,1.36-1.83,2.08-3.65.36-.91.67-2.05,1.1-3.5.42-1.45.8-3.24,1.37-5.43l-.11.71c.47-1.05.77-2.14,1.05-3.23.3-1.09.53-2.21.78-3.37.56-2.28,1.17-4.72,2.64-7.12-.32,1.33-.48,1.94-.58,2.62-.08.69-.1,1.43-.15,2.98l.68-2.79c.26.95,1.06-1.79,1.89-3.71l-.04,1.98c-.33.54-.85,1.53-1.2,2.42-.35.89-.6,1.63-.5,1.62.08-.35-.5.58-1.19,1.93-.62,1.38-1.38,3.17-1.65,4.52.52-.15,2.07-5.66,2.06-2.98.33-2.26.97-2.33,1.58-4.59-.45,2.22.44.76.21,2.43.4-1.2.73-2.43,1.17-3.62.12-.05-1.56,5.31.05,2.6.21-1.54,2.14-5.09,1.66-5.38l.18-.02c1.31-2.49-.17-1.45,1.63-4.44-.22-.16-.7.34-1.18,1.5-.33,1.01-.11,1.29-.92,3.31-.37.37-.12-.24.1-.78.23-.54.4-1.04-.24-.5-.65.54-1.95,5.44-2.07,3.66l1.21-2.6c-.48-.29.42-2.17.02-2.29.29-.84.75-1.57,1.18-2.32.44-.74.9-1.48,1.11-2.38.07-.82-1.15.01.57-2.47.95-.8,2.23-2.72,3.62-4.58.65-.96,1.35-1.89,1.98-2.72.63-.83,1.12-1.59,1.54-2.08l1.21-1.92c-.38-.08-2.77,3.3-2.16,1.92l2.22-2.76-.03.34c.79-.86,1.51-1.82,2.17-2.68-.51,1.05-2.38,2.77-1.61,2.79,1.2-1.13,1.54-1.14,2.51-2.3-.2.26-.36.5-.28.53,1.22-1.12,1.76-1.7,1.97-2.2.23-.48.19-.79.44-1.14,2.06-2.8-2.98,1.77-3.05,1.1,2.39-2.33,4.86-4.62,7.64-6.52-.61.63-1.22,1.26-.83,1.26,2.18-1.14.26.28,3.12-1.58-.3-.26.57-.9,1.76-1.68,1.19-.78,2.79-1.51,3.79-2.26.59-.07.95-.11.87-.02-.08.1-.61.29-1.72.85.43.25,3.43-1.13,4.55-1.52.61-.33,1.7-.73,2.38-1.06-1.02.07-.72-.38,1.32-1.18l.1-.13c-.88.17-1.86.46-2.9.71-1.05.23-2.1.58-3.1.94-2.05.64-3.79,1.6-4.7,2.29l.47-.49c-1,.33-1.94.91-2.85,1.49-.45.3-.9.6-1.34.89-.42.32-.82.65-1.21.96-.77.63-1.52,1.17-2.16,1.64-.63.48-1.21.81-1.73.93-.09-.4-.71.45-.99,0-.75.72-1.39,1.57-2.07,2.34l.32-.61c-.63.61-1.3,1.19-1.9,1.82l-1.8,1.92.03-.17c-.73,1.04-1.25,2.05-1.75,2.92-.5.88-.94,1.63-1.26,2.35.18.15.33.07-.03.81-.41.72-.77,1.21-1.12,1.63h0s0,0,0,0c-.8.97-1.51,1.49-2.51,2.7.89-1.32,1.73-2.69,2.72-3.94-.06-.53-.68-.5-2.28,1.29.54-.81.53-1.33-.2-.36,0,.17-1.59,2.78-.68,1.99-.63.96-1.36,2.07-2.16,3.29-.84,1.2-1.65,2.56-2.5,3.99-.89,1.41-1.6,3-2.37,4.58-.7,1.61-1.31,3.29-1.78,4.98.72-2.41.24-1.53-.22-.69-.4.85-.82,1.63.16-1-1.06,1.69-1.13,2.57-1.24,3.43-.07.88-.14,1.76-.76,3.64-.32.25.66-2.05.59-3.05-1.22,3.08-1.79,5.84-2.22,8.57-.25,1.36-.43,2.72-.64,4.12-.11.7-.24,1.41-.39,2.14-.13.73-.26,1.48-.43,2.26l-.53.18c-.15,1.2-.34,2.52-.45,3.91Zm-.66,12.53c-.04,1.22.02,2.45.03,3.71,0-.12.02-.24.02-.36.1,1.22.17,2.44.32,3.65.19-2.24.79-3.68.97-.57-.2-.26-.44.65-.57-.44-.29,2.09-.52,6.7.21,5.48-.75-4,.92-.95.38-4.09.5,1.69.25,3.35.55,4.94-.47-1.64-.89.41-.98,2.92.13,1.08.29,4.03.61,5.82.4-.68.78.86.67-2.07.19,1.06.41,2.71.41,4.58-.16-.73-.36-2.01-.51-1.9-.28,1.24-.1,2.64-.19,3.44.1.62.19,1.24.28,1.84.01-.19.04-.35.1-.47.21.67.46,1.33.68,1.99-.61-2.69.02-1.28.29-1.28-.53,0,.19,1.76.34,2.68l.26-2.09c.42.93.1,3.49.57,2.9-.43-4.29-.69-5.91-1.26-9.77-.11.54-.18,1.08-.27,1.62-.4-2.17-.21-2.88-.06-3.63.18-.76.32-1.58.2-4.04-.23-1.01-.34-2.86-.42-4.47-.07-1.61-.18-2.97-.58-3.02.12.31.29-.46.39-1.51.13-1.05.2-2.39.05-3.24-.16-.47-.3-1.18-.37-1.96-.06-.77-.1-1.61-.13-2.33-.06-1.44-.1-2.44-.32-1.6-.1,1.54.12,3.62-.38,4.83-.04-1,.02-1.99.02-2.99l-.52,1.94c.21-1-.18-.93-.79-.49Zm7.02,67.62s.02.07.03.11l-.05-.12h.01Z"/>
        <path class="cls-3" d="m254.35,113.03c.56.68,1.55,2.6,1.69,2.04-.35.25-1.86-3.37-1.69-2.04Z"/>
        <path class="cls-3" d="m255.18,115.5c.16.09.26-.08.72.76l-1.34-2.29.62,1.53Z"/>
        <path class="cls-3" d="m253.83,119.19c.87,1.06,1.4,1.75,2.3,3.66-.59,1.15-1.77-2.98-3.05-3.4,1.59,3.48,2.94,4.15,4.29,7.03-.14-.8-.74-2.73-1.54-4.36-.78-1.65-1.62-3.06-1.99-2.93Z"/>
        <path class="cls-3" d="m251.88,118.28c.4.59.81,1.17,1.18,1.78l-.04-.22c-.37-.61-.8-1.19-1.19-1.78l.04.21Z"/>
        <path class="cls-3" d="m230.12,75.35c.06-.39-1.25-1.06-1.89-1.49.46.42,1.08,1.03,1.89,1.49Z"/>
        <path class="cls-3" d="m275.29,220.23c1.25-5.68,2.06-11.42,2.49-17.17-.11,1.24-.22,2.45-.33,3.7-.16,1.24-.32,2.52-.49,3.88-.39,2.72-.86,5.77-1.66,9.59Z"/>
        <path class="cls-3" d="m176.06,57.15c1.18-.16,2.2-.36,3.14-.48.95-.11,1.81-.21,2.68-.31.88-.12,1.75-.15,2.72-.16.96.01,2.03-.06,3.25.11-3.18-.67-5.36-.5-7.36-.2-.5.06-.99.13-1.49.19-.5.07-1,.17-1.52.23-.52.07-1.07.12-1.66.14-.59.02-1.21.03-1.89.06.71.1,1.42.26,2.13.43Z"/>
        <path class="cls-3" d="m177.57,54.44c.85.55-3.75,1-2.98,1.41,3.27-.42,1.48-.73,4.49-.87-.5-.21-1-.36-1.51-.54Z"/>
        <path class="cls-3" d="m196.66,66.86c-.43-.03-.87-.02-1.3-.03l1.01.15c.1-.04.2-.08.29-.12Z"/>
        <path class="cls-3" d="m156,60.81l.43-.36c-.76.32-1.57.58-2.3.96.6-.24,1.25-.41,1.87-.59Z"/>
        <path class="cls-3" d="m156.86,60.08l-.43.37.43-.37Z"/>
        <path class="cls-3" d="m194.74,67.69c.57.21,1.16.38,1.72.63l.95.03-1.33-.37-1.34-.29Z"/>
        <path class="cls-3" d="m178.77,62.51c.57-.12,1.14-.15,1.72-.23-.17.02-.85-.03-1.36-.04-.51.03-.85.1-.36.26Z"/>
        <polygon class="cls-3" points="143.41 69.02 141.79 70.79 142.01 70.67 143.63 68.9 143.41 69.02"/>
        <path class="cls-3" d="m166.11,66.61c.63.07-.17.3-.78.58-.62.27-1.09.48.07.24,1.94-.73,1.08-.68.72-.82Z"/>
        <path class="cls-3" d="m143.5,77.75c-.2.21-.42.43-.57.69.22-.27.41-.5.57-.69Z"/>
        <path class="cls-3" d="m143.5,77.75c.66-.67,1.45-1.22,1.8-1.78-.97.69-1.22,1.05-1.8,1.78Z"/>
        <path class="cls-3" d="m136.88,86.25l.51-.69c-.3.85-.1.49.19-.26.5-.76.35-.8.33-.95.05-.19.12-.36.19-.55-.12.26-.23.49-.3.7-.8,1.16-1.26,1.88-.91,1.75Z"/>
        <path class="cls-3" d="m114.85,122.17c.77-3.29,1.03-4.13,1.35-3.87.81-3.09.09-2.75.37-4.67-.72,3.56-1.11,4.25-1.73,8.55Z"/>
        <path class="cls-3" d="m116.58,113.62c.1-.4.19-.78.3-1.24-.15.51-.24.89-.3,1.24Z"/>
        <polygon class="cls-3" points="147.68 79.34 146.8 81.03 147.21 80.5 147.68 79.34"/>
        <path class="cls-3" d="m113.92,127.09c.11-.62.24-1.61.43-2.08-.34-.23-.54,2.7-.43,2.08Z"/>
        <path class="cls-3" d="m123.24,115.94c.26-.27.67-2.27.97-3.05-.34,1.14-1.29,1.91-.97,3.05Z"/>
        <path class="cls-3" d="m114.48,136.79c.06-.61.37-1.54.65-1.11-.12-.9-.68-2.16-.65,1.11Z"/>
        <path class="cls-3" d="m121.97,121.63l.2-.42c.06-.73.1-1.46.19-2.19-.17.86-.27,1.74-.4,2.61Z"/>
        <path class="cls-3" d="m128.88,115.37c.19-2.38-1.99,3.35-1.29-.67-.92,2.48-.66,2.45-.43,2.22.26-.22.6-.59.14,1.29.62-2.19,1.48-3.1,1.58-2.84Z"/>
        <path class="cls-3" d="m127.29,118.21c-.09.32-.19.66-.27,1.04.11-.42.2-.75.27-1.04Z"/>
        <path class="cls-3" d="m121.65,151.48c-.06-.35-.12-.59-.18-.81.05.28.1.54.18.81Z"/>
        <path class="cls-3" d="m125.55,130.45c-.09-1.2-.11-2.4-.17-3.6.02,2.4-.56,8.34.12,8.02.32-1.9.38-4.22.22-5.2-.07.26-.12.52-.17.78Z"/>
        <path class="cls-3" d="m115.22,173.14l-.54-1.59.29,2.06c0-.6.65.37.26-.46Z"/>
        <path class="cls-3" d="m115.02,174l-.06-.4c0,.09.02.22.06.4Z"/>
        <path class="cls-3" d="m121.22,144.6c.06-1.18.08-2.12,0-3.19-.13.44-.35,3.38,0,3.19Z"/>
        <path class="cls-3" d="m118.52,184.34c-.26-.87-.52-1.74-.74-2.62.21.97.48,1.92.74,2.88v-.26Z"/>
        <polygon class="cls-3" points="120.94 196.88 120.97 197.37 121.89 199.45 121.86 198.96 120.94 196.88"/>
        <path class="cls-3" d="m129.08,178.01c-.29-1.69-1.15-2.89-1.18-2.42l.73,3.26c.32-.94-.21-.9-.49-2.82l.94,1.98Z"/>
        <path class="cls-3" d="m177.57,271.58c-.89-.12-4.27-2.42-4.25-2.82.53.19,2.47,1.21,1.41.32-1.07-.3-2.08-.69-3.13-1.06-3.2-2.84,3.25.96,5.23,1.69-1.81-1.16-3.05-1.8-4.28-2.52-1.25-.7-2.55-1.4-4.34-2.8,1.03.86,1.57,1.57,2.06,2.11-.11.29-1-.24-2.15-1.1-1.16-.85-2.59-2-3.76-2.98,1.33,1.44.33.89-.91.16-.21-.15-.36-.23-.48-.28-.15-.08-.28-.16-.43-.25l.28.24c-.06.03-.05.15.08.4,1.06.75,1.86,1.56,2.62,2.27.76.7,1.41,1.36,2.08,1.87-.36-.9.77-.04,2.32,1.05,1.54,1.1,3.45,2.53,4.45,2.93l2.13,1.2c.26.16.53.31.8.45.12.17-.2.2-1.49-.38,1.07.48,4.51,2.35,4.33,1.92,1.3.71,2.68,1.3,4.02,1.95,1.35.64,2.77,1.15,4.15,1.73.25.14.48.3.66.43.32.05.38.02.36-.04,6.16,2.24,12.73,3.69,19.44,4.03,6.71.38,13.55-.49,20.01-2.5-1.92.57-3.68.69-5.69,1.05,1.43-.65.61-.49-.47-.27-1.1.16-2.46.34-2.06-.03.66-.22,1.48-.35,2.28-.52.8-.17,1.59-.3,2.18-.36.36-.4-1.35-.28-1.23-.68-4.88.59-5.47,2.09-10.39,2.14.19-.37,1.66-.69-1.49-.63l.8-.08c-1.26.11-2.15.11-2.8.06-.65-.08-1.08-.2-1.45-.29-.74-.19-1.24-.26-2.87.1l.14-.51c-1.14.03-2.83-.05-4.51-.29-1.67-.3-3.39-.56-4.58-.89l.17-.06c-1.71-.32-2.82-.51-3.61-.72-.78-.22-1.27-.38-1.78-.56-.51-.18-1.04-.37-1.91-.68-.85-.34-2.03-.8-3.85-1.48l3.53.78c-2.35-1.26-3.2-.8-4.89-1.71.17-.04-.07-.57,1.59.1-1.46-.52-2.94-1.03-4.4-1.59-1.43-.61-2.89-1.19-4.31-1.84-2.1-.83.18.58.38.94Z"/>
        <path class="cls-3" d="m168.21,264.4c-.37-.32-.81-.66-1.34-1.04.5.39.93.72,1.34,1.04Z"/>
        <path class="cls-3" d="m231.5,278.73c-.88.35-1.81.59-2.71.89.85-.24,1.75-.47,2.71-.89Z"/>
        <path class="cls-3" d="m157.43,256.62c.95,1.32-1.12-.57-1.46-.63l2.05,2.02,2.14,1.95c.12-.17.69.05.73-.17-1.16-1.05-2.36-2.07-3.46-3.18Z"/>
        <path class="cls-3" d="m161.15,261.38c.23.03.79.33,1.4.68-.83-.66-1.6-1.39-2.38-2.1-.09.13.08.47.99,1.41Z"/>
        <path class="cls-3" d="m167.88,252.86l.7.61,1.18.78c-.64-.45-1.27-.9-1.88-1.39Z"/>
        <path class="cls-3" d="m178.94,262.33c-.8-.81-2.63-1.86-3.28-2.18,2.03,1.35,1.06.91,3.28,2.18Z"/>
        <path class="cls-3" d="m178.29,257.94c.66.37,1.3.77,1.96,1.12l-.15-.16-1.82-.96Z"/>
        <path class="cls-3" d="m248.2,266.66c.31-.3.62-.58.93-.88-.44.39-.71.66-.93.88Z"/>
        <path class="cls-3" d="m228.56,278.04c6.33-1.36-3.88,1.73-1.76,1.85l3.32-1.29-.22.28,1.03-.34,1-.41,2-.83c-.96,0-1.58.23-1.54-.18,2.69-.96,3.11-1.13,3.42-1.1.3.02.44.16,2.45-.56.97-.48,1.87-1.07,2.8-1.61l1.38-.83,1.32-.91-.37.38c.45-.31.62-.48.74-.64,3.01-2.01,5.7-4.39,8.29-6.84,2.49-2.54,4.88-5.16,6.95-7.99,2.09-3.2-1.8,1.27-.52-1.28-.68.86-1.39,1.85-2.23,2.75-.82.92-1.65,1.84-2.39,2.67-1.56,1.59-2.71,2.89-2.6,3.28.04-.18.12-.51-.61.02l-1.51,2.16,1.96-1.51c-.38.54-1.07,1.3-1.91,2.14-.83.85-1.92,1.67-2.96,2.5-1.02.84-2.16,1.49-3.05,2.05-.9.55-1.63.94-2.02,1.04,2-1.37,2.33-1.95,2.94-2.53.62-.58,1.39-1.3,4.12-3.21-.35.05-1.5.54-.41-.46-.73.62-1.48,1.22-2.21,1.81l-1.1.88-1.16.8c-.77.52-1.53,1.06-2.31,1.56l-2.41,1.41c-.79.49-1.62.91-2.47,1.33-.84.42-1.67.87-2.54,1.28-1.76.76-3.52,1.63-5.44,2.33Z"/>
        <path class="cls-3" d="m274.48,221.22l.05.07c0-.14-.02-.19-.05-.07Z"/>
        <path class="cls-3" d="m273.76,223.59c-.08,1.22-.15,2.45-.3,3.67.57-1.8.97-3.64,1.46-5.46l-.38-.52c0,.51-.27,2.48-.66,3.17l-.12-.87Z"/>
        <path class="cls-3" d="m272.57,231.42c.74-2.86.08-2.88-.63-1.45.54-2.63,1.03-1.16.99-3.1-.43-.07-1.15,3.14-1.34,3.88l.99.67Z"/>
        <path class="cls-3" d="m262.9,250.99l.23-.85c-.37.58-.75,1.15-1.17,1.7.31-.29.65-.56.94-.86Z"/>
        <path class="cls-3" d="m263.13,250.14l1.11-1.72c-.23.03-.45.06-.73.28l-.38,1.44Z"/>
        <path class="cls-3" d="m266.98,243.81c.44-.74.86-1.6,1.38-2.64-.46.88-.89,1.77-1.38,2.64Z"/>
        <path class="cls-3" d="m265.75,245.8l.1-.02,1.13-1.96c-.44.71-.84,1.35-1.23,1.99Z"/>
        <path class="cls-3" d="m264.24,248.42c.52-.08,1.15-.17,2.44-2.86l-.83.21c-.51.89-1.02,1.79-1.6,2.65Z"/>
        <path class="cls-3" d="m192.38,266.19c.65.2,1.31.35,1.97.48l-.18-.13c-.66-.13-1.31-.3-1.96-.49l.17.14Z"/>
        <path class="cls-3" d="m203.43,269.72c.5,0,.89-.03,1.23-.06-.52-.02-.94-.01-1.23.06Z"/>
        <path class="cls-3" d="m211.95,267.59c2.22.41-3.07.56,1.06.73.19.19-.2.41-.89.57-.69.14-1.68.28-2.67.08.09-.18.57-.2.88-.24.31-.06.45-.11-.15-.32-1.32.33-1.81.01-1.39.59-2.25.22-2.54.5-4.13.66.69.02,1.56.17,2.54.27.98.08,2.06.17,3.17.25,1.11,0,2.24,0,3.31-.06,1.06-.13,2.06-.31,2.9-.55,1.8-.87.54-1.64.45-2.57-.14-.06-1.38-.09-2.58.05-.3.04-.6.07-.89.11-.29.02-.55.05-.78.09-.46.08-.79.19-.83.35Z"/>
        <path class="cls-3" d="m208.55,266.52c-1-.11-1.3-.08-1.93-.1.06.17.34.21.71.19.37-.03.81-.1,1.22-.09Z"/>
        <path class="cls-3" d="m233.86,268.63c.07-.11.56-.43.96-.72.39-.32.69-.62.44-.6-.88.59-1.83,1.04-2.74,1.57.68-.3.98-.27,1.34-.24Z"/>
        <path class="cls-3" d="m231.3,269.53c.42-.18.82-.44,1.23-.65-.32.13-.68.37-1.23.65Z"/>
        <path class="cls-3" d="m234.04,268.64c-.06,0-.11,0-.17,0-.03.05,0,.07.17,0Z"/>
        <path class="cls-3" d="m270.67,236.24c.23.14.68-1.34.85-2.1-.23.59-.62,1.38-.85,2.1Z"/>
        <path class="cls-3" d="m277.85,180.07l.11-1.33c-.09.48-.13.72-.11,1.33Z"/>
        <path class="cls-3" d="m268.29,161.21c-.06-.03-.11-.11-.18-.23.05.12.11.2.18.23Z"/>
        <path class="cls-3" d="m268.11,160.98c-.34-.81-.59-3.48-1.11-4.35l.12.1-.57-1.7c.37,1.63,1.12,5.04,1.56,5.94Z"/>
      </g>
      <g>
        <path d="m132.55,12.83c1.52-.21,2.54-.43,3.05-.68.7-.35,1.19-.53,1.45-.53.15,0,.3.08.46.24.16.15.24.29.24.44,0,.63-.56,1.18-1.67,1.65-.76.32-1.5.48-2.22.48-.22,0-.55-.03-.99-.09.31.79.6,1.38.88,1.76.16.19.6.64,1.32,1.36.31.31.46.62.46.92,0,.13-.04.26-.11.37-.16.26-.37.4-.64.4-.67,0-1.44-.54-2.29-1.6-.42-.54-.84-1.32-1.25-2.33-.81.5-1.46,1.16-1.96,1.98-.34.59-.62,1.03-.86,1.32-.25.35-.54.53-.88.53-.16,0-.32-.08-.48-.24-.21-.21-.31-.43-.31-.68,0-.66.39-1.5,1.16-2.53.41-.53,1.04-1.15,1.89-1.87-.88-.81-1.58-1.35-2.11-1.65-.48-.26-.84-.48-1.05-.66-.28-.21-.42-.48-.42-.81,0-.26.12-.48.35-.66.16-.12.34-.18.55-.18.89,0,2.12.78,3.69,2.35.25-.89.4-1.6.44-2.13.06-1,.17-1.61.33-1.85.21-.32.46-.48.77-.48.37,0,.66.17.88.51.15.22.22.46.22.72,0,.73-.31,2.04-.92,3.93Z"/>
        <path d="m151.01,10.74c-.76.85-1.77,2.26-3.03,4.22-1.27,1.99-2.19,3.53-2.75,4.61,3.16-.63,5.35-.94,6.57-.94.59,0,1.03.06,1.34.18.35.12.53.39.53.81,0,.91-.51,1.36-1.54,1.36h-.35c-.44-.01-.76-.02-.97-.02-1.45,0-3.86.48-7.23,1.43-2.14,3.68-4.02,8.07-5.65,13.18-.22.78-.56,1.17-1.03,1.17-.41,0-.75-.23-1.03-.68-.22-.34-.33-.67-.33-1.01,0-.38.4-1.67,1.21-3.87,1.33-3.62,3.24-7.5,5.71-11.65,1.57-2.59,3.29-5.34,5.16-8.24-.5-.07-.75-.35-.75-.83,0-.72.7-1.27,2.09-1.65,1.93-.54,3.82-.96,5.65-1.25,2.08-.34,3.66-.51,4.75-.51,1.71,0,2.57.43,2.57,1.3,0,.44-.2.8-.59,1.08-.16.12-.34.18-.55.18-.18,0-.42-.02-.75-.07-.5-.07-.93-.11-1.3-.11-.79,0-2.12.15-4,.46-1.35.21-2.59.49-3.74.86Z"/>
        <path d="m154.13,31.53v.4c0,.32.08.6.24.83.37.54.97.81,1.8.81,1.83,0,3.95-1.41,6.35-4.22.42-.48.78-.73,1.08-.73.16,0,.31.08.44.24.09.12.13.23.13.33,0,.57-.7,1.54-2.11,2.9-1.1,1.07-2.27,1.94-3.52,2.62s-2.4,1.01-3.47,1.01-1.96-.38-2.59-1.14c-.42-.53-.64-1.24-.64-2.15,0-2.48,1.16-4.9,3.49-7.27,1.89-1.93,3.54-2.9,4.94-2.9.38,0,.72.12,1.03.35.38.31.57.71.57,1.21,0,.78-.36,1.73-1.08,2.86-1.48,2.34-3.71,3.96-6.68,4.86Zm.48-1.71c1.03-.35,1.83-.75,2.42-1.19,1.03-.79,1.84-1.68,2.44-2.68.22-.35.33-.67.33-.95s-.14-.44-.42-.44c-.38,0-.92.29-1.63.86-1.26,1.01-2.31,2.48-3.14,4.39Z"/>
        <path d="m171.07,24.21c1.25-1.05,2.37-1.58,3.36-1.58.62,0,1.12.26,1.52.77.37.45.55.98.55,1.58,0,1.14-.37,2.53-1.12,4.15-.83,1.8-2.04,3.48-3.62,5.03-1.3,1.29-2.55,1.93-3.74,1.93-.44,0-.84-.08-1.2-.24-.36-.16-.68-.4-.96-.73-.12.21-.19.34-.22.4-.25.54-.42.87-.52.99-.09.12-.25.18-.45.18-.26,0-.51-.15-.75-.46-.16-.21-.24-.42-.24-.66,0-.41.84-2.48,2.53-6.22,2.36-5.21,5.09-10.4,8.2-15.56,1.26-2.11,2.03-3.35,2.31-3.71.31-.44.59-.66.86-.66.32,0,.61.16.86.48.16.21.24.45.24.73,0,.31-.14.7-.42,1.16-.06.1-.52.86-1.38,2.26-2.65,4.1-4.58,7.49-5.8,10.15Zm-3.7,9.51c.23.15.46.22.71.22,1.28,0,2.62-1.11,4.04-3.32.66-1,1.18-1.98,1.56-2.97.34-.88.51-1.53.51-1.96,0-.29-.07-.51-.2-.65-.13-.14-.34-.21-.62-.21-.67,0-1.49.46-2.44,1.38-.95.91-1.89,2.22-2.81,3.93-.44.82-.82,1.59-1.14,2.31l-.29.59c.22.29.44.51.67.66Z"/>
        <path d="m181.29,28.52c1.44-1.54,3.09-3.04,4.97-4.5.67-.53,1.39-1.02,2.15-1.47.38-.22.62-.33.72-.33.22,0,.44.16.66.48.13.18.2.34.2.48,0,.26-.28.62-.83,1.08-1.49,1.19-2.24,2.08-2.24,2.68,0,.34.19.51.57.51.63,0,1.71-.52,3.25-1.56.26-.18.48-.26.66-.26.12,0,.23.06.35.18.13.13.2.27.2.42,0,.44-.62,1.11-1.85,2.02-1.29.97-2.51,1.45-3.67,1.45-.47,0-.9-.12-1.3-.37-.34-.2-.51-.57-.51-1.1,0-.37.15-.78.46-1.25-1.16.82-2.52,2.23-4.09,4.22-.91,1.23-1.81,2.75-2.7,4.55-.34.67-.75,1.01-1.25,1.01-.54,0-.81-.26-.81-.77s.42-1.83,1.27-4c1.26-3.22,2.58-5.72,3.96-7.49.85-1.1,1.56-1.65,2.13-1.65.19,0,.37.06.53.18.19.15.29.33.29.55s-.15.53-.44.92c-.06.07-.45.56-1.17,1.47-.66.86-1.16,1.72-1.52,2.57Z"/>
        <path d="m197.17,32.39c-.63.88-1.19,1.58-1.67,2.11-.85.94-1.69,1.41-2.53,1.41-.72,0-1.27-.32-1.67-.97-.28-.45-.42-1-.42-1.62,0-1.89.81-4.06,2.42-6.5.75-1.14,1.49-2.01,2.22-2.62.57-.48,1.04-.72,1.41-.72.21,0,.4.09.57.26.15.16.22.32.22.48,0,.28-.27.73-.81,1.36-1.22,1.45-2.14,2.78-2.77,4-.73,1.42-1.1,2.54-1.1,3.34,0,.21.05.36.14.47.09.11.23.17.41.17.75,0,1.79-1.07,3.12-3.21.69-1.11,1.28-2.34,1.78-3.69.26-.73.61-1.38,1.03-1.96.41-.51.81-.77,1.21-.77.22,0,.42.1.59.29.19.21.29.43.29.68,0,.53-.51,1.71-1.52,3.56-.69,1.27-1.03,2.34-1.03,3.19,0,.91.24,1.68.72,2.33.13.18.53.46,1.21.84.32.19.48.5.48.92,0,.26-.11.49-.34.68-.23.19-.5.29-.82.29-.73,0-1.4-.29-2-.88-.54-.53-.89-1.29-1.03-2.29-.03-.13-.07-.51-.11-1.14Z"/>
        <path d="m209.19,32.12c-.48.85-.96,1.57-1.43,2.15-.92,1.14-1.84,1.71-2.75,1.71-.79,0-1.41-.37-1.85-1.12-.28-.48-.42-1.05-.42-1.71,0-1.63.51-3.42,1.54-5.38,1.14-2.18,2.52-3.86,4.13-5.03,1.05-.76,2.07-1.14,3.05-1.14.62,0,1.13.19,1.54.57.35.34.53.72.53,1.14,0,.32-.12.77-.37,1.34.22.31.33.58.33.81,0,.31-.21.81-.62,1.52-.42.72-.85,1.67-1.27,2.86-.45,1.26-.68,2.27-.68,3.03,0,.62.18,1.12.55,1.52.1.1.4.27.9.51.37.18.55.48.55.92,0,.28-.1.51-.31.68-.22.19-.48.29-.77.29-.79,0-1.47-.35-2.04-1.05-.47-.57-.7-1.29-.7-2.15,0-.29.03-.78.09-1.45Zm2.75-7.23c-.18-.32-.37-.56-.57-.71-.21-.15-.43-.23-.66-.23-1.11,0-2.32.97-3.62,2.92-1.44,2.15-2.15,3.98-2.15,5.47,0,.37.07.64.21.83.14.19.35.29.63.29.7,0,1.52-.75,2.46-2.24.53-.82,1.18-2.03,1.96-3.62.51-1.04.89-1.73,1.12-2.07.12-.18.33-.39.64-.64Z"/>
        <path d="m218.38,28.52c1.44-1.54,3.09-3.04,4.97-4.5.67-.53,1.39-1.02,2.15-1.47.38-.22.62-.33.72-.33.22,0,.44.16.66.48.13.18.2.34.2.48,0,.26-.28.62-.83,1.08-1.49,1.19-2.24,2.08-2.24,2.68,0,.34.19.51.57.51.63,0,1.71-.52,3.25-1.56.26-.18.48-.26.66-.26.12,0,.23.06.35.18.13.13.2.27.2.42,0,.44-.62,1.11-1.85,2.02-1.29.97-2.51,1.45-3.67,1.45-.47,0-.9-.12-1.3-.37-.34-.2-.51-.57-.51-1.1,0-.37.15-.78.46-1.25-1.16.82-2.52,2.23-4.09,4.22-.91,1.23-1.81,2.75-2.7,4.55-.34.67-.75,1.01-1.25,1.01-.54,0-.81-.26-.81-.77s.42-1.83,1.27-4c1.26-3.22,2.58-5.72,3.96-7.49.85-1.1,1.56-1.65,2.13-1.65.19,0,.37.06.53.18.19.15.29.33.29.55s-.15.53-.44.92c-.06.07-.45.56-1.17,1.47-.66.86-1.16,1.72-1.52,2.57Z"/>
        <path d="m236.02,29.6c-1.3,1.54-2.34,2.68-3.12,3.43-1.54,1.46-2.82,2.2-3.85,2.2-.5,0-.89-.18-1.19-.55-.22-.29-.33-.66-.33-1.1,0-1.58.94-3.68,2.81-6.31,1.9-2.67,3.28-4,4.13-4,.23,0,.44.1.62.31.16.16.24.35.24.57,0,.32-.08.6-.25.85-.17.24-.65.78-1.44,1.62-.83.86-1.6,1.8-2.31,2.81-.81,1.14-1.21,1.98-1.21,2.5,0,.31.15.46.44.46.59,0,1.68-.8,3.3-2.39,1.01-1.01,1.8-1.86,2.37-2.55.12-.15.63-.84,1.54-2.09.82-1.1,1.33-1.75,1.52-1.96.44-.51.85-.77,1.23-.77.23,0,.45.1.64.31.18.19.26.41.26.66,0,.43-.29,1.14-.88,2.13-.7,1.22-1.35,2.35-1.93,3.41-.92,1.64-1.63,3.11-2.13,4.39.94-.54,1.79-1.21,2.57-2,1.32-1.32,2.12-2.3,2.42-2.94.28-.59.56-.88.86-.88.41,0,.62.21.62.62,0,.78-.66,1.93-1.98,3.47-1.58,1.85-3.53,3.41-5.84,4.7-1.23,2.96-2.39,5.41-3.49,7.36-2.05,3.59-4.17,5.38-6.35,5.38-.89,0-1.61-.34-2.15-1.03-.42-.53-.64-1.19-.64-2,0-2.29,1.6-4.62,4.81-7.01.94-.7,2.33-1.58,4.17-2.64.75-.42,1.33-.77,1.76-1.03.26-.67.67-1.57,1.21-2.68.6-1.2,1.13-2.29,1.58-3.25Zm-4.04,8.64c-1.55.79-3.14,1.92-4.77,3.38-1.64,1.51-2.46,2.92-2.46,4.22,0,.28.08.51.24.7.22.26.5.4.86.4,1.1,0,2.31-1.15,3.65-3.45.22-.38.82-1.65,1.8-3.8.21-.44.43-.92.68-1.45Z"/>
      </g>
    </g>
  </g>
</svg>