<?xml version="1.0" encoding="UTF-8"?>
<svg id="Layer_2" data-name="Layer 2" xmlns="http://www.w3.org/2000/svg" viewBox="0 0 237.13 271.85">
  <defs>
    <style>
      .cls-1 {
        fill: #9cc;
      }

      .cls-2 {
        fill: #c68b90;
      }

      .cls-3 {
        fill: #91c19a;
      }

      .cls-4 {
        fill: #ddad9b;
      }

      .cls-5 {
        fill: #c392cc;
      }

      .cls-6 {
        fill: #b0b0d9;
      }

      .cls-7 {
        font-family: ComicSansMS, 'Comic Sans MS';
        font-size: 20.2px;
      }
    </style>
  </defs>
  <g id="Layer_1-2" data-name="Layer 1">
    <g>
      <path class="cls-6" d="m65.93,10.12c-.02-.61-.04-1.22-.05-1.83-.02-1.84.05-3.75.89-5.38,2.11-4.09,8.31-3.7,10.39.1,1.54,2.8,2.08,6.96,3.04,10.03l3.23,10.42c1.06,3.4,2.12,6.84,2.42,10.39.22,2.56.3,7.02-1.46,9.15-1.93,2.34-5.97,1.14-8.46-.02-1.71-.8-3.32-1.85-4.59-3.24-3.61-3.97-1.66-9.13-2.96-13.86-1.41-5.15-2.26-10.44-2.47-15.77Z"/>
      <path class="cls-5" d="m218.35,154.35c-.55-.43-1.08-.85-1.62-1.25-11.55-8.61-23.1-17.22-34.64-25.83-11.03-8.22-22.06-16.45-33.09-24.67-2.76-2.06-5.52-4.11-8.27-6.17-2.58-1.93-5.78-3.72-8-6.05-4.25-4.45-9.08-8.33-13.82-12.33-4.2-3.54-8.39-7.08-12.59-10.62-2.8-2.36-5.7-4.84-7.6-8.02s-1.59-6.65-.42-10.26c1.31-4.04,8.68-3.83,11.97-2.74,3.38,1.12,6.16,3.51,8.85,5.84,9.73,8.45,19.97,16.57,29.33,25.34,14.18,13.28,29.72,25.03,45.55,36.26,7.53,5.34,15.05,10.68,22.57,16.02,5.35,3.8,27.25,21.28,13.59,27.92-4.58,2.23-8.33-.72-11.79-3.45Z"/>
      <path class="cls-4" d="m37.8,117.21l34.21-3.26c4.04-.39,8.21-.76,12.06.51,3.85,1.27,7.32,4.62,7.39,8.68.06,3.9-3.05,7.29-6.65,8.79s-7.63,1.51-11.53,1.5c-10.37-.03-20.73-.05-31.1-.08-4.56-.01-10.23-.75-11.76-5.05-.92-2.59.23-5.56,2.18-7.5,1.95-1.93,4.58-3.01,7.17-3.92"/>
      <path class="cls-3" d="m31.29,190.74c.19-1.32,1.06-2.45,1.69-3.58s1.74-2.09,2.91-2.65c1.83-.86,3.57-.45,5.49-.49,12.01-.23,24.03-.31,36.04-.46s24.03-.31,36.04-.46c12.01-.15,24.03-.31,36.04-.46s24.03-.31,36.04-.46,24.03-.31,36.04-.46c4.81-.06,9.25-.4,12.81,3.67,7.08,8.12-.96,15.03-8.93,17.21-5.17,1.41-10.61,1.31-15.97,1.2-47.12-.97-94.12-4.23-141.3-3.37-6.44.12-12.91.53-19.35.53-3.89.14-7.93.29-11.52-1.21-3.59-1.5-6.61-5.15-6.04-9Z"/>
      <path class="cls-1" d="m20.83,70.87c5.01,2.09,4.54,7.12,5.18,11.94,1.29,9.72.99,19.2-.4,28.94-1.44,10.04-2.51,20.13-3.21,30.24-1.39,20.23-1.3,40.57.29,60.78.14,1.82.3,3.64.47,5.46.36,3.91.54,7.72.41,11.64-.1,2.96-2.74,4.73-5.55,5.31-2.43.51-4.98.09-7.31-.76-1.88-.69-3.64-1.65-5.36-2.66s-1.78-2.46-2.2-4.38C-1.3,197.3-.1,176.45,1.13,155.92c1.49-24.92,2.97-49.83,4.46-74.75.18-3,.42-6.17,2.15-8.62,2.51-3.56,9.5-3.18,13.1-1.68Z"/>
      <path class="cls-2" d="m85.58,210.82c.54.47,1.07.91,1.58,1.3,4.8,3.62,9.6,7.23,14.4,10.85,10.73,8.09,21.46,16.17,32.2,24.26,4.79,3.61,17.47,12.56,9.28,18.37-3,2.13-6.99,2.52-10.58,1.7-5.18-1.18-9.53-4.57-13.69-7.88-9.72-7.71-19.43-15.42-29.15-23.13-5.02-3.98-10.04-7.97-15.06-11.95-2.43-1.93-4.91-3.8-7.29-5.78s-2.57-3.47-1.91-6.64c.35-1.69,1.21-3.34,2.66-4.27,1.56-1,3.53-1.03,5.38-1.03,2.35,0,4.87-.59,6.97.35,1.77.8,3.55,2.43,5.21,3.85Z"/>
      <g>
        <text class="cls-7" transform="translate(7.78 18.5)"><tspan x="0" y="0">A</tspan></text>
        <text class="cls-7" transform="translate(37.66 18.5)"><tspan x="0" y="0">J</tspan></text>
        <text class="cls-7" transform="translate(67.54 18.5)"><tspan x="0" y="0">I</tspan></text>
        <text class="cls-7" transform="translate(97.42 18.5)"><tspan x="0" y="0">P</tspan></text>
        <text class="cls-7" transform="translate(127.3 18.5)"><tspan x="0" y="0">E</tspan></text>
        <text class="cls-7" transform="translate(157.18 18.5)"><tspan x="0" y="0">B</tspan></text>
        <text class="cls-7" transform="translate(187.06 18.5)"><tspan x="0" y="0">S</tspan></text>
        <text class="cls-7" transform="translate(216.95 18.5)"><tspan x="0" y="0">H</tspan></text>
      </g>
      <g>
        <text class="cls-7" transform="translate(8.15 41.23)"><tspan x="0" y="0">V</tspan></text>
        <text class="cls-7" transform="translate(38.03 41.23)"><tspan x="0" y="0">F</tspan></text>
        <text class="cls-7" transform="translate(67.91 41.23)"><tspan x="0" y="0">M</tspan></text>
        <text class="cls-7" transform="translate(97.79 41.23)"><tspan x="0" y="0">K</tspan></text>
        <text class="cls-7" transform="translate(127.67 41.23)"><tspan x="0" y="0">N</tspan></text>
        <text class="cls-7" transform="translate(157.55 41.23)"><tspan x="0" y="0">M</tspan></text>
        <text class="cls-7" transform="translate(187.43 41.23)"><tspan x="0" y="0">D</tspan></text>
        <text class="cls-7" transform="translate(217.31 41.23)"><tspan x="0" y="0">A</tspan></text>
      </g>
      <g>
        <text class="cls-7" transform="translate(8.97 63.53)"><tspan x="0" y="0">F</tspan></text>
        <text class="cls-7" transform="translate(38.85 63.53)"><tspan x="0" y="0">L</tspan></text>
        <text class="cls-7" transform="translate(68.73 63.53)"><tspan x="0" y="0">B</tspan></text>
        <text class="cls-7" transform="translate(98.61 63.53)"><tspan x="0" y="0">H</tspan></text>
        <text class="cls-7" transform="translate(128.49 63.53)"><tspan x="0" y="0">T</tspan></text>
        <text class="cls-7" transform="translate(158.38 63.53)"><tspan x="0" y="0">Q</tspan></text>
        <text class="cls-7" transform="translate(188.26 63.53)"><tspan x="0" y="0">G</tspan></text>
        <text class="cls-7" transform="translate(218.14 63.53)"><tspan x="0" y="0">V</tspan></text>
      </g>
      <g>
        <text class="cls-7" transform="translate(8.23 86.26)"><tspan x="0" y="0">T</tspan></text>
        <text class="cls-7" transform="translate(38.11 86.26)"><tspan x="0" y="0">R</tspan></text>
        <text class="cls-7" transform="translate(67.99 86.26)"><tspan x="0" y="0">Z</tspan></text>
        <text class="cls-7" transform="translate(97.87 86.26)"><tspan x="0" y="0">L</tspan></text>
        <text class="cls-7" transform="translate(127.75 86.26)"><tspan x="0" y="0">A</tspan></text>
        <text class="cls-7" transform="translate(157.63 86.26)"><tspan x="0" y="0">R</tspan></text>
        <text class="cls-7" transform="translate(187.51 86.26)"><tspan x="0" y="0">S</tspan></text>
        <text class="cls-7" transform="translate(217.39 86.26)"><tspan x="0" y="0">X</tspan></text>
      </g>
      <g>
        <text class="cls-7" transform="translate(8.53 108.14)"><tspan x="0" y="0">A</tspan></text>
        <text class="cls-7" transform="translate(38.41 108.14)"><tspan x="0" y="0">V</tspan></text>
        <text class="cls-7" transform="translate(68.29 108.14)"><tspan x="0" y="0">I</tspan></text>
        <text class="cls-7" transform="translate(98.17 108.14)"><tspan x="0" y="0">T</tspan></text>
        <text class="cls-7" transform="translate(128.06 108.14)"><tspan x="0" y="0">E</tspan></text>
        <text class="cls-7" transform="translate(157.94 108.14)"><tspan x="0" y="0">P</tspan></text>
        <text class="cls-7" transform="translate(187.82 108.14)"><tspan x="0" y="0">V</tspan></text>
        <text class="cls-7" transform="translate(217.7 108.14)"><tspan x="0" y="0">Z</tspan></text>
      </g>
      <g>
        <text class="cls-7" transform="translate(7.78 131.29)"><tspan x="0" y="0">L</tspan></text>
        <text class="cls-7" transform="translate(37.66 131.29)"><tspan x="0" y="0">W</tspan></text>
        <text class="cls-7" transform="translate(67.54 131.29)"><tspan x="0" y="0">E</tspan></text>
        <text class="cls-7" transform="translate(97.42 131.29)"><tspan x="0" y="0">P</tspan></text>
        <text class="cls-7" transform="translate(127.3 131.29)"><tspan x="0" y="0">E</tspan></text>
        <text class="cls-7" transform="translate(157.18 131.29)"><tspan x="0" y="0">C</tspan></text>
        <text class="cls-7" transform="translate(187.06 131.29)"><tspan x="0" y="0">P</tspan></text>
        <text class="cls-7" transform="translate(216.95 131.29)"><tspan x="0" y="0">H</tspan></text>
      </g>
      <g>
        <text class="cls-7" transform="translate(9.12 153.18)"><tspan x="0" y="0">K</tspan></text>
        <text class="cls-7" transform="translate(39 153.18)"><tspan x="0" y="0">Q</tspan></text>
        <text class="cls-7" transform="translate(68.88 153.18)"><tspan x="0" y="0">O</tspan></text>
        <text class="cls-7" transform="translate(98.76 153.18)"><tspan x="0" y="0">K</tspan></text>
        <text class="cls-7" transform="translate(128.64 153.18)"><tspan x="0" y="0">J</tspan></text>
        <text class="cls-7" transform="translate(158.52 153.18)"><tspan x="0" y="0">B</tspan></text>
        <text class="cls-7" transform="translate(188.41 153.18)"><tspan x="0" y="0">C</tspan></text>
        <text class="cls-7" transform="translate(218.29 153.18)"><tspan x="0" y="0">Y</tspan></text>
      </g>
      <g>
        <text class="cls-7" transform="translate(7.78 175.9)"><tspan x="0" y="0">I</tspan></text>
        <text class="cls-7" transform="translate(37.66 175.9)"><tspan x="0" y="0">V</tspan></text>
        <text class="cls-7" transform="translate(67.54 175.9)"><tspan x="0" y="0">I</tspan></text>
        <text class="cls-7" transform="translate(97.42 175.9)"><tspan x="0" y="0">P</tspan></text>
        <text class="cls-7" transform="translate(127.3 175.9)"><tspan x="0" y="0">O</tspan></text>
        <text class="cls-7" transform="translate(157.18 175.9)"><tspan x="0" y="0">B</tspan></text>
        <text class="cls-7" transform="translate(187.06 175.9)"><tspan x="0" y="0">S</tspan></text>
        <text class="cls-7" transform="translate(216.95 175.9)"><tspan x="0" y="0">H</tspan></text>
      </g>
      <g>
        <text class="cls-7" transform="translate(8.25 198.63)"><tspan x="0" y="0">N</tspan></text>
        <text class="cls-7" transform="translate(38.13 198.63)"><tspan x="0" y="0">S</tspan></text>
        <text class="cls-7" transform="translate(68.01 198.63)"><tspan x="0" y="0">T</tspan></text>
        <text class="cls-7" transform="translate(97.89 198.63)"><tspan x="0" y="0">A</tspan></text>
        <text class="cls-7" transform="translate(127.77 198.63)"><tspan x="0" y="0">R</tspan></text>
        <text class="cls-7" transform="translate(157.65 198.63)"><tspan x="0" y="0">T</tspan></text>
        <text class="cls-7" transform="translate(187.53 198.63)"><tspan x="0" y="0">E</tspan></text>
        <text class="cls-7" transform="translate(217.41 198.63)"><tspan x="0" y="0">D</tspan></text>
      </g>
      <g>
        <text class="cls-7" transform="translate(7.78 220.51)"><tspan x="0" y="0">G</tspan></text>
        <text class="cls-7" transform="translate(37.66 220.51)"><tspan x="0" y="0">V</tspan></text>
        <text class="cls-7" transform="translate(67.54 220.51)"><tspan x="0" y="0">S</tspan></text>
        <text class="cls-7" transform="translate(97.42 220.51)"><tspan x="0" y="0">P</tspan></text>
        <text class="cls-7" transform="translate(127.3 220.51)"><tspan x="0" y="0">E</tspan></text>
        <text class="cls-7" transform="translate(157.18 220.51)"><tspan x="0" y="0">C</tspan></text>
        <text class="cls-7" transform="translate(187.06 220.51)"><tspan x="0" y="0">S</tspan></text>
        <text class="cls-7" transform="translate(216.95 220.51)"><tspan x="0" y="0">F</tspan></text>
      </g>
      <g>
        <text class="cls-7" transform="translate(7.78 243.66)"><tspan x="0" y="0">A</tspan></text>
        <text class="cls-7" transform="translate(37.66 243.66)"><tspan x="0" y="0">U</tspan></text>
        <text class="cls-7" transform="translate(67.54 243.66)"><tspan x="0" y="0">I</tspan></text>
        <text class="cls-7" transform="translate(97.42 243.66)"><tspan x="0" y="0">K</tspan></text>
        <text class="cls-7" transform="translate(127.3 243.66)"><tspan x="0" y="0">F</tspan></text>
        <text class="cls-7" transform="translate(157.18 243.66)"><tspan x="0" y="0">R</tspan></text>
        <text class="cls-7" transform="translate(187.06 243.66)"><tspan x="0" y="0">O</tspan></text>
        <text class="cls-7" transform="translate(216.95 243.66)"><tspan x="0" y="0">A</tspan></text>
      </g>
      <g>
        <text class="cls-7" transform="translate(7.78 265.55)"><tspan x="0" y="0">V</tspan></text>
        <text class="cls-7" transform="translate(37.66 265.55)"><tspan x="0" y="0">Q</tspan></text>
        <text class="cls-7" transform="translate(67.54 265.55)"><tspan x="0" y="0">C</tspan></text>
        <text class="cls-7" transform="translate(97.42 265.55)"><tspan x="0" y="0">P</tspan></text>
        <text class="cls-7" transform="translate(127.3 265.55)"><tspan x="0" y="0">I</tspan></text>
        <text class="cls-7" transform="translate(157.18 265.55)"><tspan x="0" y="0">B</tspan></text>
        <text class="cls-7" transform="translate(187.06 265.55)"><tspan x="0" y="0">S</tspan></text>
        <text class="cls-7" transform="translate(216.95 265.55)"><tspan x="0" y="0">Z</tspan></text>
      </g>
    </g>
  </g>
</svg>