<?xml version="1.0" encoding="UTF-8"?>
<svg id="Layer_2" data-name="Layer 2" xmlns="http://www.w3.org/2000/svg" viewBox="0 0 390 390">
  <defs>
    <style>
      .cls-1 {
        fill: #b42e2f;
      }
    </style>
  </defs>
  <g id="Layer_1-2" data-name="Layer 1">
    <g>
      <path class="cls-1" d="m327.85,291.9c.16-.42.3-.83.42-1.22.12-.39.16-.78.13-1.16l-.17-.11c-.24.05-.48.09-.75.11-.26.03-.51.07-.75.11v.07c-.61.08-1.21.17-1.8.29-.59.12-1.13.29-1.62.51-.49.22-.95.52-1.36.9-.41.38-.76.86-1.03,1.46-.61,1.1-1.2,2.24-1.78,3.4-.57,1.17-1.15,2.37-1.74,3.62-.75,1.57-1.55,3.18-2.38,4.82-.13,0-.28.15-.45.45-.44.72-1.02,1.77-1.72,3.13-.71,1.37-1.51,2.84-2.42,4.42-.91,1.58-1.9,3.15-2.98,4.71-1.08,1.56-2.2,2.88-3.36,3.94-.49.49-1.12,1.01-1.89,1.55-.77.55-1.56.95-2.36,1.21-.81.26-1.55.27-2.23.04-.68-.23-1.2-.87-1.56-1.93-.26-.78-.38-1.6-.38-2.46,0-.86.09-1.69.27-2.51.13-.56.23-1.24.29-2.04.06-.79.24-1.42.54-1.87.25-.44.7-.75,1.35-.93.65-.18,1.2-.36,1.65-.55.8-.41,1.56-.82,2.29-1.23.72-.41,1.45-.87,2.19-1.36,1.33-.95,2.62-2.02,3.88-3.2,1.25-1.18,2.33-2.5,3.21-3.95.37-.56.73-1.2,1.05-1.9.33-.7.56-1.43.7-2.2.14-.76.16-1.51.06-2.25-.1-.74-.43-1.39-.98-1.97-.7-.79-1.57-1.13-2.63-1.01-1.05.11-2.01.35-2.87.72-1.37.52-2.67,1.17-3.9,1.96s-2.39,1.7-3.45,2.75c-2.24,2.02-4.14,4.26-5.7,6.72-1.56,2.47-2.76,5.16-3.59,8.07-.33,1.05-.61,2.14-.85,3.29-.23,1.15-.37,2.31-.4,3.5,0,.34.02.68.03,1.02-.06.11-.11.22-.17.33-.72,1.32-1.56,2.53-2.54,3.63-.98,1.1-2.18,1.99-3.61,2.67-.69.24-1.14.19-1.35-.13s-.3-.75-.25-1.27.16-1.06.34-1.61c.18-.55.32-.98.4-1.29.48-1.52.99-2.99,1.54-4.42.54-1.43,1.11-2.87,1.71-4.31.66-1.6,1.4-3.28,2.22-5.04.82-1.76,1.33-3.51,1.51-5.26.05-1.23-.11-2.45-.48-3.65-.36-1.2-1.24-1.98-2.63-2.33-.61-.12-1.25-.13-1.91-.02-.66.11-1.32.28-1.96.5-.64.23-1.24.52-1.81.88-.57.36-1.06.73-1.47,1.1-.97.78-1.85,1.64-2.64,2.59-.79.94-1.58,1.91-2.36,2.9.15-.72.33-1.46.54-2.24.21-.78.3-1.5.26-2.18-.06-.28-.17-.55-.35-.81-.17-.26-.32-.45-.45-.57.05,0-.22.06-.8.2-.58.14-1.26.3-2.03.48-.77.18-1.53.37-2.27.57-.74.2-1.28.33-1.61.4-.38.08-.54.15-.51.21.04.07.08.36.14.89.08.62.17,1.19.27,1.71.1.52.02,1.07-.25,1.67-.14.52-.3,1.01-.47,1.49-.17.47-.34.95-.49,1.42-1.34,3.79-2.71,7.54-4.09,11.25-1.24,3.31-2.51,6.65-3.79,10-.14.2-.28.42-.43.61-.73.98-1.47,1.76-2.21,2.35s-1.41.85-2.01.77c-.29.01-.62-.14-.97-.47-.38-.41-.61-.88-.69-1.4-.08-.52-.08-1.06,0-1.62s.21-1.09.37-1.62c.16-.52.33-.97.5-1.35.43-1.26.91-2.56,1.42-3.88.52-1.33.99-2.64,1.41-3.95.24-.73.5-1.45.78-2.14.28-.69.54-1.38.8-2.07.65-1.65,1.25-3.32,1.82-5.03.56-1.7,1.01-3.57,1.34-5.59.04-.3.02-.58-.06-.83s-.16-.49-.25-.72l-.1-.13-.03-.14c-.45.19-.95.33-1.5.41-.55.08-1.03.17-1.46.26-.56.11-1.27.28-2.1.5s-1.49.5-1.96.83c-.11.17-.18.4-.19.7-.01.3-.04.57-.09.83.02.09.03.19.02.29,0,.1,0,.2.02.29-.05.5-.08.98-.11,1.45-.03.47-.15,1.02-.37,1.65-.43,1.26-.87,2.52-1.3,3.79-.43,1.26-.87,2.5-1.31,3.71-.67,1.55-1.29,3.15-1.87,4.78-.58,1.63-1.1,3.36-1.57,5.16-.13.57-.25,1.2-.36,1.87-.09.15-.18.31-.27.46-.81,1.34-1.58,2.5-2.31,3.47-.73.98-1.41,1.65-2.02,2.02-1.01.59-1.94.75-2.81.45-.87-.29-1.26-1.08-1.17-2.37.19-2.19.67-4.66,1.41-7.41.75-2.74,1.62-5.6,2.61-8.57s2.07-5.92,3.21-8.87c1.15-2.95,2.25-5.7,3.3-8.26l6-1.2-.5-2.47-4.66.93c1.03-2.41,1.89-4.53,2.58-6.36.69-1.83,1.23-3.39,1.63-4.7.4-1.3.68-2.41.84-3.33.16-.91.25-1.67.28-2.26.06-.21-.33-.28-1.14-.21-.82.07-1.72.2-2.71.4-.9.18-1.73.4-2.51.65-.78.26-1.32.51-1.61.76-.15.23-.26.52-.34.88-.07.36-.13.69-.17.99.02.09.01.18-.02.26-.03.08-.04.17-.02.26-.07,1.14-.3,2.4-.71,3.78-.41,1.38-.81,2.7-1.19,3.95v-.07s-.51,1.57-.51,1.57l-2.16,4.99-6,1.2.5,2.47,4.73-.95-2.48,6.67c-1.71,4.65-3.12,8.55-4.23,11.68-1.11,3.14-1.97,5.76-2.57,7.86-.61,2.1-.96,3.84-1.05,5.2,0,.13,0,.25-.01.38-.55.88-1.15,1.72-1.83,2.49-.98,1.1-2.18,1.99-3.61,2.67-.69.24-1.14.19-1.35-.13s-.3-.75-.25-1.27.16-1.06.34-1.61c.18-.55.32-.98.4-1.29.48-1.52.99-2.99,1.54-4.42.55-1.43,1.11-2.87,1.71-4.31.66-1.6,1.4-3.28,2.22-5.04.82-1.76,1.33-3.51,1.51-5.26.05-1.23-.11-2.45-.47-3.65-.36-1.2-1.24-1.98-2.63-2.33-.61-.12-1.25-.13-1.91-.02-.66.11-1.32.28-1.96.5-.64.23-1.24.52-1.81.88-.57.36-1.05.73-1.47,1.1-.97.78-1.85,1.64-2.64,2.59-.79.94-1.57,1.91-2.36,2.9.15-.72.33-1.46.54-2.24.21-.78.3-1.5.26-2.18-.06-.28-.17-.55-.35-.81s-.32-.45-.45-.57c.05,0-.22.06-.8.2-.58.14-1.26.3-2.03.48-.77.18-1.53.37-2.27.57-.74.2-1.28.33-1.61.4-.38.08-.55.15-.51.21.04.07.08.36.14.89.08.62.17,1.19.27,1.71.1.52.02,1.07-.25,1.67-.14.52-.3,1.01-.47,1.49-.17.47-.34.95-.49,1.42-1.17,3.29-2.35,6.54-3.55,9.76-.63,1.2-1.32,2.46-2.1,3.82-.91,1.58-1.9,3.15-2.98,4.71-1.08,1.56-2.2,2.88-3.36,3.94-.49.49-1.12,1.01-1.89,1.55-.77.55-1.56.95-2.36,1.21-.81.26-1.55.27-2.23.04-.68-.23-1.2-.87-1.56-1.93-.25-.78-.38-1.6-.38-2.46,0-.86.09-1.69.27-2.51.13-.56.23-1.25.29-2.04.06-.79.24-1.42.54-1.87.25-.44.7-.75,1.35-.93.65-.18,1.2-.36,1.65-.55.8-.4,1.56-.81,2.29-1.23.72-.41,1.45-.87,2.19-1.36,1.33-.95,2.62-2.02,3.88-3.2,1.25-1.18,2.33-2.5,3.21-3.95.38-.56.73-1.2,1.05-1.9.32-.7.56-1.43.7-2.2s.16-1.51.06-2.25c-.1-.74-.43-1.39-.98-1.97-.7-.79-1.57-1.13-2.63-1.01-1.05.11-2.01.35-2.86.72-1.37.52-2.67,1.17-3.9,1.96s-2.39,1.7-3.45,2.75c-2.24,2.02-4.14,4.26-5.7,6.72-1.56,2.47-2.76,5.16-3.59,8.07-.33,1.04-.61,2.14-.85,3.29-.23,1.15-.37,2.31-.4,3.5,0,.23.02.46.02.69-.41.7-.84,1.39-1.31,2.07-.85,1.25-1.84,2.38-2.96,3.38-.69.48-1.26.66-1.73.53s-.74-.4-.83-.83c-.22-.59-.23-1.28-.04-2.05.19-.77.36-1.37.52-1.79,1.11-3.99,2.32-7.94,3.64-11.86s2.66-7.81,4-11.71c1.35-3.89,2.69-7.76,4.02-11.6,1.33-3.84,2.59-7.69,3.78-11.55,0-.24-.05-.67-.15-1.29-.1-.62-.35-.96-.76-1.02-.33.07-.85.22-1.56.46-.71.24-1.47.49-2.27.75-.8.26-1.54.5-2.2.74s-1.08.39-1.26.47c0,.25.04.56.11.93.08.38.14.68.18.92.02.34,0,.67-.06,1-.06.33-.15.68-.27,1.04-1.26,3.73-2.53,7.42-3.8,11.08-1.27,3.66-2.57,7.33-3.88,11.02-1.08,3.15-2.21,6.27-3.38,9.34-.58,1.53-1.12,3.07-1.62,4.64-.59,1.04-1.13,2.12-1.61,3.25-.6,1.42-1.21,2.84-1.83,4.26-.62,1.42-1.33,2.78-2.12,4.06-.79,1.29-1.78,2.44-2.94,3.45-.89.47-1.47.44-1.74-.09-.28-.53-.4-1.24-.35-2.13.04-.89.18-1.8.41-2.72.23-.93.41-1.55.54-1.87,1.46-3.72,2.78-7.51,3.96-11.37,1.18-3.86,2.41-7.73,3.69-11.61l-7.06,1.42c-.13.57-.29,1.11-.48,1.64-.19.53-.37,1.08-.55,1.65-.73-1.18-1.58-1.89-2.56-2.13s-1.99-.21-3.03.09-2.07.79-3.08,1.46c-1.02.67-1.9,1.32-2.65,1.96-2.17,1.86-4.09,3.96-5.75,6.29-1.66,2.34-3.03,4.84-4.11,7.51-.49,1.22-.95,2.52-1.39,3.88-.44,1.36-.74,2.74-.89,4.14-.16,1.4-.13,2.78.09,4.13.22,1.35.75,2.63,1.58,3.83.83,1.21,1.72,1.92,2.67,2.14.95.22,1.91.13,2.88-.28.97-.41,1.91-1.07,2.84-1.96.92-.89,1.79-1.87,2.61-2.91.82-1.05,1.56-2.06,2.21-3.05s1.19-1.82,1.59-2.49c.06.77.16,1.61.32,2.51.16.9.41,1.73.76,2.49.35.76.83,1.35,1.46,1.76.62.41,1.47.49,2.54.22,1.97-.88,3.62-2.1,4.93-3.63,1.31-1.54,2.45-3.23,3.42-5.09.67-1.29,1.28-2.61,1.86-3.95-.07.47-.13.97-.19,1.52-.14,1.47-.08,2.87.18,4.19.26,1.32.8,2.37,1.59,3.17.8.79,2.03.97,3.71.54,2.03-.85,3.77-2.08,5.21-3.69,1.27-1.42,2.38-2.98,3.36-4.69.01.06.02.12.03.19.25,1.12.71,2.13,1.38,3.03.79,1.02,1.72,1.69,2.79,2.01,1.07.32,2.16.4,3.28.22,1.11-.18,2.22-.53,3.31-1.07,1.09-.54,2.03-1.15,2.82-1.85.54-.45,1.22-1.15,2.04-2.1.81-.95,1.69-2.03,2.62-3.24.65-.84,1.29-1.75,1.93-2.69-.51,1.34-1,2.66-1.52,4-.43,1.26-.73,2.2-.9,2.83s-.15,1.02.06,1.2c.21.18.65.2,1.33.06s1.71-.34,3.07-.62c.23-.09.61-.16,1.14-.19.53-.03.89-.17,1.09-.4.15-.23.29-.55.43-.97.14-.42.23-.75.28-1.01,1.14-2.87,2.29-5.73,3.45-8.59,1.17-2.85,2.32-5.72,3.46-8.59.26-.64.53-1.27.8-1.89.27-.62.59-1.23.95-1.84.83-1.49,1.73-3.03,2.71-4.62.98-1.59,2.2-2.9,3.65-3.93.35-.22.73-.46,1.14-.74.41-.28.83-.34,1.25-.18.48.2.72.59.71,1.18,0,.59-.09,1.09-.25,1.52-.17.62-.38,1.24-.62,1.85-.24.61-.5,1.21-.78,1.81-.53,1.53-1.11,3.06-1.75,4.61-.64,1.55-1.25,3.09-1.83,4.63-.36.9-.75,1.91-1.19,3.03-.44,1.12-.8,2.25-1.08,3.41-.28,1.16-.4,2.29-.34,3.41.05,1.12.39,2.12,1.01,3.03.56.82,1.21,1.34,1.96,1.55.75.22,1.55.21,2.39,0,1.96-.74,3.68-1.78,5.17-3.13,1.42-1.29,2.67-2.72,3.77-4.3.05.28.1.56.16.83.52,1.61,1.47,2.64,2.86,3.1,1.39.46,2.84.41,4.34-.14,1.5-.84,2.93-1.96,4.32-3.36,1.38-1.4,2.69-2.94,3.92-4.61,0,0,.01-.02.02-.02-.02.7.03,1.38.17,2.04.21,1.04.62,1.88,1.24,2.54.53.68,1.12,1.08,1.79,1.22.66.14,1.32.14,1.98,0,1.88-.38,3.52-1.1,4.93-2.16.42-.31.81-.65,1.2-1.01-.02.3.03.51.16.62.21.18.65.2,1.34.06.68-.14,1.71-.34,3.07-.62.23-.09.6-.16,1.14-.19.53-.03.9-.17,1.09-.4.15-.23.29-.55.43-.97.14-.42.23-.75.27-1.01,1.14-2.87,2.29-5.73,3.45-8.59,1.17-2.85,2.32-5.72,3.45-8.59.26-.64.53-1.27.8-1.89.27-.62.59-1.23.95-1.84.83-1.49,1.73-3.03,2.71-4.62.98-1.59,2.2-2.9,3.66-3.93.35-.22.73-.46,1.14-.74.41-.28.83-.34,1.25-.18.48.2.72.59.71,1.18,0,.59-.09,1.09-.25,1.52-.17.62-.38,1.24-.62,1.85-.24.61-.5,1.21-.78,1.81-.53,1.53-1.11,3.06-1.75,4.61-.64,1.55-1.25,3.09-1.83,4.63-.36.9-.75,1.91-1.19,3.03-.44,1.12-.8,2.25-1.08,3.41-.28,1.16-.4,2.29-.34,3.41.05,1.12.39,2.12,1.01,3.03.56.82,1.21,1.34,1.96,1.55.75.22,1.55.21,2.39,0,1.96-.74,3.68-1.78,5.17-3.13,1.49-1.35,2.8-2.86,3.94-4.54.3-.45.58-.92.86-1.38.25,1.12.71,2.13,1.38,3.02.79,1.02,1.72,1.69,2.79,2.01,1.07.32,2.16.4,3.28.22,1.11-.17,2.22-.53,3.31-1.07.41-.2.79-.43,1.16-.66.02.01.03.03.04.05.32.25.72.26,1.21.01.45-.19.85-.45,1.2-.79.35-.34.68-.69,1-1.05,2.58-3.26,4.87-6.69,6.89-10.3,2.02-3.61,3.98-7.25,5.89-10.91.56-1.09,1.11-2.14,1.64-3.16.53-1.01,1.11-2.04,1.73-3.1,0,3.38-.16,6.84-.45,10.37-.29,3.54-.97,6.95-2.02,10.25-.14.27-.34.63-.59,1.07-.25.44-.54.89-.87,1.35-.32.46-.67.87-1.04,1.24-.37.37-.74.59-1.12.66-.5.2-.96.05-1.38-.46-.42-.5-.68-1.01-.78-1.53-.06-.28-.08-.5-.06-.65.02-.4,0-.77-.08-1.12-.07-.35-.27-.59-.59-.73-.47-.15-.98-.05-1.52.3-.54.35-.93.68-1.16.97-.35.46-.57.92-.68,1.38-.1.46-.11.9-.03,1.33.13.66.48,1.25,1.05,1.77.57.52,1.24.88,2.01,1.07,1.12.21,2.29.2,3.52-.04.94-.19,1.84-.48,2.69-.87.85-.39,1.64-.85,2.36-1.39,1.8-1.29,3.17-2.78,4.13-4.46.96-1.69,1.66-3.48,2.12-5.38.45-1.9.72-3.86.8-5.89.08-2.02.14-4.07.17-6.13v.07c.01-1.22.01-2.51.01-3.86,0-1.34.08-2.6.24-3.76l.49-1.2Zm-28.23,13.56c.79-1.8,1.72-3.54,2.81-5.23.08-.11.24-.38.5-.8.26-.42.56-.86.91-1.32.35-.46.73-.92,1.16-1.37.42-.45.83-.8,1.22-1.05.39-.25.74-.36,1.04-.32.3.04.53.31.68.82.17.6.14,1.33-.08,2.18-.22.85-.42,1.57-.6,2.14-.29.75-.65,1.46-1.07,2.16-.42.7-.89,1.37-1.4,2.01-1.01,1.33-2.09,2.6-3.24,3.81-1.15,1.21-2.54,2.03-4.17,2.45.7-1.85,1.45-3.68,2.24-5.48Zm-109.77,22.02c.79-1.8,1.72-3.54,2.81-5.23.08-.11.24-.38.5-.8.26-.42.56-.86.91-1.32.35-.46.73-.92,1.16-1.37.42-.45.83-.8,1.22-1.05.39-.25.74-.36,1.04-.32.3.04.53.31.68.82.17.6.14,1.33-.08,2.18-.22.85-.42,1.57-.6,2.14-.29.74-.65,1.46-1.07,2.16s-.89,1.37-1.4,2.01c-1.01,1.33-2.09,2.6-3.24,3.81-1.15,1.21-2.54,2.03-4.17,2.45.7-1.85,1.45-3.68,2.24-5.48Zm-34.84,5.7c-.3,1.29-.66,2.51-1.06,3.66-.4,1.16-.8,2.19-1.18,3.1-.38.91-.61,1.52-.7,1.83-.63,1.99-1.4,3.9-2.3,5.75-.9,1.85-1.95,3.6-3.13,5.25-.26.4-.63.82-1.1,1.29-.47.46-.97.84-1.5,1.15-.53.3-1.07.46-1.63.47-.56.01-1.07-.25-1.52-.8-.5-.54-.77-1.23-.82-2.08-.05-.85,0-1.73.17-2.64.16-.91.37-1.8.64-2.66.27-.86.49-1.58.67-2.15.61-1.84,1.3-3.66,2.06-5.48.76-1.82,1.56-3.59,2.38-5.32.44-.72.9-1.49,1.38-2.29.47-.8,1-1.6,1.58-2.37.58-.78,1.19-1.46,1.83-2.05.64-.59,1.32-1.04,2.05-1.33,1.05-.11,1.77.13,2.13.75.37.61.54,1.43.53,2.46s-.17,2.19-.48,3.47Z"/>
      <path class="cls-1" d="m130.75,70.3c.56-1.75,1.13-3.5,1.74-5.23.61-1.74,1.2-3.47,1.78-5.2s1.08-3.5,1.51-5.3c0-.2.07-.45.17-.77.11-.32.21-.63.29-.94.08-.31.14-.62.18-.92.04-.3,0-.54-.14-.71-.32-.38-.83-.46-1.52-.25-.69.21-1.24.39-1.66.52-.65.18-1.33.37-2.05.56-.72.19-1.42.41-2.11.64-.45,3.37-1.19,6.65-2.21,9.84-1.03,3.19-2,6.4-2.92,9.62-.34,1-.62,2.23-.84,3.69-.22,1.46-.25,2.88-.1,4.24.15,1.36.58,2.54,1.29,3.52.71.98,1.85,1.49,3.43,1.52,1.23.05,2.42-.23,3.58-.83,1.15-.6,2.23-1.37,3.25-2.3,1.01-.94,1.94-1.94,2.77-3.02.84-1.07,1.55-2.08,2.14-3.04,1.38-2.38,2.72-4.87,4.01-7.45,1.29-2.58,2.3-5.22,3.04-7.92.41-1.36.74-2.71.98-4.05.24-1.35.42-2.72.54-4.11.05-.5.07-1.07.06-1.7,0-.63-.07-1.26-.19-1.87-.12-.61-.35-1.14-.69-1.59s-.83-.73-1.49-.84c-.56-.13-1.13-.03-1.7.3-.57.33-1,.73-1.31,1.18-.29.5-.42.98-.37,1.43.04.46.16.94.36,1.43.52,1.36.74,2.78.67,4.24-.07,1.46-.24,2.9-.49,4.32-.42,2.78-1.07,5.52-1.95,8.21-.88,2.7-2,5.28-3.36,7.76-.58,1-1.29,1.97-2.13,2.92-.84.95-1.77,1.65-2.81,2.11-.72.29-1.31.3-1.76.02s-.77-.69-.98-1.24c-.21-.55-.34-1.14-.4-1.79s-.04-1.23.06-1.74c.33-1.78.77-3.54,1.32-5.3Z"/>
      <path class="cls-1" d="m28.06,119.39c.14-.3.17-.61.11-.94-.11-.81-.44-1.41-.98-1.79-.54-.38-1.13-.58-1.77-.6-.64-.02-1.26.13-1.86.45-.6.31-1.05.8-1.36,1.45-.27.59-.39,1.27-.37,2.02.03.75.16,1.48.4,2.2.24.71.57,1.33,1,1.86.43.53.92.88,1.5,1.06,2.55.76,4.97.88,7.26.34s4.46-1.5,6.51-2.88c2.05-1.39,3.96-3.1,5.73-5.12,1.77-2.02,3.39-4.17,4.84-6.44,1.45-2.27,2.76-4.55,3.91-6.84,1.16-2.29,2.15-4.4,2.99-6.33.41-.87.8-1.24,1.17-1.12.37.12,1,.36,1.91.72,1.67.5,3.33.44,5-.16s3.19-1.38,4.56-2.35c1.43-.92,2.73-1.98,3.92-3.17,1.18-1.19,2.19-2.48,3.04-3.88,1.04-1.63,2.02-3.45,2.94-5.47.92-2.02,1.58-4.1,1.98-6.24.43-1.75.62-3.48.58-5.18-.05-1.7-.37-3.33-.98-4.87-.68-1.43-1.66-2.42-2.95-2.97-1.28-.55-2.66-.56-4.12-.02-1.52.7-2.83,1.69-3.92,2.99-1.09,1.29-2.12,2.55-3.1,3.78.12-.61.21-1.28.26-2,.05-.72-.03-1.38-.25-1.97-.03-.14-.07-.28-.12-.42s-.17-.31-.36-.52c-.52.1-1.13.24-1.83.4-.7.17-1.38.34-2.03.52-.65.18-1.23.33-1.74.46-.51.13-.82.2-.91.22.04.68.08,1.25.12,1.7.04.46,0,.94-.15,1.46-.35,1.69-.86,3.4-1.54,5.15-.67,1.75-1.27,3.44-1.78,5.06-.63,1.74-1.26,3.5-1.88,5.26-.63,1.77-1.21,3.49-1.75,5.16-.54,1.72-1.12,3.37-1.76,4.94-.64,1.57-1.28,3.18-1.93,4.83-.75,1.62-1.5,3.27-2.24,4.97-.74,1.69-1.51,3.33-2.32,4.91-.67,1.31-1.41,2.68-2.22,4.12-.81,1.44-1.74,2.78-2.79,4.05-1.04,1.26-2.21,2.34-3.5,3.24-1.29.9-2.75,1.43-4.38,1.61-.53.06-1.1.05-1.73-.02-.62-.07-1.11-.34-1.45-.81-.21-.3-.29-.62-.26-.94.03-.33.1-.65.21-.96.11-.32.23-.62.37-.92Zm30.73-28.38c.38-1.54.86-3.07,1.47-4.59.6-1.52,1.17-3.01,1.71-4.49,1.06-3,2.38-5.94,3.96-8.8.33-.55.69-1.18,1.09-1.87.4-.69.84-1.36,1.33-1.99.48-.63,1.01-1.2,1.57-1.71.56-.5,1.18-.87,1.87-1.11,1.43-.43,2.35-.18,2.76.77.41.95.49,2.25.24,3.92-.25,1.67-.72,3.56-1.39,5.68-.68,2.12-1.41,4.14-2.2,6.06-.79,1.92-1.52,3.6-2.19,5.03-.67,1.43-1.09,2.31-1.27,2.64-.33.56-.72,1.15-1.19,1.78-.46.63-.96,1.21-1.49,1.73-.53.52-1.11.93-1.74,1.23-.63.3-1.31.42-2.06.38-1.29-.08-2.08-.62-2.38-1.62-.3-.99-.33-2-.09-3.03Z"/>
      <path class="cls-1" d="m2.44,258.83c.04-.3.02-.58-.06-.83s-.16-.49-.25-.72l-.1-.13-.03-.14c-.45.19-.95.33-1.5.41-.18.03-.34.06-.5.08v10.05c.38-1.03.75-2.07,1.1-3.13.56-1.7,1.01-3.57,1.34-5.59Z"/>
      <path class="cls-1" d="m4.42,181.9c.48-1.52.99-2.99,1.54-4.42.54-1.43,1.11-2.87,1.71-4.31.66-1.6,1.4-3.28,2.22-5.04.82-1.76,1.33-3.51,1.51-5.26.05-1.23-.11-2.45-.48-3.65-.36-1.2-1.24-1.98-2.63-2.33-.61-.12-1.25-.13-1.91-.02-.66.11-1.32.28-1.96.5-.64.23-1.24.52-1.81.88-.57.36-1.06.73-1.47,1.1-.4.32-.77.67-1.14,1.02v2.66c.41-.38.84-.74,1.3-1.07.35-.22.73-.46,1.14-.74.41-.28.83-.34,1.25-.18.48.2.72.59.71,1.18,0,.59-.09,1.09-.25,1.52-.17.62-.38,1.24-.62,1.85-.24.61-.5,1.22-.78,1.81-.53,1.53-1.11,3.06-1.75,4.61-.35.85-.67,1.69-1,2.54v16.62c.61.1,1.26.07,1.92-.1,1.96-.74,3.68-1.78,5.17-3.13,1.49-1.35,2.8-2.86,3.94-4.54.3-.45.58-.92.86-1.38.25,1.12.71,2.13,1.38,3.02.79,1.02,1.72,1.69,2.79,2.01,1.07.32,2.16.4,3.28.22,1.11-.18,2.22-.53,3.31-1.07.41-.2.79-.43,1.16-.66.02.01.03.03.04.05.32.25.72.26,1.21.01.45-.19.85-.45,1.2-.79.35-.34.68-.69,1-1.05,2.58-3.26,4.87-6.69,6.89-10.3,2.02-3.61,3.98-7.25,5.89-10.91.56-1.09,1.11-2.14,1.64-3.16.53-1.01,1.11-2.04,1.73-3.1,0,3.38-.16,6.84-.45,10.37-.29,3.54-.97,6.95-2.02,10.25-.14.27-.34.63-.59,1.07-.25.44-.54.89-.87,1.35-.32.46-.67.87-1.04,1.24-.37.37-.74.59-1.12.66-.5.2-.96.05-1.38-.46-.42-.5-.68-1.01-.78-1.53-.06-.28-.08-.5-.06-.65.02-.4,0-.77-.08-1.12-.07-.35-.27-.59-.59-.73-.47-.15-.98-.05-1.52.3-.54.35-.93.68-1.16.97-.35.46-.57.92-.68,1.38-.1.46-.11.9-.03,1.33.13.66.48,1.25,1.05,1.77.57.52,1.24.88,2.01,1.07,1.12.22,2.29.2,3.52-.04.94-.19,1.84-.48,2.69-.87.85-.39,1.64-.85,2.36-1.39,1.8-1.29,3.17-2.78,4.13-4.46.96-1.69,1.66-3.48,2.12-5.38.45-1.9.72-3.86.8-5.89.08-2.02.14-4.07.17-6.13v.07c.01-1.22.01-2.51.01-3.86,0-1.34.08-2.6.24-3.76l.49-1.2c.16-.42.3-.83.42-1.22.12-.39.16-.78.13-1.16l-.17-.11c-.24.05-.48.09-.75.11-.26.03-.51.07-.75.11v.07c-.61.08-1.21.17-1.8.29-.59.12-1.13.29-1.62.51-.49.22-.95.52-1.36.9s-.76.86-1.03,1.46c-.61,1.1-1.2,2.24-1.78,3.4-.57,1.17-1.15,2.37-1.74,3.62-.75,1.57-1.55,3.18-2.38,4.82-.13,0-.28.15-.45.45-.44.73-1.02,1.77-1.72,3.14-.71,1.37-1.51,2.84-2.42,4.41-.91,1.58-1.9,3.15-2.98,4.71-1.08,1.56-2.2,2.88-3.36,3.94-.49.49-1.12,1.01-1.89,1.55-.77.55-1.56.95-2.36,1.21-.81.26-1.55.27-2.23.04-.68-.23-1.2-.87-1.56-1.93-.26-.78-.38-1.6-.38-2.46,0-.86.09-1.69.27-2.51.13-.56.23-1.24.29-2.04.06-.79.24-1.42.54-1.87.25-.44.7-.75,1.35-.93.65-.18,1.2-.36,1.65-.55.8-.41,1.56-.82,2.29-1.23.72-.41,1.45-.87,2.19-1.36,1.33-.95,2.62-2.02,3.88-3.2,1.25-1.18,2.33-2.5,3.21-3.95.37-.56.73-1.2,1.05-1.9.33-.7.56-1.43.7-2.2.14-.76.16-1.51.06-2.25-.1-.74-.43-1.39-.98-1.97-.7-.79-1.57-1.13-2.63-1.01-1.05.11-2.01.35-2.87.72-1.37.52-2.67,1.17-3.9,1.96-1.24.79-2.39,1.7-3.45,2.75-2.24,2.02-4.14,4.26-5.7,6.72-1.56,2.47-2.76,5.16-3.59,8.07-.33,1.05-.61,2.14-.85,3.29-.23,1.15-.37,2.31-.4,3.49,0,.34.02.68.03,1.02-.06.11-.11.22-.17.33-.72,1.32-1.56,2.53-2.54,3.63-.98,1.1-2.18,1.99-3.61,2.67-.69.24-1.14.19-1.35-.13-.21-.32-.3-.75-.25-1.27s.16-1.06.34-1.61c.18-.55.32-.98.4-1.29Zm18.01-17.68c.79-1.8,1.72-3.54,2.81-5.23.08-.11.24-.38.5-.8.26-.42.56-.86.91-1.32.35-.46.73-.92,1.16-1.37.42-.45.83-.8,1.22-1.05.39-.25.74-.36,1.04-.32.3.04.53.31.68.82.17.6.14,1.33-.08,2.18-.22.85-.42,1.57-.6,2.14-.29.74-.65,1.46-1.07,2.16-.42.7-.89,1.37-1.4,2.01-1.01,1.33-2.09,2.6-3.24,3.81-1.15,1.21-2.54,2.03-4.17,2.45.7-1.85,1.45-3.68,2.24-5.48Z"/>
      <path class="cls-1" d="m4.35,247.83c.8-.92,1.29-1.86,1.49-2.83.09-.51.09-1.01,0-1.5-.1-.49-.28-.92-.55-1.28-.27-.36-.63-.61-1.07-.74-.44-.13-.97-.11-1.57.06-.56.16-1.07.45-1.55.86-.43.37-.78.81-1.09,1.32v5.23c.1.1.21.18.32.25.48.3.97.39,1.49.29.89-.18,1.74-.73,2.53-1.65Z"/>
      <path class="cls-1" d="m70.72,245.57c.16-.42.3-.83.42-1.22.12-.39.16-.78.13-1.16l-.17-.11c-.24.05-.48.09-.75.11-.26.03-.51.07-.75.11v.07c-.61.08-1.21.17-1.8.29-.59.12-1.13.29-1.62.51-.49.22-.95.52-1.36.9-.41.38-.76.86-1.03,1.46-.61,1.1-1.2,2.24-1.78,3.4-.57,1.17-1.15,2.37-1.74,3.62-.75,1.57-1.55,3.18-2.38,4.82-.13,0-.28.15-.45.45-.44.72-1.02,1.77-1.72,3.13-.71,1.37-1.51,2.84-2.42,4.42-.91,1.58-1.9,3.15-2.98,4.71-1.08,1.56-2.2,2.88-3.36,3.94-.49.49-1.12,1.01-1.89,1.55-.77.55-1.56.95-2.36,1.21-.81.26-1.55.27-2.23.04-.68-.23-1.2-.87-1.56-1.93-.26-.78-.38-1.6-.38-2.46,0-.86.09-1.69.27-2.51.13-.56.23-1.24.29-2.04.06-.79.24-1.42.54-1.87.25-.44.7-.75,1.35-.93.65-.18,1.2-.36,1.65-.55.8-.41,1.56-.82,2.29-1.23.72-.41,1.45-.87,2.19-1.36,1.33-.95,2.62-2.02,3.88-3.2,1.25-1.18,2.33-2.5,3.21-3.95.37-.56.73-1.2,1.05-1.9.33-.7.56-1.43.7-2.2.14-.76.16-1.51.06-2.25-.1-.74-.43-1.39-.98-1.97-.7-.79-1.57-1.13-2.63-1.01-1.05.11-2.01.35-2.87.72-1.37.52-2.67,1.17-3.9,1.96s-2.39,1.7-3.45,2.75c-2.24,2.02-4.14,4.26-5.7,6.72-1.56,2.47-2.76,5.16-3.59,8.07-.33,1.05-.61,2.14-.85,3.29-.23,1.15-.37,2.31-.4,3.5,0,.34.02.68.03,1.02-.06.11-.11.22-.17.33-.72,1.32-1.56,2.53-2.54,3.63-.98,1.1-2.18,1.99-3.61,2.67-.69.24-1.14.19-1.35-.13s-.3-.75-.25-1.27.16-1.06.34-1.61c.18-.55.32-.98.4-1.29.48-1.52.99-2.99,1.54-4.42.54-1.43,1.11-2.87,1.71-4.31.66-1.6,1.4-3.28,2.22-5.04.82-1.76,1.33-3.51,1.51-5.26.05-1.23-.11-2.45-.48-3.65-.36-1.2-1.24-1.98-2.63-2.33-.61-.12-1.25-.13-1.91-.02-.66.11-1.32.28-1.96.5-.64.23-1.24.52-1.81.88-.57.36-1.06.73-1.47,1.1-.97.78-1.85,1.64-2.64,2.59-.79.94-1.58,1.91-2.36,2.9.15-.72.33-1.46.54-2.24.21-.78.3-1.5.26-2.18-.06-.28-.17-.55-.35-.81-.17-.26-.32-.45-.45-.57.05,0-.22.06-.8.2-.58.14-1.26.3-2.03.48-.77.18-1.53.37-2.27.57-.74.2-1.28.33-1.61.4-.38.08-.54.15-.51.21.04.07.08.36.14.89.08.62.17,1.19.27,1.71.1.52.02,1.07-.25,1.67-.14.52-.3,1.01-.47,1.49-.17.47-.34.95-.49,1.42-1.34,3.79-2.71,7.54-4.09,11.25-1.24,3.31-2.51,6.65-3.79,10-.1.14-.2.29-.3.43v4.92c.11-.01.21-.03.33-.05.68-.14,1.71-.34,3.07-.62.23-.09.6-.16,1.14-.19.53-.03.9-.17,1.09-.4.15-.23.29-.55.43-.97.14-.42.23-.75.27-1.01,1.14-2.87,2.29-5.73,3.45-8.59,1.17-2.85,2.32-5.72,3.45-8.59.26-.64.53-1.27.8-1.89.27-.62.59-1.23.95-1.84.83-1.49,1.73-3.03,2.71-4.62.98-1.59,2.2-2.9,3.66-3.93.35-.22.73-.46,1.14-.74.41-.28.83-.34,1.25-.18.48.2.72.59.71,1.18,0,.59-.09,1.09-.25,1.52-.17.62-.38,1.24-.62,1.85-.24.61-.5,1.21-.78,1.81-.53,1.53-1.11,3.06-1.75,4.61-.64,1.55-1.25,3.09-1.83,4.63-.36.9-.75,1.91-1.19,3.03-.44,1.12-.8,2.25-1.08,3.41-.28,1.16-.4,2.29-.34,3.41.05,1.12.39,2.12,1.01,3.03.56.82,1.21,1.34,1.96,1.55.75.22,1.55.21,2.39,0,1.96-.74,3.68-1.78,5.17-3.13,1.49-1.35,2.8-2.86,3.94-4.54.3-.45.58-.92.86-1.38.25,1.12.71,2.13,1.38,3.02.79,1.02,1.72,1.69,2.79,2.01,1.07.32,2.16.4,3.28.22,1.11-.17,2.22-.53,3.31-1.07.41-.2.79-.43,1.16-.66.02.01.03.03.04.05.32.25.72.26,1.21.01.45-.19.85-.45,1.2-.79.35-.34.68-.69,1-1.05,2.58-3.26,4.87-6.69,6.89-10.3,2.02-3.61,3.98-7.25,5.89-10.91.56-1.09,1.11-2.14,1.64-3.16.53-1.01,1.11-2.04,1.73-3.1,0,3.38-.16,6.84-.45,10.37-.29,3.54-.97,6.95-2.02,10.25-.14.27-.34.63-.59,1.07-.25.44-.54.89-.87,1.35-.32.46-.67.87-1.04,1.24-.37.37-.74.59-1.12.66-.5.2-.96.05-1.38-.46-.42-.5-.68-1.01-.78-1.53-.06-.28-.08-.5-.06-.65.02-.4,0-.77-.08-1.12-.07-.35-.27-.59-.59-.73-.47-.15-.98-.05-1.52.3-.54.35-.93.68-1.16.97-.35.46-.57.92-.68,1.38-.1.46-.11.9-.03,1.33.13.66.48,1.25,1.05,1.77.57.52,1.24.88,2.01,1.07,1.12.21,2.29.2,3.52-.04.94-.19,1.84-.48,2.69-.87.85-.39,1.64-.85,2.36-1.39,1.8-1.29,3.17-2.78,4.13-4.46.96-1.69,1.66-3.48,2.12-5.38.45-1.9.72-3.86.8-5.89.08-2.02.14-4.07.17-6.13v.07c.01-1.22.01-2.51.01-3.86,0-1.34.08-2.6.24-3.76l.49-1.2Zm-28.23,13.56c.79-1.8,1.72-3.54,2.81-5.23.08-.11.24-.38.5-.8.26-.42.56-.86.91-1.32.35-.46.73-.92,1.16-1.37.42-.45.83-.8,1.22-1.05.39-.25.74-.36,1.04-.32.3.04.53.31.68.82.17.6.14,1.33-.08,2.18-.22.85-.42,1.57-.6,2.14-.29.75-.65,1.46-1.07,2.16-.42.7-.89,1.37-1.4,2.01-1.01,1.33-2.09,2.6-3.24,3.81-1.15,1.21-2.54,2.03-4.17,2.45.7-1.85,1.45-3.68,2.24-5.48Z"/>
      <path class="cls-1" d="m75.92,171.89c.37.86.85,1.59,1.43,2.21.59.62,1.29,1.05,2.1,1.3.81.25,1.72.21,2.72-.14,1.16-.33,2.18-.95,3.08-1.87.89-.91,1.67-1.83,2.31-2.74.69-.97,1.39-1.97,2.12-2.99.72-1.03,1.35-2.08,1.86-3.16-.05.99.05,2.01.29,3.06.23,1.05.7,1.98,1.4,2.77.86.86,1.85,1.22,2.97,1.09,1.12-.13,2.13-.53,3.03-1.19,2.24-2.08,4.16-4.43,5.8-7.03,0,.06.01.12.02.18.22,1.35.75,2.63,1.58,3.83.83,1.21,1.72,1.92,2.67,2.14.95.22,1.91.13,2.88-.28.97-.41,1.91-1.07,2.84-1.96.92-.89,1.79-1.87,2.61-2.91.82-1.05,1.56-2.06,2.21-3.05.66-.99,1.19-1.82,1.59-2.49.06.77.16,1.61.32,2.51.16.9.41,1.73.76,2.49.35.76.83,1.35,1.46,1.76.62.41,1.47.49,2.54.22,1.98-.88,3.62-2.1,4.93-3.63,1.31-1.53,2.45-3.23,3.42-5.09,0-.02.02-.03.03-.05-.01.35-.02.71,0,1.08.04.92.21,1.78.52,2.58.31.8.76,1.46,1.36,2,.6.54,1.42.83,2.45.87,1.08.03,2.09-.2,3.02-.68.93-.48,1.79-1.07,2.58-1.77.79-.7,1.53-1.47,2.21-2.32.69-.85,1.32-1.67,1.89-2.47-.61,2.33-1.29,4.69-2.03,7.09-.74,2.4-1.63,4.76-2.66,7.07-1.03,2.31-2.26,4.49-3.68,6.54s-3.12,3.88-5.1,5.5c-.39.27-.84.55-1.38.83-.53.28-1.09.5-1.67.67-.58.16-1.16.26-1.74.28-.58.02-1.12-.09-1.61-.34-.64-.26-1.01-.59-1.12-.99-.1-.4-.1-.82,0-1.28.1-.46.22-.94.34-1.43.12-.49.09-.96-.1-1.41-.44-.99-1.18-1.54-2.2-1.65-1.03-.11-1.89.15-2.6.78-.74.69-1.17,1.53-1.29,2.53-.12,1,.04,1.95.46,2.85.65,1.04,1.5,1.76,2.56,2.13,1.05.38,2.18.55,3.38.53,1.2-.02,2.38-.2,3.57-.53,1.18-.34,2.21-.66,3.07-.98,2.11-.72,4.08-1.75,5.91-3.1,1.83-1.35,3.51-2.86,5.04-4.54,1.66-1.75,3.03-3.68,4.13-5.78,1.09-2.1,2.04-4.28,2.84-6.52.8-2.24,1.54-4.51,2.23-6.8.69-2.29,1.46-4.5,2.31-6.63.94-2.39,1.82-4.78,2.64-7.17.82-2.39,1.61-4.84,2.38-7.34.4-1.2.87-2.45,1.42-3.74.55-1.29.96-2.59,1.23-3.92.13-.56.17-1.17.11-1.82-.06-.65-.18-1.18-.35-1.58-1.21.09-2.36.3-3.47.62-1.11.32-2.2.64-3.26.95-.32.11-.56.36-.73.73.08.38.13.85.18,1.43s0,1.08-.1,1.49c-.89,2.38-1.7,4.93-2.43,7.65s-1.59,5.35-2.6,7.9c-1.01,2.55-2.21,4.92-3.61,7.11-1.4,2.19-3.2,3.97-5.43,5.35-.56.36-.95.38-1.16.05-.21-.32-.31-.86-.28-1.6.02-.74.13-1.59.33-2.56.2-.97.41-1.92.64-2.85.23-.93.46-1.77.71-2.53.24-.76.41-1.27.5-1.53.89-2.38,1.78-4.78,2.67-7.18.89-2.41,1.64-4.87,2.26-7.39.08-.31.2-.7.35-1.17.15-.47.25-.93.31-1.38.06-.45.01-.85-.13-1.19-.14-.34-.46-.51-.95-.51-.91.09-1.84.3-2.78.63-.94.33-1.85.59-2.75.77-.3.21-.51.5-.63.86-.12.37-.21.75-.25,1.15-.04.4-.09.79-.13,1.17s-.11.72-.2,1.03c-.48,1.76-1.05,3.5-1.71,5.22-.66,1.72-1.32,3.45-1.97,5.17-.66,1.72-1.29,3.45-1.9,5.19-.15.42-.26.85-.4,1.28-.33.78-.66,1.56-1,2.34-.62,1.42-1.33,2.78-2.12,4.06-.79,1.29-1.78,2.44-2.94,3.45-.89.47-1.47.44-1.74-.09-.28-.53-.4-1.24-.35-2.13.04-.89.18-1.8.41-2.72.23-.93.41-1.55.54-1.87,1.46-3.72,2.78-7.51,3.96-11.37,1.18-3.86,2.41-7.73,3.69-11.61l-7.06,1.42c-.13.57-.29,1.11-.48,1.64-.19.53-.37,1.08-.55,1.65-.73-1.18-1.58-1.89-2.56-2.13-.98-.24-1.99-.21-3.03.09-1.04.31-2.07.79-3.08,1.46-1.02.67-1.9,1.32-2.65,1.96-2.17,1.86-4.09,3.95-5.75,6.29-1.66,2.34-3.03,4.84-4.11,7.51-.49,1.22-.95,2.52-1.39,3.88-.44,1.36-.74,2.74-.89,4.14-.04.33-.06.66-.08.99-.52.91-1.06,1.81-1.64,2.69-.92,1.38-1.89,2.62-2.89,3.7-.48.29-.87.41-1.18.35-.31-.06-.56-.22-.76-.47-.2-.25-.34-.59-.42-1.02s-.12-.83-.1-1.23c.11-1.15.38-2.3.81-3.47s.87-2.33,1.32-3.5c.35-1.19.67-2.37.98-3.54.3-1.16.66-2.35,1.05-3.55,1.58-5.31,3.27-10.51,5.06-15.59,1.79-5.08,3.54-10.24,5.23-15.48.08-.31.24-.81.47-1.49.23-.68.38-1.36.44-2.03.06-.67,0-1.26-.17-1.76-.17-.5-.62-.73-1.35-.68-.39.03-.88.12-1.49.26-.61.15-1.22.32-1.84.52-.62.2-1.21.44-1.76.72-.56.28-.95.57-1.19.86-.19.28-.24.54-.14.76.09.23.17.5.24.83.05.53,0,1.05-.16,1.57-.16.52-.32,1.04-.46,1.56-2.29,7.36-4.72,14.68-7.27,21.95-.44-.5-.87-.96-1.27-1.4-.4-.43-.91-.71-1.53-.83-.66-.11-1.32-.04-1.98.21-.66.25-1.29.49-1.88.71-2.45,1.23-4.61,2.91-6.48,5.04-1.41,1.51-2.73,3.18-3.95,5.01-1.22,1.84-2.28,3.76-3.17,5.78-.89,2.02-1.54,4.09-1.94,6.23-.4,2.14-.47,4.26-.19,6.35.08.87.3,1.73.67,2.58Zm35.62-12.8c.16-.91.37-1.8.64-2.66.27-.86.49-1.58.67-2.15.61-1.84,1.3-3.66,2.06-5.48.76-1.82,1.56-3.59,2.38-5.32.44-.72.9-1.49,1.38-2.29.47-.8,1-1.6,1.58-2.37.58-.78,1.19-1.46,1.83-2.05.64-.59,1.32-1.04,2.04-1.33,1.05-.11,1.77.14,2.13.75.37.61.54,1.43.53,2.46-.01,1.03-.17,2.19-.48,3.47-.3,1.29-.66,2.51-1.06,3.66-.41,1.16-.8,2.19-1.18,3.1-.38.91-.61,1.52-.7,1.83-.63,1.99-1.4,3.9-2.3,5.75-.9,1.85-1.95,3.6-3.13,5.25-.26.4-.63.82-1.1,1.29-.47.46-.97.84-1.5,1.15-.53.3-1.07.46-1.63.47-.56.02-1.07-.25-1.52-.8-.5-.54-.77-1.23-.82-2.07-.05-.85,0-1.73.17-2.64Zm-30.05,4.67c.35-1.42.84-2.9,1.46-4.44.62-1.54,1.25-3.02,1.9-4.42.65-1.4,1.27-2.67,1.85-3.79.58-1.12,1.04-1.96,1.37-2.51.53-1.04,1.1-2.04,1.71-3.02.61-.98,1.32-1.89,2.13-2.74.77-.79,1.59-1.17,2.45-1.15.86.02,1.46.64,1.8,1.84-.16,4.34-1.02,8.6-2.58,12.78-1.56,4.18-3.54,8.08-5.95,11.7-.23.34-.58.74-1.04,1.2-.47.46-.97.83-1.5,1.11-.53.28-1.08.45-1.66.52-.58.07-1.08-.12-1.51-.58-.61-.61-.92-1.49-.93-2.64,0-1.15.16-2.43.51-3.85Z"/>
      <path class="cls-1" d="m75.72,116.26c1.18-.34,2.21-.66,3.07-.98,2.11-.72,4.08-1.75,5.91-3.1,1.83-1.35,3.51-2.86,5.04-4.54,1.66-1.75,3.03-3.68,4.13-5.78,1.09-2.1,2.04-4.28,2.84-6.52.8-2.24,1.54-4.51,2.23-6.8.69-2.29,1.46-4.5,2.31-6.63.94-2.39,1.82-4.78,2.64-7.17.82-2.39,1.61-4.84,2.38-7.34.4-1.2.87-2.45,1.42-3.74.55-1.29.96-2.59,1.23-3.92.13-.56.17-1.17.11-1.82s-.18-1.18-.35-1.58c-1.21.09-2.36.3-3.47.62-1.11.32-2.2.64-3.26.95-.32.11-.56.36-.73.73.08.38.13.85.18,1.43.04.58,0,1.08-.1,1.49-.89,2.38-1.7,4.93-2.43,7.65-.73,2.72-1.59,5.35-2.6,7.9-1.01,2.55-2.21,4.92-3.61,7.11-1.4,2.19-3.2,3.97-5.43,5.35-.56.36-.95.38-1.16.05-.21-.32-.31-.86-.28-1.6.02-.74.13-1.59.33-2.56.2-.97.41-1.92.64-2.85.23-.93.46-1.77.71-2.53.24-.76.41-1.27.5-1.53.89-2.38,1.78-4.77,2.67-7.18.89-2.41,1.64-4.87,2.26-7.39.08-.31.2-.7.35-1.17.15-.47.25-.93.31-1.38.06-.45.01-.85-.13-1.19-.14-.34-.46-.51-.95-.51-.91.09-1.84.3-2.78.63-.94.33-1.85.59-2.75.77-.3.21-.51.5-.63.86-.12.37-.21.75-.25,1.15-.04.4-.09.79-.13,1.17-.05.38-.11.72-.2,1.03-.48,1.76-1.05,3.5-1.71,5.23-.66,1.72-1.32,3.45-1.97,5.17-.66,1.72-1.29,3.45-1.9,5.19-.61,1.74-1.09,3.52-1.46,5.36-.13.81-.18,1.68-.14,2.6.04.92.21,1.78.52,2.58.31.8.76,1.46,1.36,2,.6.54,1.42.83,2.45.87,1.08.03,2.09-.2,3.02-.68.93-.48,1.79-1.07,2.58-1.77.79-.7,1.53-1.47,2.22-2.32.69-.85,1.32-1.67,1.89-2.47-.61,2.33-1.29,4.69-2.03,7.09-.74,2.4-1.63,4.76-2.66,7.07-1.03,2.31-2.26,4.49-3.68,6.54s-3.12,3.88-5.1,5.5c-.38.27-.84.55-1.38.83-.53.28-1.09.5-1.67.67-.58.16-1.16.26-1.74.28-.58.02-1.12-.09-1.61-.34-.64-.26-1.01-.59-1.12-.99-.1-.4-.1-.82,0-1.28.1-.46.22-.94.34-1.43.12-.49.09-.96-.1-1.41-.44-.99-1.18-1.54-2.2-1.65-1.03-.11-1.89.15-2.6.78-.74.69-1.17,1.53-1.29,2.54-.12,1,.04,1.95.46,2.84.65,1.04,1.5,1.75,2.56,2.13,1.05.38,2.18.55,3.38.53,1.2-.02,2.38-.2,3.57-.53Z"/>
      <path class="cls-1" d="m384.62,2.63c-.4-.43-.91-.71-1.53-.83-.66-.11-1.32-.04-1.98.21-.66.25-1.29.49-1.88.71-2.45,1.23-4.61,2.91-6.48,5.04-1.41,1.51-2.73,3.18-3.95,5.01-1.22,1.84-2.28,3.76-3.17,5.78-.89,2.02-1.54,4.09-1.94,6.23-.4,2.14-.47,4.26-.19,6.35.08.87.3,1.73.67,2.58.37.86.85,1.59,1.43,2.21.59.62,1.29,1.05,2.1,1.3.81.25,1.72.21,2.72-.14,1.16-.33,2.18-.95,3.08-1.87.89-.91,1.67-1.83,2.31-2.74.69-.97,1.39-1.97,2.12-2.99.72-1.03,1.35-2.08,1.86-3.16-.05.99.05,2.01.29,3.06.23,1.05.7,1.98,1.4,2.77.86.86,1.85,1.22,2.97,1.09,1.12-.13,2.13-.53,3.03-1.19.9-.83,1.73-1.72,2.53-2.64v-2.62c-.46.59-.93,1.14-1.41,1.66-.48.29-.87.41-1.18.35-.31-.06-.56-.22-.76-.47-.2-.25-.34-.59-.42-1.02s-.12-.83-.1-1.23c.11-1.15.38-2.3.81-3.47s.87-2.33,1.32-3.5c.35-1.19.67-2.37.98-3.54.23-.86.49-1.74.76-2.63V0h-2.73c-.46,1.34-.9,2.69-1.37,4.02-.44-.5-.87-.96-1.27-1.4Zm-2.8,15.51c-1.56,4.18-3.54,8.08-5.95,11.7-.23.34-.58.74-1.04,1.2-.47.46-.97.83-1.5,1.11-.53.28-1.08.45-1.66.52-.58.07-1.08-.12-1.51-.58-.61-.61-.92-1.49-.93-2.64,0-1.15.16-2.43.51-3.85.35-1.42.84-2.9,1.46-4.44.62-1.54,1.25-3.02,1.9-4.42.65-1.4,1.27-2.67,1.85-3.79.58-1.12,1.04-1.96,1.37-2.51.53-1.04,1.1-2.04,1.71-3.02.61-.98,1.32-1.89,2.13-2.74.77-.79,1.59-1.17,2.45-1.15.86.02,1.46.64,1.8,1.84-.16,4.34-1.02,8.6-2.58,12.78Z"/>
      <path class="cls-1" d="m8.86,385.27c-.72,1.54-1.43,3.12-2.13,4.73h6.35c.13-.25.27-.49.4-.74,1.16-2.29,2.15-4.4,2.99-6.33.41-.87.8-1.24,1.17-1.12.37.12,1,.36,1.91.72,1.67.5,3.33.44,5-.16s3.19-1.38,4.56-2.35c1.43-.92,2.74-1.98,3.92-3.17s2.19-2.48,3.04-3.88c1.04-1.63,2.02-3.45,2.94-5.47.92-2.02,1.58-4.1,1.98-6.24.43-1.75.62-3.48.58-5.18-.05-1.7-.37-3.33-.98-4.87-.68-1.43-1.66-2.42-2.95-2.97-1.28-.55-2.66-.56-4.12-.02-1.52.7-2.83,1.7-3.92,2.99-1.09,1.29-2.12,2.55-3.1,3.78.12-.61.21-1.28.26-2,.05-.72-.03-1.38-.25-1.97-.03-.14-.07-.28-.12-.42s-.17-.31-.36-.52c-.52.1-1.13.24-1.83.4-.7.17-1.38.34-2.03.52-.65.18-1.23.33-1.74.46-.51.13-.82.2-.91.22.04.68.08,1.25.12,1.7.04.46,0,.94-.15,1.46-.35,1.69-.86,3.4-1.54,5.16-.68,1.75-1.27,3.44-1.78,5.06-.4,1.12-.81,2.25-1.21,3.38-.41.79-.8,1.59-1.15,2.42-.6,1.42-1.21,2.84-1.83,4.26-.62,1.42-1.33,2.78-2.12,4.06-.79,1.29-1.78,2.44-2.94,3.45-.89.47-1.47.44-1.74-.09-.28-.53-.4-1.24-.35-2.13.04-.89.18-1.8.41-2.72.23-.93.41-1.55.54-1.87,1.46-3.72,2.78-7.51,3.96-11.37,1.18-3.86,2.42-7.73,3.69-11.61l-7.06,1.42c-.13.57-.29,1.11-.48,1.64-.19.53-.37,1.08-.55,1.65-.73-1.18-1.58-1.89-2.56-2.13-.91-.23-1.84-.21-2.8.04v2.04c.34-.22.69-.4,1.05-.55,1.05-.11,1.77.13,2.13.75.37.61.54,1.43.53,2.46-.01,1.03-.17,2.19-.48,3.47-.3,1.29-.66,2.51-1.06,3.67-.4,1.16-.8,2.19-1.18,3.1-.38.91-.61,1.52-.7,1.83-.09.28-.2.55-.3.83v13.03c.26.33.56.62.9.85.62.41,1.47.49,2.54.22,1.98-.88,3.62-2.1,4.93-3.63.99-1.16,1.89-2.42,2.68-3.77-.09.22-.17.46-.26.68-.64,1.57-1.28,3.18-1.93,4.83Zm10.43-9.14c.38-1.54.86-3.07,1.47-4.59.6-1.51,1.17-3.01,1.71-4.49,1.06-3,2.38-5.94,3.96-8.8.33-.55.69-1.18,1.09-1.87.4-.69.84-1.36,1.33-1.99.48-.63,1.01-1.2,1.57-1.71.56-.5,1.18-.87,1.87-1.11,1.43-.43,2.35-.18,2.76.77.41.95.49,2.25.24,3.92-.25,1.67-.72,3.56-1.4,5.68-.68,2.12-1.41,4.14-2.2,6.06-.79,1.92-1.52,3.6-2.19,5.03-.67,1.43-1.09,2.31-1.27,2.64-.33.56-.72,1.15-1.19,1.78-.46.63-.96,1.21-1.49,1.73-.53.52-1.11.93-1.74,1.23-.63.3-1.31.42-2.05.38-1.29-.08-2.08-.62-2.38-1.62-.3-.99-.33-2-.09-3.03Z"/>
      <path class="cls-1" d="m379.55,211.67c.71.98,1.85,1.49,3.43,1.52,1.23.05,2.42-.23,3.58-.83,1.15-.6,2.23-1.37,3.25-2.3.07-.06.13-.13.2-.2v-2.87c-.65.6-1.35,1.07-2.11,1.4-.72.29-1.31.3-1.76.02s-.77-.69-.98-1.24c-.21-.55-.34-1.14-.4-1.79s-.04-1.23.06-1.74c.33-1.78.77-3.54,1.32-5.3.56-1.75,1.13-3.5,1.74-5.23.61-1.74,1.2-3.47,1.78-5.2.12-.37.23-.74.34-1.11v-7.72c-.61.19-1.13.35-1.51.47-.65.18-1.33.37-2.05.56-.72.19-1.42.41-2.11.64-.45,3.37-1.19,6.65-2.21,9.84-1.03,3.19-2,6.4-2.92,9.62-.34,1-.62,2.23-.84,3.69-.22,1.46-.25,2.88-.1,4.24.15,1.36.58,2.54,1.29,3.52Z"/>
      <path class="cls-1" d="m334.17,243.32c2.11-.72,4.08-1.75,5.91-3.1,1.83-1.35,3.51-2.86,5.04-4.54,1.66-1.75,3.03-3.68,4.13-5.78,1.09-2.1,2.04-4.28,2.84-6.52.8-2.24,1.54-4.51,2.23-6.8.69-2.29,1.46-4.5,2.31-6.63.94-2.39,1.82-4.78,2.64-7.17.82-2.39,1.61-4.84,2.38-7.34.4-1.2.87-2.45,1.42-3.74.55-1.29.96-2.59,1.23-3.92.13-.56.17-1.17.11-1.82s-.18-1.18-.35-1.58c-1.21.09-2.36.3-3.47.62-1.11.32-2.2.64-3.26.95-.32.11-.56.36-.73.73.08.38.13.85.18,1.43.04.58,0,1.08-.1,1.49-.89,2.38-1.7,4.93-2.43,7.65-.73,2.72-1.59,5.35-2.6,7.9-1.01,2.55-2.21,4.92-3.61,7.11-1.4,2.19-3.2,3.97-5.43,5.35-.56.36-.95.38-1.16.05-.21-.32-.31-.86-.28-1.6.02-.74.13-1.59.33-2.56.2-.97.41-1.92.64-2.85.23-.93.46-1.77.71-2.53.24-.76.41-1.27.5-1.53.89-2.38,1.78-4.77,2.67-7.18.89-2.41,1.64-4.87,2.26-7.39.08-.31.2-.7.35-1.17.15-.47.25-.93.31-1.38.06-.45.01-.85-.13-1.19-.14-.34-.46-.51-.95-.51-.91.09-1.84.3-2.78.63-.94.33-1.85.59-2.75.77-.3.21-.51.5-.63.86-.12.37-.21.75-.25,1.15-.04.4-.09.79-.13,1.17-.05.38-.11.72-.2,1.03-.48,1.76-1.05,3.5-1.71,5.23-.66,1.72-1.32,3.45-1.97,5.17-.66,1.72-1.29,3.45-1.9,5.19-.61,1.74-1.09,3.52-1.46,5.36-.13.81-.18,1.68-.14,2.6.04.92.21,1.78.52,2.58.31.8.76,1.46,1.36,2,.6.54,1.42.83,2.45.87,1.08.03,2.09-.2,3.02-.68.93-.48,1.79-1.07,2.58-1.77.79-.7,1.53-1.47,2.22-2.32.69-.85,1.32-1.67,1.89-2.47-.61,2.33-1.29,4.69-2.03,7.09-.74,2.4-1.63,4.76-2.66,7.07-1.03,2.31-2.26,4.49-3.68,6.54s-3.12,3.88-5.1,5.5c-.38.27-.84.55-1.38.83-.53.28-1.09.5-1.67.67-.58.16-1.16.26-1.74.28-.58.02-1.12-.09-1.61-.34-.64-.26-1.01-.59-1.12-.99-.1-.4-.1-.82,0-1.28.1-.46.22-.94.34-1.43.12-.49.09-.96-.1-1.41-.44-.99-1.18-1.54-2.2-1.65-1.03-.11-1.89.15-2.6.78-.74.69-1.17,1.53-1.29,2.54-.12,1,.04,1.95.46,2.84.65,1.04,1.5,1.75,2.56,2.13,1.05.38,2.18.55,3.38.53,1.2-.02,2.38-.2,3.57-.53,1.18-.34,2.21-.66,3.07-.98Z"/>
      <path class="cls-1" d="m369.74,115.15c1.01-.94,1.94-1.94,2.77-3.02.84-1.07,1.55-2.08,2.14-3.04,1.38-2.38,2.72-4.87,4.01-7.45,1.29-2.58,2.3-5.22,3.04-7.92.41-1.36.74-2.71.98-4.05.24-1.35.42-2.72.54-4.11.05-.5.07-1.07.06-1.7,0-.63-.07-1.26-.19-1.87-.12-.61-.35-1.14-.69-1.59-.34-.45-.83-.73-1.49-.84-.56-.13-1.13-.03-1.7.3-.57.33-1.01.73-1.31,1.18-.29.5-.42.98-.37,1.43.04.46.16.94.36,1.43.52,1.36.74,2.78.67,4.24-.07,1.46-.24,2.9-.49,4.32-.42,2.78-1.07,5.52-1.95,8.21-.88,2.7-2,5.28-3.36,7.76-.58,1-1.29,1.97-2.13,2.92-.84.95-1.78,1.65-2.81,2.11-.72.29-1.31.3-1.76.02s-.77-.69-.98-1.24c-.21-.55-.34-1.14-.39-1.79s-.04-1.23.05-1.74c.33-1.78.77-3.54,1.32-5.3.55-1.75,1.13-3.5,1.74-5.23.61-1.74,1.2-3.47,1.78-5.2s1.09-3.5,1.51-5.3c0-.2.07-.45.17-.77.11-.32.21-.63.29-.94.08-.31.14-.62.18-.92.04-.3,0-.54-.14-.71-.32-.38-.83-.46-1.52-.25-.69.21-1.24.39-1.66.52-.65.18-1.33.37-2.05.56-.72.19-1.42.41-2.11.64-.45,3.37-1.19,6.65-2.21,9.84-1.03,3.19-2,6.4-2.92,9.62-.34,1-.62,2.23-.84,3.69-.22,1.46-.25,2.88-.1,4.24.15,1.36.58,2.54,1.29,3.52.71.98,1.85,1.49,3.43,1.52,1.23.05,2.42-.23,3.58-.83,1.15-.6,2.23-1.37,3.25-2.3Z"/>
      <path class="cls-1" d="m382.32,96.03c-.49,1.23-.95,2.52-1.39,3.88-.44,1.36-.73,2.74-.89,4.15-.16,1.4-.13,2.78.09,4.13.22,1.35.75,2.63,1.58,3.83.83,1.21,1.72,1.92,2.67,2.14.95.22,1.91.13,2.88-.28.93-.4,1.85-1.03,2.74-1.88v-2.87c-.4.17-.8.28-1.21.29-.56.01-1.07-.25-1.52-.8-.5-.54-.77-1.23-.82-2.08-.05-.85,0-1.73.17-2.64s.37-1.8.64-2.66c.27-.86.49-1.58.67-2.15.61-1.84,1.3-3.66,2.06-5.48,0-.01,0-.02.01-.03v-9.29c-1.29,1.31-2.49,2.72-3.57,4.24-1.66,2.34-3.03,4.84-4.11,7.51Z"/>
      <path class="cls-1" d="m0,99.14c.05-.2.1-.4.16-.59.27-.86.49-1.58.67-2.15.61-1.84,1.3-3.66,2.06-5.48.76-1.82,1.55-3.59,2.38-5.32.44-.72.9-1.49,1.38-2.29.47-.8,1-1.6,1.58-2.37.58-.78,1.19-1.46,1.83-2.06.64-.59,1.32-1.04,2.04-1.33,1.05-.11,1.77.13,2.13.75.37.61.54,1.43.53,2.46-.01,1.03-.17,2.19-.48,3.47-.3,1.29-.66,2.51-1.06,3.67-.4,1.16-.8,2.19-1.18,3.1-.38.91-.61,1.52-.7,1.83-.63,1.99-1.4,3.9-2.3,5.75-.9,1.85-1.95,3.6-3.13,5.25-.26.4-.63.82-1.1,1.29-.47.46-.97.84-1.5,1.15-.53.3-1.07.46-1.63.47-.56.01-1.07-.25-1.52-.8-.07-.07-.12-.15-.17-.23v5.53c.05-.02.11-.03.16-.06.97-.41,1.91-1.07,2.84-1.96.92-.89,1.79-1.87,2.61-2.91s1.56-2.06,2.21-3.05c.66-.99,1.19-1.82,1.59-2.49.06.77.16,1.61.32,2.51s.41,1.73.76,2.49c.35.76.83,1.35,1.46,1.76.62.41,1.47.49,2.54.22,1.98-.88,3.62-2.1,4.93-3.63.99-1.16,1.88-2.42,2.68-3.77-.09.22-.17.46-.26.68-.64,1.57-1.28,3.18-1.93,4.83-.75,1.62-1.5,3.27-2.24,4.96-.74,1.69-1.51,3.33-2.32,4.91-.67,1.31-1.41,2.68-2.22,4.12-.81,1.44-1.74,2.78-2.79,4.05-1.04,1.26-2.21,2.34-3.5,3.24-1.29.89-2.75,1.43-4.38,1.61-.53.06-1.1.05-1.73-.02-.28-.03-.52-.11-.74-.22v2.95c1.21.06,2.39-.05,3.54-.31,2.29-.53,4.46-1.5,6.51-2.88,2.05-1.39,3.96-3.1,5.73-5.12,1.77-2.02,3.39-4.17,4.84-6.44,1.45-2.27,2.76-4.56,3.92-6.84,1.16-2.29,2.15-4.4,2.99-6.33.41-.87.8-1.24,1.17-1.12.37.12,1,.36,1.91.72,1.67.5,3.33.44,5-.16,1.67-.6,3.19-1.38,4.56-2.35,1.43-.92,2.74-1.98,3.92-3.17,1.18-1.19,2.19-2.48,3.04-3.88,1.04-1.63,2.02-3.45,2.94-5.47.92-2.02,1.58-4.1,1.98-6.24.43-1.75.62-3.48.58-5.18-.05-1.7-.37-3.33-.98-4.87-.68-1.43-1.66-2.42-2.95-2.97-1.28-.55-2.66-.56-4.12-.02-1.52.7-2.83,1.7-3.92,2.99-1.09,1.29-2.12,2.55-3.1,3.78.12-.61.21-1.28.26-2,.05-.72-.03-1.38-.25-1.97-.03-.14-.07-.28-.12-.42s-.17-.31-.36-.52c-.52.1-1.13.24-1.83.4-.7.17-1.38.34-2.03.52-.65.18-1.23.33-1.74.46-.51.13-.82.2-.91.22.04.68.08,1.25.12,1.7.04.46,0,.94-.15,1.46-.35,1.69-.86,3.4-1.54,5.16-.68,1.75-1.27,3.44-1.78,5.06-.4,1.12-.81,2.25-1.21,3.38-.41.79-.8,1.59-1.15,2.42-.6,1.42-1.21,2.84-1.83,4.26-.62,1.42-1.33,2.78-2.12,4.06-.79,1.29-1.78,2.44-2.94,3.45-.89.47-1.47.44-1.74-.09-.28-.53-.4-1.24-.35-2.13.04-.89.18-1.8.41-2.73.23-.93.41-1.55.54-1.87,1.46-3.72,2.78-7.51,3.96-11.37,1.18-3.86,2.42-7.73,3.69-11.61l-7.06,1.42c-.13.57-.29,1.11-.48,1.64-.19.53-.37,1.08-.55,1.65-.73-1.18-1.58-1.89-2.56-2.13-.98-.24-1.99-.21-3.03.09-1.04.31-2.07.79-3.08,1.46-1.02.67-1.9,1.32-2.65,1.96-1.89,1.62-3.58,3.43-5.09,5.42v14.19Zm30.34-2.42c.38-1.54.86-3.07,1.47-4.59.6-1.52,1.17-3.01,1.71-4.49,1.06-3,2.38-5.94,3.96-8.8.33-.55.69-1.18,1.09-1.87.4-.69.84-1.36,1.33-1.99.48-.63,1.01-1.2,1.57-1.71.56-.5,1.18-.87,1.87-1.11,1.43-.43,2.35-.18,2.76.77.41.95.49,2.25.24,3.92-.25,1.67-.72,3.56-1.4,5.68-.68,2.12-1.41,4.14-2.2,6.06-.79,1.92-1.52,3.6-2.19,5.03-.67,1.43-1.09,2.31-1.27,2.64-.33.56-.72,1.15-1.19,1.78-.46.63-.96,1.21-1.49,1.73-.53.52-1.11.93-1.74,1.23-.63.3-1.31.42-2.05.38-1.29-.08-2.08-.62-2.38-1.62-.3-.99-.33-2-.09-3.03Z"/>
      <path class="cls-1" d="m41.93,383.55c1.16-2.29,2.15-4.4,2.99-6.33.41-.87.8-1.24,1.17-1.12.37.12,1,.36,1.91.72,1.67.5,3.33.44,5-.16s3.19-1.38,4.56-2.35c1.43-.92,2.73-1.98,3.92-3.17,1.18-1.19,2.19-2.48,3.04-3.88,1.04-1.63,2.02-3.45,2.94-5.47.92-2.02,1.58-4.1,1.98-6.24.43-1.75.62-3.48.58-5.18-.05-1.7-.37-3.33-.98-4.87-.68-1.43-1.66-2.42-2.95-2.97-1.28-.55-2.66-.56-4.12-.02-1.52.7-2.83,1.69-3.92,2.99s-2.12,2.55-3.1,3.78c.12-.61.21-1.28.26-2,.05-.72-.03-1.38-.25-1.97-.03-.14-.07-.28-.12-.42s-.17-.31-.36-.52c-.52.1-1.13.24-1.83.4-.7.17-1.38.34-2.03.52-.65.18-1.23.33-1.74.46-.51.13-.82.2-.91.22.04.68.08,1.25.12,1.7.04.46,0,.94-.15,1.46-.35,1.69-.86,3.4-1.54,5.15-.67,1.75-1.27,3.44-1.78,5.06-.63,1.74-1.26,3.5-1.88,5.26-.63,1.77-1.21,3.49-1.75,5.16-.54,1.72-1.12,3.37-1.76,4.94s-1.28,3.18-1.93,4.83c-.75,1.62-1.5,3.28-2.24,4.97-.74,1.69-1.51,3.33-2.32,4.91-.09.18-.2.38-.3.57h5.8c1.35-2.14,2.58-4.29,3.67-6.45Zm5.81-13.14c.38-1.54.86-3.07,1.47-4.59.6-1.52,1.17-3.01,1.71-4.49,1.06-3,2.38-5.94,3.96-8.8.33-.55.69-1.18,1.09-1.87.4-.69.84-1.36,1.33-1.99.48-.63,1.01-1.2,1.57-1.71.56-.5,1.18-.87,1.87-1.11,1.43-.43,2.35-.18,2.76.77.41.95.49,2.25.24,3.92-.25,1.67-.72,3.56-1.39,5.68s-1.41,4.14-2.2,6.06c-.79,1.92-1.52,3.6-2.19,5.03-.67,1.43-1.09,2.31-1.27,2.64-.33.56-.72,1.15-1.19,1.78-.46.63-.96,1.21-1.49,1.73-.53.52-1.11.93-1.74,1.23-.63.3-1.31.42-2.06.38-1.29-.08-2.08-.62-2.38-1.62-.3-.99-.33-2-.09-3.03Z"/>
      <path class="cls-1" d="m76.86,380.66c-1.03,2.31-2.26,4.49-3.68,6.54-.68.98-1.44,1.91-2.25,2.8h4.7c1.08-.92,2.1-1.9,3.06-2.95,1.66-1.75,3.03-3.68,4.13-5.78,1.09-2.1,2.04-4.28,2.84-6.52.8-2.24,1.54-4.51,2.23-6.8s1.46-4.5,2.31-6.63c.94-2.39,1.82-4.78,2.64-7.17.82-2.39,1.61-4.84,2.38-7.34.4-1.21.87-2.45,1.42-3.74.55-1.29.96-2.59,1.23-3.92.13-.56.17-1.17.11-1.82s-.18-1.18-.35-1.58c-1.21.09-2.36.3-3.47.62-1.11.32-2.2.64-3.26.95-.32.11-.56.36-.73.73.08.38.13.85.18,1.43.04.58,0,1.08-.1,1.49-.89,2.38-1.7,4.93-2.43,7.65-.73,2.72-1.59,5.35-2.6,7.9-1.01,2.55-2.21,4.92-3.61,7.11-1.4,2.19-3.2,3.97-5.43,5.35-.56.36-.95.38-1.16.05-.21-.32-.31-.86-.28-1.59.02-.74.13-1.59.33-2.56.2-.97.41-1.92.64-2.85.23-.93.46-1.77.71-2.53.24-.76.41-1.27.5-1.53.89-2.38,1.78-4.78,2.67-7.18s1.64-4.87,2.26-7.39c.08-.31.2-.7.35-1.17s.25-.93.31-1.38c.06-.45.01-.85-.13-1.19-.14-.34-.46-.51-.95-.51-.91.09-1.84.3-2.78.63-.94.33-1.85.59-2.75.77-.3.21-.51.5-.63.86-.12.37-.21.75-.25,1.15-.04.4-.09.79-.13,1.17-.05.38-.11.72-.2,1.03-.48,1.76-1.05,3.5-1.71,5.23-.66,1.72-1.32,3.45-1.97,5.17-.66,1.72-1.29,3.45-1.9,5.19-.61,1.74-1.09,3.52-1.46,5.36-.13.81-.18,1.68-.14,2.6s.21,1.78.52,2.58c.31.8.76,1.46,1.36,2,.6.54,1.42.83,2.45.87,1.08.03,2.09-.2,3.02-.68.93-.48,1.79-1.07,2.58-1.77.79-.7,1.53-1.47,2.22-2.32.69-.85,1.32-1.67,1.89-2.47-.61,2.33-1.29,4.69-2.03,7.09-.74,2.4-1.63,4.76-2.66,7.07Z"/>
      <path class="cls-1" d="m390,305.58c-.22-.13-.42-.3-.62-.54-.5-.54-.77-1.23-.82-2.07-.05-.85,0-1.73.17-2.64.16-.91.37-1.8.64-2.66.25-.81.46-1.47.63-2.03v-12.59c-.5.62-.99,1.25-1.46,1.9-1.66,2.34-3.03,4.84-4.11,7.51-.49,1.22-.95,2.52-1.39,3.88-.44,1.36-.74,2.74-.89,4.14-.04.33-.06.66-.08.99-.52.91-1.06,1.81-1.64,2.69-.92,1.38-1.89,2.62-2.89,3.7-.48.29-.87.41-1.18.35-.31-.06-.56-.22-.76-.47-.2-.25-.34-.59-.42-1.02s-.12-.83-.1-1.23c.11-1.15.38-2.3.81-3.47.43-1.16.87-2.33,1.32-3.5.35-1.2.67-2.38.98-3.54.3-1.16.66-2.35,1.05-3.55,1.58-5.31,3.27-10.51,5.06-15.59,1.79-5.08,3.54-10.24,5.23-15.48.08-.31.24-.81.47-1.49,0,0,0,0,0-.01v-4.18c-.24-.22-.59-.33-1.08-.29-.39.03-.88.12-1.49.26-.61.15-1.22.32-1.84.52-.62.2-1.21.44-1.76.72-.56.28-.95.57-1.19.86-.19.28-.24.54-.14.76.09.23.17.5.24.83.05.53,0,1.05-.16,1.57-.16.52-.32,1.04-.46,1.56-2.29,7.36-4.72,14.68-7.27,21.95-.44-.5-.87-.96-1.27-1.4-.4-.43-.91-.71-1.53-.83-.66-.11-1.32-.04-1.98.21-.66.25-1.29.49-1.88.71-2.45,1.23-4.61,2.91-6.48,5.04-1.41,1.51-2.73,3.18-3.95,5.01-1.22,1.84-2.28,3.76-3.17,5.78-.89,2.02-1.54,4.09-1.94,6.23-.4,2.14-.47,4.25-.19,6.35.08.87.3,1.73.67,2.58.37.86.85,1.59,1.43,2.21.59.62,1.29,1.05,2.1,1.3.81.25,1.72.21,2.72-.14,1.16-.33,2.18-.95,3.08-1.87s1.67-1.83,2.31-2.74c.69-.97,1.39-1.97,2.12-2.99.72-1.03,1.35-2.08,1.86-3.17-.05.99.05,2.01.29,3.06.23,1.05.7,1.98,1.4,2.77.86.86,1.85,1.22,2.97,1.09,1.12-.13,2.13-.53,3.03-1.2,2.24-2.08,4.16-4.43,5.8-7.03,0,.06.01.12.02.18.22,1.35.75,2.63,1.58,3.83.83,1.21,1.72,1.92,2.67,2.14.95.22,1.91.13,2.88-.28.21-.09.42-.2.63-.31v-4.4Zm-19.23-8.04c-1.56,4.18-3.54,8.08-5.95,11.7-.23.34-.58.74-1.04,1.2-.47.46-.97.83-1.5,1.11-.53.28-1.08.45-1.66.52-.58.07-1.08-.12-1.51-.58-.61-.61-.92-1.49-.93-2.64,0-1.15.16-2.43.51-3.85.35-1.42.84-2.9,1.46-4.44.62-1.54,1.25-3.02,1.9-4.42.65-1.4,1.27-2.67,1.85-3.79.58-1.12,1.04-1.96,1.37-2.51.53-1.04,1.1-2.04,1.71-3.02.61-.98,1.32-1.89,2.13-2.74.77-.79,1.59-1.17,2.45-1.15s1.46.64,1.8,1.84c-.16,4.34-1.02,8.6-2.58,12.78Z"/>
      <path class="cls-1" d="m60.8,389.02c-.44-.99-1.18-1.54-2.2-1.65-1.03-.11-1.89.15-2.6.78-.57.52-.95,1.14-1.15,1.85h6.12c.02-.34-.03-.66-.16-.98Z"/>
      <path class="cls-1" d="m268.51,16.12c.48.3.97.39,1.49.29.89-.18,1.74-.73,2.53-1.65.8-.92,1.29-1.86,1.49-2.83.09-.51.09-1.01,0-1.5-.1-.49-.28-.92-.55-1.28-.27-.36-.63-.61-1.07-.74-.44-.13-.97-.11-1.57.06-.56.16-1.07.45-1.55.86s-.88.91-1.21,1.49c-.32.58-.56,1.2-.69,1.86-.14.66-.15,1.28-.03,1.84.3.77.69,1.31,1.17,1.6Z"/>
      <path class="cls-1" d="m261.34,287.8c-.44-.13-.97-.11-1.57.06-.56.16-1.07.45-1.55.86-.48.42-.88.91-1.21,1.49-.32.58-.56,1.2-.69,1.86-.14.66-.15,1.28-.03,1.84.3.77.69,1.31,1.17,1.6.48.3.97.39,1.49.29.89-.18,1.74-.73,2.53-1.65.8-.92,1.29-1.86,1.49-2.83.09-.51.09-1.01,0-1.5-.1-.49-.28-.92-.55-1.28-.27-.36-.63-.61-1.07-.74Z"/>
      <path class="cls-1" d="m113.12,363.03c.71.98,1.85,1.49,3.43,1.52,1.23.05,2.42-.23,3.58-.83,1.15-.6,2.23-1.37,3.25-2.3s1.94-1.94,2.77-3.02c.84-1.07,1.55-2.08,2.14-3.04,1.38-2.38,2.72-4.87,4.01-7.45,1.29-2.58,2.3-5.22,3.04-7.92.41-1.36.74-2.71.98-4.05.24-1.35.42-2.72.54-4.11.05-.5.07-1.07.06-1.7,0-.63-.07-1.26-.19-1.87-.12-.61-.35-1.14-.69-1.59s-.83-.73-1.49-.84c-.56-.13-1.13-.03-1.7.3-.57.33-1,.73-1.31,1.18-.29.5-.42.98-.37,1.43.04.46.16.93.36,1.43.52,1.36.74,2.78.67,4.24-.07,1.46-.24,2.9-.49,4.32-.42,2.78-1.07,5.51-1.95,8.21-.88,2.7-2,5.28-3.36,7.76-.58,1-1.29,1.97-2.13,2.92-.84.95-1.77,1.65-2.81,2.11-.72.29-1.31.3-1.76.02s-.77-.69-.98-1.24-.34-1.14-.4-1.79-.04-1.23.06-1.74c.33-1.78.77-3.54,1.32-5.3.56-1.75,1.13-3.5,1.74-5.23.61-1.74,1.2-3.47,1.78-5.2s1.08-3.5,1.51-5.3c0-.2.07-.46.17-.77.11-.32.21-.63.29-.94.08-.31.14-.62.18-.92.04-.3,0-.54-.14-.71-.32-.38-.83-.46-1.52-.25-.69.21-1.24.38-1.66.52-.65.18-1.33.37-2.05.56-.72.19-1.42.41-2.11.64-.45,3.37-1.19,6.65-2.21,9.84-1.03,3.19-2,6.4-2.92,9.62-.34,1-.62,2.23-.84,3.69-.22,1.46-.25,2.88-.1,4.24.15,1.36.58,2.54,1.29,3.52Z"/>
      <path class="cls-1" d="m271.16,251.18c1.77-2.02,3.39-4.17,4.84-6.44,1.45-2.27,2.76-4.56,3.92-6.84,1.16-2.29,2.15-4.4,2.99-6.33.41-.87.8-1.24,1.17-1.12.37.12,1,.36,1.91.72,1.67.5,3.33.44,5-.16,1.67-.6,3.19-1.38,4.56-2.35,1.43-.92,2.74-1.98,3.92-3.17,1.18-1.19,2.19-2.48,3.04-3.88,1.04-1.63,2.02-3.45,2.94-5.47.92-2.02,1.58-4.1,1.98-6.24.43-1.75.62-3.48.58-5.18-.05-1.7-.37-3.33-.98-4.87-.68-1.43-1.66-2.42-2.95-2.97-1.28-.55-2.66-.56-4.12-.02-1.52.7-2.83,1.7-3.92,2.99-1.09,1.29-2.12,2.55-3.1,3.78.12-.61.21-1.28.26-2,.05-.72-.03-1.38-.25-1.97-.03-.14-.07-.28-.12-.42s-.17-.31-.36-.52c-.52.1-1.13.24-1.83.4-.7.17-1.38.34-2.03.52-.65.18-1.23.33-1.74.46-.51.13-.82.2-.91.22.04.68.08,1.25.12,1.7.04.46,0,.94-.15,1.46-.35,1.69-.86,3.4-1.54,5.16-.68,1.75-1.27,3.44-1.78,5.06-.4,1.12-.81,2.25-1.21,3.38-.41.79-.8,1.59-1.15,2.42-.6,1.42-1.21,2.84-1.83,4.26-.62,1.42-1.33,2.78-2.12,4.06-.79,1.29-1.78,2.44-2.94,3.45-.89.47-1.47.44-1.74-.09-.28-.53-.4-1.24-.35-2.13.04-.89.18-1.8.41-2.73.23-.93.41-1.55.54-1.87,1.46-3.72,2.78-7.51,3.96-11.37,1.18-3.86,2.42-7.73,3.69-11.61l-7.06,1.42c-.13.57-.29,1.11-.48,1.64-.19.53-.37,1.08-.55,1.65-.73-1.18-1.58-1.89-2.56-2.13-.98-.24-1.99-.21-3.03.09-1.04.31-2.07.79-3.08,1.46-1.02.67-1.9,1.32-2.65,1.96-2.17,1.86-4.09,3.95-5.75,6.29-1.66,2.34-3.03,4.84-4.11,7.51-.49,1.23-.95,2.52-1.39,3.88-.44,1.36-.74,2.74-.89,4.15-.1.84-.11,1.67-.07,2.49-.92,1.22-1.92,2.38-2.99,3.48-.72.58-1.39.81-2.03.67-.64-.14-.9-.76-.78-1.86.08-.8.26-1.62.54-2.46.27-.84.58-1.68.92-2.54.34-.85.7-1.68,1.08-2.49s.71-1.61.99-2.4c.69-1.7,1.39-3.44,2.12-5.2.72-1.76,1.14-3.58,1.25-5.46.05-.74.01-1.46-.1-2.15-.11-.69-.33-1.3-.67-1.85-.33-.55-.78-.98-1.36-1.31-.58-.32-1.31-.47-2.18-.44-1.12.03-2.16.26-3.13.7-.96.44-1.85,1.01-2.67,1.71-.81.7-1.59,1.48-2.32,2.34-.73.86-1.44,1.67-2.12,2.44,1.4-3.76,2.76-7.48,4.07-11.17,1.32-3.69,2.62-7.43,3.92-11.21.12-.37.31-.93.58-1.69.26-.76.44-1.53.53-2.31.09-.78.04-1.44-.14-1.99-.18-.55-.66-.8-1.43-.74-.82.07-1.68.3-2.58.7-.9.4-1.74.73-2.52.98-.5.2-.79.43-.89.69-.09.26-.14.66-.13,1.2,0,1.27-.23,2.51-.73,3.71-.49,1.2-.96,2.41-1.4,3.62-2.24,7.16-4.59,14.31-7.08,21.47-2.48,7.16-4.97,14.29-7.46,21.4-.09.26-.28.69-.55,1.29-.27.59-.5,1.21-.69,1.86-.19.65-.3,1.24-.34,1.76s.14.84.56.95c.31.08.69.06,1.12-.08.44-.14.8-.21,1.09-.22,1.04-.21,1.9-.38,2.58-.52.68-.14,1.24-.71,1.67-1.73.86-2.08,1.64-4.2,2.36-6.35.72-2.15,1.45-4.29,2.2-6.43.75-2.13,1.55-4.24,2.4-6.32.86-2.08,1.85-4.09,2.98-6.03.22-.39.61-.94,1.17-1.67.56-.72,1.19-1.43,1.89-2.1.7-.68,1.38-1.24,2.05-1.7.67-.45,1.22-.57,1.65-.37.55.33.84.91.86,1.74.02.83-.11,1.72-.38,2.68-.27.96-.59,1.88-.95,2.76-.36.88-.62,1.53-.78,1.96-.75,1.86-1.48,3.72-2.19,5.58-.71,1.85-1.33,3.77-1.86,5.73-.21.68-.39,1.49-.54,2.42-.15.94-.21,1.84-.15,2.71.05.87.28,1.66.69,2.36.41.7,1.08,1.18,2.01,1.43.56.13,1.12.15,1.67.07.55-.08,1.09-.23,1.64-.44,2.01-1.19,3.75-2.6,5.21-4.24.62-.7,1.21-1.43,1.77-2.18.28.94.71,1.84,1.31,2.7.83,1.2,1.72,1.92,2.67,2.14.95.22,1.91.13,2.88-.28.97-.41,1.91-1.07,2.84-1.96.92-.89,1.79-1.87,2.61-2.91s1.56-2.06,2.21-3.05c.66-.99,1.19-1.82,1.59-2.49.06.77.16,1.61.32,2.51s.41,1.73.76,2.49c.35.76.83,1.35,1.46,1.76.62.41,1.47.49,2.54.22,1.98-.88,3.62-2.1,4.93-3.63.99-1.16,1.88-2.42,2.68-3.77-.09.22-.17.46-.26.68-.64,1.57-1.28,3.18-1.93,4.83-.75,1.62-1.5,3.27-2.24,4.96-.74,1.69-1.51,3.33-2.32,4.91-.67,1.31-1.41,2.68-2.22,4.12-.81,1.44-1.74,2.78-2.79,4.05-1.04,1.26-2.21,2.34-3.5,3.24-1.29.89-2.75,1.43-4.38,1.61-.53.06-1.1.05-1.73-.02-.63-.07-1.11-.34-1.45-.81-.21-.3-.29-.62-.26-.94.03-.33.1-.65.21-.96.11-.32.23-.62.37-.92.14-.3.17-.61.1-.94-.11-.81-.44-1.41-.98-1.79-.54-.38-1.13-.58-1.77-.6-.64-.02-1.26.13-1.86.45-.6.31-1.05.8-1.36,1.45-.27.59-.39,1.27-.37,2.02.03.75.16,1.48.4,2.19.24.71.57,1.33,1,1.86.42.53.92.88,1.5,1.06,2.55.76,4.97.87,7.27.34s4.46-1.5,6.51-2.88c2.05-1.39,3.96-3.1,5.73-5.12Zm14.56-26.42c.38-1.54.86-3.07,1.47-4.59.6-1.52,1.17-3.01,1.71-4.49,1.06-3,2.38-5.94,3.96-8.8.33-.55.69-1.18,1.09-1.87.4-.69.84-1.36,1.33-1.99.48-.63,1.01-1.2,1.57-1.71.56-.5,1.18-.87,1.87-1.11,1.43-.43,2.35-.18,2.76.77.41.95.49,2.25.24,3.92-.25,1.67-.72,3.56-1.4,5.68-.68,2.12-1.41,4.14-2.2,6.06-.79,1.92-1.52,3.6-2.19,5.03-.67,1.43-1.09,2.31-1.27,2.64-.33.56-.72,1.15-1.19,1.78-.46.63-.96,1.21-1.49,1.73-.53.52-1.11.93-1.74,1.23-.63.3-1.31.42-2.05.38-1.29-.08-2.08-.62-2.38-1.62-.3-.99-.33-2-.09-3.03Zm-16.05-12.49c-.3,1.29-.66,2.51-1.06,3.67-.4,1.16-.8,2.19-1.18,3.1-.38.91-.61,1.52-.7,1.83-.63,1.99-1.4,3.9-2.3,5.75-.9,1.85-1.95,3.6-3.13,5.25-.26.4-.63.82-1.1,1.29-.47.46-.97.84-1.5,1.15-.53.3-1.07.46-1.63.47-.56.01-1.07-.25-1.52-.8-.5-.54-.77-1.23-.82-2.07-.05-.85,0-1.73.17-2.64.16-.91.37-1.8.64-2.66.27-.86.49-1.58.67-2.15.61-1.84,1.3-3.66,2.06-5.48.76-1.82,1.55-3.59,2.38-5.32.44-.72.9-1.49,1.38-2.29.47-.8,1-1.6,1.58-2.37.58-.78,1.19-1.46,1.83-2.06.64-.59,1.32-1.04,2.04-1.33,1.05-.11,1.77.13,2.13.75.37.61.54,1.43.53,2.46-.01,1.03-.17,2.19-.48,3.47Z"/>
      <path class="cls-1" d="m168.08,67.84c.23-.93.41-1.55.54-1.87,1.46-3.72,2.78-7.51,3.96-11.37,1.18-3.86,2.41-7.73,3.69-11.61l-7.06,1.42c-.13.57-.29,1.11-.48,1.64-.19.53-.37,1.08-.55,1.65-.73-1.18-1.58-1.89-2.56-2.13s-1.99-.21-3.03.09-2.07.79-3.08,1.46c-1.02.67-1.9,1.32-2.65,1.96-2.17,1.86-4.09,3.95-5.75,6.29-1.66,2.34-3.03,4.84-4.11,7.51-.49,1.23-.95,2.52-1.39,3.88-.44,1.36-.74,2.74-.89,4.15-.16,1.4-.13,2.78.09,4.13.22,1.35.75,2.63,1.58,3.83.83,1.21,1.72,1.92,2.67,2.14.95.22,1.91.13,2.88-.28.97-.41,1.91-1.07,2.84-1.96.92-.89,1.79-1.87,2.61-2.91s1.56-2.06,2.21-3.05c.66-.99,1.19-1.82,1.59-2.49.06.77.16,1.61.32,2.51.16.9.41,1.73.76,2.49.35.76.83,1.35,1.46,1.76.62.41,1.47.49,2.54.22,1.97-.88,3.62-2.1,4.93-3.63,1.31-1.53,2.45-3.23,3.42-5.09.67-1.29,1.28-2.61,1.86-3.95-.07.47-.13.97-.19,1.52-.14,1.47-.08,2.87.18,4.19.26,1.32.8,2.37,1.59,3.17.8.8,2.03.98,3.71.54,2.03-.85,3.77-2.08,5.21-3.69,1.27-1.42,2.38-2.98,3.36-4.69.01.06.02.12.03.19.25,1.12.71,2.13,1.38,3.03.79,1.02,1.72,1.69,2.79,2.01,1.07.32,2.16.4,3.28.22,1.11-.18,2.22-.53,3.31-1.07,1.09-.54,2.03-1.15,2.82-1.85.54-.45,1.22-1.15,2.04-2.1.81-.95,1.69-2.03,2.62-3.24.65-.84,1.29-1.75,1.93-2.69-.51,1.34-1,2.66-1.52,4-.43,1.26-.73,2.2-.9,2.82-.17.62-.15,1.02.06,1.2.21.18.65.2,1.33.06s1.71-.34,3.07-.62c.23-.09.61-.16,1.14-.19.53-.03.89-.17,1.09-.4.15-.23.29-.55.43-.97.14-.42.23-.75.28-1.01,1.14-2.87,2.29-5.73,3.45-8.59,1.17-2.85,2.32-5.72,3.46-8.59.26-.64.53-1.27.8-1.89.27-.62.59-1.23.95-1.84.83-1.49,1.73-3.03,2.71-4.62.98-1.59,2.2-2.9,3.65-3.93.35-.22.73-.46,1.14-.74.41-.28.83-.34,1.25-.18.48.2.72.59.71,1.18,0,.59-.09,1.09-.25,1.52-.17.62-.38,1.24-.62,1.85-.24.61-.5,1.22-.78,1.81-.53,1.53-1.11,3.06-1.75,4.61-.64,1.55-1.25,3.09-1.83,4.63-.36.9-.75,1.91-1.19,3.03-.44,1.12-.8,2.25-1.08,3.41-.28,1.16-.4,2.29-.34,3.41.05,1.12.39,2.12,1.01,3.03.56.82,1.21,1.34,1.96,1.55.75.22,1.55.22,2.39,0,1.96-.74,3.68-1.78,5.17-3.13,1.42-1.29,2.67-2.72,3.77-4.3.05.28.1.56.16.83.52,1.61,1.47,2.64,2.86,3.1,1.39.46,2.84.41,4.34-.14,1.5-.84,2.93-1.96,4.32-3.36,1.38-1.4,2.69-2.94,3.92-4.6,0,0,.01-.02.02-.02-.02.7.03,1.38.17,2.04.21,1.04.62,1.88,1.24,2.54.53.68,1.12,1.08,1.79,1.22.66.14,1.32.14,1.98,0,1.88-.38,3.52-1.1,4.93-2.16.42-.31.81-.65,1.2-1.01-.02.29.03.51.16.62.21.18.65.2,1.34.06.68-.14,1.71-.34,3.07-.62.23-.09.6-.16,1.14-.19.53-.03.9-.17,1.09-.4.15-.23.29-.55.43-.97.14-.42.23-.75.27-1.01,1.14-2.87,2.29-5.73,3.45-8.59,1.17-2.85,2.32-5.72,3.45-8.59.26-.64.53-1.27.8-1.89.27-.62.59-1.23.95-1.84.83-1.49,1.73-3.03,2.71-4.62.98-1.59,2.2-2.9,3.66-3.93.35-.22.73-.46,1.14-.74.41-.28.83-.34,1.25-.18.48.2.72.59.71,1.18,0,.59-.09,1.09-.25,1.52-.17.62-.38,1.24-.62,1.85-.24.61-.5,1.22-.78,1.81-.53,1.53-1.11,3.06-1.75,4.61-.64,1.55-1.25,3.09-1.83,4.63-.36.9-.75,1.91-1.19,3.03-.44,1.12-.8,2.25-1.08,3.41-.28,1.16-.4,2.29-.34,3.41.05,1.12.39,2.12,1.01,3.03.56.82,1.21,1.34,1.96,1.55.75.22,1.55.21,2.39,0,1.96-.74,3.68-1.78,5.17-3.13,1.49-1.35,2.8-2.86,3.94-4.54.3-.45.58-.92.86-1.38.25,1.12.71,2.13,1.38,3.02.79,1.02,1.72,1.69,2.79,2.01,1.07.32,2.16.4,3.28.22,1.11-.18,2.22-.53,3.31-1.07.41-.2.79-.43,1.16-.66.02.01.03.03.04.05.32.25.72.26,1.21.01.45-.19.85-.45,1.2-.79.35-.34.68-.69,1-1.05,2.58-3.26,4.87-6.69,6.89-10.3,2.02-3.61,3.98-7.25,5.89-10.91.56-1.09,1.11-2.14,1.64-3.16.53-1.01,1.11-2.04,1.73-3.1,0,3.38-.16,6.84-.45,10.37-.29,3.54-.97,6.95-2.02,10.25-.14.27-.34.63-.59,1.07-.25.44-.54.89-.87,1.35-.32.46-.67.87-1.04,1.24-.37.37-.74.59-1.12.66-.5.2-.96.05-1.38-.46-.42-.5-.68-1.01-.78-1.53-.06-.28-.08-.5-.06-.65.02-.4,0-.77-.08-1.12-.07-.35-.27-.59-.59-.73-.47-.15-.98-.05-1.52.3-.54.35-.93.68-1.16.97-.35.46-.57.92-.68,1.38-.1.46-.11.9-.03,1.33.13.66.48,1.25,1.05,1.77.57.52,1.24.88,2.01,1.07,1.12.22,2.29.2,3.52-.04.94-.19,1.84-.48,2.69-.87.85-.39,1.64-.85,2.36-1.39,1.8-1.29,3.17-2.78,4.13-4.46.96-1.69,1.66-3.48,2.12-5.38.45-1.9.72-3.86.8-5.89.08-2.02.14-4.07.17-6.13v.07c.01-1.22.01-2.51.01-3.86,0-1.34.08-2.6.24-3.76l.49-1.2c.16-.42.3-.83.42-1.22.12-.39.16-.78.13-1.16l-.17-.11c-.24.05-.48.09-.75.11-.26.03-.51.07-.75.11v.07c-.61.08-1.21.17-1.8.29-.59.12-1.13.29-1.62.51-.49.22-.95.52-1.36.9s-.76.86-1.03,1.46c-.61,1.1-1.2,2.24-1.78,3.4-.57,1.17-1.15,2.37-1.74,3.62-.75,1.57-1.55,3.18-2.38,4.82-.13,0-.28.15-.45.45-.44.73-1.02,1.77-1.72,3.14-.71,1.37-1.51,2.84-2.42,4.41-.91,1.58-1.9,3.15-2.98,4.71-1.08,1.56-2.2,2.88-3.36,3.94-.49.49-1.12,1.01-1.89,1.55-.77.55-1.56.95-2.36,1.21-.81.26-1.55.27-2.23.04-.68-.23-1.2-.87-1.56-1.93-.26-.78-.38-1.6-.38-2.46,0-.86.09-1.69.27-2.51.13-.56.23-1.24.29-2.04.06-.79.24-1.42.54-1.87.25-.44.7-.75,1.35-.93.65-.18,1.2-.36,1.65-.55.8-.41,1.56-.82,2.29-1.23.72-.41,1.45-.87,2.19-1.36,1.33-.95,2.62-2.02,3.88-3.2,1.25-1.18,2.33-2.5,3.21-3.95.37-.56.73-1.2,1.05-1.9.33-.7.56-1.43.7-2.2.14-.76.16-1.51.06-2.25-.1-.74-.43-1.39-.98-1.97-.7-.79-1.57-1.13-2.63-1.01-1.05.11-2.01.35-2.87.72-1.37.52-2.67,1.17-3.9,1.96-1.24.79-2.39,1.7-3.45,2.75-2.24,2.02-4.14,4.26-5.7,6.72-1.56,2.47-2.76,5.16-3.59,8.07-.33,1.05-.61,2.14-.85,3.29-.23,1.15-.37,2.31-.4,3.49,0,.34.02.68.03,1.02-.06.11-.11.22-.17.33-.72,1.32-1.56,2.53-2.54,3.63-.98,1.1-2.18,1.99-3.61,2.67-.69.24-1.14.19-1.35-.13-.21-.32-.3-.75-.25-1.27s.16-1.06.34-1.61c.18-.55.32-.98.4-1.29.48-1.52.99-2.99,1.54-4.42.54-1.43,1.11-2.87,1.71-4.31.66-1.6,1.4-3.28,2.22-5.04.82-1.76,1.33-3.51,1.51-5.26.05-1.23-.11-2.45-.48-3.65-.36-1.2-1.24-1.98-2.63-2.33-.61-.12-1.25-.13-1.91-.02-.66.11-1.32.28-1.96.5-.64.23-1.24.52-1.81.88-.57.36-1.06.73-1.47,1.1-.97.78-1.85,1.65-2.64,2.59-.79.94-1.58,1.91-2.36,2.9.15-.72.33-1.46.54-2.24.21-.78.3-1.5.26-2.18-.06-.28-.17-.55-.35-.81-.17-.26-.32-.45-.45-.57.05,0-.22.06-.8.2-.58.14-1.26.3-2.03.48-.77.18-1.53.37-2.27.57-.74.2-1.28.33-1.61.4-.38.08-.54.15-.51.21.04.07.08.36.14.89.08.62.17,1.19.27,1.71.1.52.02,1.07-.25,1.67-.14.52-.3,1.01-.47,1.49-.17.48-.34.95-.49,1.42-1.34,3.79-2.71,7.55-4.09,11.25-1.24,3.31-2.51,6.65-3.79,10-.14.2-.28.42-.43.61-.73.98-1.47,1.76-2.21,2.35s-1.41.85-2.01.77c-.29.01-.62-.14-.97-.47-.38-.41-.61-.88-.69-1.4-.08-.52-.08-1.06,0-1.62.08-.56.21-1.09.37-1.62.16-.52.33-.97.5-1.35.43-1.26.91-2.56,1.42-3.88.52-1.33.99-2.65,1.41-3.95.24-.73.5-1.45.78-2.14.28-.69.54-1.38.8-2.07.65-1.65,1.25-3.32,1.82-5.03.56-1.7,1.01-3.57,1.34-5.59.04-.3.02-.58-.06-.83-.08-.25-.16-.49-.25-.72l-.1-.13-.03-.14c-.45.19-.95.33-1.5.41-.55.09-1.03.17-1.46.26-.56.11-1.27.28-2.1.5s-1.49.5-1.96.83c-.11.17-.18.4-.19.7-.01.3-.04.57-.09.83.02.09.03.19.02.29,0,.1,0,.2.02.29-.05.5-.08.98-.11,1.45-.03.47-.15,1.02-.37,1.65-.43,1.26-.87,2.52-1.3,3.79-.43,1.26-.87,2.5-1.31,3.71-.67,1.55-1.29,3.15-1.87,4.78-.58,1.63-1.1,3.35-1.57,5.16-.13.57-.25,1.2-.36,1.87-.09.15-.18.31-.27.46-.81,1.34-1.58,2.5-2.31,3.48-.73.98-1.41,1.65-2.02,2.02-1.01.59-1.94.75-2.81.45-.87-.29-1.26-1.08-1.17-2.37.19-2.19.67-4.66,1.41-7.41.75-2.74,1.62-5.6,2.61-8.57,1-2.97,2.07-5.92,3.21-8.87,1.15-2.95,2.25-5.7,3.3-8.26l6-1.2-.5-2.47-4.66.93c1.03-2.41,1.89-4.53,2.58-6.35.69-1.83,1.23-3.39,1.63-4.7.4-1.3.68-2.41.84-3.33.16-.91.25-1.67.28-2.26.06-.21-.33-.28-1.14-.21-.82.07-1.72.2-2.71.4-.9.18-1.73.4-2.51.65-.78.26-1.32.51-1.61.76-.15.23-.26.52-.34.88-.07.36-.13.69-.17.99.02.09.01.18-.02.26-.03.08-.04.17-.02.26-.07,1.14-.3,2.4-.71,3.78-.41,1.38-.81,2.7-1.19,3.95v-.07s-.51,1.57-.51,1.57l-2.16,4.99-6,1.2.5,2.47,4.73-.95-2.48,6.67c-1.71,4.65-3.12,8.55-4.23,11.68-1.11,3.14-1.97,5.76-2.57,7.86-.61,2.1-.96,3.84-1.05,5.2,0,.13,0,.25-.01.38-.55.88-1.15,1.72-1.83,2.49-.98,1.1-2.18,1.99-3.61,2.67-.69.24-1.14.19-1.35-.13-.21-.32-.3-.75-.25-1.27s.16-1.06.34-1.61c.18-.55.32-.98.4-1.29.48-1.52.99-2.99,1.54-4.42.55-1.43,1.11-2.87,1.71-4.31.66-1.6,1.4-3.28,2.22-5.04.82-1.76,1.33-3.51,1.51-5.26.05-1.23-.11-2.45-.47-3.65-.36-1.2-1.24-1.98-2.63-2.33-.61-.12-1.25-.13-1.91-.02-.66.11-1.32.28-1.96.5-.64.23-1.24.52-1.81.88-.57.36-1.05.73-1.47,1.1-.97.78-1.85,1.65-2.64,2.59-.79.94-1.57,1.91-2.36,2.9.15-.72.33-1.46.54-2.24.21-.78.3-1.5.26-2.18-.06-.28-.17-.55-.35-.81-.17-.26-.32-.45-.45-.57.05,0-.22.06-.8.2-.58.14-1.26.3-2.03.48-.77.18-1.53.37-2.27.57-.74.2-1.28.33-1.61.4-.38.08-.55.15-.51.21.04.07.08.36.14.89.08.62.17,1.19.27,1.71.1.52.02,1.07-.25,1.67-.14.52-.3,1.01-.47,1.49-.17.48-.34.95-.49,1.42-1.17,3.29-2.35,6.54-3.55,9.76-.63,1.2-1.32,2.46-2.1,3.82-.91,1.58-1.9,3.15-2.98,4.71-1.08,1.56-2.2,2.88-3.36,3.94-.49.49-1.12,1.01-1.89,1.55-.77.55-1.56.95-2.36,1.21-.81.26-1.55.27-2.23.04-.68-.23-1.2-.87-1.56-1.93-.25-.78-.38-1.6-.38-2.46,0-.86.09-1.69.27-2.51.13-.56.23-1.24.29-2.04.06-.79.24-1.42.54-1.87.25-.44.7-.75,1.35-.93.65-.18,1.2-.36,1.65-.55.8-.4,1.56-.81,2.29-1.23.72-.41,1.45-.87,2.19-1.36,1.33-.95,2.62-2.02,3.88-3.2,1.25-1.18,2.33-2.5,3.21-3.95.38-.56.73-1.2,1.05-1.9.32-.7.56-1.43.7-2.2s.16-1.51.06-2.25c-.1-.74-.43-1.4-.98-1.97-.7-.79-1.57-1.13-2.63-1.01-1.05.11-2.01.35-2.86.72-1.37.52-2.67,1.17-3.9,1.96-1.24.79-2.39,1.7-3.45,2.75-2.24,2.02-4.14,4.26-5.7,6.72-1.56,2.47-2.76,5.16-3.59,8.07-.33,1.05-.61,2.14-.85,3.29-.23,1.15-.37,2.31-.4,3.5,0,.23.02.46.02.69-.41.7-.84,1.39-1.31,2.07-.85,1.25-1.84,2.38-2.96,3.38-.69.48-1.26.66-1.73.53s-.74-.4-.83-.83c-.22-.59-.23-1.28-.04-2.05.19-.77.36-1.37.52-1.79,1.11-3.99,2.32-7.94,3.64-11.86,1.32-3.91,2.66-7.81,4-11.71,1.35-3.89,2.69-7.76,4.02-11.6,1.33-3.84,2.59-7.69,3.78-11.55,0-.24-.05-.67-.15-1.29-.1-.62-.35-.96-.76-1.02-.33.07-.85.22-1.56.46-.71.24-1.47.49-2.27.75-.8.26-1.54.5-2.2.74-.66.23-1.08.39-1.26.47,0,.25.04.56.11.93.08.38.14.68.18.92.02.34,0,.67-.06,1-.06.33-.15.68-.27,1.04-1.26,3.73-2.53,7.42-3.8,11.08-1.27,3.66-2.57,7.33-3.88,11.02-1.08,3.15-2.21,6.27-3.38,9.34-.58,1.53-1.12,3.07-1.62,4.64-.59,1.04-1.13,2.12-1.61,3.25-.6,1.42-1.21,2.84-1.83,4.26-.62,1.42-1.33,2.78-2.12,4.06-.79,1.29-1.78,2.44-2.94,3.45-.89.47-1.47.44-1.74-.09-.28-.53-.4-1.24-.35-2.13.04-.89.18-1.8.41-2.73Zm-2.01-14.06c-.3,1.29-.66,2.51-1.06,3.66-.4,1.16-.8,2.19-1.18,3.1-.38.91-.61,1.52-.7,1.83-.63,1.99-1.4,3.9-2.3,5.75-.9,1.85-1.95,3.6-3.13,5.25-.26.4-.63.82-1.1,1.29-.47.46-.97.84-1.5,1.15-.53.3-1.07.46-1.63.47-.56.01-1.07-.25-1.52-.8-.5-.54-.77-1.23-.82-2.08-.05-.85,0-1.73.17-2.64.16-.91.37-1.8.64-2.66.27-.86.49-1.58.67-2.15.61-1.84,1.3-3.66,2.06-5.48.76-1.82,1.56-3.59,2.38-5.32.44-.72.9-1.49,1.38-2.29.47-.8,1-1.6,1.58-2.37.58-.78,1.19-1.46,1.83-2.06.64-.59,1.32-1.04,2.05-1.33,1.05-.11,1.77.13,2.13.75.37.61.54,1.43.53,2.46-.01,1.03-.17,2.19-.48,3.47Zm144.61-27.73c.79-1.8,1.72-3.54,2.81-5.23.08-.11.24-.38.5-.8.26-.42.56-.86.91-1.32.35-.46.73-.92,1.16-1.37.42-.45.83-.8,1.22-1.05.39-.25.74-.36,1.04-.32.3.04.53.31.68.82.17.6.14,1.33-.08,2.18-.22.85-.42,1.57-.6,2.14-.29.74-.65,1.46-1.07,2.16-.42.7-.89,1.37-1.4,2.01-1.01,1.33-2.09,2.6-3.24,3.81-1.15,1.21-2.54,2.03-4.17,2.45.7-1.85,1.45-3.68,2.24-5.48Zm-109.77,22.02c.79-1.8,1.72-3.54,2.81-5.23.08-.11.24-.38.5-.8.26-.42.56-.86.91-1.32s.73-.92,1.16-1.37c.42-.45.83-.8,1.22-1.05.39-.25.74-.36,1.04-.32.3.04.53.31.68.82.17.6.14,1.33-.08,2.18-.22.85-.42,1.57-.6,2.14-.29.74-.65,1.46-1.07,2.16-.42.7-.89,1.37-1.4,2.01-1.01,1.33-2.09,2.6-3.24,3.81-1.15,1.21-2.54,2.03-4.17,2.45.7-1.85,1.45-3.68,2.24-5.48Z"/>
      <path class="cls-1" d="m221.16,124.35c-.36.88-.62,1.53-.78,1.96-.75,1.86-1.48,3.72-2.19,5.58-.71,1.85-1.32,3.77-1.86,5.73-.21.68-.39,1.49-.54,2.42-.15.94-.21,1.84-.15,2.71.05.87.28,1.66.69,2.36.41.7,1.08,1.18,2.01,1.43.56.13,1.12.15,1.67.07.55-.08,1.09-.23,1.64-.44,2.01-1.19,3.75-2.6,5.21-4.24.62-.7,1.21-1.43,1.77-2.18.28.94.71,1.84,1.31,2.7.83,1.2,1.72,1.92,2.67,2.14.95.22,1.91.13,2.88-.28.97-.41,1.91-1.07,2.84-1.96.92-.89,1.79-1.87,2.61-2.91s1.56-2.06,2.21-3.05c.66-.99,1.19-1.82,1.59-2.49.06.77.16,1.61.32,2.51.15.9.41,1.73.76,2.49.35.76.83,1.35,1.46,1.76.62.41,1.47.49,2.54.22,1.98-.88,3.62-2.1,4.93-3.63.99-1.16,1.88-2.42,2.68-3.77-.09.22-.17.45-.26.67-.64,1.57-1.28,3.18-1.93,4.83-.75,1.62-1.5,3.27-2.24,4.96s-1.51,3.33-2.32,4.91c-.67,1.31-1.41,2.68-2.22,4.12-.81,1.44-1.74,2.78-2.79,4.05-1.04,1.26-2.21,2.34-3.5,3.24-1.29.89-2.75,1.43-4.38,1.61-.53.06-1.1.05-1.73-.02-.63-.07-1.11-.34-1.45-.81-.21-.3-.29-.62-.26-.94.03-.33.1-.65.21-.96.11-.32.23-.62.37-.92.14-.3.17-.61.11-.94-.11-.81-.44-1.41-.98-1.79-.54-.38-1.13-.58-1.77-.6-.64-.02-1.26.13-1.86.45-.6.31-1.05.8-1.36,1.45-.27.59-.39,1.27-.37,2.02.03.75.16,1.48.4,2.19.24.71.57,1.33,1,1.86.43.53.92.88,1.5,1.06,2.55.76,4.97.87,7.27.34,2.29-.53,4.46-1.5,6.51-2.88,2.05-1.39,3.96-3.1,5.73-5.12,1.77-2.02,3.38-4.17,4.84-6.44s2.76-4.56,3.91-6.84c1.16-2.29,2.15-4.4,2.99-6.33.41-.87.8-1.24,1.17-1.12.37.12,1,.36,1.91.72,1.67.5,3.33.44,5-.16,1.67-.6,3.19-1.38,4.56-2.35,1.43-.92,2.74-1.98,3.92-3.17,1.18-1.19,2.19-2.48,3.04-3.88,1.04-1.63,2.03-3.45,2.94-5.47s1.58-4.1,1.98-6.24c.43-1.75.62-3.48.58-5.18-.05-1.7-.38-3.33-.98-4.87-.68-1.43-1.66-2.42-2.95-2.97s-2.66-.56-4.12-.02c-1.52.7-2.83,1.7-3.92,2.99-1.09,1.29-2.12,2.55-3.1,3.78.12-.61.21-1.28.26-2,.05-.72-.03-1.38-.25-1.97-.03-.14-.07-.28-.12-.42-.05-.14-.17-.31-.36-.52-.52.1-1.13.24-1.83.4-.7.17-1.38.34-2.03.52-.65.18-1.23.33-1.74.46-.52.13-.82.2-.91.22.04.68.08,1.25.12,1.7.04.46,0,.94-.15,1.46-.35,1.69-.86,3.4-1.54,5.16-.68,1.75-1.27,3.44-1.78,5.06-.4,1.12-.8,2.25-1.21,3.38-.41.79-.8,1.59-1.15,2.42-.6,1.42-1.21,2.84-1.83,4.26-.62,1.42-1.33,2.78-2.12,4.06-.79,1.29-1.78,2.44-2.94,3.45-.89.47-1.47.44-1.74-.09-.28-.53-.4-1.24-.36-2.13.04-.89.18-1.8.41-2.73.23-.93.41-1.55.54-1.87,1.46-3.72,2.78-7.51,3.96-11.37,1.18-3.86,2.42-7.73,3.69-11.61l-7.06,1.42c-.13.57-.29,1.11-.48,1.64-.19.53-.37,1.08-.55,1.65-.73-1.18-1.58-1.89-2.56-2.13s-1.99-.21-3.03.09c-1.04.31-2.07.79-3.08,1.46-1.02.67-1.9,1.32-2.65,1.96-2.17,1.86-4.09,3.95-5.75,6.29-1.66,2.34-3.03,4.84-4.11,7.51-.49,1.23-.95,2.52-1.39,3.88-.44,1.36-.74,2.74-.89,4.15-.1.84-.11,1.67-.07,2.49-.92,1.22-1.92,2.38-2.99,3.48-.72.58-1.39.81-2.03.67-.64-.14-.9-.76-.78-1.86.08-.8.26-1.62.54-2.46.27-.84.58-1.68.92-2.54.34-.85.7-1.68,1.08-2.49.38-.81.71-1.61.99-2.4.69-1.7,1.39-3.44,2.12-5.2.72-1.76,1.14-3.58,1.25-5.46.04-.74.01-1.46-.1-2.15-.11-.69-.34-1.3-.67-1.85-.33-.55-.78-.98-1.36-1.31-.58-.32-1.3-.47-2.18-.44-1.12.03-2.16.26-3.13.7-.96.44-1.85,1.01-2.67,1.71-.81.7-1.59,1.48-2.32,2.34-.73.86-1.44,1.67-2.12,2.44,1.4-3.76,2.76-7.48,4.07-11.17,1.32-3.69,2.62-7.43,3.92-11.21.12-.37.31-.93.58-1.69.26-.76.44-1.53.53-2.31.09-.78.04-1.44-.14-1.99-.18-.55-.66-.8-1.43-.74-.82.07-1.68.3-2.58.7-.9.4-1.74.73-2.52.98-.5.2-.79.43-.89.69-.09.26-.14.66-.13,1.2,0,1.27-.23,2.51-.72,3.71s-.96,2.41-1.4,3.62c-2.24,7.16-4.6,14.31-7.08,21.47-2.48,7.16-4.97,14.29-7.46,21.4-.09.26-.28.69-.55,1.29-.27.59-.5,1.21-.69,1.86-.19.65-.3,1.24-.35,1.76-.04.52.14.84.56.95.31.08.69.06,1.12-.08.44-.14.8-.21,1.09-.22,1.04-.21,1.89-.38,2.58-.52.68-.14,1.24-.71,1.67-1.73.86-2.08,1.64-4.2,2.36-6.35.72-2.15,1.45-4.29,2.2-6.43.75-2.13,1.55-4.24,2.4-6.32.86-2.08,1.85-4.09,2.98-6.03.22-.39.61-.94,1.17-1.67.56-.72,1.2-1.43,1.89-2.1.7-.68,1.38-1.24,2.04-1.7.67-.45,1.22-.57,1.65-.37.55.33.84.91.86,1.74.02.83-.11,1.72-.38,2.68-.27.96-.59,1.88-.95,2.76Zm44.5,5.5c.38-1.54.86-3.07,1.46-4.59.6-1.52,1.17-3.01,1.71-4.49,1.06-3,2.38-5.94,3.96-8.8.33-.55.69-1.18,1.09-1.87.4-.69.84-1.36,1.33-1.99.48-.63,1.01-1.2,1.57-1.71.56-.5,1.18-.87,1.87-1.11,1.43-.43,2.35-.18,2.76.77.41.95.49,2.25.24,3.92-.25,1.67-.72,3.56-1.4,5.68-.68,2.12-1.41,4.14-2.2,6.06-.79,1.92-1.52,3.6-2.19,5.03-.67,1.43-1.09,2.31-1.27,2.64-.33.56-.72,1.15-1.19,1.78-.46.63-.96,1.21-1.49,1.73-.53.52-1.11.93-1.73,1.23-.63.3-1.31.42-2.05.38-1.29-.08-2.08-.62-2.38-1.62-.3-.99-.33-2-.09-3.03Zm-25.07-11.13c.44-.72.9-1.49,1.38-2.29.47-.8,1-1.6,1.58-2.37s1.19-1.46,1.83-2.06c.64-.59,1.32-1.04,2.04-1.33,1.05-.11,1.77.13,2.13.75.37.61.54,1.43.53,2.46-.01,1.03-.17,2.19-.48,3.47-.3,1.29-.66,2.51-1.06,3.67-.4,1.16-.8,2.19-1.18,3.1-.38.91-.61,1.52-.7,1.83-.63,1.99-1.4,3.9-2.3,5.75-.9,1.85-1.95,3.6-3.13,5.25-.26.4-.63.82-1.1,1.29-.47.46-.97.84-1.5,1.15-.53.3-1.07.46-1.63.47-.56.01-1.07-.25-1.52-.8-.5-.54-.77-1.23-.82-2.07-.05-.85,0-1.73.17-2.64.16-.91.37-1.8.64-2.66.27-.86.49-1.58.67-2.15.61-1.84,1.3-3.66,2.06-5.48.76-1.82,1.55-3.59,2.38-5.32Z"/>
      <path class="cls-1" d="m339.21,107.87c.82-2.39,1.61-4.84,2.38-7.34.4-1.2.87-2.45,1.42-3.74.55-1.29.96-2.59,1.23-3.92.13-.56.17-1.17.11-1.82s-.18-1.18-.36-1.58c-1.21.09-2.36.3-3.47.62-1.11.32-2.2.64-3.26.95-.32.11-.56.36-.73.73.08.38.13.85.18,1.43.04.58,0,1.08-.1,1.49-.89,2.38-1.7,4.93-2.43,7.65-.73,2.72-1.6,5.35-2.6,7.9-1.01,2.55-2.21,4.92-3.61,7.11-1.4,2.19-3.21,3.97-5.43,5.35-.56.36-.95.38-1.16.05-.21-.32-.31-.86-.28-1.6.02-.74.13-1.59.33-2.56.2-.97.41-1.92.64-2.85.23-.93.46-1.77.71-2.53.24-.76.41-1.27.5-1.53.89-2.38,1.78-4.77,2.67-7.18.89-2.41,1.64-4.87,2.26-7.39.08-.31.2-.7.35-1.17.15-.47.25-.93.31-1.38s.01-.85-.13-1.19c-.14-.34-.46-.51-.95-.51-.91.09-1.84.3-2.78.63-.94.33-1.85.59-2.75.77-.3.21-.51.5-.63.86-.12.37-.21.75-.25,1.15-.04.4-.09.79-.13,1.17-.05.38-.11.72-.2,1.03-.48,1.76-1.05,3.5-1.71,5.23-.66,1.72-1.32,3.45-1.97,5.17-.66,1.72-1.29,3.45-1.9,5.19-.61,1.74-1.09,3.52-1.46,5.36-.13.81-.18,1.68-.14,2.6.04.92.21,1.78.52,2.58.31.8.76,1.46,1.36,2,.6.54,1.42.83,2.45.87,1.08.03,2.09-.2,3.02-.68s1.79-1.07,2.58-1.77c.79-.7,1.53-1.47,2.22-2.32.69-.85,1.32-1.67,1.89-2.47-.61,2.33-1.29,4.69-2.03,7.09-.74,2.4-1.63,4.76-2.66,7.07-1.03,2.31-2.26,4.49-3.68,6.54-1.42,2.05-3.12,3.88-5.1,5.5-.38.27-.84.55-1.38.83s-1.09.5-1.67.67c-.58.16-1.16.26-1.74.28-.58.02-1.12-.09-1.61-.34-.64-.26-1.01-.59-1.12-.99-.1-.4-.1-.82,0-1.28.1-.46.22-.94.34-1.43.12-.49.09-.96-.1-1.41-.44-.99-1.18-1.54-2.2-1.65-1.03-.11-1.89.15-2.6.78-.74.69-1.17,1.53-1.29,2.54-.12,1,.04,1.95.46,2.84.65,1.04,1.51,1.75,2.56,2.13,1.05.38,2.18.55,3.38.53,1.2-.02,2.38-.2,3.56-.53,1.18-.34,2.21-.66,3.07-.98,2.11-.72,4.08-1.75,5.91-3.1,1.83-1.35,3.51-2.86,5.04-4.54,1.66-1.75,3.03-3.68,4.13-5.78,1.09-2.1,2.04-4.28,2.84-6.52.8-2.24,1.54-4.51,2.23-6.8.69-2.29,1.46-4.5,2.3-6.63.94-2.39,1.82-4.78,2.64-7.17Z"/>
      <path class="cls-1" d="m292.79,108.04c-.68,1.75-1.27,3.44-1.78,5.06-.63,1.74-1.26,3.5-1.88,5.26-.62,1.77-1.21,3.49-1.75,5.16-.54,1.72-1.12,3.37-1.76,4.94-.64,1.57-1.28,3.18-1.93,4.83-.75,1.62-1.5,3.27-2.24,4.97-.74,1.69-1.51,3.33-2.32,4.91-.67,1.31-1.41,2.68-2.22,4.12-.81,1.44-1.74,2.78-2.79,4.05-1.04,1.26-2.21,2.34-3.5,3.24-1.29.9-2.75,1.43-4.38,1.61-.53.06-1.1.05-1.73-.02-.62-.07-1.11-.34-1.45-.81-.21-.3-.29-.62-.26-.94.03-.33.1-.65.21-.96.11-.32.23-.62.37-.92.14-.3.17-.61.11-.94-.11-.81-.44-1.41-.98-1.79-.54-.38-1.13-.58-1.77-.6s-1.26.13-1.86.45c-.6.31-1.05.8-1.36,1.45-.27.59-.39,1.27-.37,2.02.03.75.16,1.48.4,2.2.24.71.57,1.33,1,1.86.43.53.92.88,1.5,1.06,2.55.76,4.97.88,7.26.34,2.29-.53,4.46-1.5,6.51-2.88,2.05-1.39,3.96-3.1,5.73-5.12,1.77-2.02,3.39-4.17,4.84-6.44,1.45-2.27,2.76-4.55,3.91-6.84,1.16-2.29,2.15-4.4,2.99-6.33.41-.87.8-1.24,1.17-1.12.37.12,1,.36,1.91.72,1.66.5,3.33.44,5-.16s3.19-1.38,4.56-2.35c1.43-.92,2.73-1.98,3.92-3.17,1.18-1.19,2.19-2.48,3.04-3.88,1.04-1.63,2.02-3.45,2.94-5.47.92-2.02,1.58-4.1,1.98-6.24.43-1.75.62-3.48.58-5.18-.05-1.7-.37-3.33-.98-4.87-.68-1.43-1.66-2.42-2.95-2.97-1.28-.55-2.66-.56-4.12-.02-1.53.7-2.83,1.69-3.92,2.99-1.09,1.29-2.12,2.55-3.1,3.78.12-.61.21-1.28.26-2,.05-.72-.03-1.38-.25-1.97-.03-.14-.07-.28-.12-.42-.05-.14-.17-.31-.36-.52-.52.1-1.13.24-1.83.4-.7.17-1.38.34-2.03.52-.65.18-1.23.33-1.74.46-.51.13-.82.2-.91.22.04.68.08,1.25.12,1.7.04.46,0,.94-.15,1.46-.35,1.69-.86,3.4-1.54,5.15Zm2.79,11.52c.6-1.52,1.17-3.01,1.71-4.49,1.06-3,2.38-5.94,3.96-8.8.33-.55.69-1.18,1.09-1.87.4-.69.84-1.36,1.33-1.99.48-.63,1.01-1.2,1.57-1.71.56-.5,1.18-.87,1.87-1.11,1.43-.43,2.35-.18,2.76.77.41.95.49,2.25.24,3.92-.25,1.67-.72,3.56-1.39,5.68-.68,2.12-1.41,4.14-2.2,6.06-.79,1.92-1.52,3.6-2.19,5.03-.67,1.43-1.09,2.31-1.27,2.64-.33.56-.72,1.15-1.19,1.78-.46.63-.96,1.21-1.49,1.73-.53.52-1.11.93-1.74,1.23-.63.3-1.31.42-2.05.38-1.29-.08-2.08-.62-2.38-1.62-.3-.99-.33-2-.09-3.03.38-1.54.87-3.07,1.47-4.59Z"/>
      <path class="cls-1" d="m95.98,266.79c.37.86.85,1.59,1.43,2.21.59.62,1.29,1.05,2.1,1.3.81.25,1.72.21,2.72-.14,1.16-.33,2.18-.95,3.08-1.87s1.67-1.83,2.31-2.74c.69-.97,1.39-1.97,2.12-2.99.72-1.03,1.35-2.08,1.86-3.17-.05.99.05,2.01.29,3.06.23,1.05.7,1.98,1.4,2.77.86.86,1.85,1.22,2.97,1.09,1.12-.13,2.13-.53,3.03-1.2,2.24-2.08,4.16-4.43,5.8-7.03,0,.06.01.12.02.18.22,1.35.75,2.63,1.58,3.83.83,1.21,1.72,1.92,2.67,2.14.95.22,1.91.13,2.88-.28.97-.41,1.91-1.07,2.84-1.96.92-.89,1.79-1.87,2.61-2.91.82-1.05,1.56-2.06,2.21-3.05.66-.99,1.19-1.82,1.59-2.49.06.77.16,1.61.32,2.51.16.9.41,1.73.76,2.49.35.76.83,1.35,1.46,1.76.62.41,1.47.49,2.54.22,1.98-.88,3.62-2.1,4.93-3.63,1.31-1.53,2.45-3.23,3.42-5.09,0-.02.02-.03.03-.05-.01.35-.02.71,0,1.08.04.92.21,1.78.52,2.58.31.8.76,1.46,1.36,2,.6.54,1.42.83,2.45.87,1.08.03,2.09-.2,3.02-.68.93-.48,1.79-1.07,2.58-1.77.79-.7,1.53-1.47,2.21-2.32.69-.85,1.32-1.67,1.89-2.47-.61,2.33-1.29,4.69-2.03,7.09-.74,2.4-1.63,4.76-2.66,7.07-1.03,2.31-2.26,4.49-3.68,6.54-1.42,2.05-3.12,3.88-5.1,5.5-.39.27-.84.55-1.38.83-.53.28-1.09.5-1.67.67-.58.16-1.16.26-1.74.28-.58.02-1.12-.09-1.61-.34-.64-.26-1.01-.59-1.12-.99-.1-.4-.1-.82,0-1.29.1-.46.22-.94.34-1.43.12-.49.09-.96-.1-1.41-.44-.99-1.18-1.54-2.2-1.65-1.03-.11-1.89.15-2.6.78-.74.69-1.17,1.53-1.29,2.54-.12,1,.04,1.95.46,2.84.65,1.04,1.5,1.76,2.56,2.13,1.05.38,2.18.55,3.38.53,1.2-.02,2.38-.2,3.57-.53,1.18-.33,2.21-.66,3.07-.98,2.11-.72,4.08-1.75,5.91-3.1s3.51-2.86,5.04-4.54c1.66-1.75,3.03-3.68,4.13-5.78,1.09-2.1,2.04-4.28,2.84-6.52.8-2.24,1.54-4.51,2.23-6.8.69-2.29,1.46-4.5,2.31-6.63.94-2.39,1.82-4.78,2.64-7.17.82-2.39,1.61-4.84,2.38-7.34.4-1.2.87-2.45,1.42-3.74.55-1.29.96-2.59,1.23-3.92.13-.57.17-1.17.11-1.82-.06-.65-.18-1.18-.35-1.58-1.21.09-2.36.3-3.47.62-1.11.32-2.2.64-3.26.95-.32.11-.56.36-.73.73.08.38.13.85.18,1.43s0,1.08-.1,1.49c-.89,2.38-1.7,4.93-2.43,7.65s-1.59,5.35-2.6,7.9c-1.01,2.55-2.21,4.92-3.61,7.11-1.4,2.19-3.2,3.97-5.43,5.35-.56.36-.95.38-1.16.05s-.31-.86-.28-1.6c.02-.74.13-1.59.33-2.56.2-.97.41-1.92.64-2.85.23-.93.46-1.77.71-2.53.24-.76.41-1.27.5-1.53.89-2.38,1.78-4.78,2.67-7.18.89-2.41,1.64-4.87,2.26-7.39.08-.31.2-.7.35-1.17.15-.47.25-.93.31-1.38.06-.45.01-.85-.13-1.19-.14-.34-.46-.51-.95-.51-.91.09-1.84.3-2.78.63-.94.33-1.85.59-2.75.77-.3.21-.51.5-.63.86-.12.37-.21.75-.25,1.15-.04.4-.09.79-.13,1.17-.05.38-.11.72-.2,1.03-.48,1.76-1.05,3.5-1.71,5.22-.66,1.72-1.32,3.45-1.97,5.17-.66,1.72-1.29,3.45-1.9,5.19-.15.42-.26.85-.4,1.28-.33.78-.66,1.56-1,2.34-.62,1.42-1.33,2.78-2.12,4.06s-1.78,2.44-2.94,3.45c-.89.47-1.47.44-1.74-.09-.28-.53-.4-1.24-.35-2.13.04-.89.18-1.8.41-2.72.23-.93.41-1.55.54-1.87,1.46-3.72,2.78-7.51,3.96-11.37,1.18-3.86,2.41-7.73,3.69-11.61l-7.06,1.42c-.13.57-.29,1.11-.48,1.64-.19.53-.37,1.08-.55,1.65-.73-1.18-1.58-1.89-2.56-2.13-.98-.24-1.99-.21-3.03.09-1.04.31-2.07.79-3.08,1.46-1.02.67-1.9,1.32-2.65,1.96-2.17,1.86-4.09,3.95-5.75,6.29-1.66,2.34-3.03,4.84-4.11,7.51-.49,1.22-.95,2.52-1.39,3.88-.44,1.36-.74,2.74-.89,4.14-.04.33-.06.66-.08.99-.52.91-1.06,1.81-1.64,2.69-.92,1.38-1.89,2.62-2.89,3.7-.48.29-.87.41-1.18.35-.31-.06-.56-.22-.76-.47-.2-.25-.34-.59-.42-1.02s-.12-.83-.1-1.23c.11-1.15.38-2.3.81-3.47.43-1.16.87-2.33,1.32-3.5.35-1.2.67-2.38.98-3.54.3-1.16.66-2.35,1.05-3.55,1.58-5.31,3.27-10.51,5.06-15.59,1.79-5.08,3.54-10.24,5.23-15.48.08-.31.24-.81.47-1.49.23-.68.38-1.36.44-2.03.06-.67,0-1.26-.17-1.76-.17-.5-.62-.73-1.35-.68-.39.03-.88.12-1.49.26-.61.15-1.22.32-1.84.52-.62.2-1.21.44-1.76.72-.56.28-.95.57-1.19.86-.19.28-.24.54-.14.76.09.23.17.5.24.83.05.53,0,1.05-.16,1.57-.16.52-.32,1.04-.46,1.56-2.29,7.36-4.72,14.68-7.27,21.95-.44-.5-.87-.96-1.27-1.4-.4-.43-.91-.71-1.53-.83-.66-.11-1.32-.04-1.98.21-.66.25-1.29.49-1.88.71-2.45,1.23-4.61,2.91-6.48,5.04-1.41,1.51-2.73,3.18-3.95,5.01-1.22,1.84-2.28,3.76-3.17,5.78-.89,2.02-1.54,4.09-1.94,6.23-.4,2.14-.47,4.25-.19,6.35.08.87.3,1.73.67,2.58Zm35.62-12.8c.16-.91.37-1.8.64-2.66.27-.86.49-1.58.67-2.15.61-1.84,1.3-3.66,2.06-5.48.76-1.82,1.56-3.59,2.38-5.33.44-.72.9-1.49,1.38-2.29.47-.8,1-1.6,1.58-2.37.58-.78,1.19-1.46,1.83-2.05.64-.59,1.32-1.04,2.04-1.33,1.05-.11,1.77.14,2.13.75.37.61.54,1.43.53,2.46-.01,1.03-.17,2.19-.48,3.47-.3,1.29-.66,2.51-1.06,3.67-.41,1.16-.8,2.19-1.18,3.1-.38.91-.61,1.52-.7,1.83-.63,1.99-1.4,3.9-2.3,5.75-.9,1.85-1.95,3.6-3.13,5.25-.26.4-.63.82-1.1,1.29-.47.46-.97.84-1.5,1.14-.53.3-1.07.46-1.63.47-.56.02-1.07-.25-1.52-.8-.5-.54-.77-1.23-.82-2.07-.05-.85,0-1.73.17-2.64Zm-30.05,4.67c.35-1.42.84-2.9,1.46-4.44.62-1.54,1.25-3.02,1.9-4.42.65-1.4,1.27-2.67,1.85-3.79.58-1.12,1.04-1.96,1.37-2.51.53-1.04,1.1-2.04,1.71-3.02.61-.98,1.32-1.89,2.13-2.74.77-.79,1.59-1.17,2.45-1.15s1.46.64,1.8,1.84c-.16,4.34-1.02,8.6-2.58,12.78-1.56,4.18-3.54,8.08-5.95,11.7-.23.34-.58.74-1.04,1.2-.47.46-.97.83-1.5,1.11-.53.28-1.08.45-1.66.52-.58.07-1.08-.12-1.51-.58-.61-.61-.92-1.49-.93-2.64,0-1.15.16-2.43.51-3.85Z"/>
      <path class="cls-1" d="m278.61,252.08c.43.53.92.88,1.5,1.06,2.55.76,4.97.88,7.26.34s4.46-1.5,6.51-2.88c2.05-1.39,3.96-3.1,5.73-5.12,1.77-2.02,3.39-4.17,4.84-6.44,1.45-2.27,2.76-4.55,3.91-6.84,1.16-2.29,2.15-4.4,2.99-6.33.41-.87.8-1.24,1.17-1.12.37.12,1,.36,1.91.72,1.67.5,3.33.44,5-.16s3.19-1.38,4.56-2.35c1.43-.92,2.73-1.98,3.92-3.17,1.18-1.19,2.19-2.48,3.04-3.88,1.04-1.63,2.02-3.45,2.94-5.47.92-2.02,1.58-4.1,1.98-6.24.43-1.75.62-3.48.58-5.18-.05-1.7-.37-3.33-.98-4.87-.68-1.43-1.66-2.42-2.95-2.97-1.28-.55-2.66-.56-4.12-.02-1.52.7-2.83,1.69-3.92,2.99-1.09,1.29-2.12,2.55-3.1,3.78.12-.61.21-1.28.26-2,.05-.72-.03-1.38-.25-1.97-.03-.14-.07-.28-.12-.42s-.17-.31-.36-.52c-.52.1-1.13.24-1.83.4-.7.17-1.38.34-2.03.52-.65.18-1.23.33-1.74.46-.51.13-.82.2-.91.22.04.68.08,1.25.12,1.7.04.46,0,.94-.15,1.46-.35,1.69-.86,3.4-1.54,5.15-.67,1.75-1.27,3.44-1.78,5.06-.63,1.74-1.26,3.5-1.88,5.26-.63,1.77-1.21,3.49-1.75,5.16-.54,1.72-1.12,3.37-1.76,4.94-.64,1.57-1.28,3.18-1.93,4.83-.75,1.62-1.5,3.27-2.24,4.97-.74,1.69-1.51,3.33-2.32,4.91-.67,1.31-1.41,2.68-2.22,4.12-.81,1.44-1.74,2.78-2.79,4.05-1.04,1.26-2.21,2.34-3.5,3.24-1.29.9-2.75,1.43-4.38,1.61-.53.06-1.1.05-1.73-.02-.62-.07-1.11-.34-1.45-.81-.21-.3-.29-.62-.26-.94.03-.33.1-.65.21-.96.11-.32.23-.62.37-.92.14-.3.17-.61.11-.94-.11-.81-.44-1.41-.98-1.79-.54-.38-1.13-.58-1.77-.6-.64-.02-1.26.13-1.86.45-.6.31-1.05.8-1.36,1.45-.27.59-.39,1.27-.37,2.02.03.75.16,1.48.4,2.2.24.71.57,1.33,1,1.86Zm35.56-33.02c.38-1.54.86-3.07,1.47-4.59.6-1.52,1.17-3.01,1.71-4.49,1.06-3,2.38-5.94,3.96-8.8.33-.55.69-1.18,1.09-1.87.4-.69.84-1.36,1.33-1.99.48-.63,1.01-1.2,1.57-1.71.56-.5,1.18-.87,1.87-1.11,1.43-.43,2.35-.18,2.76.77.41.95.49,2.25.24,3.92-.25,1.67-.72,3.56-1.39,5.68-.68,2.12-1.41,4.14-2.2,6.06-.79,1.92-1.52,3.6-2.19,5.03-.67,1.43-1.09,2.31-1.27,2.64-.33.56-.72,1.15-1.19,1.78-.46.63-.96,1.21-1.49,1.73-.53.52-1.11.93-1.74,1.23-.63.3-1.31.42-2.06.38-1.29-.08-2.08-.62-2.38-1.62-.3-.99-.33-2-.09-3.03Z"/>
    </g>
  </g>
</svg>