<?xml version="1.0" encoding="UTF-8"?>
<svg id="Layer_2" data-name="Layer 2" xmlns="http://www.w3.org/2000/svg" xmlns:xlink="http://www.w3.org/1999/xlink" viewBox="0 0 422 339.2">
  <defs>
    <style>
      .cls-1 {
        filter: url(#drop-shadow-3);
      }

      .cls-1, .cls-2, .cls-3, .cls-4 {
        fill: #bc3139;
      }

      .cls-5 {
        fill: #f9f8f1;
      }

      .cls-6 {
        opacity: .99;
      }

      .cls-3 {
        filter: url(#drop-shadow-2);
      }

      .cls-7 {
        fill: #b22e2f;
      }

      .cls-4 {
        filter: url(#drop-shadow-1);
      }
    </style>
    <filter id="drop-shadow-1" filterUnits="userSpaceOnUse">
      <feOffset dx="0" dy="-3"/>
      <feGaussianBlur result="blur" stdDeviation="9"/>
      <feFlood flood-color="#000" flood-opacity=".22"/>
      <feComposite in2="blur" operator="in"/>
      <feComposite in="SourceGraphic"/>
    </filter>
    <filter id="drop-shadow-2" filterUnits="userSpaceOnUse">
      <feOffset dx="0" dy="-3"/>
      <feGaussianBlur result="blur-2" stdDeviation="9"/>
      <feFlood flood-color="#000" flood-opacity=".22"/>
      <feComposite in2="blur-2" operator="in"/>
      <feComposite in="SourceGraphic"/>
    </filter>
    <filter id="drop-shadow-3" filterUnits="userSpaceOnUse">
      <feOffset dx="0" dy="-3"/>
      <feGaussianBlur result="blur-3" stdDeviation="17"/>
      <feFlood flood-color="#000" flood-opacity=".23"/>
      <feComposite in2="blur-3" operator="in"/>
      <feComposite in="SourceGraphic"/>
    </filter>
  </defs>
  <g id="Layer_1-2" data-name="Layer 1">
    <g>
      <g>
        <g>
          <rect class="cls-7" x="50.72" y="93.56" width="319.25" height="196.46" transform="translate(-.68 .75) rotate(-.21)"/>
          <path class="cls-2" d="m196.87,3.67L50.37,94.55l319.24-1.14L222.48,3.58c-7.87-4.8-17.77-4.77-25.61.09Z"/>
          <rect class="cls-5" x="87.26" y="33.72" width="245.64" height="185.17" transform="translate(-.45 .75) rotate(-.21)"/>
          <g>
            <polygon class="cls-4" points="210.35 192.16 371.14 290.63 370.43 92.54 210.35 192.16"/>
            <polygon class="cls-3" points="210.35 192.16 50.26 291.78 49.55 93.69 210.35 192.16"/>
          </g>
          <path class="cls-1" d="m201.01,180.58l-149.94,110.42,319.24-1.14-150.72-109.34c-5.55-4.03-13.07-4-18.59.07Z"/>
        </g>
        <g>
          <path d="m94.51,60.35c0-.25.14-.34.28-.34.14,0,.27.09.26.23-.01.27,0,.48,0,.71.67-.46,1.98-1.03,2.83-1.03.48,0,.81.17.8.63,0,.7-.51,1.28-1.33,2.21.4-.13.8-.21,1.15-.21.7,0,1.22.32,1.2,1.29-.03,1.41-1.72,3.24-3.2,3.25-.52,0-.95-.25-1.39-.73.01.28.03.52.03.81,0,.14-.12.21-.25.21-.13,0-.27-.08-.27-.21-.05-1.44-.1-5.13-.11-6.81Zm1.96,6.2c1.25,0,2.74-1.63,2.73-2.83,0-.48-.29-.65-.72-.65-.88,0-2.33.79-2.71,1.05-.06.04-.12.06-.16.06-.25,0-.39-.37-.12-.57.6-.41.97-.72,1.23-.94.47-.39,1.45-1.53,1.45-2.1,0-.08-.11-.13-.28-.13-.57,0-1.92.46-2.82,1.23-.04,1.14.01,2.89.05,3.94.49.57.81.96,1.36.96Z"/>
          <path d="m101.68,62.62c.64,0,.92.57.92,1.18,0,1.04-.84,1.43-1.64,1.48,0,.62,0,1.46.7,1.46.6,0,.89-.48,1.09-.88.06-.11.15-.15.25-.15.16,0,.33.14.27.33-.15.49-.88,1.26-1.57,1.26-1.31,0-1.27-1.34-1.27-2.25,0-.63.12-2.43,1.26-2.43Zm-.67,2.09c.69-.04,1.04-.29,1.04-.96,0-.23-.05-.56-.38-.56-.49,0-.67,1.07-.66,1.53Z"/>
          <path d="m104.22,61.39c.18,0,.35.09.35.28.01.22-.18.34-.36.34-.16,0-.33-.09-.34-.32-.03-.2.16-.3.35-.31Zm.09,5.8c-.14,0-.26-.07-.26-.23.02-.55-.13-3-.11-3.94.01-.18.15-.25.29-.25.14,0,.27.07.27.17,0,1.08.08,2.96.1,3.98.01.16-.15.26-.29.26Z"/>
          <path d="m105.3,63.19c0-.25.21-.39.36-.39.09,0,.18.06.18.16.06,1.08.05,1.64.08,2.17.3-.93,1.21-2.28,1.96-2.33.2,0,.33.16.43.37.3.69.36,2.86.45,3.68.02.21-.13.33-.28.33-.15,0-.32-.12-.32-.33,0-.39-.12-3.13-.33-3.39-.02-.02-.05-.04-.07-.04-.08,0-.19.09-.35.25-.8.74-1.19,2.08-1.36,3.32-.01.13-.16.19-.3.19-.14,0-.29-.07-.29-.19,0-1.27-.15-2.54-.15-3.82Z"/>
          <path d="m109.65,68.84c.02-.15.12-.21.22-.21.14,0,.27.09.28.26.01.52-.18,1.28.58,1.28.71,0,1.17-.58,1.29-1.7.11-1.1.13-2.14.07-3.26-.28.89-.78,1.89-1.55,1.89-.9,0-1.2-1.05-1.04-2.09.16-1.08.69-2.3,1.63-2.3.39,0,.75.28.91.63.09-.15.22-.25.34-.25.13,0,.22.1.22.35,0,1.62.18,3.46-.05,5.06-.18,1.18-.64,2.21-1.77,2.21-1.16,0-1.25-1-1.13-1.86Zm1.51-5.59c-.62,0-1,1.01-1.12,1.82-.13.76.08,1.48.45,1.49.68.02,1.17-1.52,1.3-2.41.01-.08-.21-.84-.54-.89-.04,0-.06-.01-.09-.01Z"/>
          <path d="m116.99,62.75c.61,0,.95.51,1.09,1.04.05.19-.08.31-.23.31-.08,0-.16-.03-.22-.14-.18-.29-.24-.66-.52-.65-.57,0-.84,1.16-.84,1.87,0,.46.13,1.49.69,1.49.69,0,.82-.6,1.04-1.26.07-.19.19-.27.3-.27.14,0,.27.13.25.35-.09.66-.65,1.72-1.46,1.73-1.03,0-1.35-1.16-1.36-2,0-1.01.45-2.45,1.26-2.45Z"/>
          <path d="m121.89,64c-.05-.45-.14-.75-.33-.75-.11,0-.25.11-.43.35-.54.72-1.11,1.8-1.37,3.31-.02.14-.15.21-.27.21-.16,0-.32-.09-.32-.26-.02-2.12-.01-4.24-.05-6.38,0-.45.12-.61.23-.61.15,0,.31.22.31.49,0,1.12.04,3.7.04,4.79.21-.64,1.06-2.54,1.91-2.54.39,0,.68.44.83,1.3.18,1.2.09,2.26.08,2.81,0,.28-.14.41-.27.41-.13,0-.27-.14-.27-.37,0-.89.02-1.88-.09-2.78Z"/>
          <path d="m123.55,62.74c.12,0,.23.1.25.32l.07.97c.27-.53.69-1.21,1.36-1.21.62,0,.93.41,1,.8.04.15-.14.33-.3.33-.08,0-.15-.05-.19-.15-.1-.26-.17-.42-.44-.42-.64,0-1.19,1.2-1.25,1.74-.01.16-.04.53,0,1.75,0,.13-.15.22-.29.22-.13,0-.26-.08-.26-.32.03-1.05-.22-3.37-.24-3.64-.01-.23.14-.39.28-.39Z"/>
          <path d="m128.22,62.69c.94,0,1.35.96,1.33,1.98-.02,1.16-.6,2.4-1.65,2.41-1,0-1.29-.87-1.3-1.75,0-1.12.28-2.63,1.62-2.63Zm-1.08,2.7c0,.38.1,1.12.66,1.12.79,0,1.2-1.04,1.2-1.95,0-.71-.26-1.33-.78-1.33-.97,0-1.09,1.48-1.08,2.16Z"/>
          <path d="m130.26,63.1c0-.25.21-.39.36-.39.09,0,.18.06.18.16.06,1.08.05,1.64.08,2.17.3-.93,1.21-2.28,1.96-2.33.2,0,.33.16.43.37.3.69.36,2.86.45,3.68.02.21-.13.33-.28.33-.15,0-.32-.12-.32-.33,0-.39-.12-3.13-.33-3.39-.02-.02-.05-.04-.07-.03-.08,0-.19.09-.35.25-.8.74-1.19,2.08-1.36,3.32-.01.13-.16.19-.3.19-.14,0-.29-.07-.29-.19,0-1.27-.15-2.54-.15-3.82Z"/>
          <path d="m134.77,61.28c.18,0,.35.09.35.28.01.22-.18.34-.36.34-.16,0-.33-.09-.34-.32-.03-.2.16-.3.35-.31Zm.09,5.8c-.14,0-.26-.07-.26-.23.02-.55-.13-3-.11-3.94.01-.18.15-.25.29-.25.14,0,.27.07.27.17,0,1.08.08,2.96.1,3.98.01.16-.15.26-.29.26Z"/>
          <path d="m137.13,62.68c.61,0,.95.51,1.09,1.04.05.19-.08.31-.23.31-.08,0-.16-.03-.22-.14-.18-.29-.24-.66-.52-.65-.57,0-.84,1.16-.84,1.87,0,.46.13,1.49.69,1.49.69,0,.82-.6,1.04-1.26.07-.19.19-.27.3-.27.14,0,.27.13.25.35-.09.66-.65,1.72-1.46,1.73-1.03,0-1.35-1.16-1.36-2,0-1.01.45-2.45,1.26-2.45Z"/>
          <path d="m140.42,67.04c-.95,0-1.23-.96-1.24-1.81,0-.88.35-2.57,1.75-2.57.39,0,.74.17,1,.35.01-.07-.02-.25-.01-.3.03-.19.16-.27.28-.27.14,0,.28.1.29.3.13,1.51.06,2.46.25,3.97.02.25-.13.39-.27.39-.13,0-.25-.09-.26-.32l-.11-1.71c-.21.47-.77,1.97-1.68,1.97Zm0-.54c.41,0,1.2-1.46,1.53-2.42-.18-.46-.48-.85-1.01-.85-1,0-1.21,1.33-1.21,2.1,0,.4.19,1.17.7,1.17Z"/>
          <path d="m143.84,67.1c-.13,0-.26-.08-.26-.23,0-2.18-.14-4.36-.15-6.69,0-.27.08-.38.19-.38.15,0,.35.26.37.56.04,2,.13,4.29.14,6.41,0,.23-.14.33-.28.33Z"/>
          <path d="m145.21,67.09c-.13,0-.26-.08-.26-.23,0-2.18-.14-4.36-.15-6.69,0-.27.08-.38.19-.38.15,0,.35.26.37.56.04,2,.13,4.29.14,6.41,0,.23-.14.33-.28.33Z"/>
          <path d="m146.77,69.25c0-.13.14-.2.28-.2.13,0,.25.06.24.2-.01.27.01.74.38.74.59,0,.85-.78.98-1.56.14-.91.13-2.68.03-3.62-.27,1.07-1.08,2.21-1.82,2.22-.86.01-.64-2.38-.66-3.78,0-.21.1-.45.34-.45.19,0,.2.16.2.34,0,1.1-.06,3.3.21,3.27.79-.11,1.46-2.13,1.65-3.5.03-.21.14-.29.26-.29.16,0,.34.17.34.41,0,.63.03,1.27.04,1.9.04,1.05.04,2.58-.09,3.59-.14,1.01-.47,1.99-1.48,2-.53,0-.89-.27-.9-1.25Z"/>
          <path d="m154.83,64.68c.16,0,.3.06.42.19.35.41.11,1.32-.67,1.91-.27.2-.57.31-.91.31-.29,0-.61-.08-.92-.27-.2-.13-.07-.5.16-.5.05,0,.11.01.16.06.18.13.38.19.56.19.22,0,.44-.08.64-.21.35-.24.81-.96.52-1.07-.04-.01-.07-.02-.12-.02-.3,0-.82.3-1.13.34-.84.14-1.26-.63-1.24-1.42.02-.9.77-1.62,1.67-1.62.71,0,1.15.38,1.14.99-.01.16-.14.24-.25.24-.09,0-.19-.05-.2-.14-.07-.4-.24-.55-.65-.55-.68,0-1.19.47-1.21,1.08,0,.3.07.89.57.89.41,0,.98-.38,1.44-.38Z"/>
          <path d="m156.47,61.2c.18,0,.35.09.35.28.01.22-.17.34-.36.34-.16,0-.33-.09-.34-.31-.02-.2.16-.31.35-.31Zm.09,5.8c-.14,0-.26-.07-.26-.23.02-.55-.13-3-.11-3.94.01-.18.15-.25.29-.25.14,0,.27.07.27.17,0,1.08.08,2.96.1,3.98.01.16-.15.26-.29.26Z"/>
          <path d="m157.56,63c0-.25.21-.39.36-.39.09,0,.18.06.18.16.06,1.08.05,1.64.08,2.17.3-.93,1.21-2.28,1.96-2.33.2,0,.33.16.43.37.3.69.36,2.86.45,3.68.02.21-.13.33-.28.33-.15,0-.32-.12-.32-.33,0-.39-.12-3.13-.33-3.39-.02-.02-.05-.04-.07-.04-.08,0-.19.09-.35.25-.81.74-1.19,2.08-1.36,3.32-.01.13-.16.19-.3.19-.14,0-.29-.07-.29-.19,0-1.27-.15-2.54-.15-3.82Z"/>
          <path d="m161.9,68.65c.02-.15.12-.21.22-.21.14,0,.27.09.28.26.01.52-.18,1.28.58,1.28.71,0,1.17-.58,1.29-1.7.11-1.1.13-2.15.07-3.26-.28.89-.78,1.89-1.55,1.89-.9,0-1.2-1.05-1.04-2.09.16-1.08.69-2.3,1.63-2.3.39,0,.75.28.91.63.09-.15.22-.25.34-.25.13,0,.22.1.22.35,0,1.62.18,3.46-.05,5.06-.18,1.18-.64,2.21-1.77,2.21-1.16,0-1.25-1-1.13-1.86Zm1.51-5.6c-.62,0-1,1.01-1.12,1.82-.13.76.07,1.48.45,1.49.68.02,1.17-1.52,1.3-2.41.01-.08-.21-.84-.54-.89-.04,0-.06-.01-.09-.01Z"/>
          <path d="m166.02,67.02c-.13,0-.26-.08-.26-.23,0-2.18-.14-4.36-.15-6.69,0-.27.08-.38.19-.38.15,0,.35.26.37.56.04,2,.13,4.29.14,6.41,0,.23-.14.33-.28.33Z"/>
          <path d="m168.27,62.38c.64,0,.92.57.92,1.18,0,1.04-.84,1.43-1.63,1.48,0,.62,0,1.46.7,1.46.6,0,.89-.48,1.09-.88.06-.11.15-.15.25-.15.16,0,.33.14.27.33-.15.49-.87,1.26-1.57,1.26-1.31,0-1.27-1.34-1.27-2.25,0-.63.12-2.43,1.26-2.43Zm-.67,2.09c.69-.04,1.04-.29,1.04-.96,0-.23-.05-.56-.38-.56-.49,0-.66,1.07-.66,1.53Z"/>
          <path d="m173.27,61.14c.18,0,.35.09.35.28.01.22-.17.34-.36.34-.16,0-.33-.09-.34-.32-.02-.2.16-.3.35-.31Zm.09,5.8c-.14,0-.26-.07-.26-.23.02-.55-.13-3-.11-3.94.01-.18.15-.25.29-.25.14,0,.27.07.27.17,0,1.08.08,2.96.1,3.98.01.16-.15.26-.29.26Z"/>
          <path d="m176.88,64.6c.16,0,.3.06.42.19.35.41.11,1.32-.67,1.91-.27.2-.57.31-.91.31-.29,0-.61-.08-.92-.27-.2-.13-.07-.5.16-.5.05,0,.11.01.16.06.18.13.38.19.56.19.22,0,.44-.08.64-.21.35-.24.81-.96.52-1.07-.04-.01-.07-.02-.12-.02-.3,0-.82.3-1.13.34-.84.14-1.26-.63-1.24-1.42.02-.9.77-1.62,1.67-1.62.71,0,1.15.38,1.14.99-.01.16-.14.23-.25.23-.09,0-.19-.05-.2-.14-.07-.4-.24-.55-.65-.55-.68,0-1.19.47-1.21,1.08,0,.3.07.89.57.89.41,0,.98-.38,1.44-.38Z"/>
          <path d="m180.5,62.92c0-.25.21-.39.36-.39.09,0,.18.06.18.16.06,1.08.05,1.64.08,2.17.3-.93,1.21-2.28,1.96-2.33.2,0,.33.16.43.37.3.69.36,2.86.45,3.68.02.21-.13.33-.28.33-.15,0-.32-.12-.32-.33,0-.39-.12-3.13-.33-3.39-.02-.02-.05-.04-.07-.04-.08,0-.19.09-.35.25-.81.74-1.19,2.08-1.36,3.32-.01.13-.16.19-.3.19-.14,0-.29-.07-.29-.19,0-1.27-.15-2.54-.15-3.82Z"/>
          <path d="m186.29,62.48c.94,0,1.35.96,1.33,1.98-.02,1.16-.6,2.41-1.66,2.41-1,0-1.29-.87-1.3-1.75,0-1.12.28-2.63,1.62-2.63Zm-1.08,2.7c0,.38.1,1.12.66,1.12.79,0,1.2-1.04,1.2-1.95,0-.71-.26-1.33-.78-1.33-.97,0-1.08,1.48-1.08,2.16Z"/>
          <path d="m190.1,63.63c.03,1,.05,2,.06,2.98,0,.23-.15.33-.29.33-.13,0-.26-.08-.26-.23,0-1-.03-2.07-.06-3.08-.51.06-.77.04-1.32.06-.19,0-.46-.58.03-.56.49,0,.75.03,1.27-.03-.03-1.03-.04-2,.03-3.08,0-.29.12-.41.23-.41.16,0,.33.21.32.49-.06.93-.05,2-.01,3,.62-.03.97.02,1.58-.02.39-.02.27.53-.07.54-.47.02-.81,0-1.5.02Z"/>
          <path d="m195.97,66.84c-.95,0-1.23-.96-1.24-1.81,0-.88.35-2.57,1.75-2.57.39,0,.74.17,1,.35.01-.07-.02-.25-.01-.3.04-.19.16-.27.28-.27.14,0,.28.1.29.3.13,1.51.06,2.46.25,3.97.02.25-.13.39-.27.39-.13,0-.25-.09-.26-.32l-.11-1.71c-.21.47-.77,1.97-1.68,1.97Zm0-.54c.41,0,1.2-1.46,1.53-2.42-.18-.46-.48-.85-1.01-.85-1,0-1.21,1.33-1.21,2.1,0,.4.19,1.17.7,1.17Z"/>
          <path d="m202.61,62.44c.61,0,.95.51,1.09,1.04.05.19-.08.31-.23.31-.08,0-.17-.03-.22-.14-.18-.29-.24-.66-.52-.65-.57,0-.84,1.16-.84,1.87,0,.46.13,1.49.68,1.49.69,0,.82-.6,1.04-1.26.07-.19.19-.27.3-.27.14,0,.27.13.25.35-.09.66-.65,1.72-1.46,1.73-1.03,0-1.35-1.16-1.35-2,0-1.01.45-2.45,1.26-2.45Z"/>
          <path d="m204.93,62.45c.12,0,.24.1.25.32l.07.97c.27-.53.69-1.21,1.36-1.21.62,0,.93.41,1,.8.04.15-.14.33-.3.33-.08,0-.15-.05-.19-.15-.09-.26-.17-.42-.43-.42-.64,0-1.19,1.2-1.25,1.74-.01.16-.04.53,0,1.75,0,.13-.15.22-.29.22-.13,0-.26-.08-.26-.32.03-1.05-.22-3.37-.24-3.64-.01-.23.14-.39.28-.39Z"/>
          <path d="m208.68,61.02c.18,0,.35.09.35.28.01.22-.17.34-.36.34-.16,0-.33-.09-.34-.32-.02-.2.16-.3.35-.31Zm.09,5.8c-.14,0-.26-.07-.26-.23.02-.55-.13-3-.11-3.94.01-.18.15-.25.29-.25s.27.07.27.17c0,1.08.08,2.96.1,3.98.01.16-.15.26-.29.26Z"/>
          <path d="m215.15,67.1c-.14,0-.28-.12-.27-.41.04-.96.06-3.75-.37-3.83h-.04c-.49,0-1.2,1.76-1.43,3.43-.01.12-.1.17-.22.17-.16,0-.38-.12-.38-.29-.06-1.84-.33-3.22-.66-3.2-.34.02-1.07,1.3-1.14,1.62-.15.67-.13,1.35-.13,1.98,0,.13-.13.21-.25.21-.14,0-.28-.09-.28-.33,0-1.11-.11-2.42-.21-3.62-.02-.23.13-.33.27-.33.14,0,.28.09.28.23,0,.47.03.91.03,1.37.27-.77.81-1.7,1.47-1.7.76,0,1,1.53,1.07,2.11.21-.46.6-2.19,1.69-2.17,1.05.03.81,3.54.81,4.51,0,.15-.13.26-.26.26Z"/>
          <path d="m217.4,62.2c.64,0,.92.57.92,1.18,0,1.04-.84,1.43-1.63,1.48,0,.62,0,1.46.7,1.46.6,0,.89-.48,1.09-.88.06-.11.15-.15.25-.15.16,0,.33.14.27.33-.15.49-.87,1.26-1.57,1.26-1.31,0-1.27-1.34-1.27-2.25,0-.63.12-2.43,1.26-2.43Zm-.67,2.09c.69-.04,1.04-.29,1.04-.96,0-.23-.05-.56-.38-.56-.49,0-.66,1.07-.66,1.53Z"/>
          <path d="m223.3,66.74c-.95,0-1.23-.96-1.24-1.81,0-.88.35-2.57,1.75-2.57.39,0,.74.17,1,.35.01-.07-.02-.25-.01-.3.04-.19.16-.27.28-.27.14,0,.28.1.29.3.13,1.51.06,2.46.25,3.97.02.25-.13.39-.27.39-.13,0-.25-.09-.26-.32l-.11-1.71c-.21.47-.77,1.97-1.68,1.98Zm0-.54c.41,0,1.2-1.46,1.53-2.42-.18-.46-.48-.85-1.01-.85-1,0-1.21,1.33-1.21,2.1,0,.4.19,1.17.7,1.17Z"/>
          <path d="m226.32,62.76c0-.25.21-.39.36-.39.09,0,.18.06.18.16.06,1.08.05,1.64.08,2.17.3-.93,1.21-2.28,1.96-2.33.2,0,.33.16.44.37.29.69.36,2.86.45,3.68.02.21-.13.33-.28.33-.15,0-.32-.12-.32-.33,0-.39-.12-3.13-.33-3.39-.02-.02-.05-.04-.07-.04-.08,0-.19.09-.35.25-.81.74-1.19,2.08-1.36,3.32-.01.13-.16.19-.3.19-.14,0-.29-.07-.29-.19,0-1.27-.15-2.54-.15-3.82Z"/>
          <path d="m231.65,66.82c-.77,0-1.15-.63-1.15-1.41,0-.75.38-3.08,1.64-3.06.55.02.61.23.72.28,0-1.21.02-1.89-.07-2.83-.02-.23.06-.33.17-.33.15,0,.35.17.36.34.09,2.31.06,4.71.34,7.01.02.2-.1.28-.25.28-.13,0-.27-.08-.28-.22-.04-.53-.07-.95-.15-1.48-.23.65-.69,1.43-1.34,1.43Zm-.06-.54c.79,0,1.13-1.76,1.16-2.41-.06-.35-.16-.96-.58-.96-.79,0-1.13,1.64-1.13,2.54,0,.47.18.83.54.83Z"/>
          <path d="m241.56,64.37c.16,0,.3.06.42.19.35.41.11,1.32-.67,1.91-.27.2-.57.31-.91.31-.29,0-.61-.08-.91-.27-.2-.13-.07-.5.16-.5.05,0,.11.01.16.06.18.13.38.19.56.19.22,0,.45-.08.64-.21.35-.24.8-.96.52-1.07-.04-.01-.07-.02-.12-.02-.3,0-.82.3-1.14.34-.84.14-1.26-.63-1.24-1.42.02-.9.77-1.62,1.67-1.62.71,0,1.15.38,1.14.99-.01.16-.14.24-.25.24-.09,0-.19-.05-.2-.14-.07-.4-.24-.55-.65-.55-.68,0-1.19.47-1.21,1.08-.01.3.07.89.57.89.41,0,.98-.38,1.44-.38Z"/>
          <path d="m243.2,60.89c.18,0,.35.09.35.28.01.22-.17.34-.36.34-.16,0-.33-.09-.34-.32-.02-.2.16-.31.35-.31Zm.09,5.8c-.14,0-.26-.07-.26-.23.02-.55-.13-3-.11-3.94.01-.18.15-.25.29-.25.14,0,.27.07.27.17,0,1.08.08,2.96.1,3.98.01.16-.15.26-.29.26Z"/>
          <path d="m244.29,62.69c0-.25.21-.39.36-.39.09,0,.18.06.18.16.06,1.08.05,1.64.08,2.17.3-.93,1.21-2.28,1.96-2.33.2,0,.33.16.44.37.29.69.36,2.86.45,3.68.02.21-.13.33-.28.33-.15,0-.32-.12-.32-.33,0-.39-.12-3.13-.33-3.39-.02-.02-.05-.04-.07-.03-.08,0-.19.09-.35.25-.81.74-1.19,2.08-1.36,3.32-.01.13-.16.19-.3.19-.14,0-.29-.07-.29-.19,0-1.27-.15-2.54-.15-3.82Z"/>
          <path d="m248.63,68.34c.02-.15.12-.21.22-.21.14,0,.27.09.28.26.01.52-.18,1.28.58,1.28.71,0,1.17-.58,1.29-1.7.11-1.1.13-2.15.07-3.26-.28.89-.78,1.89-1.55,1.89-.9,0-1.2-1.05-1.04-2.09.16-1.08.7-2.3,1.63-2.3.39,0,.75.28.9.63.09-.15.22-.25.34-.25.13,0,.22.1.22.35,0,1.62.18,3.46-.05,5.06-.18,1.18-.64,2.21-1.77,2.21-1.16,0-1.25-1-1.13-1.86Zm1.52-5.6c-.62,0-1,1.01-1.12,1.82-.13.76.08,1.48.45,1.49.68.02,1.17-1.52,1.3-2.41.01-.08-.21-.84-.54-.89-.04,0-.06-.01-.09-.01Z"/>
          <path d="m252.75,66.71c-.13,0-.26-.08-.26-.23,0-2.18-.14-4.36-.15-6.69,0-.27.08-.38.19-.38.15,0,.35.26.37.56.04,2,.13,4.29.14,6.41,0,.23-.14.33-.28.33Z"/>
          <path d="m255,62.07c.64,0,.92.57.92,1.18,0,1.04-.84,1.43-1.64,1.48,0,.62,0,1.46.7,1.46.6,0,.89-.48,1.09-.88.06-.11.15-.15.25-.15.16,0,.33.14.27.33-.15.49-.88,1.26-1.57,1.26-1.31,0-1.27-1.34-1.27-2.25,0-.63.12-2.43,1.26-2.43Zm-.67,2.09c.69-.04,1.04-.29,1.04-.96,0-.23-.05-.56-.38-.56-.49,0-.67,1.07-.66,1.53Z"/>
          <path d="m261.41,63.98c.05.94.11,1.83.19,2.59.01.15-.12.21-.26.21-.15,0-.3-.07-.32-.21-.05-.75-.1-1.64-.14-2.55-.38.02-.76.03-1.14.03-.2,0-.33-.12-.33-.32,0-.11.07-.21.17-.22.49-.02.91,0,1.25-.03-.03-.64-.06-1.29-.08-1.82-.06-1.16.18-2.3,1.25-2.3.84,0,1.05,1.08,1.13,1.55.02.13-.09.19-.23.19-.13,0-.27-.06-.28-.17-.07-.57-.32-1.02-.61-1.02-.71,0-.69,1.08-.69,1.63,0,.59.02,1.25.05,1.89.45-.01.88-.03,1.52-.04.39,0,.22.53-.08.54-.21.01-.77.01-1.42.05Z"/>
          <path d="m263.93,62.24c.12,0,.23.1.25.32l.07.97c.27-.53.69-1.21,1.36-1.21.62,0,.93.41,1,.81.04.15-.14.33-.3.33-.08,0-.15-.05-.19-.15-.09-.26-.17-.42-.44-.42-.64,0-1.19,1.2-1.25,1.74,0,.16-.04.53,0,1.75,0,.13-.15.22-.29.22-.13,0-.26-.08-.26-.32.03-1.05-.22-3.37-.23-3.64-.01-.23.14-.39.28-.39Z"/>
          <path d="m267.67,60.81c.18,0,.35.09.35.28.01.22-.17.34-.36.34-.16,0-.33-.09-.34-.32-.02-.2.16-.31.35-.31Zm.09,5.8c-.14,0-.26-.07-.26-.23.02-.55-.13-3-.11-3.94.01-.18.15-.25.29-.25.14,0,.27.07.27.17,0,1.08.08,2.96.1,3.98.01.16-.15.26-.29.26Z"/>
          <path d="m270.03,62.02c.64,0,.92.57.92,1.18,0,1.04-.84,1.43-1.64,1.48,0,.62,0,1.46.7,1.46.6,0,.89-.48,1.09-.88.06-.11.15-.15.25-.15.16,0,.33.14.27.33-.15.49-.88,1.26-1.57,1.26-1.31,0-1.27-1.34-1.27-2.25,0-.63.12-2.43,1.26-2.43Zm-.67,2.09c.69-.04,1.04-.29,1.04-.96,0-.23-.05-.56-.38-.56-.49,0-.67,1.07-.66,1.53Z"/>
          <path d="m272.1,62.59c0-.25.21-.39.36-.39.09,0,.18.06.18.16.06,1.08.05,1.64.08,2.17.3-.93,1.21-2.28,1.96-2.33.2,0,.33.16.44.37.29.69.36,2.86.45,3.68.02.21-.13.33-.28.33s-.32-.12-.32-.33c0-.39-.12-3.13-.33-3.39-.02-.02-.05-.04-.07-.03-.08,0-.19.09-.35.25-.81.74-1.19,2.08-1.36,3.32-.01.13-.16.19-.3.19s-.29-.07-.29-.19c0-1.27-.15-2.54-.15-3.82Z"/>
          <path d="m277.42,66.65c-.77,0-1.15-.63-1.15-1.41,0-.75.38-3.08,1.64-3.06.55.02.61.23.72.28,0-1.21.02-1.89-.07-2.84-.02-.23.06-.33.18-.33.15,0,.35.17.36.34.09,2.31.06,4.71.34,7.01.02.2-.1.28-.24.28-.13,0-.27-.08-.28-.22-.04-.53-.07-.95-.15-1.48-.23.65-.69,1.43-1.34,1.43Zm-.06-.54c.79,0,1.13-1.76,1.16-2.41-.06-.35-.16-.96-.58-.96-.79,0-1.13,1.64-1.13,2.54,0,.47.18.83.54.83Z"/>
          <path d="m282.65,64.22c.16,0,.3.06.42.19.35.41.11,1.32-.67,1.91-.27.2-.57.31-.91.31-.29,0-.61-.08-.91-.27-.2-.13-.07-.5.16-.5.05,0,.11.01.16.06.18.13.38.19.56.19.22,0,.45-.08.64-.21.35-.24.8-.96.52-1.07-.04-.01-.07-.02-.12-.02-.3,0-.82.3-1.14.34-.84.14-1.26-.63-1.24-1.43.02-.9.77-1.62,1.67-1.62.71,0,1.15.38,1.14.99-.01.16-.14.23-.25.24-.09,0-.19-.05-.2-.14-.07-.4-.24-.55-.65-.55-.68,0-1.19.47-1.21,1.08-.01.3.07.89.57.89.41.01.98-.38,1.44-.38Z"/>
          <path d="m287.53,66.51c-.95,0-1.23-.96-1.24-1.81,0-.88.35-2.57,1.75-2.57.39,0,.74.17,1,.35.01-.07-.02-.25-.01-.3.03-.19.16-.27.28-.27.14,0,.28.1.29.3.13,1.51.05,2.46.25,3.97.02.25-.13.39-.27.39-.13,0-.25-.09-.26-.32l-.11-1.71c-.21.47-.77,1.97-1.68,1.97Zm0-.54c.41,0,1.2-1.46,1.53-2.42-.18-.46-.48-.85-1.01-.85-1,0-1.21,1.33-1.21,2.1,0,.4.19,1.17.7,1.17Z"/>
          <path d="m290.95,66.57c-.13,0-.26-.08-.26-.23,0-2.18-.14-4.36-.15-6.69,0-.27.08-.38.19-.38.15,0,.35.26.37.56.04,2,.13,4.29.14,6.41,0,.23-.14.33-.28.33Z"/>
          <path d="m294.45,64.18c.16,0,.3.06.42.19.35.41.11,1.32-.67,1.91-.27.2-.57.31-.91.31-.29,0-.61-.08-.92-.27-.2-.13-.07-.5.16-.5.05,0,.11.01.16.06.18.13.38.19.56.19.22,0,.45-.08.64-.21.35-.24.81-.96.52-1.07-.04-.01-.07-.02-.12-.02-.3,0-.82.3-1.14.34-.84.14-1.26-.63-1.24-1.42.02-.9.77-1.62,1.67-1.62.71,0,1.15.38,1.14.99-.01.16-.14.23-.25.23-.09,0-.19-.05-.2-.14-.07-.4-.24-.55-.65-.55-.68,0-1.19.47-1.21,1.08-.01.3.07.89.57.89.41,0,.98-.38,1.44-.38Z"/>
          <path d="m297.25,62.08c.94,0,1.35.96,1.33,1.98-.02,1.16-.6,2.4-1.65,2.41-1,0-1.29-.88-1.3-1.75,0-1.12.28-2.63,1.62-2.63Zm-1.08,2.7c0,.38.1,1.12.66,1.12.79,0,1.2-1.04,1.2-1.95,0-.71-.26-1.34-.78-1.33-.97,0-1.09,1.48-1.08,2.16Z"/>
          <path d="m302.81,66.56c-.77,0-1.15-.63-1.15-1.41,0-.75.38-3.08,1.64-3.06.55.02.61.23.71.28,0-1.21.02-1.89-.07-2.84-.02-.23.06-.33.17-.33.15,0,.35.17.36.34.09,2.31.06,4.71.34,7.01.02.2-.1.28-.25.28-.13,0-.27-.08-.28-.22-.04-.53-.07-.95-.15-1.48-.23.65-.69,1.43-1.34,1.43Zm-.06-.54c.79,0,1.13-1.76,1.16-2.41-.06-.35-.16-.96-.58-.96-.79,0-1.13,1.64-1.13,2.54,0,.47.18.83.54.83Z"/>
          <path d="m306.79,61.88c.64,0,.92.57.92,1.18,0,1.04-.84,1.43-1.64,1.48,0,.62,0,1.46.7,1.46.6,0,.89-.48,1.09-.88.06-.11.15-.15.25-.15.16,0,.33.14.27.33-.15.49-.88,1.26-1.57,1.26-1.31,0-1.27-1.34-1.27-2.25,0-.63.12-2.43,1.26-2.43Zm-.67,2.09c.69-.04,1.04-.29,1.04-.96,0-.23-.05-.56-.38-.56-.49,0-.67,1.07-.66,1.53Z"/>
          <path d="m311.15,64.12c.16,0,.3.06.42.19.35.41.11,1.32-.67,1.91-.27.2-.57.31-.91.31-.29,0-.61-.08-.92-.27-.2-.13-.07-.5.16-.5.05,0,.11.01.16.06.18.13.38.19.56.19.22,0,.45-.08.64-.21.35-.24.81-.96.52-1.07-.04-.01-.07-.02-.12-.02-.3,0-.82.3-1.14.34-.84.14-1.26-.63-1.24-1.42.02-.9.77-1.62,1.67-1.62.71,0,1.15.38,1.14.99-.01.16-.14.24-.25.24-.09,0-.19-.05-.2-.14-.07-.4-.24-.55-.65-.55-.68,0-1.19.47-1.21,1.08-.01.3.07.89.57.89.41,0,.98-.38,1.44-.38Z"/>
          <path d="m313.59,61.86c.64,0,.92.57.92,1.18,0,1.04-.84,1.43-1.64,1.48,0,.62,0,1.46.7,1.46.6,0,.89-.48,1.09-.88.06-.11.15-.15.25-.15.16,0,.33.14.27.33-.15.49-.88,1.26-1.57,1.26-1.31,0-1.27-1.34-1.27-2.25,0-.63.12-2.43,1.26-2.43Zm-.67,2.09c.69-.04,1.04-.29,1.04-.96,0-.23-.05-.56-.38-.56-.49,0-.67,1.07-.66,1.53Z"/>
          <path d="m315.83,62.05c.12,0,.23.1.25.32l.07.97c.27-.53.69-1.21,1.36-1.21.62,0,.93.41,1,.8.04.15-.14.33-.3.33-.08,0-.15-.05-.19-.15-.1-.26-.17-.42-.44-.42-.64,0-1.19,1.2-1.25,1.74-.01.17-.04.53,0,1.75,0,.13-.15.22-.29.22-.13,0-.26-.08-.26-.32.03-1.05-.22-3.37-.24-3.64-.01-.23.14-.39.28-.39Z"/>
          <path d="m321.06,66.4c-.15,0-.31-.13-.41-.36-.55-1.11-.91-2.27-1.45-3.33-.17-.32-.08-.46.06-.46.14,0,.32.1.42.29.35.64.98,2.26,1.35,3.08.4-.97,1.14-2.89,1.22-3.65.03-.25.17-.38.32-.38.13,0,.25.13.21.42-.07.62-1.29,3.95-1.35,4.08-.1.21-.23.31-.36.31Z"/>
          <path d="m324.4,61.82c.64,0,.92.57.92,1.18,0,1.04-.84,1.43-1.64,1.48,0,.62,0,1.47.7,1.46.6,0,.89-.48,1.09-.88.06-.11.15-.15.25-.15.16,0,.33.14.27.33-.15.49-.88,1.26-1.57,1.26-1.31,0-1.27-1.34-1.27-2.25,0-.63.12-2.43,1.26-2.43Zm-.67,2.09c.69-.04,1.04-.29,1.04-.96,0-.23-.05-.56-.38-.56-.49,0-.67,1.07-.66,1.53Z"/>
          <path d="m101.62,79.27c.16,0,.3.06.42.19.35.41.11,1.32-.67,1.91-.27.2-.57.31-.91.31-.29,0-.61-.08-.92-.27-.2-.13-.07-.5.16-.5.05,0,.11.01.17.06.18.13.38.19.56.19.22,0,.45-.08.64-.21.35-.24.8-.96.52-1.07-.04-.01-.07-.02-.12-.02-.3,0-.82.3-1.14.34-.84.14-1.26-.63-1.23-1.42.02-.9.77-1.62,1.67-1.62.71,0,1.15.38,1.14.99-.01.16-.14.23-.25.24-.09,0-.19-.05-.2-.14-.07-.4-.24-.55-.65-.55-.68,0-1.19.47-1.21,1.08-.01.3.07.89.56.89.41.01.98-.38,1.44-.38Z"/>
          <path d="m104.42,77.17c.94,0,1.35.96,1.33,1.98-.02,1.16-.6,2.4-1.66,2.41-1,0-1.29-.88-1.3-1.75,0-1.12.28-2.63,1.62-2.63Zm-1.08,2.7c0,.38.1,1.12.66,1.12.79,0,1.2-1.04,1.2-1.95,0-.71-.26-1.33-.78-1.33-.97,0-1.08,1.48-1.08,2.16Z"/>
          <path d="m111.73,81.87c-.14,0-.28-.12-.27-.41.04-.96.06-3.75-.37-3.83h-.04c-.49,0-1.2,1.76-1.43,3.43-.01.12-.11.17-.22.17-.16,0-.38-.12-.38-.29-.07-1.84-.33-3.22-.66-3.2-.34.02-1.07,1.3-1.14,1.62-.15.67-.14,1.35-.13,1.98,0,.13-.13.21-.25.21-.14,0-.28-.09-.28-.33,0-1.11-.11-2.43-.21-3.62-.02-.23.13-.33.27-.33.14,0,.28.09.28.23,0,.47.03.91.03,1.37.27-.77.81-1.7,1.47-1.7.76,0,1,1.53,1.07,2.11.21-.46.6-2.19,1.69-2.17,1.05.03.81,3.54.81,4.51,0,.15-.13.26-.26.26Z"/>
          <path d="m113.98,76.97c.64,0,.92.57.92,1.18,0,1.04-.84,1.43-1.64,1.48,0,.62,0,1.46.7,1.46.6,0,.89-.48,1.09-.88.06-.11.15-.15.25-.15.16,0,.33.14.27.33-.15.49-.88,1.26-1.57,1.26-1.31,0-1.27-1.34-1.27-2.25,0-.63.12-2.43,1.26-2.43Zm-.67,2.09c.69-.04,1.04-.29,1.04-.96,0-.23-.05-.56-.38-.56-.49,0-.66,1.07-.66,1.53Z"/>
          <path d="m117.7,78.29c.03,1,.05,2,.06,2.98,0,.23-.15.33-.29.33-.13,0-.26-.08-.26-.23,0-1-.03-2.07-.06-3.08-.52.06-.77.04-1.32.06-.19,0-.46-.58.03-.56.49,0,.75.03,1.27-.03-.03-1.03-.04-2,.02-3.08.01-.29.12-.41.23-.41.16,0,.33.21.32.49-.06.93-.05,2-.01,3,.62-.03.97.02,1.58-.02.39-.02.27.53-.07.54-.47.03-.81,0-1.5.02Z"/>
          <path d="m122.14,78.4c-.05-.45-.14-.75-.33-.75-.11,0-.25.11-.43.35-.54.72-1.11,1.8-1.37,3.31-.02.14-.15.21-.27.21-.16,0-.32-.09-.32-.26-.02-2.12-.01-4.24-.05-6.38,0-.45.11-.61.23-.61.15,0,.31.22.31.49,0,1.12.04,3.7.04,4.79.21-.65,1.06-2.54,1.91-2.54.39,0,.68.44.82,1.3.18,1.2.09,2.26.08,2.81,0,.28-.14.41-.27.41-.13,0-.27-.14-.27-.37,0-.89.02-1.88-.09-2.78Z"/>
          <path d="m123.87,75.72c.18,0,.35.09.35.28.01.22-.17.34-.36.34-.16,0-.33-.09-.34-.32-.02-.2.16-.3.35-.31Zm.09,5.8c-.14,0-.26-.07-.26-.23.02-.55-.13-3-.11-3.94.01-.18.15-.25.29-.25.14,0,.27.07.27.17,0,1.08.08,2.96.1,3.98.01.16-.15.26-.29.26Z"/>
          <path d="m124.95,77.52c0-.25.21-.39.36-.39.09,0,.18.06.18.16.06,1.08.05,1.64.08,2.17.3-.93,1.21-2.28,1.96-2.33.2,0,.33.16.43.37.3.69.36,2.86.45,3.68.03.21-.13.33-.28.33-.15,0-.32-.12-.32-.33,0-.39-.12-3.13-.33-3.39-.02-.02-.05-.04-.07-.04-.08,0-.19.09-.35.25-.81.74-1.19,2.08-1.36,3.32-.01.13-.16.19-.3.19-.14,0-.29-.07-.29-.19,0-1.27-.15-2.54-.15-3.82Z"/>
          <path d="m129.3,83.17c.02-.15.12-.21.22-.21.14,0,.27.09.28.26.01.51-.18,1.28.58,1.27.71,0,1.17-.58,1.29-1.7.11-1.1.13-2.15.07-3.26-.28.89-.78,1.89-1.55,1.89-.9,0-1.2-1.05-1.04-2.09.16-1.08.7-2.3,1.63-2.3.39,0,.75.28.9.63.09-.15.22-.25.34-.25.13,0,.22.1.22.35,0,1.62.18,3.46-.05,5.06-.18,1.18-.64,2.21-1.77,2.21-1.16,0-1.25-1-1.13-1.86Zm1.52-5.59c-.62,0-1,1.01-1.12,1.82-.13.76.08,1.48.45,1.49.68.02,1.17-1.52,1.3-2.41.01-.08-.21-.84-.54-.89-.04,0-.06-.01-.09-.01Z"/>
          <path d="m137,77.06c.94,0,1.35.96,1.33,1.98-.02,1.16-.6,2.4-1.66,2.41-1,0-1.29-.87-1.3-1.75,0-1.12.28-2.63,1.62-2.63Zm-1.08,2.7c0,.38.1,1.12.66,1.12.79,0,1.2-1.04,1.2-1.95,0-.71-.26-1.33-.78-1.33-.97,0-1.08,1.48-1.08,2.16Z"/>
          <path d="m139.04,77.47c0-.25.21-.39.36-.39.09,0,.18.06.18.16.06,1.08.05,1.64.08,2.17.3-.93,1.21-2.28,1.96-2.33.2,0,.33.16.43.37.3.69.36,2.86.45,3.68.02.21-.13.33-.28.33s-.32-.12-.32-.33c0-.39-.12-3.13-.33-3.39-.02-.02-.05-.04-.07-.03-.08,0-.19.09-.35.25-.81.74-1.19,2.08-1.36,3.32-.01.13-.16.19-.3.19-.14,0-.29-.07-.29-.19,0-1.27-.15-2.54-.15-3.82Z"/>
          <path d="m145.54,74.62c-.06-.2.08-.32.23-.32.11,0,.22.06.27.17.28.76,1.83,4.88,2.39,6.04.47-1.48.88-4.36,1.21-6.02.03-.21.13-.29.23-.29.16,0,.33.21.31.36-.1.66-.87,4.78-1.18,6.18-.09.43-.31.67-.52.67-.14,0-.28-.1-.39-.32-.54-1.11-2.31-5.7-2.54-6.48Z"/>
          <path d="m151.7,81.4c-.95,0-1.23-.96-1.24-1.81,0-.88.35-2.57,1.75-2.57.39,0,.74.17,1,.35.01-.07-.02-.25-.01-.3.03-.19.16-.27.28-.27.14,0,.28.1.29.3.13,1.51.05,2.46.25,3.97.02.25-.13.39-.27.39-.13,0-.25-.09-.26-.32l-.11-1.71c-.21.47-.77,1.97-1.68,1.97Zm0-.54c.41,0,1.2-1.46,1.53-2.42-.18-.46-.48-.85-1.01-.85-1,0-1.21,1.33-1.21,2.1,0,.4.19,1.17.7,1.17Z"/>
          <path d="m155.12,81.46c-.13,0-.26-.08-.26-.23,0-2.18-.14-4.36-.15-6.69,0-.27.08-.38.19-.38.15,0,.35.26.37.56.04,2,.13,4.29.14,6.41,0,.23-.14.33-.28.33Z"/>
          <path d="m157.36,76.82c.64,0,.92.57.92,1.18,0,1.04-.84,1.43-1.64,1.48,0,.62,0,1.46.7,1.46.6,0,.89-.48,1.09-.88.06-.11.15-.15.25-.15.16,0,.33.14.27.33-.15.49-.87,1.26-1.57,1.26-1.31,0-1.27-1.34-1.27-2.25,0-.63.12-2.43,1.26-2.43Zm-.67,2.09c.69-.04,1.04-.29,1.04-.96,0-.23-.05-.56-.38-.56-.49,0-.66,1.07-.66,1.53Z"/>
          <path d="m159.43,77.4c0-.25.21-.39.36-.39.09,0,.18.06.18.16.06,1.08.05,1.64.08,2.17.3-.93,1.21-2.28,1.96-2.33.2,0,.33.16.43.37.3.69.36,2.86.45,3.68.02.21-.13.33-.28.33-.15,0-.32-.12-.32-.33,0-.39-.12-3.13-.33-3.38-.02-.02-.05-.04-.07-.04-.08,0-.19.09-.35.25-.81.74-1.19,2.08-1.36,3.32-.01.13-.16.19-.3.19-.14,0-.29-.07-.29-.19,0-1.27-.15-2.54-.15-3.82Z"/>
          <path d="m165.35,78.11c.03,1,.05,2,.06,2.98,0,.23-.15.33-.29.33-.13,0-.26-.08-.26-.23,0-1-.03-2.07-.06-3.08-.52.06-.77.04-1.32.06-.19,0-.46-.58.03-.56.49,0,.75.03,1.27-.03-.03-1.03-.04-2,.02-3.08.01-.29.12-.41.23-.41.16,0,.33.21.32.49-.05.93-.05,2-.01,3,.62-.03.97.02,1.58-.02.39-.02.27.53-.07.54-.47.02-.81,0-1.5.02Z"/>
          <path d="m167.74,75.56c.18,0,.35.09.35.28.01.22-.17.34-.36.34-.16,0-.33-.09-.34-.31-.02-.2.16-.31.35-.31Zm.09,5.8c-.14,0-.26-.07-.26-.23.02-.55-.13-3-.11-3.94.01-.18.15-.25.29-.25.14,0,.27.07.27.17,0,1.08.08,2.96.1,3.98.01.16-.15.26-.29.26Z"/>
          <path d="m168.83,77.36c0-.25.21-.39.36-.39.09,0,.18.06.18.16.06,1.08.05,1.64.08,2.17.3-.93,1.21-2.28,1.96-2.33.2,0,.33.16.43.37.3.69.36,2.86.45,3.68.02.21-.13.33-.28.33-.15,0-.32-.12-.32-.33,0-.39-.12-3.13-.33-3.39-.02-.02-.05-.04-.07-.04-.08,0-.19.09-.35.25-.81.74-1.19,2.08-1.36,3.32-.01.13-.16.19-.3.19-.14,0-.29-.07-.29-.19,0-1.27-.15-2.54-.15-3.82Z"/>
          <path d="m174.25,76.76c.64,0,.92.57.92,1.18,0,1.04-.84,1.43-1.64,1.48,0,.62,0,1.46.7,1.46.6,0,.89-.48,1.09-.88.06-.11.15-.15.25-.15.16,0,.33.14.27.33-.15.49-.87,1.26-1.57,1.26-1.31,0-1.27-1.34-1.27-2.25,0-.63.12-2.43,1.26-2.43Zm-.67,2.09c.69-.04,1.04-.29,1.04-.96,0-.23-.05-.56-.38-.56-.49,0-.66,1.07-.66,1.53Z"/>
          <path d="m178.61,78.99c.16,0,.3.06.42.19.35.41.11,1.32-.67,1.91-.27.2-.57.31-.91.31-.29,0-.61-.08-.92-.27-.2-.13-.07-.5.16-.5.05,0,.11.01.17.06.18.13.38.19.56.19.22,0,.45-.08.64-.21.35-.24.81-.96.52-1.07-.04-.01-.07-.02-.12-.02-.3,0-.82.3-1.14.34-.84.14-1.26-.63-1.24-1.42.02-.9.77-1.62,1.67-1.62.71,0,1.15.38,1.14.99-.01.16-.14.24-.24.24-.09,0-.19-.05-.2-.14-.07-.4-.24-.55-.65-.55-.68,0-1.19.47-1.21,1.08-.01.3.07.89.57.89.41,0,.98-.38,1.44-.38Z"/>
          <path d="m183.41,81.39c-.77,0-1.15-.63-1.15-1.41,0-.75.38-3.08,1.64-3.06.55.02.61.23.72.28,0-1.21.02-1.89-.07-2.83-.02-.23.06-.33.17-.33.15,0,.35.17.37.34.09,2.31.06,4.71.34,7.01.02.2-.11.28-.25.28-.13,0-.27-.08-.28-.22-.04-.53-.07-.95-.15-1.48-.23.65-.69,1.43-1.34,1.43Zm-.06-.54c.79,0,1.13-1.76,1.16-2.41-.06-.35-.16-.96-.58-.96-.79,0-1.13,1.64-1.13,2.54,0,.47.18.83.54.83Z"/>
          <path d="m187.37,81.27c-.95,0-1.23-.96-1.24-1.81,0-.88.35-2.57,1.75-2.57.39,0,.74.17,1,.35.01-.07-.02-.25-.01-.3.03-.19.16-.27.28-.27.14,0,.28.1.29.3.13,1.51.06,2.46.25,3.97.02.25-.13.39-.27.39-.13,0-.25-.09-.26-.32l-.11-1.71c-.21.47-.77,1.97-1.68,1.97Zm0-.54c.41,0,1.2-1.46,1.53-2.42-.18-.46-.48-.85-1.01-.85-1,0-1.21,1.33-1.21,2.1,0,.4.19,1.17.7,1.17Z"/>
          <path d="m190.99,83.5c0-.13.14-.2.28-.2.13,0,.25.06.24.2-.01.27.01.74.38.74.59,0,.85-.78.98-1.56.14-.91.13-2.68.03-3.62-.27,1.07-1.08,2.21-1.82,2.22-.86.01-.64-2.38-.66-3.78,0-.21.1-.45.34-.45.19,0,.2.16.2.34,0,1.1-.06,3.31.21,3.27.79-.11,1.46-2.13,1.65-3.5.03-.21.14-.29.26-.29.16,0,.34.17.34.41,0,.63.03,1.27.04,1.9.04,1.05.04,2.58-.09,3.59-.14,1.01-.47,1.99-1.48,2-.53,0-.89-.27-.9-1.25Z"/>
          <path d="m196.62,77.52c.13-.86.72-2.84,1.35-3.79.08-.13.2-.19.29-.19.19,0,.34.2.2.42-.65,1.08-1.05,2.22-1.3,3.61-.27,1.44-.05,3.01.6,3.82.14.16,0,.5-.2.5-.09,0-.19-.06-.28-.2-.84-1.26-.84-3.01-.66-4.18Z"/>
          <path d="m199.38,80.64c.18,0,.35.09.35.28.01.22-.17.34-.36.34-.16,0-.33-.09-.34-.31-.02-.2.16-.31.35-.31Z"/>
          <path d="m200.81,80.64c.18,0,.35.09.35.28.01.22-.17.34-.36.34-.16,0-.33-.09-.34-.32-.02-.2.16-.3.35-.31Z"/>
          <path d="m202.24,80.63c.18,0,.35.09.35.28.01.22-.17.34-.36.34-.16,0-.33-.09-.34-.32-.02-.2.16-.3.35-.31Z"/>
          <path d="m205.82,78.9c.16,0,.3.06.42.19.35.41.11,1.32-.67,1.91-.27.2-.57.31-.91.31-.29,0-.61-.08-.92-.27-.2-.13-.07-.5.16-.5.05,0,.11.01.16.06.18.13.38.19.56.19.22,0,.45-.08.64-.21.35-.24.81-.96.52-1.07-.04-.01-.07-.02-.12-.02-.3,0-.82.3-1.13.34-.84.14-1.26-.63-1.24-1.42.02-.9.77-1.62,1.67-1.62.71,0,1.15.38,1.14.99-.01.16-.14.23-.25.24-.09,0-.19-.05-.2-.14-.07-.4-.24-.55-.65-.55-.68,0-1.19.47-1.21,1.08,0,.3.07.89.57.89.41.01.98-.38,1.44-.38Z"/>
          <path d="m209.86,78.08c-.05-.45-.14-.75-.33-.75-.11,0-.25.11-.43.35-.54.72-1.11,1.8-1.37,3.31-.02.14-.15.21-.27.21-.16,0-.32-.09-.32-.26-.02-2.12-.02-4.24-.05-6.38,0-.45.12-.61.23-.61.15,0,.31.22.31.49,0,1.12.04,3.7.04,4.79.21-.65,1.06-2.54,1.91-2.54.39,0,.68.44.83,1.3.18,1.19.09,2.26.08,2.81,0,.28-.14.41-.27.41-.13,0-.27-.14-.27-.37,0-.89.02-1.88-.09-2.78Z"/>
          <path d="m212.48,81.18c-.95,0-1.23-.96-1.24-1.81,0-.88.35-2.57,1.75-2.57.39,0,.74.17,1,.35.01-.07-.02-.25-.01-.3.03-.19.16-.27.28-.27.14,0,.28.1.29.3.13,1.51.06,2.46.25,3.97.02.25-.13.39-.27.39-.13,0-.25-.09-.26-.32l-.11-1.71c-.21.47-.77,1.97-1.68,1.97Zm0-.54c.41,0,1.2-1.46,1.53-2.42-.18-.46-.48-.85-1.01-.85-1,0-1.21,1.33-1.21,2.1,0,.4.19,1.17.7,1.17Z"/>
          <path d="m220.6,78.05c-.05-.45-.14-.75-.33-.75-.11,0-.25.11-.43.35-.54.72-1.11,1.8-1.37,3.31-.02.14-.15.21-.27.21-.16,0-.32-.09-.32-.26-.02-2.12-.02-4.24-.05-6.38,0-.45.12-.61.23-.61.15,0,.31.22.31.49,0,1.12.04,3.7.04,4.79.21-.65,1.06-2.54,1.91-2.54.39,0,.68.44.83,1.3.18,1.19.09,2.26.08,2.81,0,.28-.14.41-.27.41-.13,0-.27-.14-.27-.37,0-.89.02-1.88-.09-2.78Z"/>
          <path d="m222.9,81.01c-1.22,0-.9-2.99-.8-3.72.04-.23.16-.36.29-.36s.25.15.21.49c-.12,1.14-.15,2.87.3,2.91.55.03,1.23-1.95,1.5-3.38.02-.11.13-.15.25-.15.16,0,.36.09.35.22-.09,1.75-.1,2.56-.02,4.04.01.16-.09.23-.22.23-.15,0-.35-.12-.34-.23l.04-2.25c-.2.77-.95,2.21-1.56,2.21Z"/>
          <path d="m226.01,76.77c.12,0,.23.1.25.32l.07.97c.27-.53.69-1.21,1.35-1.21.62,0,.93.41,1,.8.04.15-.14.33-.3.33-.08,0-.15-.05-.19-.15-.09-.26-.17-.42-.43-.42-.64,0-1.19,1.2-1.25,1.74-.01.16-.04.53,0,1.75,0,.13-.15.22-.29.22-.13,0-.26-.08-.26-.32.03-1.05-.22-3.37-.24-3.64-.01-.23.14-.39.28-.39Z"/>
          <path d="m229.58,76.76c.12,0,.23.1.25.32l.07.97c.27-.53.69-1.21,1.35-1.21.62,0,.93.41,1,.8.04.15-.14.33-.3.33-.08,0-.15-.05-.19-.15-.09-.26-.17-.42-.43-.42-.64,0-1.19,1.2-1.25,1.74-.01.16-.04.53,0,1.75,0,.13-.15.22-.29.22-.13,0-.26-.08-.26-.32.03-1.05-.22-3.37-.24-3.64-.01-.23.14-.39.28-.39Z"/>
          <path d="m233.44,83.34c0-.13.14-.2.28-.2.13,0,.25.06.24.2-.01.27.01.74.38.74.59,0,.85-.78.98-1.56.14-.92.13-2.68.03-3.62-.27,1.07-1.08,2.21-1.82,2.22-.86.01-.64-2.38-.66-3.78,0-.21.1-.45.34-.45.19,0,.2.16.2.34,0,1.1-.06,3.3.21,3.27.79-.11,1.46-2.13,1.65-3.5.03-.21.14-.29.26-.29.16,0,.34.17.34.41,0,.63.03,1.27.04,1.9.04,1.05.04,2.58-.09,3.59-.14,1.01-.47,1.99-1.48,2-.53,0-.89-.27-.9-1.25Z"/>
          <path d="m239.9,80.95c-1.22,0-.9-2.99-.8-3.72.03-.23.16-.36.29-.36.13,0,.25.15.21.49-.12,1.14-.15,2.87.3,2.91.55.03,1.24-1.95,1.5-3.38.02-.11.13-.15.25-.15.16,0,.36.09.35.22-.09,1.75-.1,2.55-.02,4.04.01.16-.09.24-.22.24-.15,0-.35-.12-.34-.23l.04-2.25c-.2.77-.95,2.21-1.56,2.21Z"/>
          <path d="m243.29,84.6c-.13,0-.28-.08-.32-.24-.12-.67-.15-2.57-.16-3.29-.05-1.24-.1-2.93-.06-4.18,0-.16.13-.26.27-.26.16,0,.34.14.31.47-.08.8-.06,1.65,0,2.45.37-1.03,1.19-2.76,2.47-2.76.83,0,.8,1.12.62,1.72-.41,1.38-1.67,2.26-3.01,2.59-.09.87,0,2.82.11,3.29.02.15-.08.22-.22.22Zm.24-4.11c1.01-.26,1.96-1.03,2.32-2.01.07-.23.35-1.14-.11-1.16-.73-.02-1.78,1.47-2.21,3.17Z"/>
          <path d="m250.84,81.04c-.95,0-1.23-.96-1.24-1.81,0-.88.35-2.57,1.75-2.57.39,0,.74.17,1,.35.01-.07-.03-.25-.01-.3.04-.19.16-.27.28-.27.14,0,.28.1.29.3.13,1.51.06,2.46.25,3.97.02.25-.13.39-.27.39-.13,0-.25-.09-.26-.32l-.11-1.71c-.21.47-.77,1.97-1.68,1.97Zm0-.54c.41,0,1.2-1.46,1.53-2.42-.18-.46-.48-.85-1.01-.85-1,0-1.21,1.33-1.21,2.1,0,.4.19,1.17.7,1.17Z"/>
          <path d="m253.86,77.06c0-.25.21-.39.36-.39.09,0,.18.06.18.16.06,1.08.05,1.64.08,2.17.3-.93,1.21-2.28,1.96-2.33.2,0,.33.16.44.37.29.69.36,2.86.45,3.68.02.21-.13.33-.28.33s-.32-.12-.32-.33c0-.39-.12-3.13-.33-3.39-.02-.02-.05-.03-.07-.03-.08,0-.19.09-.35.25-.81.74-1.19,2.08-1.36,3.32-.01.13-.16.19-.3.19-.14,0-.29-.07-.29-.19,0-1.27-.15-2.54-.15-3.82Z"/>
          <path d="m259.18,81.12c-.77,0-1.15-.63-1.15-1.41,0-.75.38-3.08,1.64-3.06.55.02.61.23.72.28,0-1.21.02-1.89-.07-2.84-.02-.23.06-.33.17-.33.15,0,.35.17.36.34.09,2.31.06,4.71.34,7.01.03.2-.1.28-.24.28-.13,0-.27-.08-.28-.22-.04-.53-.07-.95-.15-1.48-.23.65-.69,1.43-1.34,1.43Zm-.06-.54c.79,0,1.13-1.76,1.16-2.41-.06-.35-.16-.96-.58-.96-.79,0-1.13,1.64-1.13,2.54,0,.47.18.83.54.83Z"/>
          <path d="m266,78.36c.05.94.11,1.83.19,2.59.01.15-.12.21-.26.21-.15,0-.31-.07-.32-.21-.05-.75-.1-1.64-.14-2.55-.37.02-.76.03-1.14.03-.2,0-.33-.12-.33-.32,0-.11.07-.21.17-.22.49-.03.91,0,1.25-.03-.03-.64-.06-1.29-.08-1.82-.06-1.16.18-2.3,1.25-2.3.84,0,1.05,1.07,1.13,1.55.02.13-.09.19-.23.19-.13,0-.27-.06-.28-.17-.07-.57-.32-1.02-.61-1.02-.71,0-.69,1.08-.69,1.63,0,.59.02,1.25.05,1.89.45-.01.88-.03,1.52-.04.39,0,.22.53-.08.54-.21.01-.77.01-1.42.05Z"/>
          <path d="m268.58,75.2c.18,0,.35.09.35.28.01.22-.17.34-.36.34-.16,0-.33-.09-.34-.32-.02-.2.16-.31.35-.31Zm.09,5.8c-.14,0-.26-.07-.26-.23.02-.55-.13-3-.11-3.94.01-.18.15-.25.29-.25.14,0,.27.07.27.17,0,1.08.08,2.96.1,3.98.01.16-.15.26-.29.26Z"/>
          <path d="m269.67,77c0-.25.21-.39.36-.39.09,0,.18.06.18.16.06,1.08.05,1.64.08,2.17.3-.93,1.21-2.28,1.96-2.33.2,0,.33.16.44.37.29.69.36,2.86.45,3.68.02.21-.13.33-.28.33-.15,0-.32-.12-.32-.33,0-.39-.12-3.13-.33-3.39-.02-.02-.05-.03-.07-.03-.08,0-.19.09-.35.25-.81.74-1.19,2.08-1.36,3.32-.01.13-.16.19-.3.19-.14,0-.29-.07-.29-.19,0-1.27-.15-2.54-.15-3.82Z"/>
          <path d="m274.99,81.06c-.77,0-1.15-.63-1.15-1.41,0-.75.38-3.08,1.64-3.06.55.02.61.23.72.28,0-1.21.02-1.89-.07-2.84-.02-.23.06-.33.17-.33.15,0,.35.17.36.34.09,2.31.06,4.71.34,7.01.03.2-.1.28-.24.28-.13,0-.27-.08-.28-.22-.04-.53-.07-.95-.15-1.48-.23.65-.69,1.43-1.34,1.43Zm-.06-.54c.79,0,1.13-1.76,1.16-2.41-.06-.35-.16-.96-.58-.96-.79,0-1.13,1.64-1.13,2.54,0,.47.18.83.54.83Z"/>
          <path d="m280.05,80.47c.02-1.92-.02-4.58-.01-6.5,0-.21.11-.28.23-.28.16,0,.36.13.35.24-.11,1.76,0,4.55-.02,5.03.25-.81,1-2.18,1.74-2.34.09-.02.18-.02.26-.02.36,0,.62.16.75.34.42.57.25,1.58-.56,2.79-.48.7-1.51,1.33-2.19,1.33-.49,0-.55-.14-.55-.58Zm2.81-3.26s-.14-.08-.27-.08c-1.01,0-1.79,2.53-1.85,3.32.55,0,1.22-.53,1.58-1,.71-.93.9-1.98.54-2.24Z"/>
          <path d="m285.27,80.92c-.95,0-1.23-.96-1.24-1.81,0-.88.35-2.57,1.75-2.57.39,0,.74.17,1,.35.01-.07-.02-.25-.01-.3.03-.19.16-.27.28-.27.14,0,.28.1.29.3.13,1.51.06,2.46.25,3.97.03.25-.13.39-.27.39-.13,0-.25-.09-.26-.32l-.11-1.71c-.21.47-.77,1.97-1.68,1.98Zm0-.54c.41,0,1.2-1.46,1.53-2.42-.18-.46-.48-.85-1.01-.85-1,0-1.21,1.33-1.21,2.1,0,.4.19,1.17.7,1.17Z"/>
          <path d="m288.3,80.44c.02-1.92-.02-4.58-.01-6.5,0-.21.1-.28.23-.28.16,0,.36.13.35.24-.11,1.76,0,4.55-.02,5.03.26-.81,1-2.18,1.74-2.34.09-.02.18-.02.26-.02.36,0,.62.16.75.34.42.57.25,1.58-.56,2.79-.48.71-1.51,1.33-2.19,1.33-.49,0-.55-.14-.55-.58Zm2.81-3.26s-.14-.08-.27-.08c-1.01,0-1.8,2.53-1.85,3.32.55,0,1.22-.53,1.58-1,.71-.93.9-1.98.54-2.24Z"/>
          <path d="m293.65,76.33c.64,0,.92.57.92,1.18,0,1.04-.84,1.43-1.64,1.48,0,.62,0,1.46.7,1.46.6,0,.89-.48,1.09-.88.06-.11.15-.15.25-.15.16,0,.33.14.27.33-.15.49-.88,1.26-1.57,1.26-1.31,0-1.27-1.34-1.27-2.25,0-.63.12-2.43,1.26-2.43Zm-.67,2.09c.69-.04,1.04-.29,1.04-.96,0-.23-.05-.56-.38-.56-.49,0-.66,1.07-.66,1.53Z"/>
          <path d="m299.55,80.87c-.95,0-1.23-.96-1.24-1.81,0-.88.35-2.57,1.75-2.57.39,0,.74.17,1,.35.01-.07-.02-.25-.01-.3.03-.19.16-.27.28-.27.14,0,.28.1.29.3.13,1.51.06,2.46.25,3.97.03.25-.13.39-.27.39-.13,0-.25-.09-.26-.32l-.11-1.71c-.21.47-.77,1.97-1.68,1.97Zm0-.54c.41,0,1.2-1.46,1.53-2.42-.18-.46-.48-.85-1.01-.85-1,0-1.21,1.33-1.21,2.1,0,.4.19,1.17.7,1.17Z"/>
          <path d="m303.5,80.73c-1.22,0-.9-2.99-.8-3.72.03-.24.16-.36.29-.36.13,0,.25.15.21.49-.12,1.14-.15,2.87.3,2.91.55.03,1.24-1.95,1.5-3.38.02-.11.13-.15.25-.15.16,0,.36.09.35.22-.09,1.75-.1,2.55-.02,4.04.01.16-.09.23-.22.24-.15,0-.35-.12-.34-.23l.04-2.25c-.2.77-.95,2.21-1.56,2.21Z"/>
          <path d="m306.32,76.87c0-.25.21-.39.36-.39.09,0,.18.06.18.16.06,1.08.05,1.64.08,2.17.3-.93,1.21-2.28,1.96-2.33.2,0,.33.16.43.37.3.69.36,2.86.45,3.68.03.21-.13.33-.28.33-.15,0-.32-.12-.32-.33,0-.39-.12-3.13-.33-3.39-.02-.02-.05-.04-.07-.04-.08,0-.19.09-.35.25-.81.74-1.19,2.08-1.36,3.32-.01.13-.16.19-.3.19-.14,0-.29-.07-.29-.19,0-1.27-.15-2.54-.15-3.82Z"/>
          <path d="m312.24,77.59c.03,1,.05,2,.06,2.98,0,.23-.15.33-.29.33-.13,0-.26-.08-.26-.23,0-1-.03-2.07-.06-3.08-.52.06-.77.04-1.32.06-.19,0-.46-.58.03-.56.49.01.75.03,1.27-.03-.03-1.03-.04-2,.02-3.08.01-.29.12-.41.23-.41.16,0,.33.21.32.49-.06.93-.05,2-.01,3,.62-.03.97.02,1.58-.02.39-.03.27.53-.07.54-.47.03-.81,0-1.5.02Z"/>
          <path d="m315.11,83.05c0-.13.14-.2.28-.2.13,0,.25.06.24.2-.01.27.01.74.38.74.59,0,.85-.78.98-1.56.14-.91.13-2.68.03-3.62-.27,1.07-1.08,2.21-1.82,2.22-.86.01-.64-2.38-.66-3.78,0-.21.1-.45.34-.45.19,0,.2.16.2.34,0,1.1-.06,3.3.21,3.27.78-.11,1.46-2.13,1.65-3.5.04-.21.14-.29.26-.29.16,0,.34.17.34.41,0,.63.03,1.27.04,1.9.04,1.05.04,2.58-.09,3.59-.14,1.01-.47,1.99-1.48,2-.53,0-.89-.27-.89-1.25Z"/>
          <path d="m319.06,81.47c-.2,0-.34-.34-.21-.5.65-.81.86-2.38.58-3.82-.26-1.39-.67-2.53-1.33-3.6-.14-.22,0-.42.19-.42.11,0,.21.06.3.19.64.95,1.24,2.93,1.37,3.78.19,1.17.2,2.92-.63,4.19-.09.14-.19.2-.28.2Z"/>
          <path d="m321.16,80.21c.18,0,.35.09.35.28.01.22-.17.34-.36.34-.16,0-.33-.09-.34-.32-.02-.2.16-.3.35-.31Z"/>
          <path d="m102.33,106.36c.4-.07.76-.12,1.08-.13.27,0,.35.53.11.53h-.01c-.38,0-.6-.02-1.03.05.45,1.42.88,2.77,1.01,3.2.06.2-.09.32-.25.32-.11,0-.22-.06-.27-.17-.15-.43-.58-1.84-1.03-3.25-.42.08-1.01.21-1.86.42-.29,1.02-.54,2.05-.69,2.81-.05.21-.14.29-.24.29-.16,0-.33-.21-.31-.36.06-.3.36-1.41.68-2.63-.26.06-.53.13-.83.2-.37.08-.29-.53-.06-.55.33-.05.68-.11,1.04-.18.32-1.2.65-2.39.8-3.03.09-.43.34-.68.55-.68.14,0,.28.1.36.33.24.64.6,1.72.96,2.84Zm-.53.1c-.28-.9-.57-1.78-.79-2.35-.21.68-.51,1.65-.8,2.67.55-.11,1.09-.21,1.59-.32Z"/>
          <path d="m104.37,106.4c0-.25.21-.39.36-.39.09,0,.18.06.18.16.06,1.08.05,1.64.08,2.17.3-.93,1.21-2.28,1.96-2.33.2,0,.33.16.43.37.3.69.36,2.86.45,3.68.02.21-.13.33-.28.33-.15,0-.32-.12-.32-.33,0-.39-.12-3.13-.33-3.39-.02-.02-.05-.04-.07-.04-.08,0-.19.09-.35.25-.8.74-1.19,2.08-1.36,3.32-.01.13-.16.19-.3.19-.14,0-.29-.07-.29-.19,0-1.27-.15-2.54-.15-3.82Z"/>
          <path d="m109.12,112.59c0-.13.14-.2.28-.2.13,0,.25.06.24.2-.01.27.01.74.38.74.59,0,.85-.78.98-1.56.14-.92.13-2.68.03-3.62-.27,1.07-1.08,2.21-1.82,2.22-.86.01-.64-2.38-.66-3.78,0-.21.1-.45.34-.45.19,0,.2.16.2.34,0,1.1-.06,3.3.21,3.27.78-.11,1.46-2.13,1.65-3.5.04-.21.14-.29.26-.29.16,0,.34.17.34.41,0,.63.03,1.27.04,1.9.04,1.05.04,2.58-.09,3.59-.14,1.01-.47,1.99-1.48,2-.53,0-.89-.27-.89-1.25Z"/>
          <path d="m112.32,106.5c-.02-.25.1-.36.23-.36.12,0,.22.08.26.22.18.78.29,1.99.61,2.75.08-.36.72-2.52,1.12-2.52.18,0,.29.12.39.26.4.63.69,1.62.92,2.2.26-.84.42-1.99.56-2.87.05-.23.15-.33.26-.33.16,0,.35.22.31.4-.28,1.22-.46,2.7-.72,3.79-.04.14-.12.19-.21.19-.16,0-.36-.16-.42-.33l-.98-2.56c-.13.12-.46.95-.87,2.63-.04.13-.15.35-.3.35-.56,0-1.09-3.32-1.14-3.8Z"/>
          <path d="m118.59,110.32c-.95,0-1.23-.96-1.24-1.81,0-.88.35-2.57,1.75-2.57.39,0,.74.17,1,.35.01-.07-.02-.25-.01-.3.03-.19.16-.27.28-.27.14,0,.28.1.29.3.13,1.51.05,2.46.25,3.97.02.25-.13.39-.27.39-.13,0-.25-.09-.26-.32l-.11-1.71c-.21.47-.77,1.97-1.68,1.97Zm0-.54c.41,0,1.2-1.46,1.53-2.42-.18-.46-.48-.85-1.01-.85-1,0-1.21,1.33-1.21,2.1,0,.4.19,1.17.7,1.17Z"/>
          <path d="m122.21,112.54c0-.13.14-.2.28-.2.13,0,.25.06.24.2-.01.27.01.74.38.74.59,0,.85-.78.98-1.56.14-.92.13-2.68.03-3.62-.27,1.07-1.08,2.21-1.82,2.22-.86.02-.64-2.38-.66-3.78,0-.21.1-.45.34-.45.19,0,.2.16.2.34,0,1.1-.06,3.3.21,3.27.78-.11,1.46-2.13,1.65-3.5.04-.21.14-.29.26-.29.16,0,.34.17.34.41,0,.63.03,1.27.04,1.9.04,1.05.04,2.58-.09,3.59-.14,1.01-.47,1.99-1.48,2-.53,0-.89-.27-.89-1.25Z"/>
          <path d="m125.67,111.3c-.25,0-.39-.3-.07-.54.44-.34,1-.86.16-1.63-.21-.19-.05-.55.2-.55.07,0,.15.03.24.13.95,1.1.5,1.85-.25,2.49-.09.07-.19.11-.27.11Z"/>
          <path d="m129.77,103.35c-.01-.21.14-.32.27-.32.14,0,.27.09.27.29.06,1.64.16,4.6.16,6.51,0,.28-.14.42-.28.42-.13,0-.26-.13-.26-.4.05-1.98-.09-4.69-.16-6.51Z"/>
          <path d="m131.45,106.87c-.26,0-.4-.3-.08-.54.44-.34,1.02-.87.16-1.63-.2-.2-.04-.55.19-.55.08,0,.16.03.25.13.95,1.09.5,1.85-.25,2.49-.09.07-.19.11-.26.11Z"/>
          <path d="m138.58,110.57c-.14,0-.28-.12-.27-.41.04-.96.06-3.75-.37-3.83h-.04c-.49,0-1.2,1.76-1.43,3.43-.01.12-.11.17-.22.17-.16,0-.38-.12-.38-.29-.07-1.84-.33-3.22-.66-3.2-.34.02-1.07,1.3-1.14,1.62-.15.67-.14,1.35-.13,1.98,0,.13-.13.21-.24.21-.14,0-.28-.09-.28-.33,0-1.11-.11-2.43-.21-3.62-.02-.23.13-.33.27-.33.14,0,.28.09.28.23,0,.47.03.91.03,1.37.27-.77.81-1.7,1.47-1.7.76,0,1,1.53,1.07,2.11.21-.46.6-2.19,1.69-2.17,1.05.03.81,3.54.81,4.51,0,.15-.13.26-.26.26Z"/>
          <path d="m142.2,105.87c.12,0,.23.1.25.32l.07.97c.27-.53.69-1.21,1.35-1.21.62,0,.93.41,1,.81.04.15-.14.33-.3.33-.08,0-.15-.05-.19-.15-.09-.26-.17-.42-.43-.42-.64,0-1.19,1.2-1.25,1.74-.01.16-.04.53,0,1.75,0,.13-.15.22-.29.22-.13,0-.26-.08-.26-.32.03-1.06-.22-3.38-.24-3.64-.01-.23.14-.39.28-.39Z"/>
          <path d="m146.63,105.66c.64,0,.92.57.92,1.18,0,1.04-.84,1.43-1.63,1.48,0,.62,0,1.46.7,1.46.6,0,.89-.48,1.09-.88.06-.11.15-.15.25-.15.16,0,.33.14.27.33-.15.49-.87,1.26-1.57,1.26-1.31,0-1.27-1.34-1.27-2.25,0-.63.12-2.43,1.26-2.43Zm-.67,2.09c.69-.04,1.04-.29,1.04-.96,0-.23-.05-.56-.38-.56-.49,0-.66,1.07-.66,1.53Z"/>
          <path d="m149.95,110.2c-.95,0-1.23-.96-1.24-1.81,0-.88.35-2.57,1.75-2.57.39,0,.74.17,1,.35.01-.07-.02-.25-.01-.3.03-.19.16-.27.28-.27.14,0,.28.1.29.3.13,1.51.06,2.46.25,3.97.02.25-.13.39-.27.39-.13,0-.25-.09-.26-.32l-.11-1.71c-.21.47-.77,1.97-1.68,1.97Zm0-.54c.41,0,1.2-1.46,1.53-2.42-.18-.46-.48-.85-1.01-.85-1,0-1.21,1.33-1.21,2.1,0,.4.19,1.17.7,1.17Z"/>
          <path d="m153.37,110.26c-.13,0-.26-.08-.26-.23,0-2.18-.14-4.36-.15-6.69,0-.27.08-.38.19-.38.15,0,.35.26.37.56.04,2,.13,4.29.14,6.41,0,.23-.14.33-.28.33Z"/>
          <path d="m154.74,110.26c-.13,0-.26-.08-.26-.23,0-2.18-.14-4.36-.15-6.69,0-.27.08-.38.19-.38.15,0,.35.26.37.56.04,2,.13,4.29.14,6.41,0,.23-.14.33-.28.33Z"/>
          <path d="m156.31,112.42c0-.13.14-.2.28-.2.13,0,.25.06.24.2-.01.27.01.74.38.74.59,0,.85-.78.98-1.56.14-.92.13-2.68.03-3.62-.27,1.07-1.08,2.21-1.82,2.22-.86.02-.64-2.38-.66-3.78,0-.21.1-.45.34-.45.19,0,.2.16.2.34,0,1.1-.06,3.3.21,3.27.79-.11,1.46-2.13,1.65-3.5.03-.21.14-.29.26-.29.16,0,.34.17.34.41,0,.63.03,1.27.04,1.9.04,1.05.04,2.58-.09,3.59s-.47,1.99-1.48,2c-.53,0-.89-.27-.9-1.25Z"/>
          <path d="m162.04,111.85c.02-.15.12-.21.22-.21.14,0,.27.09.28.26.01.52-.18,1.28.58,1.28.71,0,1.17-.58,1.29-1.7.11-1.1.13-2.15.07-3.26-.28.89-.78,1.89-1.55,1.89-.9,0-1.2-1.05-1.04-2.09.16-1.08.69-2.3,1.63-2.3.39,0,.75.28.91.63.09-.15.22-.25.34-.25.13,0,.22.1.22.35,0,1.62.18,3.46-.05,5.06-.18,1.18-.64,2.21-1.77,2.21-1.16,0-1.25-1-1.13-1.86Zm1.51-5.6c-.62,0-1,1.01-1.12,1.82-.13.76.08,1.48.45,1.49.68.02,1.17-1.52,1.3-2.41.01-.08-.21-.84-.54-.89-.04,0-.06-.01-.09-.01Z"/>
          <path d="m166.05,105.79c.12,0,.23.1.25.32l.07.97c.27-.53.69-1.21,1.35-1.21.62,0,.93.41,1,.8.04.15-.14.33-.3.33-.08,0-.15-.05-.19-.15-.09-.26-.17-.42-.43-.42-.64,0-1.19,1.2-1.25,1.74-.01.16-.04.53,0,1.75,0,.13-.15.22-.29.22-.13,0-.26-.08-.26-.32.03-1.05-.22-3.37-.24-3.64-.01-.23.14-.39.28-.39Z"/>
          <path d="m170.34,110.13c-.95,0-1.23-.96-1.24-1.81,0-.88.35-2.57,1.75-2.57.39,0,.74.17,1,.35.01-.07-.02-.25-.01-.3.03-.19.16-.27.28-.27.14,0,.28.1.29.3.13,1.51.06,2.46.25,3.97.02.25-.13.39-.27.39-.13,0-.25-.09-.26-.32l-.11-1.71c-.21.47-.77,1.97-1.68,1.97Zm0-.54c.41,0,1.2-1.46,1.53-2.42-.18-.46-.48-.85-1.01-.85-1,0-1.21,1.33-1.21,2.1,0,.4.19,1.17.7,1.17Z"/>
          <path d="m175.02,106.88c.03,1,.05,2,.06,2.98,0,.23-.15.33-.29.33-.13,0-.26-.08-.26-.23,0-1-.03-2.07-.06-3.08-.52.06-.77.04-1.32.06-.19,0-.46-.58.03-.56.49,0,.75.03,1.27-.03-.03-1.03-.04-2,.02-3.08,0-.29.12-.41.23-.41.16,0,.33.21.32.49-.05.93-.05,2-.01,3,.62-.03.97.02,1.58-.02.39-.02.27.53-.07.54-.47.02-.81,0-1.5.02Z"/>
          <path d="m178.33,105.54c.64,0,.92.57.92,1.18,0,1.04-.84,1.43-1.63,1.48,0,.62,0,1.46.7,1.46.6,0,.89-.48,1.09-.88.06-.11.15-.15.25-.15.16,0,.33.14.27.33-.15.49-.87,1.26-1.57,1.26-1.31,0-1.27-1.34-1.27-2.25,0-.63.12-2.43,1.26-2.43Zm-.67,2.09c.69-.04,1.04-.28,1.04-.96,0-.23-.05-.56-.38-.56-.49,0-.66,1.07-.66,1.53Z"/>
          <path d="m181.82,107.47c.05.94.11,1.83.18,2.59.01.15-.12.21-.26.21-.15,0-.31-.07-.32-.21-.05-.75-.1-1.64-.14-2.55-.38.02-.76.03-1.14.03-.2,0-.33-.12-.33-.32,0-.11.07-.21.18-.22.49-.03.91,0,1.25-.03-.03-.64-.06-1.29-.08-1.82-.06-1.16.18-2.3,1.25-2.3.84,0,1.05,1.07,1.13,1.55.02.13-.09.19-.23.19-.13,0-.27-.06-.28-.17-.07-.57-.32-1.02-.61-1.02-.71,0-.69,1.08-.69,1.63,0,.59.02,1.25.05,1.89.45-.01.88-.03,1.52-.04.39,0,.22.53-.08.54-.21.01-.77.01-1.42.05Z"/>
          <path d="m184.96,109.95c-1.22,0-.9-2.99-.8-3.72.04-.24.16-.36.29-.37.13,0,.25.15.21.49-.12,1.14-.15,2.87.3,2.91.55.03,1.23-1.95,1.5-3.38.02-.11.13-.15.25-.15.16,0,.36.09.35.22-.09,1.75-.1,2.55-.02,4.04.01.16-.09.23-.22.24-.15,0-.35-.12-.34-.23l.04-2.25c-.2.77-.95,2.21-1.56,2.21Z"/>
          <path d="m188.19,110.14c-.13,0-.26-.08-.26-.23,0-2.18-.14-4.36-.15-6.69,0-.27.08-.38.19-.38.15,0,.35.26.37.56.04,2,.13,4.29.14,6.41,0,.23-.14.33-.28.33Z"/>
          <path d="m193.28,107.42c.05.94.11,1.83.19,2.59.01.15-.12.21-.26.21-.15,0-.31-.07-.32-.21-.05-.75-.1-1.64-.14-2.55-.38.02-.76.03-1.14.03-.2,0-.33-.12-.33-.32,0-.11.07-.21.17-.22.49-.03.91,0,1.25-.03-.03-.64-.06-1.29-.08-1.82-.06-1.16.18-2.3,1.25-2.3.84,0,1.05,1.07,1.13,1.55.02.13-.09.19-.23.19-.13,0-.27-.06-.28-.17-.07-.57-.32-1.02-.61-1.02-.71,0-.69,1.08-.69,1.63,0,.59.02,1.25.05,1.89.45-.01.88-.03,1.52-.04.39,0,.22.53-.08.54-.21.01-.77.01-1.42.05Z"/>
          <path d="m197.14,105.64c.94,0,1.35.96,1.33,1.98-.02,1.16-.6,2.4-1.66,2.41-1,0-1.29-.87-1.29-1.75,0-1.12.28-2.63,1.62-2.63Zm-1.08,2.7c0,.38.1,1.12.66,1.12.79,0,1.2-1.04,1.2-1.95,0-.71-.26-1.33-.78-1.33-.97,0-1.08,1.48-1.08,2.16Z"/>
          <path d="m199.35,105.67c.12,0,.23.1.25.32l.07.97c.27-.53.69-1.21,1.35-1.21.62,0,.93.41,1,.8.04.15-.14.33-.3.33-.08,0-.15-.05-.19-.15-.09-.26-.17-.42-.44-.42-.64,0-1.19,1.2-1.25,1.74-.01.16-.04.53,0,1.75,0,.13-.15.22-.29.22-.13,0-.26-.08-.26-.32.03-1.05-.22-3.37-.24-3.64-.01-.23.14-.39.28-.39Z"/>
          <path d="m205.68,112.24c0-.13.14-.2.28-.2.13,0,.25.06.23.2,0,.27.01.74.38.74.59,0,.85-.78.98-1.56.14-.92.13-2.68.03-3.62-.27,1.07-1.08,2.21-1.82,2.22-.86.02-.64-2.38-.66-3.78,0-.21.1-.45.34-.45.19,0,.2.16.2.34,0,1.1-.06,3.3.21,3.27.79-.11,1.46-2.13,1.65-3.5.03-.21.14-.29.26-.29.16,0,.34.17.34.41,0,.63.03,1.27.04,1.9.04,1.05.04,2.58-.09,3.59s-.47,1.99-1.48,2c-.53,0-.89-.27-.9-1.25Z"/>
          <path d="m210.51,105.59c.94,0,1.35.96,1.33,1.98-.02,1.16-.6,2.4-1.66,2.41-1,0-1.29-.87-1.29-1.75,0-1.12.28-2.63,1.62-2.63Zm-1.08,2.7c0,.38.1,1.12.66,1.12.79,0,1.2-1.04,1.2-1.95,0-.71-.26-1.33-.78-1.33-.97,0-1.08,1.48-1.08,2.16Z"/>
          <path d="m213.48,109.85c-1.22,0-.9-2.99-.8-3.72.04-.23.16-.36.29-.36.13,0,.25.15.21.49-.12,1.14-.15,2.87.3,2.91.55.03,1.23-1.95,1.5-3.38.02-.11.13-.15.25-.15.16,0,.36.09.35.22-.09,1.75-.1,2.56-.02,4.04.01.16-.09.24-.22.24-.15,0-.35-.12-.34-.23l.04-2.25c-.2.77-.95,2.21-1.56,2.21Z"/>
          <path d="m216.57,110.97c-.25,0-.39-.3-.07-.54.44-.34,1-.86.16-1.63-.21-.19-.05-.55.2-.55.07,0,.15.03.23.13.95,1.1.5,1.85-.25,2.49-.09.07-.19.11-.27.11Z"/>
          <path d="m222.44,107.32c.05.94.11,1.83.19,2.59.01.15-.12.21-.26.21-.15,0-.31-.07-.32-.21-.05-.75-.1-1.64-.14-2.55-.38.03-.76.03-1.14.03-.2,0-.33-.12-.33-.31,0-.11.07-.21.17-.22.49-.03.91,0,1.25-.03-.03-.64-.06-1.29-.08-1.82-.06-1.16.18-2.3,1.25-2.3.84,0,1.05,1.07,1.13,1.55.02.13-.09.19-.23.19-.13,0-.27-.06-.28-.17-.07-.57-.32-1.02-.61-1.02-.71,0-.69,1.08-.69,1.63,0,.59.02,1.25.05,1.89.45-.01.88-.03,1.52-.04.39,0,.22.53-.08.54-.21.01-.77.01-1.42.05Z"/>
          <path d="m226.3,105.54c.94,0,1.35.96,1.33,1.98-.02,1.16-.6,2.4-1.66,2.41-1,0-1.29-.87-1.29-1.75,0-1.12.28-2.63,1.62-2.63Zm-1.08,2.7c0,.38.1,1.12.66,1.12.79,0,1.2-1.04,1.2-1.95,0-.71-.26-1.33-.78-1.33-.97,0-1.08,1.48-1.08,2.16Z"/>
          <path d="m228.52,105.56c.12,0,.23.1.25.32l.07.97c.27-.53.69-1.21,1.35-1.21.62,0,.93.41,1,.8.04.15-.14.33-.3.33-.08,0-.15-.05-.19-.15-.09-.26-.17-.42-.44-.42-.64,0-1.19,1.2-1.25,1.74-.01.16-.04.53,0,1.75,0,.13-.15.22-.29.22-.13,0-.26-.08-.26-.32.03-1.05-.22-3.37-.24-3.64-.01-.23.14-.39.28-.39Z"/>
          <path d="m235.89,105.5c.94,0,1.35.96,1.33,1.98-.02,1.16-.6,2.4-1.66,2.41-1,0-1.29-.87-1.29-1.75,0-1.12.28-2.63,1.62-2.63Zm-1.08,2.7c0,.38.1,1.12.66,1.12.79,0,1.2-1.04,1.2-1.95,0-.71-.26-1.33-.78-1.33-.97,0-1.08,1.48-1.08,2.16Z"/>
          <path d="m238.86,109.76c-1.22,0-.9-2.99-.8-3.72.03-.23.16-.36.29-.36.13,0,.25.15.21.49-.12,1.14-.15,2.87.3,2.91.55.03,1.24-1.95,1.5-3.38.02-.11.13-.15.25-.15.16,0,.36.09.35.22-.09,1.75-.1,2.56-.02,4.04.01.16-.09.24-.22.24-.15,0-.35-.12-.34-.23l.04-2.25c-.2.77-.95,2.21-1.56,2.21Z"/>
          <path d="m241.97,105.52c.12,0,.23.1.25.32l.07.97c.27-.53.69-1.21,1.36-1.21.62,0,.93.41,1,.81.04.15-.14.33-.3.33-.08,0-.15-.05-.19-.15-.09-.26-.17-.42-.44-.42-.64,0-1.19,1.2-1.25,1.74-.01.16-.04.53,0,1.75,0,.13-.15.22-.29.22-.13,0-.26-.08-.26-.32.03-1.05-.22-3.37-.24-3.64-.01-.23.14-.39.28-.39Z"/>
          <path d="m249.48,107.22c.05.94.11,1.83.19,2.59.01.15-.12.21-.26.21-.15,0-.3-.07-.32-.21-.05-.75-.1-1.64-.14-2.55-.38.02-.76.03-1.14.03-.2,0-.33-.12-.33-.32,0-.11.07-.21.17-.22.49-.03.91,0,1.25-.03-.03-.64-.06-1.29-.08-1.82-.06-1.16.18-2.3,1.25-2.3.84,0,1.05,1.07,1.13,1.55.02.13-.09.19-.23.19-.13,0-.27-.06-.28-.17-.07-.57-.32-1.02-.61-1.02-.71,0-.69,1.08-.69,1.63,0,.59.02,1.25.05,1.89.45-.01.88-.03,1.52-.04.39,0,.22.53-.08.54-.21.01-.77.01-1.42.05Z"/>
          <path d="m251.99,105.48c.12,0,.23.1.25.32l.07.97c.27-.53.69-1.21,1.36-1.21.62,0,.93.41,1,.8.04.15-.14.33-.3.33-.08,0-.15-.05-.19-.15-.09-.26-.17-.42-.44-.42-.64,0-1.19,1.2-1.25,1.74-.01.16-.04.53,0,1.75,0,.13-.15.22-.29.22-.13,0-.26-.08-.26-.32.03-1.05-.22-3.37-.24-3.64-.01-.23.14-.39.28-.39Z"/>
          <path d="m256.42,105.27c.64,0,.92.57.92,1.18,0,1.04-.84,1.43-1.64,1.48,0,.62,0,1.46.7,1.46.6,0,.89-.48,1.09-.88.06-.11.15-.15.25-.15.16,0,.33.14.27.33-.15.49-.88,1.26-1.57,1.26-1.31,0-1.27-1.34-1.27-2.25,0-.63.12-2.43,1.26-2.43Zm-.67,2.09c.69-.04,1.04-.29,1.04-.96,0-.23-.05-.56-.38-.56-.49,0-.66,1.07-.66,1.53Z"/>
          <path d="m258.96,104.04c.18,0,.35.09.35.28.01.22-.17.34-.36.34-.16,0-.33-.09-.34-.31-.02-.2.16-.31.35-.31Zm.09,5.8c-.14,0-.26-.07-.26-.23.02-.55-.13-3-.11-3.94.01-.18.15-.25.29-.25.14,0,.27.07.27.17,0,1.08.08,2.96.1,3.98.01.16-.15.26-.29.26Z"/>
          <path d="m260.04,105.84c0-.25.21-.39.36-.39.09,0,.18.06.18.16.06,1.08.05,1.64.08,2.17.3-.93,1.21-2.28,1.96-2.33.2,0,.33.16.43.37.3.69.36,2.86.45,3.68.03.21-.13.33-.28.33-.15,0-.32-.12-.32-.33,0-.39-.12-3.13-.33-3.39-.02-.02-.05-.04-.07-.04-.08,0-.19.09-.35.25-.81.74-1.19,2.08-1.36,3.32-.01.13-.16.19-.3.19-.14,0-.29-.07-.29-.19,0-1.27-.15-2.54-.16-3.82Z"/>
          <path d="m265.37,109.9c-.77,0-1.15-.63-1.15-1.41,0-.75.38-3.08,1.64-3.06.55.02.61.23.72.28,0-1.21.02-1.89-.07-2.83-.02-.23.06-.33.17-.33.15,0,.35.17.36.34.09,2.31.06,4.71.34,7.01.02.2-.1.28-.25.28-.13,0-.27-.08-.28-.22-.04-.53-.07-.95-.15-1.48-.23.65-.69,1.43-1.34,1.43Zm-.06-.54c.79,0,1.13-1.76,1.16-2.41-.06-.35-.16-.96-.58-.96-.79,0-1.13,1.64-1.13,2.54,0,.47.18.83.54.83Z"/>
          <path d="m270.6,107.46c.16,0,.3.06.42.19.35.41.11,1.32-.67,1.91-.27.2-.57.31-.91.31-.29,0-.61-.08-.92-.27-.2-.13-.07-.5.16-.5.05,0,.11.01.16.06.18.13.38.19.56.19.22,0,.45-.08.64-.21.35-.24.8-.96.52-1.07-.04-.01-.07-.02-.12-.02-.3,0-.82.3-1.14.34-.84.14-1.26-.63-1.23-1.42.02-.9.77-1.62,1.67-1.62.71,0,1.15.38,1.14.99-.01.16-.14.23-.25.23-.09,0-.19-.05-.2-.14-.07-.4-.24-.55-.65-.55-.68,0-1.19.47-1.21,1.08-.01.3.07.89.56.89.41,0,.98-.38,1.44-.38Z"/>
          <path d="m274.64,106.65c-.05-.45-.14-.75-.33-.75-.11,0-.25.11-.43.35-.54.72-1.11,1.8-1.37,3.31-.02.14-.15.21-.27.21-.16,0-.32-.09-.32-.26-.02-2.12-.01-4.24-.05-6.38,0-.45.12-.61.23-.61.15,0,.3.22.31.49,0,1.12.04,3.7.04,4.79.21-.65,1.06-2.54,1.91-2.54.39,0,.68.44.82,1.3.18,1.19.09,2.26.08,2.81,0,.28-.14.41-.27.41-.13,0-.27-.14-.27-.37,0-.89.02-1.88-.09-2.78Z"/>
          <path d="m276.36,103.97c.18,0,.35.09.35.28.01.22-.17.34-.36.34-.16,0-.33-.09-.34-.32-.02-.2.16-.31.35-.31Zm.09,5.8c-.14,0-.26-.07-.26-.23.02-.55-.13-3-.11-3.94.01-.18.15-.25.29-.25.14,0,.27.07.27.17,0,1.08.08,2.96.1,3.98.01.16-.15.26-.29.26Z"/>
          <path d="m278.01,113.27c-.13,0-.28-.08-.32-.25-.12-.67-.15-2.57-.16-3.29-.05-1.24-.1-2.93-.06-4.18,0-.16.13-.26.27-.26.16,0,.34.14.31.47-.08.8-.06,1.65,0,2.45.37-1.03,1.19-2.76,2.47-2.76.83,0,.8,1.12.62,1.72-.4,1.38-1.67,2.26-3.01,2.59-.09.87,0,2.82.11,3.29.02.15-.08.22-.22.22Zm.24-4.11c1.01-.26,1.96-1.03,2.32-2.01.07-.23.35-1.14-.11-1.16-.73-.02-1.78,1.47-2.21,3.17Z"/>
          <path d="m282.23,110.74c-.25,0-.39-.3-.07-.54.44-.34,1-.86.16-1.63-.21-.19-.05-.55.2-.55.07,0,.15.03.23.13.95,1.1.5,1.85-.25,2.49-.09.07-.19.11-.27.11Z"/>
          <path d="m287.97,105.32c.94,0,1.35.96,1.33,1.98-.02,1.16-.6,2.4-1.65,2.41-1,0-1.29-.87-1.3-1.75,0-1.12.28-2.63,1.62-2.63Zm-1.08,2.7c0,.38.1,1.12.66,1.12.79,0,1.2-1.04,1.2-1.95,0-.71-.26-1.33-.78-1.33-.97,0-1.08,1.48-1.08,2.16Z"/>
          <path d="m290.94,109.57c-1.22,0-.9-2.99-.8-3.72.03-.23.16-.36.29-.36.13,0,.25.15.21.49-.12,1.14-.15,2.87.3,2.91.55.03,1.24-1.95,1.5-3.38.02-.11.13-.15.25-.15.16,0,.36.09.35.22-.09,1.75-.1,2.56-.02,4.04.01.16-.09.24-.22.24-.15,0-.35-.12-.34-.23l.04-2.25c-.2.77-.95,2.21-1.56,2.21Z"/>
          <path d="m294.05,105.33c.12,0,.23.1.25.32l.07.97c.27-.53.69-1.21,1.36-1.21.62,0,.93.41,1,.8.04.15-.14.33-.3.33-.08,0-.15-.05-.19-.15-.09-.26-.17-.42-.43-.42-.64,0-1.19,1.2-1.25,1.74-.01.16-.04.53,0,1.75,0,.13-.15.22-.29.22-.13,0-.26-.08-.26-.32.03-1.05-.22-3.37-.24-3.64-.01-.23.14-.39.28-.39Z"/>
          <path d="m300.18,109.74c-.13,0-.26-.08-.26-.23,0-2.18-.14-4.36-.15-6.69,0-.27.08-.38.19-.38.15,0,.35.26.37.56.04,2,.13,4.29.14,6.41,0,.23-.14.33-.28.33Z"/>
          <path d="m302.41,109.66c-.95,0-1.23-.96-1.24-1.81,0-.88.35-2.57,1.75-2.57.39,0,.74.17,1,.35.01-.07-.02-.25-.01-.3.03-.19.16-.27.28-.27.14,0,.28.1.29.3.13,1.51.05,2.46.25,3.97.02.25-.13.39-.27.39-.13,0-.25-.09-.26-.32l-.11-1.71c-.21.47-.77,1.97-1.68,1.97Zm0-.54c.41,0,1.2-1.46,1.53-2.42-.18-.46-.48-.85-1.01-.85-1,0-1.21,1.33-1.21,2.1,0,.4.19,1.17.7,1.17Z"/>
          <path d="m306.36,109.52c-1.22,0-.9-2.99-.8-3.72.03-.23.16-.36.29-.36.13,0,.25.15.21.49-.12,1.14-.15,2.87.3,2.91.55.03,1.24-1.95,1.5-3.38.02-.11.13-.15.25-.15.16,0,.36.09.35.22-.09,1.75-.1,2.55-.02,4.04.01.16-.09.23-.22.24-.15,0-.35-.12-.34-.23l.04-2.25c-.2.77-.95,2.21-1.56,2.21Z"/>
          <path d="m309.38,111.32c.02-.15.12-.21.22-.21.14,0,.27.09.28.26.01.52-.18,1.28.58,1.28.71,0,1.17-.58,1.29-1.7.11-1.1.13-2.15.07-3.26-.28.89-.78,1.89-1.55,1.89-.9,0-1.2-1.05-1.04-2.09.16-1.08.69-2.3,1.63-2.3.39,0,.75.28.91.63.09-.15.22-.25.34-.25.13,0,.22.11.22.35,0,1.62.18,3.46-.05,5.06-.18,1.18-.64,2.21-1.77,2.21-1.16,0-1.25-1-1.13-1.86Zm1.51-5.6c-.62,0-1,1.01-1.12,1.82-.13.76.08,1.48.45,1.49.68.02,1.17-1.52,1.3-2.41.01-.08-.21-.84-.54-.89-.04,0-.06-.01-.09-.01Z"/>
          <path d="m315.85,106.51c-.05-.45-.14-.75-.33-.75-.11,0-.25.11-.43.35-.54.72-1.11,1.8-1.37,3.31-.02.14-.15.21-.27.21-.16,0-.32-.09-.32-.26-.02-2.12-.01-4.24-.05-6.38,0-.45.12-.61.23-.61.15,0,.31.22.31.49,0,1.12.04,3.7.04,4.79.21-.65,1.06-2.54,1.91-2.54.39,0,.68.44.83,1.3.18,1.19.09,2.26.08,2.81,0,.28-.14.41-.27.41-.13,0-.27-.14-.27-.37,0-.89.02-1.88-.09-2.78Z"/>
          <path d="m319.75,107.29c.16,0,.3.06.42.19.35.41.11,1.32-.67,1.91-.27.2-.57.31-.91.31-.29,0-.61-.08-.92-.27-.2-.13-.07-.5.16-.5.05,0,.11.01.16.06.18.13.38.19.56.19.22,0,.45-.08.64-.21.35-.24.81-.96.52-1.07-.04-.01-.07-.02-.12-.02-.3,0-.82.3-1.14.34-.84.14-1.26-.63-1.24-1.42.02-.9.77-1.62,1.67-1.62.71,0,1.15.38,1.14.99,0,.16-.14.24-.24.24-.09,0-.19-.05-.2-.14-.07-.4-.24-.55-.65-.55-.68,0-1.19.47-1.21,1.08-.01.3.07.89.57.89.41,0,.98-.38,1.44-.38Z"/>
          <path d="m321.3,110.6c-.25,0-.39-.3-.07-.54.44-.34,1-.86.16-1.63-.21-.19-.05-.55.2-.55.07,0,.15.03.24.13.95,1.1.5,1.85-.25,2.49-.09.07-.19.11-.27.11Z"/>
          <path d="m171,124.49c-.13,0-.25-.08-.25-.23,0-2.13-.14-4.25-.15-6.5-.61,0-1.45,0-2.3,0-.45,0-.41-.55-.1-.55.9,0,1.79.02,2.67.01.89,0,1.78-.02,2.68-.04.38,0,.31.55-.19.55-.97.02-1.51.03-2.23.03.04,2,.13,4.28.14,6.4,0,.23-.15.34-.29.34Z"/>
          <path d="m174.4,124.39c-1.22,0-.9-2.99-.8-3.72.03-.23.16-.36.29-.36.13,0,.25.15.21.49-.12,1.14-.15,2.87.3,2.91.55.03,1.24-1.95,1.5-3.38.02-.11.13-.15.25-.15.16,0,.36.09.35.22-.09,1.75-.1,2.55-.02,4.04.01.16-.09.23-.22.24-.15,0-.35-.12-.34-.23l.04-2.25c-.2.77-.95,2.21-1.56,2.21Z"/>
          <path d="m177.22,120.53c0-.25.21-.39.36-.39.09,0,.18.06.18.16.06,1.08.05,1.64.08,2.17.3-.93,1.21-2.28,1.96-2.33.2,0,.33.16.44.37.29.69.36,2.86.45,3.68.02.21-.13.33-.28.33-.15,0-.32-.12-.32-.33,0-.39-.12-3.13-.33-3.39-.02-.02-.05-.04-.07-.04-.08,0-.19.09-.35.25-.81.74-1.19,2.08-1.36,3.32-.01.13-.16.19-.3.19-.14,0-.29-.07-.29-.19,0-1.27-.15-2.54-.15-3.82Z"/>
          <path d="m182.54,124.59c-.77,0-1.15-.63-1.15-1.41,0-.75.38-3.08,1.64-3.06.55.02.61.23.72.28,0-1.21.02-1.89-.07-2.84-.02-.23.06-.33.18-.33.15,0,.35.17.36.34.09,2.31.06,4.71.34,7.01.02.2-.1.28-.24.28-.13,0-.27-.08-.28-.22-.04-.53-.07-.95-.15-1.48-.23.65-.69,1.43-1.34,1.43Zm-.06-.54c.79,0,1.13-1.76,1.16-2.41-.06-.35-.16-.96-.58-.96-.79,0-1.13,1.64-1.13,2.54,0,.47.18.83.54.83Z"/>
          <path d="m186.52,119.91c.64,0,.92.57.92,1.18,0,1.04-.84,1.43-1.64,1.48,0,.62,0,1.46.7,1.46.6,0,.89-.48,1.09-.88.06-.11.15-.15.24-.15.16,0,.33.14.27.33-.15.49-.88,1.26-1.57,1.26-1.31,0-1.27-1.34-1.27-2.25,0-.63.12-2.43,1.26-2.43Zm-.67,2.09c.69-.04,1.04-.29,1.04-.96,0-.23-.05-.56-.38-.56-.49,0-.66,1.07-.66,1.53Z"/>
          <path d="m196.55,124.77c-.14,0-.28-.12-.27-.41.04-.96.06-3.75-.37-3.83h-.04c-.49,0-1.2,1.76-1.43,3.43-.01.12-.11.16-.22.17-.16,0-.38-.12-.38-.29-.07-1.84-.33-3.22-.66-3.2-.34.02-1.07,1.3-1.14,1.62-.15.67-.14,1.35-.13,1.98,0,.13-.13.21-.25.21-.14,0-.28-.09-.28-.33,0-1.11-.11-2.42-.21-3.62-.02-.23.13-.33.27-.33s.28.09.28.23c0,.47.03.91.03,1.37.27-.77.81-1.7,1.47-1.71.76,0,1,1.53,1.07,2.11.21-.46.6-2.19,1.69-2.17,1.05.03.81,3.54.81,4.51,0,.15-.13.26-.26.26Z"/>
          <path d="m199.17,120.03c.94,0,1.35.96,1.33,1.98-.02,1.16-.6,2.4-1.66,2.41-1,0-1.29-.87-1.3-1.75,0-1.12.28-2.63,1.62-2.63Zm-1.08,2.7c0,.38.1,1.12.66,1.12.79,0,1.2-1.04,1.2-1.95,0-.71-.26-1.33-.78-1.33-.97,0-1.08,1.48-1.08,2.16Z"/>
          <path d="m203.62,122.1c.16,0,.31.06.42.19.35.41.11,1.32-.67,1.91-.27.2-.57.31-.91.31-.29,0-.61-.08-.92-.27-.2-.13-.07-.5.16-.5.05,0,.11.01.17.06.18.13.38.19.56.19.22,0,.45-.08.64-.21.35-.24.81-.96.52-1.07-.04-.01-.07-.02-.12-.02-.3,0-.82.3-1.14.34-.84.14-1.26-.63-1.24-1.42.02-.9.77-1.62,1.67-1.62.71,0,1.15.38,1.14.99-.01.16-.14.24-.25.24-.09,0-.19-.05-.2-.14-.07-.4-.24-.55-.65-.55-.68,0-1.19.47-1.22,1.08-.01.3.07.89.57.89.41,0,.98-.38,1.44-.38Z"/>
          <path d="m206.55,121.17c.03,1,.05,2,.06,2.98,0,.23-.15.33-.29.33-.13,0-.26-.08-.26-.23,0-1-.03-2.07-.06-3.08-.52.06-.77.04-1.32.06-.19,0-.46-.58.03-.56.49.01.75.03,1.27-.03-.03-1.03-.04-2,.02-3.08.01-.29.12-.41.23-.41.16,0,.33.21.32.49-.06.93-.05,2-.01,3,.62-.03.97.02,1.58-.02.39-.03.27.53-.07.54-.47.03-.81,0-1.5.02Z"/>
          <path d="m211.53,118.61c.18,0,.35.09.35.28.01.22-.18.34-.36.34-.16,0-.33-.09-.34-.31-.02-.2.16-.31.35-.31Zm.09,5.8c-.14,0-.26-.07-.26-.23.02-.55-.13-3-.11-3.94.01-.18.15-.25.29-.25.14,0,.27.07.27.17,0,1.08.08,2.96.1,3.98.01.16-.15.26-.29.26Z"/>
          <path d="m217.99,124.69c-.14,0-.28-.12-.27-.41.04-.96.06-3.75-.37-3.83h-.04c-.49,0-1.2,1.76-1.43,3.43-.01.12-.11.17-.22.17-.16,0-.38-.12-.38-.29-.07-1.84-.33-3.22-.66-3.2-.34.02-1.07,1.3-1.14,1.62-.15.67-.14,1.35-.13,1.98,0,.13-.13.21-.25.21-.14,0-.28-.09-.28-.33,0-1.11-.11-2.43-.21-3.62-.02-.23.13-.33.27-.33.14,0,.28.09.28.23,0,.47.03.91.03,1.37.27-.77.81-1.7,1.47-1.7.76,0,1,1.53,1.07,2.11.21-.46.6-2.19,1.69-2.17,1.05.03.81,3.54.81,4.51,0,.15-.13.26-.26.26Z"/>
          <path d="m219.54,127.88c-.13,0-.28-.08-.32-.25-.12-.67-.15-2.57-.16-3.29-.05-1.24-.1-2.93-.06-4.18,0-.16.13-.26.27-.26.16,0,.34.14.31.47-.08.8-.06,1.65,0,2.45.37-1.03,1.19-2.76,2.47-2.76.83,0,.8,1.12.62,1.72-.4,1.38-1.67,2.26-3.01,2.59-.09.87,0,2.82.11,3.29.02.15-.08.22-.22.22Zm.24-4.11c1.01-.26,1.96-1.03,2.32-2.01.07-.24.35-1.14-.11-1.16-.73-.02-1.78,1.47-2.21,3.17Z"/>
          <path d="m225.01,119.94c.94,0,1.35.96,1.33,1.98-.02,1.16-.6,2.4-1.66,2.41-1,0-1.29-.87-1.3-1.75,0-1.12.28-2.63,1.62-2.63Zm-1.08,2.7c0,.38.1,1.12.66,1.12.79,0,1.2-1.04,1.2-1.95,0-.71-.26-1.33-.78-1.33-.97,0-1.08,1.48-1.08,2.16Z"/>
          <path d="m227.22,119.97c.12,0,.23.1.25.32l.07.97c.27-.53.69-1.21,1.36-1.21.62,0,.93.41,1,.8.04.15-.14.33-.3.33-.08,0-.15-.05-.19-.15-.1-.26-.17-.42-.44-.42-.64,0-1.19,1.2-1.25,1.74-.01.16-.04.53,0,1.75,0,.13-.15.22-.29.22-.13,0-.26-.08-.26-.32.03-1.05-.22-3.37-.24-3.64-.01-.23.14-.39.28-.39Z"/>
          <path d="m232.5,121.07c.03,1,.05,2,.06,2.98,0,.23-.15.33-.29.33-.13,0-.26-.08-.26-.23,0-1-.03-2.07-.06-3.08-.52.06-.77.04-1.32.06-.19,0-.46-.58.03-.56.49,0,.75.03,1.27-.03-.03-1.03-.04-2,.02-3.08.01-.29.12-.41.23-.41.16,0,.33.21.32.49-.06.93-.05,2-.01,3,.62-.03.97.02,1.58-.02.39-.03.27.53-.07.54-.47.03-.81,0-1.5.02Z"/>
          <path d="m235.56,124.3c-.95,0-1.23-.96-1.24-1.81,0-.88.35-2.57,1.75-2.57.39,0,.74.17,1,.35.01-.07-.02-.25-.01-.3.03-.19.16-.27.28-.27.14,0,.28.1.29.3.13,1.51.05,2.46.25,3.97.02.25-.13.39-.27.39-.13,0-.25-.09-.26-.32l-.11-1.71c-.21.47-.77,1.97-1.68,1.97Zm0-.54c.41,0,1.2-1.46,1.53-2.42-.18-.46-.48-.85-1.01-.85-1,0-1.21,1.33-1.21,2.1,0,.4.19,1.17.7,1.17Z"/>
          <path d="m238.58,120.31c0-.25.21-.39.36-.39.09,0,.18.06.18.16.06,1.08.05,1.64.08,2.17.3-.93,1.21-2.28,1.96-2.33.2,0,.33.16.43.37.3.69.36,2.86.45,3.68.02.21-.13.33-.28.33-.15,0-.32-.12-.32-.33,0-.39-.12-3.13-.33-3.39-.02-.02-.05-.04-.07-.04-.08,0-.19.09-.35.25-.81.74-1.19,2.08-1.36,3.32-.01.13-.16.19-.3.19-.14,0-.29-.07-.29-.19,0-1.27-.15-2.54-.15-3.82Z"/>
          <path d="m244.5,121.03c.03,1,.05,2,.06,2.98,0,.23-.15.33-.29.33-.13,0-.26-.08-.26-.23,0-1-.03-2.07-.06-3.08-.51.06-.77.04-1.32.06-.19,0-.46-.58.03-.56.49,0,.75.03,1.27-.03-.03-1.03-.04-2,.02-3.08.01-.29.12-.41.23-.41.16,0,.33.21.32.49-.05.93-.05,2-.01,3,.62-.03.97.02,1.58-.02.39-.03.27.53-.07.54-.47.03-.81,0-1.5.02Z"/>
          <path d="m247.17,124.33c-.13,0-.26-.08-.26-.23,0-2.18-.14-4.36-.15-6.69,0-.27.08-.38.19-.38.15,0,.35.26.37.56.04,2,.13,4.29.14,6.41,0,.23-.14.33-.28.33Z"/>
          <path d="m248.74,126.49c0-.13.14-.2.28-.2.13,0,.25.06.24.2-.01.27.01.74.38.74.59,0,.85-.78.98-1.56.14-.91.13-2.68.03-3.62-.27,1.07-1.08,2.21-1.82,2.22-.86.01-.64-2.38-.66-3.78,0-.21.1-.45.34-.45.19,0,.2.16.2.34,0,1.1-.06,3.3.21,3.27.78-.11,1.46-2.13,1.65-3.5.04-.21.14-.29.26-.29.16,0,.34.17.34.41,0,.63.03,1.27.04,1.9.04,1.05.04,2.58-.09,3.59-.14,1.01-.47,1.99-1.48,2-.53,0-.89-.27-.89-1.25Z"/>
          <path d="m252.3,123.65c.18,0,.35.09.35.28.01.22-.17.34-.36.34-.16,0-.33-.09-.34-.32-.02-.2.16-.3.35-.31Z"/>
          <path d="m145.09,138.99c-.13,0-.25-.08-.25-.23,0-2.13-.14-4.25-.15-6.5-.61,0-1.45,0-2.3,0-.45,0-.41-.55-.1-.55.9,0,1.79.02,2.67.01.89,0,1.78-.02,2.68-.04.38,0,.31.55-.19.55-.97.02-1.51.03-2.23.03.04,2,.13,4.28.14,6.4,0,.23-.15.34-.29.34Z"/>
          <path d="m151.14,135.89c-.05-.45-.14-.75-.33-.75-.11,0-.25.11-.43.35-.54.72-1.11,1.8-1.37,3.31-.02.14-.15.21-.27.21-.16,0-.32-.09-.32-.26-.02-2.12-.02-4.24-.05-6.37,0-.45.12-.61.23-.61.15,0,.31.22.31.49,0,1.12.04,3.7.04,4.79.21-.65,1.06-2.54,1.91-2.54.39,0,.68.44.83,1.3.18,1.19.09,2.26.08,2.81,0,.28-.14.41-.27.41-.13,0-.27-.14-.27-.37,0-.89.02-1.88-.09-2.78Z"/>
          <path d="m153.76,138.99c-.95,0-1.23-.96-1.24-1.81,0-.88.35-2.57,1.75-2.57.39,0,.74.17,1,.35.01-.07-.02-.25-.01-.3.03-.19.16-.27.28-.27.14,0,.28.1.29.3.13,1.51.06,2.46.25,3.97.02.25-.13.39-.27.39-.13,0-.25-.09-.26-.32l-.11-1.71c-.21.47-.77,1.97-1.68,1.97Zm0-.54c.41,0,1.2-1.46,1.53-2.42-.18-.46-.48-.85-1.01-.85-1,0-1.21,1.33-1.21,2.1,0,.4.19,1.17.7,1.17Z"/>
          <path d="m156.79,135.01c0-.25.21-.39.36-.39.09,0,.18.06.18.16.06,1.08.05,1.64.08,2.17.3-.93,1.21-2.28,1.96-2.33.2,0,.33.16.43.37.3.69.36,2.86.45,3.68.02.21-.13.33-.28.33-.15,0-.32-.12-.32-.33,0-.39-.12-3.13-.33-3.39-.02-.02-.05-.04-.07-.04-.08,0-.19.09-.35.25-.81.74-1.19,2.08-1.36,3.32-.01.13-.16.19-.3.19-.14,0-.29-.07-.29-.19,0-1.27-.15-2.54-.15-3.82Z"/>
          <path d="m161.21,131.7c.14,0,.28.1.28.3,0,1.2-.05,3.41-.02,4.1.78-.44,1.43-1.11,1.73-1.45.05-.05.11-.07.18-.07.19,0,.39.16.25.41-.21.32-1.37,1.33-1.9,1.66.72.35,1.44.6,2.16.78.35.09.4.53-.03.53-.5,0-1.88-.58-2.33-.81v1.56c0,.14-.11.21-.23.21-.14,0-.3-.1-.3-.29,0-2.16-.05-4.41-.06-6.57,0-.23.15-.35.29-.35Z"/>
          <path d="m167.8,141.18c0-.13.14-.2.28-.2.13,0,.25.06.24.2-.01.27.01.74.38.74.59,0,.85-.78.98-1.56.14-.91.13-2.68.03-3.62-.27,1.07-1.08,2.21-1.82,2.22-.86.01-.64-2.38-.66-3.78,0-.21.1-.45.34-.45.19,0,.2.16.2.34,0,1.1-.06,3.3.21,3.27.79-.11,1.46-2.13,1.65-3.5.03-.21.14-.29.26-.29.16,0,.34.17.34.41,0,.63.03,1.27.04,1.9.04,1.05.04,2.58-.09,3.59-.14,1.01-.47,1.99-1.48,2-.53,0-.89-.27-.9-1.25Z"/>
          <path d="m172.63,134.53c.94,0,1.35.96,1.33,1.98-.02,1.16-.6,2.41-1.66,2.41-1,0-1.29-.87-1.3-1.75,0-1.12.28-2.63,1.62-2.63Zm-1.08,2.7c0,.38.1,1.12.66,1.12.79,0,1.2-1.04,1.2-1.95,0-.71-.26-1.33-.78-1.33-.97,0-1.08,1.48-1.08,2.16Z"/>
          <path d="m175.6,138.78c-1.22,0-.9-2.98-.8-3.72.03-.23.16-.36.29-.36.13,0,.25.15.21.49-.12,1.14-.15,2.87.3,2.91.55.03,1.24-1.95,1.5-3.38.02-.11.13-.15.25-.15.16,0,.36.09.35.22-.09,1.75-.1,2.55-.02,4.04.01.16-.09.23-.22.24-.15,0-.35-.12-.34-.23l.04-2.25c-.2.77-.95,2.21-1.56,2.21Z"/>
          <path d="m182.54,136.26c.05.94.11,1.83.18,2.59.01.15-.12.21-.26.21-.15,0-.3-.07-.32-.21-.05-.75-.1-1.64-.14-2.55-.38.02-.76.03-1.14.03-.2,0-.33-.12-.33-.32,0-.11.07-.21.18-.22.49-.03.91,0,1.25-.03-.03-.64-.06-1.29-.08-1.82-.06-1.16.18-2.3,1.25-2.3.84,0,1.05,1.07,1.13,1.55.02.13-.09.19-.23.19-.13,0-.27-.06-.28-.17-.07-.57-.32-1.02-.61-1.02-.71,0-.69,1.08-.69,1.63,0,.58.02,1.25.05,1.89.45-.01.88-.03,1.52-.04.39,0,.22.53-.08.54-.21.01-.77.01-1.42.05Z"/>
          <path d="m186.4,134.48c.94,0,1.35.96,1.33,1.98-.02,1.16-.6,2.4-1.66,2.41-1,0-1.29-.87-1.3-1.75,0-1.12.28-2.63,1.62-2.63Zm-1.08,2.7c0,.38.1,1.12.66,1.12.79,0,1.2-1.04,1.2-1.95,0-.71-.26-1.33-.78-1.33-.97,0-1.08,1.48-1.08,2.16Z"/>
          <path d="m188.61,134.51c.12,0,.24.1.25.32l.07.97c.27-.53.69-1.21,1.35-1.21.62,0,.93.41,1,.81.04.15-.14.33-.3.33-.08,0-.15-.05-.19-.15-.09-.26-.17-.42-.43-.42-.64,0-1.19,1.2-1.25,1.74-.01.16-.04.53,0,1.75,0,.13-.15.22-.29.22-.13,0-.26-.08-.26-.32.03-1.05-.22-3.37-.24-3.64-.01-.23.14-.39.28-.39Z"/>
          <path d="m194.36,138.38c.02-1.92-.02-4.58-.01-6.5,0-.21.1-.28.23-.28.16,0,.36.13.35.24-.11,1.76,0,4.55-.02,5.03.25-.81,1-2.18,1.74-2.34.09-.02.18-.02.26-.02.36,0,.62.16.75.34.42.57.25,1.58-.56,2.79-.48.7-1.51,1.33-2.19,1.33-.49,0-.55-.14-.55-.58Zm2.81-3.26s-.14-.08-.27-.08c-1.01,0-1.79,2.53-1.85,3.32.55,0,1.22-.53,1.58-1,.71-.93.9-1.98.54-2.24Z"/>
          <path d="m199.71,134.27c.64,0,.92.57.92,1.18,0,1.04-.84,1.43-1.63,1.48,0,.62,0,1.46.7,1.46.6,0,.89-.48,1.09-.88.06-.11.15-.15.25-.15.16,0,.33.14.27.33-.15.49-.87,1.26-1.57,1.26-1.31,0-1.27-1.34-1.27-2.25,0-.63.12-2.43,1.26-2.43Zm-.67,2.09c.69-.04,1.04-.28,1.04-.96,0-.23-.05-.56-.38-.56-.49,0-.66,1.07-.66,1.53Z"/>
          <path d="m202.25,133.04c.18,0,.35.09.35.28.01.22-.17.34-.36.34-.16,0-.33-.09-.34-.32-.02-.2.16-.31.35-.31Zm.09,5.8c-.14,0-.26-.07-.26-.23.02-.55-.13-3-.11-3.94.01-.18.15-.25.29-.25.14,0,.27.07.27.17,0,1.08.08,2.96.1,3.98.01.16-.15.26-.29.26Z"/>
          <path d="m203.33,134.84c0-.25.21-.39.36-.39.09,0,.18.06.18.16.06,1.08.05,1.64.08,2.17.3-.93,1.21-2.28,1.96-2.33.2,0,.33.16.44.37.29.69.36,2.86.45,3.68.02.21-.13.33-.28.33s-.32-.12-.32-.33c0-.39-.12-3.13-.33-3.39-.02-.02-.05-.03-.07-.03-.08,0-.19.09-.35.25-.81.74-1.19,2.08-1.36,3.32-.01.13-.16.19-.3.19-.14,0-.29-.07-.29-.19,0-1.27-.15-2.54-.15-3.82Z"/>
          <path d="m207.68,140.49c.02-.15.12-.21.22-.21.14,0,.27.09.28.26.01.52-.18,1.28.58,1.28.71,0,1.17-.58,1.29-1.7.11-1.1.13-2.14.07-3.26-.28.89-.78,1.89-1.55,1.89-.9,0-1.2-1.05-1.04-2.09.16-1.08.7-2.3,1.63-2.3.39,0,.75.28.9.63.09-.15.22-.25.34-.25.13,0,.22.1.22.35,0,1.62.18,3.46-.05,5.06-.18,1.18-.64,2.21-1.77,2.21-1.16,0-1.25-1-1.13-1.86Zm1.52-5.6c-.62,0-1,1.01-1.12,1.82-.12.76.08,1.48.45,1.49.68.02,1.17-1.52,1.3-2.41.01-.08-.21-.84-.54-.89-.04,0-.06-.01-.09-.01Z"/>
          <path d="m214.99,138.77c-.95,0-1.23-.96-1.24-1.81,0-.88.35-2.57,1.75-2.57.39,0,.74.17,1,.35.01-.07-.03-.25-.01-.3.04-.19.16-.27.28-.27.14,0,.28.1.29.3.13,1.51.06,2.46.25,3.97.02.25-.13.39-.27.39-.13,0-.25-.09-.26-.32l-.11-1.71c-.21.47-.77,1.97-1.68,1.97Zm0-.54c.41,0,1.2-1.46,1.53-2.42-.18-.46-.48-.85-1.01-.85-1,0-1.21,1.33-1.21,2.1,0,.4.19,1.17.7,1.17Z"/>
          <path d="m218.02,134.79c0-.25.21-.39.36-.39.09,0,.18.06.18.16.06,1.08.05,1.64.08,2.17.3-.93,1.21-2.28,1.96-2.33.2,0,.33.16.44.37.29.69.36,2.86.45,3.68.02.21-.13.33-.28.33-.15,0-.32-.12-.32-.33,0-.39-.12-3.13-.33-3.38-.02-.02-.05-.04-.07-.04-.08,0-.19.09-.35.25-.81.74-1.19,2.08-1.36,3.32-.01.13-.16.19-.3.19-.14,0-.29-.07-.29-.19,0-1.27-.15-2.54-.15-3.82Z"/>
          <path d="m225.76,138.73c-.95,0-1.23-.96-1.24-1.81,0-.88.35-2.57,1.75-2.57.39,0,.74.17,1,.35.01-.07-.03-.25-.01-.3.04-.19.16-.27.28-.27.14,0,.28.1.29.3.13,1.51.06,2.46.25,3.97.02.25-.13.39-.27.39-.13,0-.25-.09-.26-.32l-.11-1.71c-.21.47-.77,1.97-1.68,1.97Zm0-.54c.41,0,1.2-1.46,1.53-2.42-.18-.46-.48-.85-1.01-.85-1,0-1.21,1.33-1.21,2.1,0,.4.19,1.17.7,1.17Z"/>
          <path d="m234.17,139.03c-.14,0-.28-.12-.27-.41.04-.96.06-3.75-.37-3.83h-.04c-.49,0-1.2,1.76-1.43,3.43-.01.12-.1.17-.22.17-.16,0-.38-.12-.38-.29-.06-1.84-.33-3.22-.66-3.2-.34.02-1.07,1.3-1.14,1.62-.15.67-.13,1.35-.13,1.98,0,.13-.13.21-.25.21-.14,0-.28-.09-.28-.33,0-1.11-.11-2.43-.21-3.62-.02-.23.13-.33.27-.33.14,0,.28.09.28.23,0,.47.03.91.03,1.37.27-.77.81-1.7,1.47-1.7.76,0,1,1.53,1.07,2.11.21-.46.6-2.19,1.69-2.17,1.05.03.81,3.54.81,4.51,0,.15-.13.26-.26.26Z"/>
          <path d="m236.29,138.7c-.95,0-1.23-.96-1.24-1.81,0-.88.35-2.57,1.75-2.57.39,0,.74.17,1,.35.01-.07-.02-.25-.01-.3.04-.19.16-.27.28-.27.14,0,.28.1.29.3.13,1.51.06,2.46.25,3.97.03.25-.13.39-.27.39-.13,0-.25-.09-.26-.32l-.11-1.71c-.21.47-.77,1.97-1.68,1.97Zm0-.54c.41,0,1.2-1.46,1.53-2.42-.18-.46-.48-.85-1.01-.85-1,0-1.21,1.33-1.21,2.1,0,.4.19,1.17.7,1.17Z"/>
          <path d="m239.84,138.69c-.41,0-.39-.56-.18-.8.91-.99,2.08-2.49,2.42-3.03h-2.47c-.43,0-.32-.55-.07-.55.91,0,1.8.05,2.72,0,.73-.04.55.36.26.82-.65,1.03-1.71,2.19-2.3,3.01.05.02,2.25-.05,2.41-.03.39.04.41.55-.1.55-.9,0-1.78.03-2.68.03Z"/>
          <path d="m243.96,132.89c.18,0,.35.09.35.28.01.22-.17.34-.36.34-.16,0-.33-.09-.34-.32-.02-.2.16-.31.35-.31Zm.09,5.8c-.14,0-.26-.07-.26-.23.02-.55-.13-3-.11-3.94.01-.18.15-.25.29-.25.14,0,.27.07.27.17,0,1.08.08,2.96.1,3.98.01.16-.15.26-.29.26Z"/>
          <path d="m245.05,134.69c0-.25.21-.39.36-.39.09,0,.18.06.18.16.06,1.08.05,1.64.08,2.17.3-.93,1.21-2.28,1.96-2.33.2,0,.33.16.44.37.29.69.36,2.86.45,3.68.02.21-.13.33-.28.33-.15,0-.32-.12-.32-.33,0-.39-.12-3.13-.33-3.39-.02-.02-.05-.03-.07-.03-.08,0-.19.09-.35.25-.81.74-1.19,2.08-1.36,3.32-.01.13-.16.19-.3.19-.14,0-.29-.07-.29-.19,0-1.27-.15-2.54-.15-3.82Z"/>
          <path d="m249.39,140.34c.02-.15.12-.21.22-.21.14,0,.27.09.28.26.01.52-.18,1.28.58,1.28.71,0,1.17-.58,1.29-1.7.11-1.1.13-2.14.07-3.26-.28.89-.78,1.89-1.55,1.89-.9,0-1.2-1.05-1.04-2.09.16-1.08.7-2.3,1.63-2.3.39,0,.75.28.9.63.09-.15.22-.25.34-.25.13,0,.22.1.22.35,0,1.62.18,3.46-.05,5.06-.18,1.18-.64,2.21-1.77,2.21-1.16,0-1.25-1-1.13-1.86Zm1.52-5.6c-.62,0-1,1.01-1.12,1.82-.13.76.08,1.48.45,1.49.68.02,1.17-1.52,1.3-2.41.01-.08-.21-.84-.54-.89-.04,0-.06-.01-.09-.01Z"/>
          <path d="m256.02,142.15c-.13,0-.28-.08-.32-.25-.12-.67-.15-2.57-.16-3.29-.05-1.24-.1-2.93-.06-4.18,0-.16.13-.26.27-.26.16,0,.34.14.31.47-.08.8-.06,1.65,0,2.45.37-1.03,1.19-2.76,2.47-2.76.83,0,.8,1.12.62,1.72-.4,1.38-1.67,2.26-3.01,2.59-.09.87,0,2.82.11,3.29.02.15-.08.22-.22.22Zm.24-4.11c1.01-.26,1.96-1.03,2.32-2.01.07-.23.35-1.14-.11-1.16-.73-.02-1.78,1.47-2.21,3.17Z"/>
          <path d="m261.01,134.05c.64,0,.92.57.92,1.18,0,1.04-.84,1.43-1.64,1.48,0,.62,0,1.46.7,1.46.6,0,.89-.48,1.09-.88.06-.11.15-.15.25-.15.16,0,.33.14.27.33-.15.49-.88,1.26-1.57,1.26-1.31,0-1.27-1.34-1.27-2.25,0-.63.12-2.43,1.26-2.43Zm-.67,2.09c.69-.04,1.04-.29,1.04-.96,0-.23-.05-.56-.38-.56-.49,0-.66,1.07-.66,1.53Z"/>
          <path d="m263.25,134.24c.12,0,.23.1.25.32l.07.97c.27-.53.69-1.21,1.36-1.21.62,0,.93.41,1,.8.04.15-.14.33-.3.33-.08,0-.15-.05-.19-.15-.09-.26-.17-.42-.44-.42-.64,0-1.19,1.2-1.25,1.74-.01.16-.04.53,0,1.75,0,.13-.15.22-.29.22-.13,0-.26-.08-.26-.32.03-1.05-.22-3.37-.23-3.64-.01-.23.14-.39.28-.39Z"/>
          <path d="m268.93,136.27c.16,0,.3.06.42.19.35.41.11,1.32-.67,1.91-.27.2-.57.31-.91.31-.29,0-.61-.08-.92-.27-.2-.13-.07-.5.16-.5.05,0,.11.01.16.06.18.13.38.19.56.19.22,0,.45-.08.64-.21.35-.24.8-.96.52-1.07-.04-.01-.07-.02-.12-.02-.3,0-.82.3-1.14.34-.84.14-1.26-.63-1.24-1.43.02-.9.77-1.62,1.67-1.62.71,0,1.15.38,1.14.99-.01.16-.14.24-.25.24-.09,0-.19-.05-.2-.14-.07-.4-.24-.55-.65-.55-.68,0-1.19.47-1.21,1.08-.01.3.07.89.57.89.41.01.98-.38,1.44-.38Z"/>
          <path d="m271.73,134.17c.94,0,1.35.96,1.33,1.98-.02,1.16-.6,2.4-1.66,2.41-1,0-1.29-.87-1.29-1.75,0-1.12.28-2.63,1.62-2.63Zm-1.08,2.7c0,.38.1,1.12.66,1.12.79,0,1.2-1.04,1.2-1.95,0-.71-.26-1.33-.78-1.33-.97,0-1.08,1.48-1.08,2.16Z"/>
          <path d="m273.77,134.59c0-.25.21-.39.36-.39.09,0,.18.06.18.16.06,1.08.05,1.64.08,2.17.3-.93,1.21-2.28,1.96-2.33.2,0,.33.16.44.37.29.69.36,2.86.45,3.68.02.21-.13.33-.28.33-.15,0-.32-.12-.32-.33,0-.39-.12-3.13-.33-3.39-.02-.02-.05-.04-.07-.04-.08,0-.19.09-.35.25-.81.74-1.19,2.08-1.36,3.32-.01.13-.16.19-.3.19-.14,0-.29-.07-.29-.19,0-1.27-.15-2.54-.15-3.82Z"/>
          <path d="m278.3,137.96c.18,0,.35.09.35.28.01.22-.17.34-.36.34-.16,0-.33-.09-.34-.32-.02-.2.16-.3.35-.31Z"/>
        </g>
      </g>
      <g class="cls-6">
        <path class="cls-5" d="m151.18,273.94l-2.05,2.11c2.7-1.13,5.41-2.81,8.14-5.04s5.21-4.49,7.41-6.8,4.9-5.22,8.09-8.76c1.25-1.41,2.47-2.72,3.66-3.96s2.55-2.48,4.07-3.74,3.18-2.35,4.98-3.27,3.52-1.38,5.16-1.38c2.68,0,4.01.94,4.01,2.81,0,.41-.12.75-.35,1.03s-.54.41-.91.41c-.72,0-1.08-.32-1.08-.97,0-.41.13-.68.38-.82s.62-.21,1.08-.21c.2,0,.29-.04.29-.12,0-.41-.31-.8-.94-1.17s-1.44-.56-2.43-.56c-1.86,0-3.84.63-5.95,1.9s-4.2,2.87-6.27,4.8-3.9,3.81-5.49,5.62-2.69,3.07-3.3,3.75c-1.15,1.29-2.54,2.78-4.16,4.48s-3.33,3.34-5.11,4.92-3.72,3.06-5.79,4.44-4.21,2.46-6.42,3.24l-.18-.29c2.09-2.05,3.8-3.88,5.14-5.48s2.72-3.52,4.15-5.74l.85-1.32c2.15-3.36,4.05-6.02,5.71-7.97l.94-1.14c1.15-1.41,3.21-3.81,6.18-7.21-1.11.78-2.04,1.35-2.77,1.7s-1.65.53-2.74.53c-2.13,0-3.19-.76-3.19-2.29,0-.08.04-.35.13-.82s.13-.79.13-.97c0-.68-.33-1.22-1-1.6s-1.51-.57-2.55-.57c-1.54,0-2.95.23-4.23.69s-2.38,1.07-3.3,1.83-1.64,1.58-2.15,2.45-.78,1.71-.78,2.53c0,1.05.4,1.92,1.2,2.59s1.79,1.01,2.96,1.01c1.46,0,2.93-.44,4.39-1.32s2.75-1.92,3.87-3.13l.32.12c-1.15,1.5-2.5,2.67-4.06,3.5s-3.04,1.25-4.47,1.25c-1.33,0-2.43-.37-3.31-1.11s-1.32-1.67-1.32-2.78c0-1.41.53-2.73,1.58-3.97s2.42-2.23,4.1-2.96,3.33-1.1,4.95-1.1c2.13,0,3.48.47,4.06,1.42s.86,2.08.86,3.41c0,.53.1.89.31,1.08s.58.29,1.13.29c1.66,0,3.16-.45,4.5-1.35s2.61-2.02,3.82-3.37c.18-.2.34-.38.48-.54s.29-.33.44-.48.29-.27.42-.35.27-.12.41-.12c.25,0,.26.14.03.42s-.65.71-1.25,1.29-1.2,1.2-1.8,1.86c-.66.78-1.5,1.89-2.52,3.34s-1.84,2.7-2.46,3.75c-1.27,2.21-2.44,4.08-3.5,5.62s-2.2,3.06-3.4,4.56-2.36,2.85-3.49,4.06-3.01,3.18-5.67,5.92Z"/>
        <path class="cls-5" d="m182.74,268.55l-1.49,1.26c-2.34,1.95-4.08,3.33-5.2,4.13s-2.11,1.2-2.97,1.2c-.57,0-.85-.32-.85-.97,0-.68.26-1.64.79-2.87-2.79,2.56-4.85,3.84-6.18,3.84-.59,0-1.06-.23-1.44-.69s-.56-1.13-.56-2.01c0-1,.29-1.98.88-2.94s1.37-1.82,2.36-2.56,2.09-1.33,3.31-1.76,2.41-.64,3.56-.64c.57,0,.98.1,1.25.31s.41.54.42,1.01c-.02.1-.03.19-.04.28s-.03.21-.06.37-.05.28-.07.38l1.85-2.17,2.46-.18-.76.94c-.62.74-1.13,1.35-1.52,1.83s-.72.87-1,1.19c-3.05,3.3-4.57,5.23-4.57,5.8,0,.29.14.44.41.44.37,0,.93-.22,1.67-.66s1.58-1.02,2.5-1.74,1.99-1.58,3.18-2.56,1.88-1.56,2.08-1.71v.5Zm-7.73-3.6c-1.17,0-2.48.58-3.91,1.73s-2.69,2.46-3.75,3.93-1.6,2.5-1.6,3.11c0,.29.1.54.29.73s.44.29.73.29c.8,0,1.95-.56,3.46-1.67s2.86-2.37,4.07-3.78,1.82-2.51,1.82-3.31c0-.68-.37-1.03-1.11-1.03Z"/>
        <path class="cls-5" d="m200.4,250.86l1.46-1.58h2.26l-18.46,20.65c-2.21,2.42-3.31,3.84-3.31,4.25,0,.37.2.56.59.56.68,0,1.46-.29,2.34-.86s2.07-1.54,3.56-2.89,2.59-2.32,3.3-2.93v.5c-2.66,2.44-4.6,4.15-5.83,5.13s-2.35,1.46-3.37,1.46c-.35,0-.65-.13-.89-.4s-.37-.57-.37-.92c0-1,.49-2.16,1.46-3.49s2.29-2.88,3.96-4.66c.12-.16.47-.57,1.05-1.25s1.15-1.34,1.7-2.01c-1.35,1.02-3.95,3.23-7.79,6.65v-.47l8.32-7.21c1.02-.86,4.36-4.38,10.02-10.55Z"/>
        <path class="cls-5" d="m203.95,267.94v.5c-2.19,2.19-4.19,3.85-6.01,5s-3.65,1.71-5.51,1.71c-1.64,0-2.46-.94-2.46-2.81,0-1.56.59-2.93,1.77-4.12s2.57-2.09,4.16-2.72,2.89-.95,3.88-.95c.57,0,1.01.13,1.33.4s.48.61.48,1.04c0,.66-.36,1.27-1.08,1.83s-1.73,1.02-3.02,1.38-2.8.57-4.54.63c-1.48,1.68-2.23,2.96-2.23,3.84,0,.31.16.57.48.78s.73.31,1.22.31c3.14,0,6.98-2.27,11.51-6.8Zm-10.4,1.32c1.62,0,2.99-.21,4.1-.62s1.96-.9,2.53-1.46.86-1.03.86-1.38c0-.57-.33-.85-1-.85-.88,0-1.9.39-3.08,1.16s-2.31,1.82-3.43,3.15Z"/>
        <path class="cls-5" d="m203.19,269.14v-.47c2.97-2.75,5.05-4.13,6.24-4.13.66,0,1,.42,1,1.26,0,.66-.21,1.32-.62,1.96s-1.24,1.77-2.49,3.37c2.42-2.01,4.52-3.61,6.3-4.8s3.3-1.79,4.57-1.79c.66,0,1,.46,1,1.38s-.31,1.79-.94,2.68-1.65,1.85-3.08,2.89c-1.52,1.15-2.29,1.97-2.29,2.46,0,.2.09.38.28.54s.38.25.57.25c.68,0,1.59-.38,2.71-1.13s2.35-1.71,3.68-2.87,2.4-2.09,3.22-2.8v.5c-1.19,1.11-2.35,2.15-3.49,3.12s-2.26,1.81-3.38,2.52-2.06,1.07-2.8,1.07c-.47,0-.81-.16-1.01-.47s-.31-.63-.31-.97c0-.74.29-1.58.88-2.5s1.4-1.83,2.43-2.71c1.19-1.05,2.02-1.9,2.48-2.53s.33-.95-.4-.95c-.92,0-2.3.62-4.16,1.86s-3.59,2.55-5.21,3.93-3.15,2.73-4.6,4.06h-2.29l3.9-4.39c2.85-3.18,4.28-4.92,4.28-5.21,0-.2-.12-.29-.35-.29-.86,0-2.9,1.4-6.12,4.19Z"/>
        <path class="cls-5" d="m232.66,260.44l4.86-5.51h2.52l-4.86,5.51h3.72l-.32.5h-3.78l-7.12,8.09c-.78.86-1.65,1.89-2.59,3.11s-1.42,1.88-1.42,1.99c0,.41.21.62.64.62,1.6,0,5.04-2.27,10.31-6.8v.5l-1.55,1.38c-4.04,3.55-6.98,5.33-8.82,5.33-.45,0-.8-.13-1.05-.38s-.38-.55-.38-.88c0-.78.55-2.08,1.66-3.9s3.27-4.34,6.49-7.56c-1.99,1.33-4.77,3.56-8.32,6.71v-.47c1.19-1.13,2.67-2.42,4.42-3.85s3.48-2.73,5.16-3.88h-2.14l.41-.5h2.17Z"/>
        <path class="cls-5" d="m233.98,269.08l-.06-.47c1.48-1.35,3.22-2.63,5.21-3.84h2.64l-6.91,7.73c-.49.55-.8,1.05-.94,1.52s-.02.7.35.7c.98,0,2.43-.72,4.37-2.17s3.72-2.97,5.36-4.57v.5c-1.89,1.82-3.72,3.38-5.48,4.69s-3.19,1.96-4.31,1.96c-.64,0-.97-.34-.97-1.03,0-2.03,1.58-4.63,4.75-7.79.18-.18.34-.35.48-.51s.29-.32.42-.45c-1.76,1.05-3.4,2.29-4.92,3.72Zm10.14-10.49c.43,0,.64.26.64.79,0,.31-.09.57-.26.76s-.4.29-.67.29c-.53,0-.79-.23-.79-.7,0-.27.11-.53.32-.78s.47-.37.76-.37Z"/>
        <path class="cls-5" d="m243.21,269.14v-.47c2.97-2.75,5.05-4.13,6.24-4.13.66,0,1,.42,1,1.26,0,.66-.21,1.32-.62,1.96s-1.24,1.77-2.49,3.37c2.42-2.01,4.52-3.61,6.3-4.8s3.3-1.79,4.57-1.79c.66,0,1,.46,1,1.38s-.31,1.79-.94,2.68-1.65,1.85-3.08,2.89c-1.52,1.15-2.29,1.97-2.29,2.46,0,.2.09.38.28.54s.38.25.57.25c.68,0,1.59-.38,2.71-1.13s2.35-1.71,3.68-2.87,2.4-2.09,3.22-2.8v.5c-1.19,1.11-2.35,2.15-3.49,3.12s-2.26,1.81-3.38,2.52-2.06,1.07-2.8,1.07c-.47,0-.81-.16-1.01-.47s-.31-.63-.31-.97c0-.74.29-1.58.88-2.5s1.4-1.83,2.43-2.71c1.19-1.05,2.02-1.9,2.48-2.53s.33-.95-.4-.95c-.92,0-2.3.62-4.16,1.86s-3.59,2.55-5.21,3.93-3.15,2.73-4.6,4.06h-2.29l3.9-4.39c2.85-3.18,4.28-4.92,4.28-5.21,0-.2-.12-.29-.35-.29-.86,0-2.9,1.4-6.12,4.19Z"/>
        <path class="cls-5" d="m275.84,267.94v.5c-1.09,1.31-2.31,1.96-3.66,1.96l-.41-.06c-.14-.02-.29-.04-.47-.06-3.12,3.24-5.83,4.86-8.12,4.86-.43,0-.83-.11-1.19-.34s-.63-.52-.82-.89-.28-.8-.28-1.29c0-1.31.58-2.59,1.73-3.84s2.54-2.27,4.17-3.06,3.06-1.19,4.29-1.19c1.33,0,1.99.62,1.99,1.85,0,1-.48,2.16-1.44,3.49.2.08.41.12.64.12,1.23,0,2.41-.68,3.54-2.05Zm-4.66-2.99c-1.09,0-2.35.62-3.76,1.86s-2.69,2.6-3.81,4.09-1.68,2.4-1.68,2.75c0,.31.14.57.42.78s.64.31,1.07.31c1.04,0,2.28-.51,3.74-1.54s2.74-2.24,3.85-3.63,1.67-2.5,1.67-3.3c0-.39-.14-.71-.42-.95s-.64-.37-1.07-.37Z"/>
      </g>
    </g>
  </g>
</svg>