<?xml version="1.0" encoding="UTF-8"?>
<svg id="Layer_2" data-name="Layer 2" xmlns="http://www.w3.org/2000/svg" viewBox="0 0 390 364.67">
  <defs>
    <style>
      .cls-1 {
        fill: #b42e2d;
      }
    </style>
  </defs>
  <g id="Layer_1-2" data-name="Layer 1">
    <g>
      <path class="cls-1" d="m340.75,26.38c-.44.05-.85.33-1.21.82-.37.47-.89,1.37-1.58,2.71-2.15,4.09-3.61,7.76-4.39,11.02-1.01,4.14-1.47,6.55-1.38,7.25.04.35.21.66.5.93.32.34.72.48,1.19.42.79-.1,1.3-.75,1.53-1.96.52-2.73,1.17-5.41,1.96-8.03.73-2.54,2.07-5.84,4.03-9.88.56-1.06.81-1.8.76-2.22-.03-.26-.16-.5-.37-.73-.29-.27-.64-.38-1.03-.33Z"/>
      <path class="cls-1" d="m350.22,102.95c-1.23.15-2.54.84-3.93,2.07-2.36,2.11-4.3,4.9-5.81,8.36-1.62,3.74-2.25,7.1-1.88,10.08.11.88.36,1.62.77,2.21.78,1.18,1.85,1.69,3.2,1.52,2.91-.36,5.61-3.29,8.1-8.82,2.28-5.1,3.23-9.19,2.85-12.29-.28-2.33-1.38-3.37-3.29-3.14Zm-2.02,13.63s-.09.42-.35,1.21c-.26.79-.62,1.56-1.1,2.33-1.07,1.83-2.17,2.82-3.29,2.95-.47.06-.87-.11-1.23-.49-.25-.28-.39-.61-.44-1.01-.18-1.49.16-3.43,1.02-5.83.74-2.1,1.92-4.19,3.55-6.28,1.27-1.62,2.27-2.47,3.02-2.56.4-.05.71.09.94.42.14.17.22.35.24.54.18,1.44-.64,3.47-2.44,6.07-.64.93-.95,1.49-.93,1.67.03.26.37.58,1,.98Z"/>
      <path class="cls-1" d="m380.85,100.83c-.44.05-.85.33-1.21.82-.37.47-.9,1.37-1.58,2.71-2.15,4.09-3.61,7.76-4.39,11.02-1.01,4.14-1.47,6.55-1.38,7.25.04.35.21.66.5.93.32.34.72.48,1.19.42.79-.1,1.3-.75,1.53-1.96.52-2.73,1.17-5.41,1.96-8.03.73-2.54,2.07-5.84,4.03-9.88.56-1.06.81-1.8.76-2.22-.03-.26-.16-.5-.37-.73-.29-.27-.64-.38-1.03-.33Z"/>
      <path class="cls-1" d="m313.69,91.48c.05.37.2.68.47.93.43.44.92.63,1.45.57.47-.06,1.1-.29,1.9-.69,3.84-1.6,8.04-3.05,12.61-4.34l-.76,1.62c-2.71,5.83-4.42,9.55-5.12,11.15-1.76,3.92-3.62,8.71-5.58,14.35-3.06,8.78-4.46,14.24-4.2,16.38.07.54.29,1.03.68,1.48.58.68,1.23.98,1.95.89.79-.1,1.26-.9,1.41-2.4.83-5.01,2.4-10.82,4.7-17.43,3.02-8.7,6.35-16.56,9.97-23.57.61-1.18.89-2.03.82-2.54-.06-.49-.39-.81-1-.98,2.01-.76,5.8-1.58,11.39-2.46,2.81-.41,4.9-.78,6.28-1.09,1.58-.38,2.31-1.12,2.17-2.21-.08-.65-.46-1.05-1.14-1.21-.73-.17-2.12-.13-4.17.12-6.05.74-12.28,2.1-18.7,4.09-5.11,1.62-9.53,3.24-13.25,4.88-1.39.64-2.02,1.46-1.89,2.46Z"/>
      <path class="cls-1" d="m311.2,292.06c-1.08,1.41-1.55,2.67-1.41,3.79.05.44.24.8.56,1.07.32.29.7.41,1.14.36.91-.11,1.78-.8,2.62-2.06.88-1.31,1.26-2.46,1.14-3.43-.13-1.07-.72-1.54-1.77-1.41-.72.09-1.48.65-2.27,1.69Z"/>
      <path class="cls-1" d="m345.8,12.62c-.72.09-1.48.65-2.27,1.69-1.08,1.41-1.55,2.67-1.41,3.79.05.44.24.8.56,1.07.32.29.7.41,1.14.36.91-.11,1.78-.8,2.62-2.06.88-1.31,1.26-2.46,1.14-3.43-.13-1.07-.72-1.54-1.77-1.41Z"/>
      <path class="cls-1" d="m295.2,310.95c-1.4.5-2.17.8-2.3.88-.52.37-.75.85-.68,1.43.11.86.65,1.23,1.62,1.11.72-.09,1.59-.4,2.61-.92,1.86-.98,3.21-2.14,4.04-3.47.87-1.4,1.22-2.79,1.05-4.17-.13-1.05-.58-1.78-1.37-2.21-.78-.42-1.9-.55-3.34-.37-2.75.34-5.25,1.51-7.5,3.54-2.32,2.1-3.33,4.32-3.05,6.64.21,1.74,1.22,3.59,3.02,5.55,1.31,1.42,2.02,2.62,2.14,3.6.1.79-.03,1.47-.39,2.03-.44.67-1.11,1.06-2.02,1.17-.93.11-1.8-.13-2.61-.74-.91-.69-1.44-1.61-1.58-2.75-.16-1.35-.04-2.56.37-3.62.16-.4.23-.69.21-.88-.06-.47-.38-.66-.96-.59-.65.08-1.23.56-1.74,1.45-.78,1.35-1.06,2.93-.84,4.74.19,1.56.76,2.86,1.72,3.9,1.36,1.46,3.16,2.06,5.39,1.79,1.42-.17,2.64-.69,3.67-1.55,1.67-1.39,2.38-3.1,2.13-5.15-.17-1.37-1.06-2.96-2.67-4.77-1.45-1.66-2.26-3.1-2.4-4.31-.21-1.7.56-3.28,2.29-4.74,1.5-1.29,2.92-2.02,4.27-2.19.56-.07.99,0,1.3.2.31.2.49.54.55,1.03.08.63-.17,1.25-.73,1.86-.64.72-1.39,1.22-2.22,1.51Z"/>
      <path class="cls-1" d="m372.6,100.32c-.78-.42-1.9-.55-3.34-.37-2.75.34-5.25,1.52-7.5,3.54-2.32,2.1-3.33,4.32-3.05,6.64.21,1.74,1.22,3.59,3.02,5.55,1.31,1.42,2.02,2.62,2.14,3.6.1.79-.03,1.47-.39,2.03-.44.67-1.11,1.06-2.02,1.17-.93.11-1.8-.13-2.61-.74-.91-.69-1.44-1.61-1.58-2.75-.17-1.35-.04-2.56.37-3.62.16-.4.23-.69.21-.88-.06-.46-.38-.66-.96-.59-.65.08-1.23.56-1.73,1.45-.78,1.35-1.06,2.93-.84,4.74.19,1.56.76,2.86,1.72,3.9,1.36,1.46,3.16,2.06,5.39,1.79,1.42-.17,2.64-.69,3.67-1.55,1.67-1.39,2.38-3.1,2.13-5.15-.17-1.37-1.06-2.96-2.67-4.77-1.46-1.66-2.26-3.1-2.4-4.31-.21-1.7.56-3.28,2.29-4.74,1.49-1.29,2.92-2.02,4.27-2.19.56-.07.99,0,1.3.2.31.2.49.54.55,1.03.08.63-.17,1.25-.73,1.86-.64.72-1.39,1.22-2.22,1.51-1.4.5-2.17.8-2.3.88-.52.37-.75.85-.68,1.43.1.86.65,1.23,1.62,1.11.72-.09,1.59-.39,2.61-.92,1.86-.98,3.21-2.14,4.04-3.47.87-1.4,1.22-2.79,1.05-4.17-.13-1.05-.58-1.78-1.37-2.21Z"/>
      <path class="cls-1" d="m268.17,114.61c-.44.05-.85.33-1.21.82-.37.47-.89,1.37-1.58,2.71-2.15,4.09-3.61,7.76-4.39,11.02-1,4.14-1.47,6.55-1.38,7.25.04.35.21.66.5.93.32.34.72.48,1.19.42.79-.1,1.3-.75,1.53-1.96.52-2.73,1.17-5.41,1.96-8.03.73-2.54,2.07-5.84,4.03-9.88.56-1.06.81-1.8.76-2.22-.03-.26-.16-.5-.37-.73-.29-.27-.64-.38-1.03-.33Z"/>
      <path class="cls-1" d="m278.24,286.64c1.58-.38,2.31-1.12,2.17-2.21-.08-.65-.46-1.05-1.14-1.21-.73-.17-2.12-.13-4.16.12-6.05.74-12.28,2.1-18.7,4.09-5.11,1.62-9.53,3.24-13.25,4.88-1.39.64-2.02,1.46-1.89,2.46.05.37.2.68.47.93.43.44.92.63,1.45.57.47-.06,1.1-.29,1.9-.69,3.84-1.6,8.04-3.05,12.61-4.34l-.76,1.62c-2.71,5.83-4.42,9.55-5.12,11.15-1.76,3.92-3.62,8.71-5.58,14.35-3.06,8.78-4.46,14.24-4.2,16.38.07.54.29,1.03.68,1.48.58.68,1.23.98,1.95.89.79-.1,1.26-.9,1.41-2.4.83-5.01,2.4-10.82,4.7-17.43,3.02-8.7,6.35-16.56,9.98-23.57.61-1.18.88-2.03.82-2.54-.06-.49-.39-.81-1-.98,2.01-.76,5.8-1.58,11.39-2.45,2.81-.41,4.9-.78,6.28-1.09Z"/>
      <path class="cls-1" d="m383.62,88.77c-1.08,1.41-1.55,2.67-1.41,3.79.05.44.24.8.56,1.07.32.29.7.41,1.14.36.91-.11,1.78-.8,2.62-2.06.88-1.31,1.26-2.46,1.14-3.43-.13-1.07-.72-1.54-1.77-1.41-.72.09-1.48.65-2.27,1.69Z"/>
      <path class="cls-1" d="m267.71,217.6c-1.4.5-2.17.8-2.3.88-.52.37-.75.85-.68,1.43.1.86.65,1.23,1.62,1.11.72-.09,1.59-.39,2.61-.92,1.86-.98,3.21-2.14,4.04-3.47.87-1.4,1.22-2.79,1.05-4.17-.13-1.05-.58-1.78-1.37-2.21-.78-.42-1.9-.55-3.34-.37-2.75.34-5.25,1.52-7.5,3.54-2.32,2.1-3.33,4.32-3.05,6.64.21,1.75,1.22,3.59,3.02,5.55,1.31,1.42,2.02,2.62,2.14,3.6.1.79-.03,1.47-.39,2.03-.44.67-1.11,1.06-2.02,1.17-.93.11-1.8-.13-2.61-.74-.91-.69-1.44-1.61-1.58-2.75-.17-1.35-.04-2.56.37-3.62.16-.4.23-.69.21-.88-.06-.47-.38-.66-.96-.59-.65.08-1.23.56-1.73,1.45-.78,1.35-1.06,2.93-.84,4.74.19,1.56.76,2.86,1.72,3.9,1.36,1.46,3.16,2.06,5.39,1.78,1.42-.17,2.64-.69,3.67-1.55,1.67-1.38,2.38-3.1,2.13-5.15-.17-1.37-1.06-2.96-2.67-4.77-1.46-1.66-2.26-3.1-2.4-4.31-.21-1.7.56-3.28,2.29-4.74,1.49-1.29,2.92-2.02,4.27-2.19.56-.07.99,0,1.3.2.31.2.49.54.55,1.03.08.63-.17,1.25-.73,1.86-.64.72-1.39,1.22-2.22,1.51Z"/>
      <path class="cls-1" d="m282.85,203.56c.32.29.7.41,1.14.36.91-.11,1.78-.8,2.62-2.06.88-1.31,1.26-2.46,1.14-3.43-.13-1.07-.72-1.54-1.77-1.41-.72.09-1.48.65-2.27,1.69-1.08,1.41-1.55,2.67-1.41,3.79.05.44.24.8.56,1.07Z"/>
      <path class="cls-1" d="m311.59,5.47c-.73-.17-2.12-.13-4.17.12-6.05.74-12.28,2.1-18.7,4.09-5.11,1.62-9.53,3.24-13.25,4.88-1.39.64-2.02,1.46-1.89,2.46.05.37.2.68.47.93.43.44.92.63,1.45.57.47-.06,1.1-.29,1.9-.69,3.84-1.6,8.04-3.05,12.61-4.34l-.76,1.62c-2.71,5.83-4.42,9.55-5.12,11.15-1.76,3.92-3.62,8.71-5.58,14.35-3.06,8.78-4.46,14.24-4.2,16.38.07.54.29,1.03.68,1.48.58.69,1.23.98,1.95.9.79-.1,1.26-.9,1.41-2.4.83-5.01,2.4-10.82,4.7-17.43,3.02-8.7,6.35-16.56,9.97-23.57.61-1.18.89-2.03.82-2.54-.06-.49-.39-.81-1-.98,2.01-.76,5.8-1.58,11.39-2.46,2.81-.41,4.9-.78,6.28-1.09,1.58-.38,2.31-1.12,2.17-2.21-.08-.65-.46-1.05-1.14-1.21Z"/>
      <path class="cls-1" d="m369.09,273.65c-5.12,1.62-9.53,3.24-13.25,4.88-1.39.64-2.02,1.46-1.9,2.46.05.37.2.68.47.93.43.44.92.63,1.45.57.47-.06,1.1-.29,1.9-.69,3.84-1.6,8.04-3.05,12.61-4.34l-.76,1.62c-2.71,5.83-4.42,9.55-5.12,11.15-1.76,3.92-3.62,8.71-5.58,14.35-3.06,8.78-4.46,14.24-4.2,16.38.07.54.29,1.03.68,1.48.58.68,1.23.98,1.95.9.79-.1,1.26-.9,1.41-2.4.83-5.01,2.4-10.82,4.7-17.43,3.02-8.7,6.35-16.56,9.98-23.57.61-1.18.88-2.03.82-2.54-.06-.49-.4-.81-1-.97,2.01-.76,5.8-1.58,11.39-2.46,2.25-.33,4.03-.63,5.36-.89v-3.69c-.62.03-1.36.1-2.21.2-6.05.74-12.28,2.1-18.7,4.09Z"/>
      <path class="cls-1" d="m270.94,102.55c-1.08,1.41-1.55,2.67-1.41,3.79.05.44.24.8.56,1.07.32.29.7.41,1.14.36.91-.11,1.78-.8,2.62-2.06.88-1.31,1.26-2.46,1.14-3.43-.13-1.07-.72-1.54-1.77-1.41-.72.09-1.48.65-2.27,1.69Z"/>
      <path class="cls-1" d="m327.47,304.31c-.12-1-.64-1.45-1.54-1.33-1.65.2-4.62,2.97-8.9,8.31-.25.31-.5.63-.77.94.46-1.24,1.1-2.62,1.9-4.16.56-1.04.81-1.81.74-2.32-.05-.42-.26-.77-.62-1.06-.31-.25-.62-.35-.92-.31-.63.08-1.31.81-2.03,2.2-.72,1.41-1.68,3.65-2.86,6.73-2.21,5.68-3.24,9.14-3.08,10.4.06.51.28.91.64,1.2.29.25.63.35,1.03.3.79-.1,1.46-.8,2.01-2.12,2.09-5.47,4.6-9.42,7.51-11.83-1.91,4.11-2.67,7.73-2.28,10.87.2,1.63.68,2.97,1.45,4.04.8,1.13,1.68,1.64,2.63,1.52.42-.05.76-.26,1.02-.62.25-.29.35-.57.32-.85-.04-.3-.25-.7-.64-1.2-.84-1.08-1.34-2.26-1.5-3.54-.48-3.96,1.18-8.8,4.99-14.53.7-1.05,1-1.93.92-2.63Z"/>
      <path class="cls-1" d="m299.98,210.96c-.12-1-.64-1.45-1.54-1.33-1.65.2-4.62,2.97-8.9,8.31-.24.31-.5.63-.77.94.46-1.24,1.1-2.62,1.9-4.16.56-1.04.81-1.81.74-2.32-.05-.42-.26-.77-.62-1.06-.31-.25-.62-.35-.92-.31-.63.08-1.31.81-2.03,2.2-.72,1.41-1.68,3.65-2.86,6.72-2.21,5.68-3.24,9.14-3.08,10.4.06.51.28.91.64,1.2.29.25.63.35,1.03.3.79-.1,1.46-.8,2.01-2.12,2.09-5.47,4.6-9.42,7.51-11.83-1.91,4.11-2.67,7.73-2.28,10.87.2,1.63.68,2.98,1.45,4.04.8,1.13,1.68,1.64,2.63,1.52.42-.05.76-.26,1.02-.62.25-.29.35-.57.32-.85-.04-.3-.25-.7-.64-1.2-.84-1.08-1.34-2.26-1.49-3.54-.48-3.96,1.18-8.8,4.99-14.53.7-1.05,1-1.93.92-2.63Z"/>
      <path class="cls-1" d="m310.12,28.49c-1.23.15-2.54.84-3.93,2.07-2.36,2.11-4.3,4.9-5.81,8.36-1.62,3.74-2.25,7.1-1.88,10.08.11.89.36,1.62.77,2.21.78,1.18,1.85,1.69,3.2,1.52,2.91-.36,5.61-3.29,8.1-8.82,2.28-5.1,3.23-9.19,2.85-12.28-.28-2.33-1.38-3.37-3.29-3.14Zm-2.02,13.63s-.09.42-.35,1.21c-.26.79-.62,1.56-1.1,2.33-1.07,1.83-2.17,2.82-3.29,2.95-.47.06-.87-.11-1.23-.49-.25-.28-.39-.61-.44-1.01-.18-1.49.16-3.43,1.02-5.83.74-2.1,1.92-4.19,3.55-6.28,1.27-1.62,2.27-2.47,3.02-2.56.4-.05.71.09.94.42.14.17.22.35.24.54.18,1.44-.64,3.47-2.44,6.07-.64.93-.95,1.49-.93,1.67.03.26.37.58,1,.98Z"/>
      <path class="cls-1" d="m278.02,132.6c.2,1.63.68,2.98,1.45,4.04.8,1.13,1.68,1.64,2.63,1.52.42-.05.76-.26,1.02-.62.25-.29.35-.57.32-.85-.04-.3-.25-.7-.64-1.2-.84-1.08-1.34-2.26-1.5-3.54-.48-3.96,1.18-8.8,4.99-14.53.7-1.05,1-1.93.92-2.63-.12-1-.64-1.44-1.54-1.33-1.65.2-4.62,2.97-8.9,8.31-.25.31-.5.63-.77.94.46-1.24,1.1-2.63,1.9-4.16.56-1.04.81-1.81.74-2.32-.05-.42-.26-.77-.62-1.06-.31-.25-.62-.35-.92-.31-.63.08-1.31.81-2.03,2.2-.72,1.41-1.68,3.65-2.86,6.73-2.21,5.68-3.24,9.14-3.08,10.4.06.51.28.91.64,1.2.29.25.63.35,1.03.3.79-.1,1.46-.8,2.01-2.12,2.09-5.47,4.6-9.42,7.51-11.83-1.91,4.11-2.67,7.73-2.28,10.87Z"/>
      <path class="cls-1" d="m363.43,179.51c1.58-.38,2.31-1.12,2.17-2.21-.08-.65-.46-1.05-1.14-1.21-.73-.17-2.12-.13-4.16.12-6.05.74-12.28,2.1-18.7,4.09-5.11,1.62-9.53,3.24-13.25,4.88-1.39.64-2.02,1.46-1.89,2.46.05.37.2.68.47.93.43.44.92.63,1.45.57.47-.06,1.1-.29,1.9-.69,3.84-1.6,8.04-3.05,12.61-4.34l-.76,1.62c-2.71,5.83-4.42,9.55-5.12,11.15-1.76,3.92-3.62,8.71-5.58,14.35-3.06,8.78-4.46,14.24-4.2,16.38.07.54.29,1.03.68,1.48.58.69,1.23.98,1.95.9.79-.1,1.26-.9,1.41-2.4.83-5.01,2.4-10.82,4.7-17.43,3.02-8.7,6.35-16.56,9.98-23.57.61-1.18.88-2.03.82-2.54-.06-.49-.39-.81-1-.98,2.01-.76,5.8-1.58,11.39-2.46,2.81-.41,4.9-.78,6.28-1.09Z"/>
      <path class="cls-1" d="m387.04,43.21c.07.54.29,1.03.68,1.48.58.68,1.23.98,1.95.89.12-.01.22-.05.33-.09v-15c-2.19,6.65-3.18,10.9-2.96,12.72Z"/>
      <path class="cls-1" d="m165.56,300.42c1.58-.38,2.31-1.12,2.17-2.21-.08-.65-.46-1.05-1.14-1.21-.73-.17-2.12-.13-4.16.12-6.05.74-12.28,2.1-18.7,4.09-5.12,1.62-9.53,3.24-13.25,4.88-1.39.64-2.02,1.46-1.9,2.46.05.37.2.68.47.93.43.44.92.63,1.45.57.47-.06,1.1-.29,1.9-.69,3.84-1.6,8.04-3.05,12.61-4.34l-.76,1.62c-2.71,5.83-4.42,9.55-5.12,11.15-1.76,3.92-3.62,8.71-5.58,14.35-3.06,8.78-4.46,14.24-4.2,16.38.07.54.29,1.03.68,1.48.58.68,1.23.98,1.95.89.79-.1,1.26-.9,1.41-2.4.83-5.01,2.4-10.82,4.7-17.43,3.02-8.7,6.35-16.56,9.98-23.57.61-1.18.88-2.03.82-2.54-.06-.49-.39-.81-1-.98,2.01-.76,5.8-1.58,11.39-2.46,2.81-.41,4.9-.78,6.28-1.09Z"/>
      <path class="cls-1" d="m182.52,324.73c-1.4.5-2.17.8-2.3.88-.52.37-.75.85-.68,1.43.1.86.65,1.23,1.62,1.11.72-.09,1.59-.39,2.61-.92,1.86-.98,3.21-2.14,4.04-3.47.87-1.4,1.22-2.79,1.05-4.17-.13-1.05-.58-1.78-1.37-2.21-.78-.42-1.9-.55-3.34-.37-2.75.34-5.25,1.52-7.5,3.54-2.32,2.1-3.33,4.32-3.05,6.64.21,1.74,1.22,3.59,3.02,5.55,1.31,1.42,2.02,2.62,2.14,3.6.1.79-.03,1.47-.39,2.03-.44.67-1.11,1.06-2.02,1.17-.93.11-1.8-.13-2.61-.74-.91-.69-1.44-1.61-1.58-2.75-.17-1.35-.04-2.56.37-3.62.16-.4.23-.69.21-.88-.06-.46-.38-.66-.96-.59-.65.08-1.23.56-1.73,1.45-.78,1.35-1.06,2.93-.84,4.74.19,1.56.76,2.86,1.72,3.9,1.36,1.46,3.16,2.06,5.39,1.78,1.42-.17,2.64-.69,3.67-1.55,1.67-1.39,2.38-3.1,2.13-5.15-.17-1.37-1.06-2.96-2.67-4.77-1.46-1.66-2.26-3.1-2.4-4.31-.21-1.7.56-3.28,2.29-4.74,1.49-1.29,2.92-2.02,4.27-2.19.56-.07.99,0,1.3.2.31.2.49.54.55,1.03.08.63-.17,1.25-.73,1.86-.64.72-1.39,1.22-2.22,1.51Z"/>
      <path class="cls-1" d="m8.38,58.8c.88-1.31,1.26-2.46,1.14-3.43-.13-1.07-.72-1.54-1.77-1.41-.72.09-1.48.65-2.27,1.69-1.08,1.41-1.55,2.67-1.41,3.79.05.44.24.8.56,1.07.32.29.7.41,1.14.36.91-.11,1.78-.8,2.62-2.06Z"/>
      <path class="cls-1" d="m214.79,318.09c-.12-1-.64-1.44-1.54-1.33-1.65.2-4.62,2.97-8.9,8.31-.25.31-.5.63-.77.94.46-1.24,1.1-2.62,1.9-4.16.56-1.04.81-1.81.74-2.32-.05-.42-.26-.77-.63-1.06-.31-.25-.62-.35-.92-.31-.63.08-1.31.81-2.03,2.2-.72,1.41-1.68,3.65-2.86,6.73-2.21,5.68-3.24,9.14-3.08,10.4.06.51.28.91.64,1.2.29.25.63.35,1.03.3.79-.1,1.46-.8,2.01-2.12,2.09-5.47,4.6-9.42,7.51-11.83-1.91,4.11-2.67,7.73-2.28,10.87.2,1.63.68,2.97,1.45,4.04.8,1.13,1.68,1.64,2.63,1.52.42-.05.76-.26,1.02-.62.25-.29.35-.57.32-.85-.04-.3-.25-.7-.64-1.2-.84-1.08-1.34-2.26-1.49-3.54-.48-3.95,1.18-8.8,4.99-14.53.7-1.05,1-1.93.92-2.63Z"/>
      <path class="cls-1" d="m16.64,91.26c.42-.05.76-.26,1.02-.62.25-.29.35-.57.32-.85-.04-.3-.25-.7-.64-1.2-.84-1.08-1.34-2.26-1.5-3.54-.48-3.96,1.18-8.8,4.99-14.53.7-1.05,1-1.93.92-2.63-.12-1-.64-1.44-1.54-1.33-1.65.2-4.62,2.97-8.9,8.31-.25.31-.5.63-.77.94.46-1.24,1.1-2.62,1.9-4.16.56-1.04.81-1.81.74-2.32-.05-.42-.26-.77-.62-1.06-.31-.25-.62-.35-.92-.31-.63.08-1.31.81-2.03,2.2-.73,1.41-1.68,3.65-2.86,6.73-2.21,5.68-3.24,9.14-3.08,10.4.06.51.28.91.64,1.2.29.25.63.35,1.03.3.79-.1,1.46-.8,2.01-2.12,2.09-5.47,4.6-9.42,7.51-11.83-1.91,4.11-2.67,7.73-2.28,10.87.2,1.63.68,2.98,1.45,4.04.8,1.13,1.68,1.64,2.63,1.52Z"/>
      <path class="cls-1" d="m1.32,167c.78,1.18,1.85,1.69,3.2,1.52,2.91-.36,5.61-3.29,8.1-8.82,2.28-5.1,3.23-9.19,2.85-12.29-.28-2.33-1.38-3.37-3.29-3.14-1.23.15-2.54.84-3.93,2.07-2.36,2.11-4.3,4.9-5.81,8.36-1.62,3.74-2.25,7.1-1.88,10.08.11.88.36,1.62.77,2.21Zm3.46-9.92c.74-2.1,1.92-4.19,3.55-6.28,1.27-1.62,2.27-2.47,3.02-2.56.4-.05.71.09.94.42.14.17.22.35.24.54.18,1.44-.64,3.47-2.45,6.07-.64.93-.95,1.49-.93,1.67.03.26.37.58,1,.98.03.02-.09.42-.35,1.21-.26.79-.62,1.56-1.1,2.33-1.07,1.83-2.17,2.82-3.29,2.95-.46.06-.87-.11-1.23-.49-.25-.28-.39-.61-.44-1.01-.18-1.49.16-3.43,1.02-5.83Z"/>
      <path class="cls-1" d="m69.84,338.5c-1.4.5-2.17.8-2.3.88-.52.37-.75.85-.68,1.43.11.86.65,1.23,1.62,1.11.72-.09,1.59-.4,2.61-.92,1.86-.98,3.21-2.14,4.04-3.47.87-1.4,1.22-2.79,1.05-4.17-.13-1.05-.58-1.78-1.37-2.21s-1.9-.55-3.34-.37c-2.75.34-5.25,1.52-7.5,3.54-2.32,2.1-3.33,4.32-3.05,6.64.21,1.75,1.22,3.59,3.02,5.55,1.31,1.42,2.02,2.62,2.14,3.6.1.79-.03,1.47-.39,2.03-.44.67-1.11,1.06-2.02,1.17-.93.11-1.8-.13-2.61-.74-.91-.69-1.44-1.61-1.58-2.75-.17-1.35-.04-2.56.37-3.62.16-.4.23-.69.21-.88-.06-.47-.38-.66-.96-.59-.65.08-1.23.56-1.74,1.45-.78,1.35-1.06,2.93-.84,4.74.19,1.56.76,2.86,1.72,3.9,1.36,1.46,3.16,2.06,5.39,1.78,1.42-.17,2.64-.69,3.67-1.55,1.67-1.38,2.38-3.1,2.13-5.15-.17-1.37-1.06-2.96-2.67-4.77-1.45-1.66-2.26-3.1-2.4-4.31-.21-1.7.56-3.28,2.29-4.74,1.5-1.29,2.92-2.02,4.27-2.19.56-.07.99,0,1.3.2s.49.54.55,1.03c.08.63-.17,1.25-.73,1.86-.64.72-1.39,1.22-2.22,1.51Z"/>
      <path class="cls-1" d="m380.39,203.82c-1.4.5-2.17.8-2.3.88-.52.37-.75.85-.68,1.43.11.86.65,1.23,1.62,1.11.72-.09,1.59-.39,2.61-.92,1.86-.98,3.21-2.14,4.04-3.47.87-1.4,1.22-2.79,1.05-4.17-.13-1.05-.58-1.78-1.37-2.21-.78-.42-1.9-.55-3.34-.37-2.75.34-5.25,1.52-7.5,3.54-2.32,2.1-3.33,4.32-3.05,6.64.21,1.74,1.22,3.59,3.02,5.55,1.31,1.42,2.02,2.62,2.14,3.6.1.79-.03,1.47-.39,2.03-.44.67-1.11,1.06-2.02,1.17-.93.11-1.8-.13-2.61-.74-.91-.69-1.44-1.61-1.58-2.75-.16-1.35-.04-2.56.37-3.62.16-.4.23-.69.21-.88-.06-.47-.38-.66-.96-.59-.65.08-1.23.56-1.74,1.45-.78,1.35-1.06,2.93-.84,4.74.19,1.56.76,2.86,1.72,3.9,1.36,1.46,3.16,2.06,5.39,1.79,1.42-.17,2.64-.69,3.67-1.55,1.67-1.39,2.38-3.1,2.13-5.15-.17-1.37-1.06-2.96-2.67-4.77-1.45-1.66-2.26-3.1-2.4-4.31-.21-1.7.56-3.28,2.29-4.74,1.5-1.29,2.92-2.02,4.27-2.19.56-.07.99,0,1.3.2.31.2.49.54.55,1.03.08.63-.17,1.25-.73,1.86-.64.72-1.39,1.22-2.22,1.51Z"/>
      <path class="cls-1" d="m138.06,207.06c1.58-.38,2.31-1.12,2.17-2.21-.08-.65-.46-1.05-1.14-1.21-.73-.17-2.12-.13-4.16.12-6.05.74-12.28,2.1-18.7,4.09-5.11,1.62-9.53,3.24-13.25,4.88-1.39.64-2.02,1.46-1.89,2.46.05.37.2.68.47.93.43.44.92.63,1.45.57.47-.06,1.1-.29,1.9-.69,3.84-1.6,8.04-3.05,12.61-4.34l-.76,1.62c-2.71,5.83-4.42,9.55-5.12,11.15-1.76,3.92-3.62,8.71-5.58,14.35-3.06,8.78-4.46,14.24-4.2,16.38.07.54.29,1.03.68,1.48.58.68,1.23.98,1.95.9.79-.1,1.26-.9,1.41-2.4.83-5.01,2.4-10.82,4.7-17.43,3.02-8.7,6.35-16.56,9.98-23.57.61-1.18.88-2.03.82-2.54-.06-.49-.39-.81-1-.98,2.01-.76,5.8-1.58,11.39-2.45,2.81-.41,4.9-.78,6.28-1.09Z"/>
      <path class="cls-1" d="m52.88,314.19c1.58-.38,2.31-1.12,2.17-2.21-.08-.65-.46-1.05-1.14-1.21-.73-.17-2.12-.13-4.17.12-6.05.74-12.28,2.1-18.7,4.09-5.11,1.62-9.53,3.24-13.25,4.88-1.39.64-2.02,1.46-1.89,2.46.05.37.2.68.47.93.43.44.92.63,1.45.57.47-.06,1.1-.29,1.9-.69,3.84-1.6,8.04-3.05,12.61-4.34l-.76,1.62c-2.71,5.83-4.42,9.55-5.12,11.15-1.76,3.92-3.62,8.71-5.58,14.35-3.06,8.78-4.46,14.24-4.2,16.38.07.54.29,1.03.68,1.48.58.69,1.23.98,1.95.9.79-.1,1.26-.9,1.41-2.4.83-5.01,2.4-10.82,4.7-17.43,3.02-8.7,6.35-16.56,9.98-23.57.61-1.18.88-2.03.82-2.54-.06-.49-.39-.81-1-.98,2.01-.76,5.8-1.58,11.39-2.46,2.81-.41,4.9-.78,6.28-1.09Z"/>
      <path class="cls-1" d="m12.62,124.68c1.58-.38,2.31-1.12,2.17-2.21-.08-.65-.46-1.05-1.14-1.21-.73-.17-2.12-.13-4.16.12-3.11.38-6.28.93-9.49,1.64v3.87c1.77-.36,3.87-.74,6.34-1.13,2.81-.41,4.9-.78,6.28-1.09Z"/>
      <path class="cls-1" d="m351.22,28c-.05-.42-.26-.77-.62-1.06-.31-.25-.62-.35-.92-.31-.63.08-1.31.81-2.03,2.2-.72,1.41-1.68,3.65-2.86,6.73-2.21,5.68-3.24,9.14-3.08,10.4.06.51.28.91.64,1.2.29.25.63.35,1.03.3.79-.1,1.46-.8,2.01-2.12,2.09-5.47,4.6-9.42,7.51-11.83-1.91,4.11-2.67,7.73-2.28,10.87.2,1.63.68,2.98,1.45,4.04.8,1.13,1.68,1.64,2.63,1.52.42-.05.76-.26,1.02-.62.25-.29.35-.57.32-.85-.04-.3-.25-.7-.64-1.2-.84-1.08-1.34-2.26-1.49-3.54-.48-3.96,1.18-8.8,4.99-14.53.7-1.05,1-1.93.92-2.63-.12-1-.64-1.44-1.54-1.33-1.65.2-4.62,2.97-8.9,8.31-.24.31-.5.63-.77.94.46-1.24,1.1-2.62,1.9-4.16.56-1.04.81-1.81.74-2.32Z"/>
      <path class="cls-1" d="m317.77,40.02c-.06-.47-.38-.66-.96-.59-.65.08-1.23.56-1.73,1.45-.78,1.35-1.06,2.93-.84,4.74.19,1.56.76,2.86,1.72,3.9,1.36,1.46,3.16,2.06,5.39,1.78,1.42-.17,2.64-.69,3.67-1.55,1.67-1.38,2.38-3.1,2.13-5.15-.17-1.37-1.06-2.96-2.67-4.77-1.46-1.66-2.26-3.1-2.4-4.31-.21-1.7.56-3.28,2.29-4.74,1.49-1.29,2.92-2.02,4.27-2.19.56-.07.99,0,1.3.2.31.2.49.54.55,1.03.08.63-.17,1.25-.73,1.86-.64.72-1.39,1.22-2.22,1.51-1.4.5-2.17.8-2.3.88-.52.37-.75.85-.68,1.43.1.86.65,1.23,1.62,1.11.72-.09,1.59-.39,2.61-.92,1.86-.98,3.21-2.14,4.04-3.47.87-1.4,1.22-2.79,1.05-4.17-.13-1.05-.58-1.78-1.37-2.21-.78-.42-1.9-.55-3.34-.37-2.75.34-5.25,1.52-7.5,3.54-2.32,2.1-3.33,4.32-3.05,6.64.21,1.75,1.22,3.59,3.02,5.55,1.31,1.42,2.02,2.62,2.14,3.6.1.79-.03,1.47-.39,2.03-.44.67-1.11,1.06-2.02,1.17-.93.11-1.8-.13-2.61-.74-.91-.69-1.44-1.61-1.58-2.75-.17-1.35-.04-2.56.37-3.62.16-.4.23-.69.21-.88Z"/>
      <path class="cls-1" d="m388.68,108.94c.35-.92.79-1.93,1.32-3.03v-4.8c-.08,0-.15-.03-.23-.03-.63.08-1.31.81-2.03,2.2-.72,1.41-1.68,3.65-2.86,6.73-2.21,5.68-3.24,9.14-3.08,10.4.06.51.28.91.64,1.2.29.25.63.35,1.03.3.79-.1,1.46-.8,2.01-2.12,1.34-3.51,2.85-6.38,4.53-8.63v-3.84c-.18.22-.37.45-.55.68-.24.31-.5.63-.77.94Z"/>
      <path class="cls-1" d="m250.74,193.28c1.58-.38,2.31-1.12,2.17-2.21-.08-.65-.46-1.05-1.14-1.21-.73-.17-2.12-.13-4.16.12-6.05.74-12.28,2.1-18.7,4.09-5.12,1.62-9.53,3.24-13.25,4.88-1.39.64-2.02,1.46-1.9,2.46.05.37.2.68.47.93.43.44.92.63,1.45.57.47-.06,1.1-.29,1.9-.69,3.84-1.6,8.04-3.05,12.61-4.34l-.76,1.62c-2.71,5.83-4.42,9.55-5.12,11.15-1.76,3.92-3.62,8.71-5.58,14.35-3.06,8.78-4.46,14.24-4.2,16.38.07.54.29,1.03.68,1.48.58.69,1.23.98,1.95.9.79-.1,1.26-.9,1.41-2.4.83-5.01,2.4-10.82,4.7-17.43,3.02-8.7,6.35-16.56,9.98-23.57.61-1.18.88-2.03.82-2.54-.06-.49-.4-.81-1-.98,2.01-.76,5.8-1.58,11.39-2.46,2.81-.41,4.9-.78,6.28-1.09Z"/>
      <path class="cls-1" d="m205.09,53.8c-.06-.47-.38-.66-.96-.59-.65.08-1.23.56-1.74,1.45-.78,1.35-1.06,2.93-.84,4.74.19,1.56.76,2.86,1.72,3.9,1.36,1.46,3.16,2.06,5.39,1.79,1.42-.17,2.64-.69,3.67-1.55,1.67-1.39,2.38-3.1,2.13-5.15-.17-1.37-1.06-2.96-2.67-4.77-1.45-1.66-2.26-3.1-2.4-4.31-.21-1.7.56-3.28,2.29-4.74,1.5-1.29,2.92-2.02,4.27-2.19.56-.07.99,0,1.3.2.31.2.49.54.55,1.03.08.63-.17,1.25-.73,1.86-.64.72-1.39,1.22-2.22,1.51-1.4.5-2.17.8-2.3.88-.52.37-.75.85-.68,1.43.11.86.65,1.23,1.62,1.11.72-.09,1.59-.39,2.61-.92,1.86-.98,3.21-2.14,4.04-3.47.87-1.4,1.22-2.79,1.05-4.17-.13-1.05-.58-1.78-1.37-2.21-.78-.42-1.9-.55-3.34-.37-2.75.34-5.25,1.52-7.5,3.54-2.32,2.1-3.33,4.32-3.05,6.64.21,1.74,1.22,3.59,3.02,5.55,1.31,1.42,2.02,2.62,2.14,3.6.1.79-.03,1.47-.39,2.03-.44.67-1.11,1.06-2.02,1.17-.93.11-1.8-.13-2.61-.74-.91-.69-1.44-1.61-1.58-2.75-.16-1.35-.04-2.56.37-3.62.16-.4.23-.69.21-.88Z"/>
      <path class="cls-1" d="m92.41,67.58c-.06-.47-.38-.66-.96-.59-.65.08-1.23.56-1.73,1.45-.78,1.35-1.06,2.93-.84,4.74.19,1.56.76,2.86,1.72,3.9,1.36,1.46,3.16,2.06,5.39,1.79,1.42-.17,2.64-.69,3.67-1.55,1.67-1.39,2.38-3.1,2.13-5.15-.17-1.37-1.06-2.96-2.67-4.77-1.46-1.66-2.26-3.1-2.4-4.31-.21-1.7.56-3.28,2.29-4.74,1.49-1.29,2.92-2.02,4.27-2.19.56-.07.99,0,1.3.2.31.2.49.54.55,1.03.08.63-.17,1.25-.73,1.86-.64.72-1.39,1.22-2.22,1.51-1.4.5-2.17.8-2.3.88-.52.37-.75.85-.68,1.43.1.86.65,1.23,1.62,1.11.72-.09,1.59-.39,2.61-.92,1.86-.98,3.21-2.14,4.04-3.47.87-1.4,1.22-2.79,1.05-4.17-.13-1.05-.58-1.78-1.37-2.21-.78-.42-1.9-.55-3.34-.37-2.75.34-5.25,1.52-7.5,3.54-2.32,2.1-3.33,4.32-3.05,6.64.21,1.74,1.22,3.59,3.02,5.55,1.31,1.42,2.02,2.62,2.14,3.6.1.79-.03,1.47-.39,2.03-.44.67-1.11,1.06-2.02,1.17-.93.11-1.8-.13-2.61-.74-.91-.69-1.44-1.61-1.58-2.75-.17-1.35-.04-2.56.37-3.62.16-.4.23-.69.21-.88Z"/>
      <path class="cls-1" d="m125.86,55.56c-.05-.42-.26-.77-.62-1.06-.31-.25-.62-.35-.92-.31-.63.08-1.31.81-2.03,2.2-.72,1.41-1.68,3.65-2.86,6.73-2.21,5.68-3.24,9.14-3.08,10.4.06.51.28.91.64,1.2.29.25.63.35,1.03.3.79-.1,1.46-.8,2.01-2.12,2.09-5.47,4.6-9.42,7.51-11.83-1.91,4.11-2.67,7.73-2.28,10.87.2,1.63.68,2.98,1.45,4.04.8,1.13,1.68,1.64,2.63,1.52.42-.05.76-.26,1.02-.62.25-.29.35-.57.32-.85-.04-.3-.25-.7-.64-1.2-.84-1.08-1.34-2.26-1.49-3.54-.48-3.95,1.18-8.8,4.99-14.53.7-1.05,1-1.93.92-2.63-.12-1-.64-1.44-1.54-1.33-1.65.2-4.62,2.97-8.9,8.31-.24.31-.5.63-.77.94.46-1.24,1.1-2.62,1.9-4.16.56-1.04.81-1.81.74-2.32Z"/>
      <path class="cls-1" d="m238.54,41.78c-.05-.42-.26-.77-.62-1.06-.31-.25-.62-.35-.92-.31-.63.08-1.31.81-2.03,2.2-.72,1.41-1.68,3.65-2.86,6.73-2.21,5.68-3.24,9.14-3.08,10.4.06.51.28.91.64,1.2.29.25.63.35,1.03.3.79-.1,1.46-.8,2.01-2.12,2.09-5.47,4.6-9.42,7.51-11.83-1.91,4.11-2.67,7.73-2.28,10.87.2,1.63.68,2.98,1.45,4.04.8,1.13,1.68,1.64,2.63,1.52.42-.05.76-.26,1.02-.62.25-.29.35-.57.32-.85-.04-.3-.25-.7-.64-1.2-.84-1.08-1.34-2.26-1.5-3.54-.48-3.96,1.18-8.8,4.99-14.53.7-1.05,1-1.93.92-2.63-.12-1-.64-1.45-1.54-1.33-1.65.2-4.62,2.97-8.9,8.31-.25.31-.5.63-.77.94.46-1.24,1.1-2.62,1.9-4.16.56-1.04.81-1.81.74-2.32Z"/>
      <path class="cls-1" d="m18.01,165.32c1.36,1.46,3.16,2.06,5.39,1.79,1.42-.17,2.64-.69,3.67-1.55,1.67-1.39,2.38-3.1,2.13-5.15-.17-1.37-1.06-2.96-2.67-4.77-1.45-1.66-2.26-3.1-2.4-4.31-.21-1.7.56-3.28,2.29-4.74,1.5-1.29,2.92-2.02,4.27-2.19.56-.07.99,0,1.3.2.31.2.49.54.55,1.03.08.63-.17,1.25-.73,1.86-.64.72-1.39,1.22-2.22,1.51-1.4.5-2.17.8-2.3.88-.52.37-.75.85-.68,1.43.11.86.65,1.23,1.62,1.11.72-.09,1.59-.39,2.61-.92,1.86-.98,3.21-2.14,4.04-3.47.87-1.4,1.22-2.79,1.05-4.17-.13-1.05-.58-1.78-1.37-2.21-.78-.42-1.9-.55-3.34-.37-2.75.34-5.25,1.52-7.5,3.54-2.32,2.1-3.33,4.32-3.05,6.64.21,1.74,1.22,3.59,3.02,5.55,1.31,1.42,2.02,2.62,2.14,3.6.1.79-.03,1.47-.39,2.03-.44.67-1.11,1.06-2.02,1.17-.93.11-1.8-.13-2.61-.74-.91-.69-1.44-1.61-1.58-2.75-.16-1.35-.04-2.56.37-3.62.16-.4.23-.69.21-.88-.06-.47-.38-.66-.96-.59-.65.08-1.23.56-1.74,1.45-.78,1.35-1.06,2.93-.84,4.74.19,1.56.76,2.86,1.72,3.9Z"/>
      <path class="cls-1" d="m102.11,331.87c-.12-1-.64-1.44-1.54-1.33-1.65.2-4.62,2.97-8.9,8.31-.25.31-.5.63-.77.94.46-1.24,1.1-2.62,1.9-4.16.56-1.04.81-1.81.74-2.32-.05-.42-.26-.77-.62-1.06-.31-.25-.62-.35-.92-.31-.63.08-1.31.81-2.03,2.2-.73,1.41-1.68,3.65-2.86,6.73-2.21,5.68-3.24,9.14-3.08,10.4.06.51.28.91.64,1.2.29.25.63.35,1.03.3.79-.1,1.46-.8,2.01-2.12,2.09-5.47,4.6-9.42,7.51-11.83-1.91,4.11-2.67,7.73-2.28,10.87.2,1.63.68,2.98,1.45,4.04.8,1.13,1.68,1.64,2.63,1.52.42-.05.76-.26,1.02-.62.25-.29.35-.57.32-.85-.04-.3-.25-.7-.64-1.2-.84-1.08-1.34-2.26-1.5-3.54-.48-3.96,1.18-8.8,4.99-14.53.7-1.05,1-1.93.92-2.63Z"/>
      <path class="cls-1" d="m75.01,354.41c.32.34.72.48,1.19.42.79-.1,1.3-.75,1.53-1.96.52-2.73,1.17-5.41,1.96-8.03.73-2.54,2.07-5.84,4.03-9.88.56-1.06.81-1.8.76-2.22-.03-.26-.16-.5-.37-.73-.29-.27-.64-.38-1.03-.33-.44.05-.85.33-1.21.82-.37.47-.9,1.37-1.58,2.71-2.15,4.09-3.61,7.76-4.39,11.02-1.01,4.14-1.47,6.55-1.38,7.25.04.35.21.66.5.93Z"/>
      <path class="cls-1" d="m259.92,114.1c-.78-.42-1.9-.55-3.34-.37-2.75.34-5.25,1.52-7.5,3.54-2.32,2.1-3.33,4.32-3.05,6.64.21,1.75,1.22,3.59,3.02,5.55,1.31,1.42,2.02,2.62,2.14,3.6.1.79-.03,1.47-.39,2.03-.44.67-1.11,1.06-2.02,1.17-.93.11-1.8-.13-2.61-.74-.91-.69-1.44-1.61-1.58-2.75-.16-1.35-.04-2.56.37-3.62.16-.4.23-.69.21-.88-.06-.47-.38-.66-.96-.59-.65.08-1.23.56-1.74,1.45-.78,1.35-1.06,2.93-.84,4.74.19,1.56.76,2.86,1.72,3.9,1.36,1.46,3.16,2.06,5.39,1.78,1.42-.17,2.64-.69,3.67-1.55,1.67-1.38,2.38-3.1,2.13-5.15-.17-1.37-1.06-2.96-2.67-4.77-1.45-1.66-2.26-3.1-2.4-4.31-.21-1.7.56-3.28,2.29-4.74,1.5-1.29,2.92-2.02,4.27-2.19.56-.07.99,0,1.3.2.31.2.49.54.55,1.03.08.63-.17,1.25-.73,1.86-.64.72-1.39,1.22-2.22,1.51-1.4.5-2.17.8-2.3.88-.52.37-.75.85-.68,1.43.11.86.65,1.23,1.62,1.11.72-.09,1.59-.39,2.61-.92,1.86-.98,3.21-2.14,4.04-3.47.87-1.4,1.22-2.79,1.05-4.17-.13-1.05-.58-1.78-1.37-2.21Z"/>
      <path class="cls-1" d="m154.26,342.74c.78,1.18,1.85,1.69,3.2,1.52,2.91-.36,5.61-3.29,8.1-8.82,2.28-5.1,3.23-9.19,2.85-12.29-.28-2.33-1.38-3.37-3.29-3.14-1.23.15-2.54.84-3.93,2.07-2.36,2.11-4.3,4.89-5.81,8.36-1.62,3.74-2.25,7.1-1.88,10.08.11.88.36,1.62.77,2.21Zm3.46-9.92c.74-2.1,1.92-4.19,3.55-6.28,1.27-1.62,2.27-2.47,3.02-2.56.4-.05.71.09.94.42.14.17.22.35.24.54.18,1.44-.64,3.47-2.44,6.07-.64.93-.95,1.49-.93,1.67.03.26.37.58,1,.98.03.02-.09.42-.35,1.21-.26.79-.62,1.56-1.1,2.33-1.07,1.83-2.17,2.82-3.29,2.95-.47.06-.87-.11-1.23-.49-.25-.28-.39-.61-.44-1.01-.18-1.49.16-3.43,1.02-5.83Z"/>
      <path class="cls-1" d="m41.58,356.52c.78,1.18,1.85,1.69,3.2,1.52,2.91-.36,5.61-3.29,8.1-8.82,2.28-5.1,3.23-9.19,2.85-12.28-.28-2.33-1.38-3.37-3.29-3.14-1.23.15-2.54.84-3.93,2.07-2.36,2.11-4.3,4.89-5.81,8.36-1.62,3.74-2.25,7.1-1.88,10.08.11.88.36,1.62.77,2.21Zm3.46-9.92c.74-2.1,1.92-4.19,3.55-6.28,1.27-1.62,2.27-2.47,3.02-2.56.4-.05.71.09.94.42.14.17.22.35.24.54.18,1.44-.64,3.47-2.45,6.07-.64.93-.95,1.49-.93,1.67.03.26.37.58,1,.98.03.02-.09.42-.35,1.21-.26.79-.62,1.56-1.1,2.33-1.07,1.83-2.17,2.82-3.29,2.95-.47.06-.88-.11-1.23-.49-.25-.28-.39-.61-.44-1.01-.18-1.49.16-3.43,1.02-5.83Z"/>
      <path class="cls-1" d="m126.77,249.39c.78,1.18,1.85,1.69,3.2,1.52,2.91-.36,5.61-3.29,8.1-8.82,2.28-5.1,3.23-9.19,2.85-12.29-.28-2.33-1.38-3.37-3.29-3.14-1.23.15-2.54.84-3.93,2.07-2.36,2.11-4.3,4.9-5.81,8.36-1.62,3.74-2.25,7.1-1.88,10.08.11.88.36,1.62.77,2.21Zm3.46-9.92c.74-2.1,1.92-4.19,3.55-6.28,1.27-1.62,2.27-2.47,3.02-2.56.4-.05.71.09.94.42.14.17.22.35.24.54.18,1.44-.64,3.47-2.45,6.07-.64.93-.95,1.49-.93,1.67.03.26.37.58,1,.98.03.02-.09.42-.35,1.21-.26.79-.62,1.56-1.1,2.33-1.07,1.83-2.17,2.82-3.29,2.95-.47.06-.88-.11-1.23-.49-.25-.28-.39-.61-.44-1.01-.18-1.49.16-3.43,1.02-5.83Z"/>
      <path class="cls-1" d="m42.81,142.17c-.44.05-.85.33-1.21.82-.37.47-.89,1.37-1.58,2.71-2.15,4.09-3.61,7.76-4.39,11.02-1,4.14-1.47,6.55-1.38,7.25.04.35.21.66.5.93.32.34.72.48,1.19.42.79-.1,1.3-.75,1.53-1.96.52-2.73,1.17-5.41,1.96-8.03.73-2.54,2.07-5.84,4.03-9.88.56-1.06.81-1.8.76-2.22-.03-.26-.16-.5-.37-.73-.29-.27-.64-.38-1.03-.33Z"/>
      <path class="cls-1" d="m57.49,231.12c.32.29.7.41,1.14.36.91-.11,1.78-.8,2.62-2.06.88-1.31,1.26-2.46,1.14-3.43-.13-1.07-.72-1.54-1.77-1.41-.72.09-1.48.65-2.27,1.69-1.08,1.41-1.55,2.67-1.41,3.79.05.44.24.8.56,1.07Z"/>
      <path class="cls-1" d="m86.23,33.02c-.73-.17-2.12-.13-4.16.12-6.05.74-12.28,2.1-18.7,4.09-5.12,1.62-9.53,3.24-13.25,4.88-1.39.64-2.02,1.46-1.9,2.46.05.37.2.68.47.93.43.44.92.63,1.45.57.47-.06,1.1-.29,1.9-.69,3.84-1.6,8.04-3.05,12.61-4.34l-.76,1.62c-2.71,5.83-4.42,9.55-5.12,11.15-1.76,3.92-3.62,8.71-5.58,14.35-3.06,8.78-4.46,14.24-4.2,16.38.07.54.29,1.03.68,1.48.58.68,1.23.98,1.95.89.79-.1,1.26-.9,1.41-2.4.83-5.01,2.4-10.82,4.7-17.43,3.02-8.7,6.35-16.56,9.98-23.57.61-1.18.88-2.03.82-2.54-.06-.49-.39-.81-1-.98,2.01-.76,5.8-1.58,11.39-2.46,2.81-.41,4.9-.78,6.28-1.09,1.58-.38,2.31-1.12,2.17-2.21-.08-.65-.46-1.05-1.14-1.21Z"/>
      <path class="cls-1" d="m45.58,130.1c-1.08,1.41-1.55,2.67-1.41,3.79.05.44.24.8.56,1.07.32.29.7.41,1.14.36.91-.11,1.78-.8,2.62-2.06.88-1.31,1.26-2.46,1.14-3.43-.13-1.07-.72-1.54-1.77-1.41-.72.09-1.48.65-2.27,1.69Z"/>
      <path class="cls-1" d="m169.66,225.62c-.03-.26-.16-.5-.37-.73-.29-.27-.64-.38-1.03-.33-.44.05-.85.33-1.21.82-.37.47-.9,1.37-1.58,2.71-2.15,4.09-3.61,7.76-4.39,11.02-1,4.14-1.47,6.55-1.38,7.25.04.35.21.66.5.93.32.34.72.48,1.19.42.79-.1,1.3-.75,1.53-1.96.52-2.73,1.17-5.41,1.96-8.03.73-2.54,2.07-5.84,4.03-9.88.56-1.06.81-1.8.76-2.22Z"/>
      <path class="cls-1" d="m24.95,240.44c-1.23.15-2.54.84-3.93,2.07-2.36,2.11-4.3,4.9-5.81,8.36-1.62,3.74-2.25,7.1-1.88,10.08.11.88.36,1.62.77,2.21.78,1.18,1.85,1.69,3.2,1.52,2.91-.36,5.61-3.29,8.1-8.82,2.28-5.1,3.23-9.19,2.85-12.29-.28-2.33-1.38-3.37-3.29-3.14Zm-2.02,13.63s-.09.42-.35,1.21c-.26.79-.62,1.56-1.1,2.33-1.07,1.83-2.17,2.82-3.29,2.95-.47.06-.87-.11-1.23-.49-.25-.28-.39-.61-.44-1.01-.18-1.49.16-3.43,1.02-5.83.74-2.1,1.92-4.19,3.55-6.28,1.27-1.62,2.27-2.47,3.02-2.56.4-.05.71.09.94.42.14.17.22.35.24.54.18,1.44-.64,3.47-2.45,6.07-.64.93-.95,1.49-.93,1.67.03.26.37.58,1,.98Z"/>
      <path class="cls-1" d="m42.35,245.15c-1.4.5-2.17.8-2.3.88-.52.37-.75.85-.68,1.43.1.86.65,1.23,1.62,1.11.72-.09,1.59-.39,2.61-.92,1.86-.98,3.21-2.14,4.04-3.47.87-1.4,1.22-2.79,1.05-4.17-.13-1.05-.58-1.78-1.37-2.21-.78-.42-1.9-.55-3.34-.37-2.75.34-5.25,1.51-7.5,3.54-2.32,2.1-3.33,4.32-3.05,6.64.21,1.74,1.22,3.59,3.02,5.55,1.31,1.42,2.02,2.62,2.14,3.6.1.79-.03,1.47-.39,2.03-.44.67-1.11,1.06-2.02,1.17-.93.11-1.8-.13-2.61-.74-.91-.69-1.44-1.61-1.58-2.75-.17-1.35-.04-2.56.37-3.62.16-.4.23-.69.21-.88-.06-.47-.38-.66-.96-.59-.65.08-1.23.56-1.73,1.45-.78,1.35-1.06,2.93-.84,4.74.19,1.56.76,2.86,1.72,3.9,1.36,1.46,3.16,2.06,5.39,1.79,1.42-.17,2.64-.69,3.67-1.55,1.67-1.39,2.38-3.1,2.13-5.15-.17-1.37-1.06-2.96-2.67-4.77-1.46-1.66-2.26-3.1-2.4-4.31-.21-1.7.56-3.28,2.29-4.74,1.49-1.29,2.92-2.02,4.27-2.19.56-.07.99,0,1.3.2.31.2.49.54.55,1.03.08.63-.17,1.25-.73,1.86-.64.72-1.39,1.22-2.22,1.51Z"/>
      <path class="cls-1" d="m386.27,3.24c.05.37.2.68.47.93.43.44.92.63,1.45.57.45-.05,1.05-.27,1.81-.65V0c-.63.26-1.25.52-1.84.78-1.39.64-2.02,1.46-1.89,2.46Z"/>
      <path class="cls-1" d="m0,78.79c.78-2.18,1.9-4.78,3.36-7.79.56-1.06.81-1.8.76-2.22-.03-.26-.16-.5-.37-.73-.29-.27-.64-.38-1.03-.33-.44.05-.85.33-1.21.82-.35.45-.85,1.31-1.5,2.55v7.71Z"/>
      <path class="cls-1" d="m8.72,225.36c-.06-.49-.4-.81-1-.98,2.01-.76,5.8-1.58,11.39-2.45,2.81-.41,4.9-.78,6.28-1.09,1.58-.38,2.31-1.12,2.17-2.21-.08-.65-.46-1.05-1.14-1.21-.73-.17-2.12-.13-4.16.12-6.05.74-12.28,2.1-18.7,4.09-1.23.39-2.41.78-3.56,1.17v4.13c1.57-.51,3.17-1.01,4.84-1.48l-.76,1.62c-1.81,3.9-3.16,6.83-4.08,8.84v9.87c2.45-6.46,5.08-12.42,7.9-17.86.61-1.18.88-2.03.82-2.54Z"/>
      <path class="cls-1" d="m390,300.77c-.4.81-.93,1.7-1.61,2.68-.64.93-.95,1.49-.93,1.67.03.26.37.58,1,.98.03.02-.09.42-.35,1.21-.26.79-.62,1.56-1.1,2.33-1.07,1.83-2.17,2.82-3.29,2.95-.47.06-.87-.11-1.23-.49-.25-.28-.39-.61-.44-1.01-.18-1.49.16-3.43,1.02-5.83.74-2.1,1.92-4.19,3.55-6.28,1.27-1.62,2.27-2.47,3.02-2.56.12-.02.24,0,.34.02v-3.87c-1.09.25-2.24.89-3.44,1.96-2.36,2.11-4.3,4.89-5.81,8.36-1.62,3.74-2.25,7.1-1.88,10.08.11.88.36,1.62.77,2.21.78,1.18,1.85,1.69,3.2,1.52,2.55-.31,4.95-2.62,7.18-6.92v-9.01Z"/>
      <path class="cls-1" d="m386.43,211.55c-1,4.14-1.47,6.55-1.38,7.25.04.35.21.66.5.93.32.34.72.48,1.19.42.79-.1,1.3-.75,1.53-1.96.46-2.44,1.05-4.83,1.73-7.18v-8.86c-1.7,3.44-2.89,6.58-3.57,9.4Z"/>
      <path class="cls-1" d="m352.13,221.83c.78,1.18,1.85,1.69,3.2,1.52,2.91-.36,5.61-3.29,8.1-8.82,2.28-5.1,3.23-9.19,2.85-12.28-.28-2.33-1.38-3.37-3.29-3.14-1.23.15-2.54.84-3.93,2.07-2.36,2.11-4.3,4.9-5.81,8.36-1.62,3.74-2.25,7.1-1.88,10.08.11.89.36,1.62.77,2.21Zm3.46-9.92c.74-2.1,1.92-4.19,3.55-6.28,1.27-1.62,2.27-2.47,3.02-2.56.4-.05.71.09.94.42.14.17.22.35.24.54.18,1.44-.64,3.47-2.45,6.07-.64.93-.95,1.49-.93,1.67.03.26.37.58,1,.98.03.02-.09.42-.35,1.21-.26.79-.62,1.56-1.1,2.33-1.08,1.83-2.17,2.82-3.29,2.95-.47.06-.88-.11-1.23-.49-.25-.28-.39-.61-.44-1.01-.18-1.49.16-3.43,1.02-5.83Z"/>
      <path class="cls-1" d="m239.45,235.61c.78,1.18,1.85,1.69,3.2,1.52,2.91-.36,5.61-3.29,8.1-8.82,2.28-5.1,3.23-9.19,2.85-12.28-.28-2.33-1.38-3.37-3.29-3.14-1.23.15-2.54.84-3.93,2.07-2.36,2.11-4.3,4.9-5.81,8.36-1.62,3.74-2.25,7.1-1.88,10.08.11.89.36,1.62.77,2.21Zm3.46-9.92c.74-2.1,1.92-4.19,3.55-6.28,1.27-1.62,2.27-2.47,3.02-2.56.4-.05.71.09.94.42.14.17.22.35.24.54.18,1.44-.64,3.47-2.44,6.07-.64.93-.95,1.49-.93,1.67.03.26.37.58,1,.98.03.02-.09.42-.35,1.21-.26.79-.62,1.56-1.1,2.33-1.07,1.83-2.17,2.82-3.29,2.95-.47.06-.87-.11-1.23-.49-.25-.28-.39-.61-.44-1.01-.18-1.49.16-3.43,1.02-5.83Z"/>
      <path class="cls-1" d="m266.94,328.96c.78,1.18,1.85,1.69,3.2,1.52,2.91-.36,5.61-3.29,8.1-8.82,2.28-5.1,3.23-9.19,2.85-12.29-.28-2.33-1.38-3.37-3.29-3.14-1.23.15-2.54.84-3.93,2.07-2.36,2.11-4.3,4.89-5.81,8.36-1.62,3.74-2.25,7.1-1.88,10.08.11.88.36,1.62.77,2.21Zm3.46-9.92c.74-2.1,1.92-4.19,3.55-6.28,1.27-1.62,2.27-2.47,3.02-2.56.4-.05.71.09.94.42.14.17.22.35.24.54.18,1.44-.64,3.47-2.45,6.07-.64.93-.95,1.49-.93,1.67.03.26.37.58,1,.98.03.02-.09.42-.35,1.21-.26.79-.62,1.56-1.1,2.33-1.07,1.83-2.17,2.82-3.29,2.95-.47.06-.88-.11-1.23-.49-.25-.28-.39-.61-.44-1.01-.18-1.49.16-3.43,1.02-5.83Z"/>
      <path class="cls-1" d="m282.34,211.84c-.03-.26-.16-.5-.37-.73-.29-.27-.64-.38-1.03-.33-.44.05-.85.33-1.21.82-.37.47-.89,1.37-1.58,2.71-2.14,4.09-3.61,7.76-4.39,11.02-1.01,4.14-1.47,6.55-1.38,7.25.04.35.21.66.5.93.32.34.72.48,1.19.42.79-.1,1.3-.75,1.53-1.96.52-2.73,1.17-5.41,1.96-8.03.73-2.54,2.07-5.84,4.03-9.88.56-1.06.81-1.8.76-2.22Z"/>
      <path class="cls-1" d="m187.69,340.64c.32.34.72.48,1.18.42.79-.1,1.3-.75,1.53-1.96.52-2.73,1.17-5.41,1.96-8.03.73-2.54,2.07-5.84,4.03-9.88.56-1.06.81-1.8.76-2.22-.03-.26-.16-.5-.37-.73-.29-.27-.64-.38-1.03-.33-.44.05-.85.33-1.21.82-.37.47-.89,1.37-1.58,2.71-2.14,4.09-3.61,7.76-4.39,11.02-1.01,4.14-1.47,6.55-1.38,7.25.04.35.21.66.5.93Z"/>
      <path class="cls-1" d="m300.37,326.86c.32.34.72.48,1.19.42.79-.1,1.3-.75,1.53-1.96.52-2.73,1.17-5.41,1.96-8.03.73-2.54,2.07-5.84,4.03-9.88.56-1.06.81-1.8.76-2.22-.03-.26-.16-.5-.37-.73-.29-.27-.64-.38-1.03-.33-.44.05-.85.33-1.21.82-.37.47-.89,1.37-1.58,2.71-2.15,4.09-3.61,7.76-4.39,11.02-1,4.14-1.47,6.55-1.38,7.25.04.35.21.66.5.93Z"/>
      <path class="cls-1" d="m56.98,239.4c-.03-.26-.16-.5-.37-.73-.29-.27-.64-.38-1.03-.33-.44.05-.85.33-1.21.82-.37.47-.89,1.37-1.58,2.71-2.14,4.09-3.61,7.76-4.39,11.02-1.01,4.14-1.47,6.55-1.38,7.25.04.35.21.66.5.93.32.34.72.48,1.19.42.79-.1,1.3-.75,1.53-1.96.52-2.73,1.17-5.41,1.96-8.03.73-2.54,2.07-5.84,4.03-9.88.56-1.06.81-1.8.76-2.22Z"/>
      <path class="cls-1" d="m165.34,146.38c.2,1.63.68,2.98,1.45,4.04.8,1.13,1.68,1.64,2.63,1.52.42-.05.76-.26,1.02-.62.25-.29.35-.57.32-.85-.04-.3-.25-.7-.64-1.2-.84-1.08-1.34-2.26-1.49-3.54-.48-3.96,1.18-8.8,4.99-14.53.7-1.05,1-1.93.92-2.63-.12-1-.64-1.45-1.54-1.33-1.65.2-4.62,2.97-8.9,8.31-.24.31-.5.63-.77.94.46-1.24,1.1-2.62,1.9-4.16.56-1.04.81-1.81.74-2.32-.05-.42-.26-.77-.62-1.06-.31-.25-.62-.35-.92-.31-.63.08-1.31.81-2.03,2.2-.72,1.41-1.68,3.65-2.86,6.73-2.21,5.68-3.24,9.14-3.08,10.4.06.51.28.91.64,1.2.29.25.63.35,1.03.3.79-.1,1.46-.8,2.01-2.12,2.09-5.47,4.6-9.42,7.51-11.83-1.91,4.11-2.67,7.73-2.28,10.87Z"/>
      <path class="cls-1" d="m198.91,19.24c-.73-.17-2.12-.13-4.16.12-6.05.74-12.28,2.1-18.7,4.09-5.11,1.62-9.53,3.24-13.25,4.88-1.39.64-2.02,1.46-1.89,2.46.05.37.2.68.47.93.43.44.92.63,1.45.57.47-.06,1.1-.29,1.9-.69,3.84-1.6,8.04-3.05,12.61-4.34l-.76,1.62c-2.71,5.83-4.42,9.55-5.12,11.15-1.76,3.92-3.62,8.71-5.58,14.35-3.06,8.78-4.46,14.24-4.2,16.38.07.54.29,1.03.68,1.48.58.68,1.23.98,1.95.9.79-.1,1.26-.9,1.41-2.4.83-5.01,2.4-10.82,4.7-17.43,3.02-8.7,6.35-16.56,9.98-23.57.61-1.18.88-2.03.82-2.54-.06-.49-.39-.81-1-.98,2.01-.76,5.8-1.58,11.39-2.45,2.81-.41,4.9-.78,6.28-1.09,1.58-.38,2.31-1.12,2.17-2.21-.08-.65-.46-1.05-1.14-1.21Z"/>
      <path class="cls-1" d="m187.3,224.74c-.12-1-.64-1.45-1.54-1.33-1.65.2-4.62,2.97-8.9,8.31-.25.31-.5.63-.77.94.46-1.24,1.1-2.62,1.9-4.16.56-1.04.81-1.81.74-2.32-.05-.42-.26-.77-.62-1.06-.31-.25-.62-.35-.92-.31-.63.08-1.31.81-2.03,2.2-.72,1.41-1.68,3.65-2.86,6.73-2.21,5.68-3.24,9.14-3.08,10.4.06.51.28.91.64,1.2.29.25.63.35,1.03.3.79-.1,1.46-.8,2.01-2.12,2.09-5.47,4.6-9.42,7.51-11.83-1.91,4.11-2.67,7.73-2.28,10.87.2,1.63.68,2.98,1.45,4.04.8,1.13,1.68,1.64,2.63,1.52.42-.05.76-.26,1.02-.62.25-.29.35-.57.32-.85-.04-.3-.25-.7-.64-1.2-.84-1.08-1.34-2.26-1.5-3.54-.48-3.96,1.18-8.8,4.99-14.53.7-1.05,1-1.93.92-2.63Z"/>
      <path class="cls-1" d="m155.03,231.37c-1.4.5-2.17.8-2.3.88-.52.37-.75.85-.68,1.43.11.86.65,1.23,1.62,1.11.72-.09,1.59-.39,2.61-.92,1.86-.98,3.21-2.14,4.04-3.47.87-1.4,1.22-2.79,1.05-4.17-.13-1.05-.58-1.78-1.37-2.21-.78-.42-1.9-.55-3.34-.37-2.75.34-5.25,1.51-7.5,3.54-2.32,2.1-3.33,4.32-3.05,6.64.21,1.74,1.22,3.59,3.02,5.55,1.31,1.42,2.02,2.62,2.14,3.6.1.79-.03,1.47-.39,2.03-.44.67-1.11,1.06-2.02,1.17-.93.11-1.8-.13-2.61-.74-.91-.69-1.44-1.61-1.58-2.75-.16-1.35-.04-2.56.37-3.62.16-.4.23-.69.21-.88-.06-.47-.38-.66-.96-.59-.65.08-1.23.56-1.74,1.45-.78,1.35-1.06,2.93-.84,4.74.19,1.56.76,2.86,1.72,3.9,1.36,1.46,3.16,2.06,5.39,1.78,1.42-.17,2.64-.69,3.67-1.55,1.67-1.39,2.38-3.1,2.13-5.15-.17-1.37-1.06-2.96-2.67-4.77-1.45-1.66-2.26-3.1-2.4-4.31-.21-1.7.56-3.28,2.29-4.74,1.5-1.29,2.92-2.02,4.27-2.19.56-.07.99,0,1.3.2.31.2.49.54.55,1.03.08.63-.17,1.25-.73,1.86-.64.72-1.39,1.22-2.22,1.51Z"/>
      <path class="cls-1" d="m170.17,217.34c.32.29.7.41,1.14.36.91-.11,1.78-.8,2.62-2.06.88-1.31,1.26-2.46,1.14-3.43-.13-1.07-.72-1.54-1.77-1.41-.72.09-1.48.65-2.27,1.69-1.08,1.41-1.55,2.67-1.41,3.79.05.44.24.8.56,1.07Z"/>
      <path class="cls-1" d="m197.44,42.27c-1.23.15-2.54.84-3.93,2.07-2.36,2.11-4.3,4.9-5.81,8.36-1.62,3.74-2.25,7.1-1.88,10.08.11.88.36,1.62.77,2.21.78,1.18,1.85,1.69,3.2,1.52,2.91-.36,5.61-3.29,8.1-8.82,2.28-5.1,3.23-9.19,2.85-12.28-.28-2.33-1.38-3.37-3.29-3.14Zm-2.02,13.63s-.09.42-.35,1.21c-.26.79-.62,1.56-1.1,2.33-1.08,1.83-2.17,2.82-3.29,2.95-.47.06-.88-.11-1.23-.49-.25-.28-.39-.61-.44-1.01-.18-1.49.16-3.43,1.02-5.83.74-2.1,1.92-4.19,3.55-6.28,1.27-1.62,2.27-2.47,3.02-2.56.4-.05.71.09.94.42.14.17.22.35.24.54.18,1.44-.64,3.47-2.45,6.07-.64.93-.95,1.49-.93,1.67.03.26.37.58,1,.98Z"/>
      <path class="cls-1" d="m198.52,305.84c-1.08,1.41-1.55,2.67-1.41,3.79.05.44.24.8.56,1.07.32.29.7.41,1.14.36.91-.11,1.78-.8,2.62-2.06.88-1.31,1.26-2.46,1.14-3.43-.13-1.07-.72-1.54-1.77-1.41-.72.09-1.48.65-2.27,1.69Z"/>
      <path class="cls-1" d="m237.54,116.73c-1.23.15-2.54.84-3.93,2.07-2.36,2.11-4.3,4.9-5.81,8.36-1.62,3.74-2.25,7.1-1.88,10.08.11.89.36,1.62.77,2.21.78,1.18,1.85,1.69,3.2,1.52,2.91-.36,5.61-3.29,8.1-8.82,2.28-5.1,3.23-9.19,2.85-12.28-.28-2.33-1.38-3.37-3.29-3.14Zm-2.02,13.63s-.09.42-.35,1.21c-.26.79-.62,1.56-1.1,2.33-1.08,1.83-2.17,2.82-3.29,2.95-.47.06-.88-.11-1.23-.49-.25-.28-.39-.61-.44-1.01-.18-1.49.16-3.43,1.02-5.83.74-2.1,1.92-4.19,3.55-6.28,1.27-1.62,2.27-2.47,3.02-2.56.4-.05.71.09.94.42.14.17.22.35.24.54.18,1.44-.64,3.47-2.45,6.07-.64.93-.95,1.49-.93,1.67.03.26.37.58,1,.98Z"/>
      <path class="cls-1" d="m233.12,26.4c-.72.09-1.48.65-2.27,1.69-1.08,1.41-1.55,2.67-1.41,3.79.05.44.24.8.56,1.07.32.29.7.41,1.14.36.91-.11,1.78-.8,2.62-2.06.88-1.31,1.26-2.46,1.14-3.43-.13-1.07-.72-1.54-1.77-1.41Z"/>
      <path class="cls-1" d="m228.07,40.15c-.44.05-.85.33-1.21.82-.37.47-.89,1.37-1.58,2.71-2.15,4.09-3.61,7.76-4.39,11.02-1,4.14-1.47,6.55-1.38,7.25.04.35.21.66.5.93.32.34.72.48,1.19.42.79-.1,1.3-.75,1.53-1.96.52-2.73,1.17-5.41,1.96-8.03.73-2.54,2.07-5.84,4.03-9.88.56-1.06.81-1.8.76-2.22-.03-.26-.16-.5-.37-.73-.29-.27-.64-.38-1.03-.33Z"/>
      <path class="cls-1" d="m201.01,105.26c.05.37.2.68.47.93.43.44.92.63,1.45.57.47-.06,1.1-.29,1.9-.69,3.84-1.6,8.04-3.05,12.61-4.34l-.76,1.62c-2.71,5.83-4.42,9.55-5.12,11.15-1.76,3.92-3.62,8.71-5.58,14.35-3.06,8.78-4.46,14.24-4.2,16.38.07.54.29,1.03.68,1.48.58.69,1.23.98,1.95.9.79-.1,1.26-.9,1.41-2.4.83-5.01,2.4-10.82,4.7-17.43,3.02-8.7,6.35-16.56,9.98-23.57.61-1.18.88-2.03.82-2.54-.06-.49-.39-.81-1-.98,2.01-.76,5.8-1.58,11.39-2.46,2.81-.41,4.9-.78,6.28-1.09,1.58-.38,2.31-1.12,2.17-2.21-.08-.65-.46-1.05-1.14-1.21-.73-.17-2.12-.13-4.16.12-6.05.74-12.28,2.1-18.7,4.09-5.11,1.62-9.53,3.24-13.25,4.88-1.39.64-2.02,1.46-1.9,2.46Z"/>
      <path class="cls-1" d="m85.84,319.62c-1.08,1.41-1.55,2.67-1.41,3.79.05.44.24.8.56,1.07.32.29.7.41,1.14.36.91-.11,1.78-.8,2.62-2.06.88-1.31,1.26-2.46,1.14-3.43-.13-1.07-.72-1.54-1.77-1.41-.72.09-1.48.65-2.27,1.69Z"/>
      <path class="cls-1" d="m88.33,119.03c.05.37.2.68.47.93.43.44.92.63,1.45.57.47-.06,1.1-.29,1.9-.69,3.84-1.6,8.04-3.05,12.61-4.34l-.76,1.62c-2.71,5.83-4.42,9.55-5.12,11.15-1.76,3.92-3.62,8.71-5.58,14.35-3.06,8.78-4.46,14.24-4.2,16.38.07.54.29,1.03.68,1.48.58.68,1.23.98,1.95.9.79-.1,1.26-.9,1.41-2.4.83-5.01,2.4-10.82,4.7-17.43,3.02-8.7,6.35-16.56,9.98-23.57.61-1.18.88-2.03.82-2.54-.06-.49-.4-.81-1-.98,2.01-.76,5.8-1.58,11.39-2.45,2.81-.41,4.9-.78,6.28-1.09,1.58-.38,2.31-1.12,2.17-2.21-.08-.65-.46-1.05-1.14-1.21-.73-.17-2.12-.13-4.17.12-6.05.74-12.28,2.1-18.7,4.09-5.12,1.62-9.53,3.24-13.25,4.88-1.39.64-2.02,1.46-1.9,2.46Z"/>
      <path class="cls-1" d="m52.66,160.16c.2,1.63.68,2.98,1.45,4.04.8,1.13,1.68,1.64,2.63,1.52.42-.05.76-.26,1.02-.62.25-.29.35-.57.32-.85-.04-.3-.25-.7-.64-1.2-.84-1.08-1.34-2.26-1.5-3.54-.48-3.95,1.18-8.8,4.99-14.53.7-1.05,1-1.93.92-2.63-.12-1-.64-1.44-1.54-1.33-1.65.2-4.62,2.97-8.9,8.31-.25.31-.5.63-.77.94.46-1.24,1.1-2.62,1.9-4.16.56-1.04.81-1.81.74-2.32-.05-.42-.26-.77-.62-1.06-.31-.25-.62-.35-.92-.31-.63.08-1.31.81-2.03,2.2-.72,1.41-1.68,3.65-2.86,6.73-2.21,5.68-3.24,9.14-3.08,10.4.06.51.28.91.64,1.2.29.25.63.35,1.03.3.79-.1,1.46-.8,2.01-2.12,2.09-5.47,4.6-9.42,7.51-11.83-1.91,4.11-2.67,7.73-2.28,10.87Z"/>
      <path class="cls-1" d="m74.62,238.51c-.12-1-.64-1.45-1.54-1.33-1.65.2-4.62,2.97-8.9,8.31-.25.31-.5.63-.77.94.46-1.24,1.1-2.62,1.9-4.16.56-1.04.81-1.81.74-2.32-.05-.42-.26-.77-.62-1.06-.31-.24-.62-.35-.92-.31-.63.08-1.31.81-2.03,2.2-.72,1.41-1.68,3.65-2.86,6.73-2.21,5.68-3.24,9.14-3.08,10.4.06.51.28.91.64,1.2.29.25.63.35,1.03.3.79-.1,1.46-.8,2.01-2.12,2.09-5.47,4.6-9.42,7.51-11.83-1.91,4.11-2.67,7.73-2.28,10.87.2,1.63.68,2.98,1.45,4.04.8,1.13,1.68,1.64,2.63,1.52.42-.05.76-.26,1.02-.62.25-.29.35-.57.32-.85-.04-.3-.25-.7-.64-1.2-.84-1.08-1.34-2.26-1.49-3.54-.48-3.95,1.18-8.8,4.99-14.53.7-1.05,1-1.93.92-2.63Z"/>
      <path class="cls-1" d="m115.39,53.93c-.44.05-.85.33-1.21.82-.37.47-.89,1.37-1.58,2.71-2.14,4.09-3.61,7.76-4.39,11.02-1.01,4.14-1.47,6.55-1.38,7.25.04.35.21.66.5.93.32.34.72.48,1.19.42.79-.1,1.3-.75,1.53-1.96.52-2.73,1.17-5.41,1.96-8.03.73-2.54,2.07-5.84,4.03-9.88.56-1.06.81-1.8.76-2.22-.03-.26-.16-.5-.37-.73-.29-.27-.64-.38-1.03-.33Z"/>
      <path class="cls-1" d="m84.76,56.05c-1.23.15-2.54.84-3.93,2.07-2.36,2.11-4.3,4.9-5.81,8.36-1.62,3.74-2.25,7.1-1.88,10.08.11.88.36,1.62.77,2.21.78,1.18,1.85,1.69,3.2,1.52,2.91-.36,5.61-3.29,8.1-8.82,2.28-5.1,3.23-9.19,2.85-12.29-.28-2.33-1.38-3.37-3.29-3.14Zm-2.02,13.63s-.09.42-.35,1.21c-.26.79-.62,1.56-1.1,2.33-1.07,1.83-2.17,2.82-3.29,2.95-.47.06-.87-.11-1.23-.49-.25-.28-.39-.61-.44-1.01-.18-1.49.16-3.43,1.02-5.83.74-2.1,1.92-4.19,3.55-6.28,1.27-1.62,2.27-2.47,3.02-2.56.4-.05.71.09.94.42.14.17.22.35.24.54.18,1.44-.64,3.47-2.44,6.07-.64.93-.95,1.49-.93,1.67.03.26.37.58,1,.97Z"/>
      <path class="cls-1" d="m158.26,116.33c-1.08,1.41-1.55,2.67-1.41,3.79.05.44.24.8.56,1.07.32.29.7.41,1.14.36.91-.11,1.78-.8,2.62-2.06.88-1.31,1.26-2.46,1.14-3.43-.13-1.07-.72-1.54-1.77-1.41-.72.09-1.48.65-2.27,1.69Z"/>
      <path class="cls-1" d="m155.49,128.39c-.44.05-.85.33-1.21.82-.37.47-.9,1.37-1.58,2.71-2.14,4.09-3.61,7.76-4.39,11.02-1.01,4.14-1.47,6.55-1.38,7.25.04.35.21.66.5.93.32.34.72.48,1.19.42.79-.1,1.3-.75,1.53-1.96.52-2.73,1.17-5.41,1.96-8.03.73-2.54,2.07-5.84,4.03-9.88.56-1.06.81-1.8.76-2.22-.03-.26-.16-.5-.37-.73-.29-.27-.64-.38-1.03-.33Z"/>
      <path class="cls-1" d="m147.24,127.87c-.78-.42-1.9-.55-3.34-.37-2.75.34-5.25,1.52-7.5,3.54-2.32,2.1-3.33,4.32-3.05,6.64.21,1.74,1.22,3.59,3.02,5.55,1.31,1.42,2.02,2.62,2.14,3.6.1.79-.03,1.47-.39,2.03-.44.67-1.11,1.06-2.02,1.17-.93.11-1.8-.13-2.61-.74-.91-.69-1.44-1.61-1.58-2.75-.17-1.35-.04-2.56.37-3.62.16-.4.23-.69.21-.88-.06-.47-.38-.66-.96-.59-.65.08-1.23.56-1.73,1.45-.78,1.35-1.06,2.93-.84,4.74.19,1.56.76,2.86,1.72,3.9,1.36,1.46,3.16,2.06,5.39,1.79,1.42-.17,2.64-.69,3.67-1.55,1.67-1.39,2.38-3.1,2.13-5.15-.17-1.37-1.06-2.96-2.67-4.77-1.46-1.66-2.26-3.1-2.4-4.31-.21-1.7.56-3.28,2.29-4.74,1.49-1.29,2.92-2.02,4.27-2.19.56-.07.99,0,1.3.2.31.2.49.54.55,1.03.08.63-.17,1.25-.73,1.86-.64.72-1.39,1.22-2.22,1.51-1.4.5-2.17.8-2.3.88-.52.37-.75.85-.68,1.43.11.86.65,1.23,1.62,1.11.72-.09,1.59-.39,2.61-.92,1.86-.98,3.21-2.14,4.04-3.47.87-1.4,1.22-2.79,1.05-4.17-.13-1.05-.58-1.78-1.37-2.21Z"/>
      <path class="cls-1" d="m120.44,40.17c-.72.09-1.48.65-2.27,1.69-1.08,1.41-1.55,2.67-1.41,3.79.05.44.24.8.56,1.07.32.29.7.41,1.14.36.91-.11,1.78-.8,2.62-2.06.88-1.31,1.26-2.46,1.14-3.43-.13-1.07-.72-1.54-1.77-1.41Z"/>
      <path class="cls-1" d="m124.86,130.5c-1.23.15-2.54.84-3.93,2.07-2.36,2.11-4.3,4.9-5.81,8.36-1.62,3.74-2.25,7.1-1.88,10.08.11.88.36,1.62.77,2.21.78,1.18,1.85,1.69,3.2,1.52,2.91-.36,5.61-3.29,8.1-8.82,2.28-5.1,3.23-9.19,2.85-12.28-.28-2.33-1.38-3.37-3.29-3.14Zm-2.02,13.63s-.09.42-.35,1.21c-.26.79-.62,1.56-1.1,2.33-1.07,1.83-2.17,2.82-3.29,2.95-.47.06-.88-.11-1.23-.49-.25-.28-.39-.61-.44-1.01-.18-1.49.16-3.43,1.02-5.83.74-2.1,1.92-4.19,3.55-6.28,1.27-1.62,2.27-2.47,3.02-2.56.4-.05.71.09.94.42.14.17.22.35.24.54.18,1.44-.64,3.47-2.44,6.07-.64.93-.95,1.49-.93,1.67.03.26.37.58,1,.98Z"/>
    </g>
  </g>
</svg>