<?xml version="1.0" encoding="UTF-8"?>
<svg id="Layer_2" data-name="Layer 2" xmlns="http://www.w3.org/2000/svg" viewBox="0 0 84.5 84.5">
  <defs>
    <style>
      .cls-1 {
        fill: #bc3139;
      }
    </style>
  </defs>
  <g id="Layer_1-2" data-name="Layer 1">
    <g>
      <g>
        <path class="cls-1" d="m28.05,84.5c-.92,0-1.66-.74-1.66-1.66V1.66c0-.91.74-1.66,1.66-1.66s1.66.74,1.66,1.66v81.19c0,.91-.74,1.66-1.66,1.66Z"/>
        <path class="cls-1" d="m56.45,84.5c-.92,0-1.66-.74-1.66-1.66V1.66c0-.91.74-1.66,1.66-1.66s1.66.74,1.66,1.66v81.19c0,.91-.74,1.66-1.66,1.66Z"/>
        <path class="cls-1" d="m82.84,58.11H1.66c-.92,0-1.66-.74-1.66-1.66s.74-1.66,1.66-1.66h81.19c.92,0,1.66.74,1.66,1.66s-.74,1.66-1.66,1.66Z"/>
        <path class="cls-1" d="m82.84,29.71H1.66c-.92,0-1.66-.74-1.66-1.66s.74-1.66,1.66-1.66h81.19c.92,0,1.66.74,1.66,1.66s-.74,1.66-1.66,1.66Z"/>
      </g>
      <g>
        <path class="cls-1" d="m77.99,24.14c-.3,0-.61-.12-.84-.35l-13.73-13.73c-.46-.46-.46-1.21,0-1.67.46-.46,1.21-.46,1.67,0l13.73,13.73c.46.46.46,1.21,0,1.67-.23.23-.53.35-.84.35Z"/>
        <path class="cls-1" d="m64.26,24.14c-.3,0-.61-.12-.84-.35-.46-.46-.46-1.21,0-1.67l13.73-13.73c.46-.46,1.21-.46,1.67,0,.46.46.46,1.21,0,1.67l-13.73,13.73c-.23.23-.53.35-.84.35Z"/>
      </g>
      <g>
        <path class="cls-1" d="m20.71,50.18c-.3,0-.61-.12-.84-.35l-13.73-13.73c-.46-.46-.46-1.21,0-1.67.46-.46,1.21-.46,1.67,0l13.73,13.73c.46.46.46,1.21,0,1.67-.23.23-.53.35-.84.35Z"/>
        <path class="cls-1" d="m6.98,50.18c-.3,0-.61-.12-.84-.35-.46-.46-.46-1.21,0-1.67l13.73-13.73c.46-.46,1.21-.46,1.67,0,.46.46.46,1.21,0,1.67l-13.73,13.73c-.23.23-.53.35-.84.35Z"/>
      </g>
      <g>
        <path class="cls-1" d="m20.71,81.42c-.3,0-.61-.12-.84-.35l-13.73-13.73c-.46-.46-.46-1.21,0-1.67.46-.46,1.21-.46,1.67,0l13.73,13.73c.46.46.46,1.21,0,1.67-.23.23-.53.35-.84.35Z"/>
        <path class="cls-1" d="m6.98,81.42c-.3,0-.61-.12-.84-.35-.46-.46-.46-1.21,0-1.67l13.73-13.73c.46-.46,1.21-.46,1.67,0,.46.46.46,1.21,0,1.67l-13.73,13.73c-.23.23-.53.35-.84.35Z"/>
      </g>
      <path class="cls-1" d="m42.49,51.6c-4.57,0-8.28-3.72-8.28-8.28s3.72-8.28,8.28-8.28,8.28,3.72,8.28,8.28-3.72,8.28-8.28,8.28Zm0-14.2c-3.26,0-5.92,2.65-5.92,5.92s2.65,5.92,5.92,5.92,5.92-2.65,5.92-5.92-2.65-5.92-5.92-5.92Z"/>
      <path class="cls-1" d="m71.36,81.9c-4.57,0-8.28-3.72-8.28-8.28s3.72-8.28,8.28-8.28,8.28,3.72,8.28,8.28-3.72,8.28-8.28,8.28Zm0-14.2c-3.26,0-5.92,2.65-5.92,5.92s2.65,5.92,5.92,5.92,5.92-2.65,5.92-5.92-2.65-5.92-5.92-5.92Z"/>
      <path class="cls-1" d="m43.91,20.36c-4.57,0-8.28-3.72-8.28-8.28s3.72-8.28,8.28-8.28,8.28,3.72,8.28,8.28-3.72,8.28-8.28,8.28Zm0-14.2c-3.26,0-5.92,2.65-5.92,5.92s2.65,5.92,5.92,5.92,5.92-2.65,5.92-5.92-2.65-5.92-5.92-5.92Z"/>
    </g>
  </g>
</svg>